M48
; DRILL file {KiCad (6.0.0-0)} date Sunday, May 08, 2022 at 09:10:09 PM
; FORMAT={-:-/ absolute / metric / decimal}
; #@! TF.CreationDate,2022-05-08T21:10:09-05:00
; #@! TF.GenerationSoftware,Kicad,Pcbnew,(6.0.0-0)
; #@! TF.FileFunction,Plated,1,2,PTH
FMAT,2
METRIC
; #@! TA.AperFunction,Plated,PTH,ViaDrill
T1C0.400
; #@! TA.AperFunction,Plated,PTH,ComponentDrill
T2C0.500
; #@! TA.AperFunction,Plated,PTH,ViaDrill
T3C0.600
; #@! TA.AperFunction,Plated,PTH,ComponentDrill
T4C0.800
; #@! TA.AperFunction,Plated,PTH,ComponentDrill
T5C0.900
; #@! TA.AperFunction,Plated,PTH,ComponentDrill
T6C1.000
; #@! TA.AperFunction,Plated,PTH,ComponentDrill
T7C1.200
%
G90
G05
T1
X55.37Y-116.71
X59.182Y-114.046
X66.33Y-128.88
X67.41Y-134.69
X67.68Y-115.03
X68.53Y-123.13
X72.656Y-122.33
X75.11Y-128.93
X77.18Y-132.63
X77.97Y-118.359
X78.073Y-127.266
X78.232Y-135.89
X79.248Y-127.508
X79.983Y-130.283
X83.175Y-129.173
X83.673Y-130.039
X83.82Y-135.89
X84.582Y-149.098
X84.79Y-131.3
X85.09Y-113.284
X85.094Y-114.304
X88.646Y-136.398
X89.666Y-132.33
X90.678Y-136.398
X92.71Y-136.398
X94.488Y-154.94
X96.012Y-150.114
X97.2Y-131.89
X98.552Y-145.288
X100.561Y-146.467
X100.93Y-129.23
X101.56Y-146.48
X101.6Y-136.652
X102.08Y-130.76
X102.616Y-151.13
X104.14Y-144.272
X104.394Y-138.43
X104.546Y-131.495
X104.902Y-149.86
X108.204Y-151.384
X108.966Y-101.092
X109.22Y-106.426
X109.22Y-116.078
X111.64Y-130.36
X111.76Y-145.288
X112.776Y-138.43
X113.792Y-110.236
T2
X74.93Y-147.066
T3
X86.355Y-132.23
X96.54Y-132.91
X105.3Y-135.17
X106.426Y-131.826
T4
X75.45Y-115.73
X75.45Y-123.35
X77.99Y-115.73
X77.99Y-123.35
X80.53Y-115.73
X80.53Y-123.35
X83.07Y-115.73
X83.07Y-123.35
T5
X105.96Y-116.49
X105.96Y-118.99
X105.96Y-121.49
X105.96Y-123.99
T6
X53.501Y-112.12
X53.501Y-114.66
X53.501Y-117.2
X53.501Y-119.74
X53.501Y-122.28
X53.501Y-124.82
X53.501Y-127.36
X53.501Y-129.9
X53.501Y-132.44
X58.3Y-102.23
X58.3Y-104.77
X58.31Y-109.85
X58.31Y-112.39
X60.84Y-102.23
X60.84Y-104.77
X60.85Y-109.85
X60.85Y-112.39
X63.38Y-102.23
X63.38Y-104.77
X63.39Y-109.85
X63.39Y-112.39
X65.92Y-102.23
X65.92Y-104.77
X65.93Y-109.85
X65.93Y-112.39
X68.46Y-102.23
X68.46Y-104.77
X68.47Y-109.85
X68.47Y-112.39
X69.44Y-130.5
X69.44Y-133.04
X71.0Y-102.23
X71.0Y-104.77
X71.01Y-109.85
X71.01Y-112.39
X71.645Y-120.995
X71.645Y-123.535
X71.645Y-126.075
X71.98Y-130.5
X71.98Y-133.04
X73.54Y-102.23
X73.54Y-104.77
X73.55Y-109.85
X73.55Y-112.39
X74.52Y-130.5
X74.52Y-133.04
X76.08Y-102.23
X76.08Y-104.77
X76.09Y-109.85
X76.09Y-112.39
X78.62Y-102.23
X78.62Y-104.77
X78.63Y-109.85
X78.63Y-112.39
X81.16Y-102.23
X81.16Y-104.77
X81.17Y-109.85
X81.17Y-112.39
X83.7Y-102.23
X83.7Y-104.77
X83.71Y-109.85
X83.71Y-112.39
X86.24Y-102.23
X86.24Y-104.77
X86.25Y-109.85
X86.25Y-112.39
X88.78Y-102.23
X88.78Y-104.77
X88.79Y-109.85
X88.79Y-112.39
X91.32Y-102.23
X91.32Y-104.77
X91.33Y-109.85
X91.33Y-112.39
X93.86Y-102.23
X93.86Y-104.77
X93.87Y-109.85
X93.87Y-112.39
X96.4Y-102.23
X96.4Y-104.77
X96.41Y-109.85
X96.41Y-112.39
X98.185Y-154.04
X98.368Y-121.0
X98.368Y-123.54
X98.368Y-126.08
X98.94Y-102.23
X98.94Y-104.77
X98.95Y-109.85
X98.95Y-112.39
X100.725Y-154.04
X101.48Y-102.23
X101.48Y-104.77
X101.49Y-109.85
X101.49Y-112.39
X103.265Y-154.04
X104.02Y-102.23
X104.02Y-104.77
X104.03Y-109.85
X104.03Y-112.39
X105.805Y-154.04
X106.56Y-102.23
X106.56Y-104.77
X106.57Y-109.85
X106.57Y-112.39
X108.085Y-127.34
X110.625Y-127.34
X111.252Y-107.95
X111.252Y-110.49
X111.252Y-113.03
X113.165Y-127.34
T7
X53.746Y-141.59
X58.746Y-141.59
X66.805Y-141.59
X71.805Y-141.59
X76.35Y-125.76
X79.863Y-141.59
X84.863Y-141.59
X92.922Y-141.59
X97.922Y-141.59
X101.75Y-125.76
X105.98Y-141.59
X110.98Y-141.59
T0
M30
