G04 #@! TF.GenerationSoftware,KiCad,Pcbnew,(6.0.0-0)*
G04 #@! TF.CreationDate,2022-05-08T21:10:07-05:00*
G04 #@! TF.ProjectId,ras_pi_supercap_ups,7261735f-7069-45f7-9375-706572636170,rev?*
G04 #@! TF.SameCoordinates,Original*
G04 #@! TF.FileFunction,Paste,Top*
G04 #@! TF.FilePolarity,Positive*
%FSLAX46Y46*%
G04 Gerber Fmt 4.6, Leading zero omitted, Abs format (unit mm)*
G04 Created by KiCad (PCBNEW (6.0.0-0)) date 2022-05-08 21:10:07*
%MOMM*%
%LPD*%
G01*
G04 APERTURE LIST*
G04 Aperture macros list*
%AMRoundRect*
0 Rectangle with rounded corners*
0 $1 Rounding radius*
0 $2 $3 $4 $5 $6 $7 $8 $9 X,Y pos of 4 corners*
0 Add a 4 corners polygon primitive as box body*
4,1,4,$2,$3,$4,$5,$6,$7,$8,$9,$2,$3,0*
0 Add four circle primitives for the rounded corners*
1,1,$1+$1,$2,$3*
1,1,$1+$1,$4,$5*
1,1,$1+$1,$6,$7*
1,1,$1+$1,$8,$9*
0 Add four rect primitives between the rounded corners*
20,1,$1+$1,$2,$3,$4,$5,0*
20,1,$1+$1,$4,$5,$6,$7,0*
20,1,$1+$1,$6,$7,$8,$9,0*
20,1,$1+$1,$8,$9,$2,$3,0*%
G04 Aperture macros list end*
%ADD10RoundRect,0.100000X0.100000X-0.637500X0.100000X0.637500X-0.100000X0.637500X-0.100000X-0.637500X0*%
%ADD11R,5.250000X4.550000*%
%ADD12R,1.100000X4.600000*%
%ADD13R,0.450000X0.600000*%
%ADD14RoundRect,0.150000X-0.150000X0.587500X-0.150000X-0.587500X0.150000X-0.587500X0.150000X0.587500X0*%
%ADD15RoundRect,0.250000X0.312500X0.625000X-0.312500X0.625000X-0.312500X-0.625000X0.312500X-0.625000X0*%
%ADD16RoundRect,0.250000X0.250000X0.475000X-0.250000X0.475000X-0.250000X-0.475000X0.250000X-0.475000X0*%
%ADD17RoundRect,0.250000X-0.262500X-0.450000X0.262500X-0.450000X0.262500X0.450000X-0.262500X0.450000X0*%
%ADD18RoundRect,0.250000X-0.250000X-0.475000X0.250000X-0.475000X0.250000X0.475000X-0.250000X0.475000X0*%
%ADD19RoundRect,0.250000X-0.450000X0.262500X-0.450000X-0.262500X0.450000X-0.262500X0.450000X0.262500X0*%
%ADD20R,2.500000X1.800000*%
%ADD21RoundRect,0.243750X0.456250X-0.243750X0.456250X0.243750X-0.456250X0.243750X-0.456250X-0.243750X0*%
%ADD22RoundRect,0.250000X0.262500X0.450000X-0.262500X0.450000X-0.262500X-0.450000X0.262500X-0.450000X0*%
%ADD23RoundRect,0.250000X-0.475000X0.250000X-0.475000X-0.250000X0.475000X-0.250000X0.475000X0.250000X0*%
%ADD24RoundRect,0.250000X0.450000X-0.262500X0.450000X0.262500X-0.450000X0.262500X-0.450000X-0.262500X0*%
%ADD25RoundRect,0.250000X0.375000X0.625000X-0.375000X0.625000X-0.375000X-0.625000X0.375000X-0.625000X0*%
G04 APERTURE END LIST*
D10*
X78101000Y-125947500D03*
X78751000Y-125947500D03*
X79401000Y-125947500D03*
X80051000Y-125947500D03*
X80701000Y-125947500D03*
X81351000Y-125947500D03*
X82001000Y-125947500D03*
X82651000Y-125947500D03*
X83301000Y-125947500D03*
X83951000Y-125947500D03*
X83951000Y-131672500D03*
X83301000Y-131672500D03*
X82651000Y-131672500D03*
X82001000Y-131672500D03*
X81351000Y-131672500D03*
X80701000Y-131672500D03*
X80051000Y-131672500D03*
X79401000Y-131672500D03*
X78751000Y-131672500D03*
X78101000Y-131672500D03*
D11*
X59155000Y-123010000D03*
X59155000Y-118160000D03*
X64705000Y-118160000D03*
X64705000Y-123010000D03*
D12*
X59390000Y-129735000D03*
X64470000Y-129735000D03*
D13*
X102230000Y-121470000D03*
X102230000Y-119370000D03*
D14*
X71420000Y-150700500D03*
X69520000Y-150700500D03*
X70470000Y-152575500D03*
D15*
X83112500Y-154740000D03*
X80187500Y-154740000D03*
D16*
X80350000Y-133730000D03*
X78450000Y-133730000D03*
D13*
X68610000Y-116200000D03*
X68610000Y-118300000D03*
D17*
X97385500Y-151130000D03*
X99210500Y-151130000D03*
D11*
X87595000Y-122110000D03*
X93145000Y-117260000D03*
X93145000Y-122110000D03*
X87595000Y-117260000D03*
D12*
X86970000Y-128835000D03*
X88670000Y-128835000D03*
X90370000Y-128835000D03*
X92070000Y-128835000D03*
X93770000Y-128835000D03*
D18*
X81930000Y-133730000D03*
X83830000Y-133730000D03*
D17*
X64257500Y-133690000D03*
X66082500Y-133690000D03*
D19*
X94700000Y-132337500D03*
X94700000Y-134162500D03*
X86580000Y-132387500D03*
X86580000Y-134212500D03*
D14*
X82600000Y-150700500D03*
X80700000Y-150700500D03*
X81650000Y-152575500D03*
D18*
X99710000Y-134870000D03*
X101610000Y-134870000D03*
D15*
X60752500Y-154740000D03*
X57827500Y-154740000D03*
D20*
X104390000Y-133270000D03*
X108390000Y-133270000D03*
D15*
X66342500Y-154740000D03*
X63417500Y-154740000D03*
D19*
X99290000Y-128697500D03*
X99290000Y-130522500D03*
D21*
X113970000Y-131837500D03*
X113970000Y-129962500D03*
D17*
X103647500Y-128360000D03*
X105472500Y-128360000D03*
D15*
X77522500Y-154740000D03*
X74597500Y-154740000D03*
D22*
X61342500Y-133690000D03*
X59517500Y-133690000D03*
D14*
X60240000Y-150700500D03*
X58340000Y-150700500D03*
X59290000Y-152575500D03*
D22*
X109112500Y-130450000D03*
X107287500Y-130450000D03*
D23*
X88620000Y-132330000D03*
X88620000Y-134230000D03*
D16*
X72920000Y-115730000D03*
X71020000Y-115730000D03*
D14*
X77010000Y-150700500D03*
X75110000Y-150700500D03*
X76060000Y-152575500D03*
D22*
X105502500Y-130450000D03*
X103677500Y-130450000D03*
D17*
X97385500Y-149098000D03*
X99210500Y-149098000D03*
D23*
X90670000Y-132320000D03*
X90670000Y-134220000D03*
D15*
X71932500Y-154740000D03*
X69007500Y-154740000D03*
D24*
X111510000Y-134212500D03*
X111510000Y-132387500D03*
D14*
X65830000Y-150700500D03*
X63930000Y-150700500D03*
X64880000Y-152575500D03*
D21*
X113970000Y-135427500D03*
X113970000Y-133552500D03*
D24*
X97080000Y-130522500D03*
X97080000Y-128697500D03*
D23*
X92690000Y-132330000D03*
X92690000Y-134230000D03*
D25*
X101780000Y-132550000D03*
X98980000Y-132550000D03*
D20*
X97680000Y-116940000D03*
X101680000Y-116940000D03*
M02*
