M48
; DRILL file {KiCad (7.0.0-0)} date Monday, April 10, 2023 at 07:10:16 PM
; FORMAT={-:-/ absolute / inch / decimal}
; #@! TF.CreationDate,2023-04-10T19:10:16-05:00
; #@! TF.GenerationSoftware,Kicad,Pcbnew,(7.0.0-0)
; #@! TF.FileFunction,Plated,1,2,PTH
FMAT,2
INCH
; #@! TA.AperFunction,Plated,PTH,ViaDrill
T1C0.0157
; #@! TA.AperFunction,Plated,PTH,ViaDrill
T2C0.0236
; #@! TA.AperFunction,Plated,PTH,ComponentDrill
T3C0.0315
; #@! TA.AperFunction,Plated,PTH,ComponentDrill
T4C0.0354
; #@! TA.AperFunction,Plated,PTH,ComponentDrill
T5C0.0394
%
G90
G05
T1
X2.0157Y-4.2244
X2.0761Y-4.3546
X2.1396Y-4.3315
X2.1747Y-4.2288
X2.2244Y-4.7697
X2.2343Y-4.3789
X2.3346Y-4.2402
X2.373Y-4.7717
X2.4723Y-5.2927
X2.4921Y-5.3465
X2.502Y-4.5876
X2.5079Y-4.7451
X2.5197Y-4.9487
X2.5581Y-5.2565
X2.5787Y-4.3543
X2.62Y-4.89
X2.6459Y-5.4002
X2.6467Y-5.2399
X2.689Y-4.2677
X2.689Y-4.4173
X2.7126Y-4.5512
X2.7165Y-4.7913
X2.7512Y-5.1073
X2.7598Y-5.1457
X2.7638Y-4.8465
X2.7795Y-4.9606
X2.7953Y-4.4567
X2.815Y-4.563
X2.8253Y-4.9385
X2.8425Y-4.7874
X2.8756Y-5.1312
X2.8937Y-4.9803
X2.9173Y-4.8898
X2.9311Y-4.5015
X2.95Y-4.61
X2.9724Y-4.4989
X3.0Y-5.2244
X3.0113Y-4.5047
X3.0157Y-5.0984
X3.0157Y-5.4094
X3.0197Y-4.9094
X3.0439Y-5.1421
X3.0512Y-4.5
X3.0787Y-4.6693
X3.0866Y-4.3858
X3.1012Y-4.4694
X3.1181Y-4.5079
X3.1535Y-5.4134
X3.1575Y-4.8307
X3.2283Y-4.4055
X3.24Y-5.43
X3.2441Y-4.9094
X3.2777Y-4.4015
X3.3346Y-5.4685
X3.34Y-5.88
X3.37Y-5.85
X3.41Y-5.83
X3.4331Y-4.8189
X3.4528Y-5.2717
X3.5079Y-5.3346
X3.5472Y-4.2362
X3.5591Y-4.5157
X3.5681Y-5.0047
X3.6024Y-4.7874
X3.6181Y-5.0236
X3.685Y-4.4449
X3.7276Y-4.9315
X3.7732Y-5.3185
X3.9016Y-5.3346
X4.0866Y-5.1457
X4.1575Y-5.1378
X4.1748Y-5.0909
T2
X3.4646Y-4.2244
X3.5079Y-5.3976
X3.67Y-4.63
X3.7791Y-4.7256
X3.8323Y-4.5504
T4
X4.1717Y-4.6968
X4.1717Y-4.7952
X4.1717Y-4.8936
X4.1717Y-4.992
T5
X2.1063Y-4.4142
X2.1063Y-4.5142
X2.1063Y-4.6142
X2.1063Y-4.7142
X2.1063Y-4.8142
X2.1063Y-5.0142
X2.1063Y-5.1142
X2.1063Y-5.2142
X2.1191Y-5.6457
X2.2063Y-4.9142
X2.2063Y-5.0142
X2.2063Y-5.1142
X2.2063Y-5.2142
X2.2953Y-4.0248
X2.2953Y-4.1248
X2.3159Y-5.6457
X2.3953Y-4.0248
X2.3953Y-4.1248
X2.4953Y-4.0248
X2.4953Y-4.1248
X2.5953Y-4.0248
X2.5953Y-4.1248
X2.6332Y-5.6457
X2.6953Y-4.0248
X2.6953Y-4.1248
X2.7953Y-4.0248
X2.7953Y-4.1248
X2.83Y-5.6457
X2.8953Y-4.0248
X2.8953Y-4.1248
X2.9953Y-4.0248
X2.9953Y-4.1248
X3.0953Y-4.0248
X3.0953Y-4.1248
X3.1473Y-5.6457
X3.1953Y-4.0248
X3.1953Y-4.1248
X3.2953Y-4.0248
X3.2953Y-4.1248
X3.3255Y-4.615
X3.3255Y-4.715
X3.3255Y-4.815
X3.3441Y-5.6457
X3.3953Y-4.0248
X3.3953Y-4.1248
X3.4953Y-4.0248
X3.4953Y-4.1248
X3.5953Y-4.0248
X3.5953Y-4.1248
X3.6614Y-5.6457
X3.6953Y-4.0248
X3.6953Y-4.1248
X3.7953Y-4.0248
X3.7953Y-4.1248
X3.8582Y-5.6457
X3.8656Y-6.0646
X3.8953Y-4.0248
X3.8953Y-4.1248
X3.9656Y-6.0646
X3.9953Y-4.0248
X3.9953Y-4.1248
X4.0656Y-6.0646
X4.0953Y-4.0248
X4.0953Y-4.1248
X4.1656Y-6.0646
X4.1755Y-5.6457
X4.1953Y-4.0248
X4.1953Y-4.1248
X4.3724Y-5.6457
T3
G00X4.128Y-4.4648
M15
G01X4.128Y-4.3624
M16
G05
G00X4.2894Y-4.2246
M15
G01X4.2028Y-4.2246
M16
G05
G00X4.3563Y-4.4569
M15
G01X4.3563Y-4.3703
M16
G05
T0
M30
