%TF.GenerationSoftware,KiCad,Pcbnew,(7.0.0-0)*%
%TF.CreationDate,2023-04-09T21:16:23-05:00*%
%TF.ProjectId,ras_pi_supercap_ups,7261735f-7069-45f7-9375-706572636170,rev?*%
%TF.SameCoordinates,Original*%
%TF.FileFunction,Paste,Top*%
%TF.FilePolarity,Positive*%
%FSLAX46Y46*%
G04 Gerber Fmt 4.6, Leading zero omitted, Abs format (unit mm)*
G04 Created by KiCad (PCBNEW (7.0.0-0)) date 2023-04-09 21:16:23*
%MOMM*%
%LPD*%
G01*
G04 APERTURE LIST*
G04 Aperture macros list*
%AMRoundRect*
0 Rectangle with rounded corners*
0 $1 Rounding radius*
0 $2 $3 $4 $5 $6 $7 $8 $9 X,Y pos of 4 corners*
0 Add a 4 corners polygon primitive as box body*
4,1,4,$2,$3,$4,$5,$6,$7,$8,$9,$2,$3,0*
0 Add four circle primitives for the rounded corners*
1,1,$1+$1,$2,$3*
1,1,$1+$1,$4,$5*
1,1,$1+$1,$6,$7*
1,1,$1+$1,$8,$9*
0 Add four rect primitives between the rounded corners*
20,1,$1+$1,$2,$3,$4,$5,0*
20,1,$1+$1,$4,$5,$6,$7,0*
20,1,$1+$1,$6,$7,$8,$9,0*
20,1,$1+$1,$8,$9,$2,$3,0*%
G04 Aperture macros list end*
%ADD10RoundRect,0.243750X0.243750X0.456250X-0.243750X0.456250X-0.243750X-0.456250X0.243750X-0.456250X0*%
%ADD11RoundRect,0.112500X-0.112500X0.187500X-0.112500X-0.187500X0.112500X-0.187500X0.112500X0.187500X0*%
%ADD12RoundRect,0.150000X-0.150000X0.587500X-0.150000X-0.587500X0.150000X-0.587500X0.150000X0.587500X0*%
%ADD13RoundRect,0.250000X0.625000X-0.312500X0.625000X0.312500X-0.625000X0.312500X-0.625000X-0.312500X0*%
%ADD14RoundRect,0.250000X0.475000X-0.250000X0.475000X0.250000X-0.475000X0.250000X-0.475000X-0.250000X0*%
%ADD15RoundRect,0.250000X-0.475000X0.250000X-0.475000X-0.250000X0.475000X-0.250000X0.475000X0.250000X0*%
%ADD16RoundRect,0.250000X-0.450000X0.262500X-0.450000X-0.262500X0.450000X-0.262500X0.450000X0.262500X0*%
%ADD17R,2.500000X2.000000*%
%ADD18R,0.750000X1.000000*%
%ADD19RoundRect,0.250000X0.250000X0.475000X-0.250000X0.475000X-0.250000X-0.475000X0.250000X-0.475000X0*%
%ADD20RoundRect,0.250000X-0.262500X-0.450000X0.262500X-0.450000X0.262500X0.450000X-0.262500X0.450000X0*%
%ADD21RoundRect,0.250000X-0.250000X-0.475000X0.250000X-0.475000X0.250000X0.475000X-0.250000X0.475000X0*%
%ADD22RoundRect,0.250000X0.450000X-0.262500X0.450000X0.262500X-0.450000X0.262500X-0.450000X-0.262500X0*%
%ADD23R,4.000000X3.400000*%
%ADD24RoundRect,0.250000X1.000000X0.650000X-1.000000X0.650000X-1.000000X-0.650000X1.000000X-0.650000X0*%
%ADD25RoundRect,0.250000X0.262500X0.450000X-0.262500X0.450000X-0.262500X-0.450000X0.262500X-0.450000X0*%
%ADD26RoundRect,0.100000X0.100000X-0.637500X0.100000X0.637500X-0.100000X0.637500X-0.100000X-0.637500X0*%
%ADD27RoundRect,0.250000X-1.000000X-0.650000X1.000000X-0.650000X1.000000X0.650000X-1.000000X0.650000X0*%
%ADD28RoundRect,0.042000X0.943000X0.258000X-0.943000X0.258000X-0.943000X-0.258000X0.943000X-0.258000X0*%
%ADD29RoundRect,0.250000X0.625000X-0.375000X0.625000X0.375000X-0.625000X0.375000X-0.625000X-0.375000X0*%
%ADD30R,2.000000X1.500000*%
%ADD31R,2.000000X3.800000*%
%ADD32RoundRect,0.250000X-0.650000X1.000000X-0.650000X-1.000000X0.650000X-1.000000X0.650000X1.000000X0*%
G04 APERTURE END LIST*
D10*
%TO.C,D5*%
X113951595Y-130302000D03*
X112076595Y-130302000D03*
%TD*%
D11*
%TO.C,D1*%
X91100000Y-108170000D03*
X91100000Y-110270000D03*
%TD*%
D12*
%TO.C,U3*%
X98540000Y-134082500D03*
X96640000Y-134082500D03*
X97590000Y-135957500D03*
%TD*%
D13*
%TO.C,R5*%
X104010000Y-132182500D03*
X104010000Y-129257500D03*
%TD*%
D14*
%TO.C,C18*%
X82326000Y-129829500D03*
X82326000Y-127929500D03*
%TD*%
D15*
%TO.C,C13*%
X61400000Y-111370000D03*
X61400000Y-113270000D03*
%TD*%
D11*
%TO.C,D7*%
X59300000Y-109450000D03*
X59300000Y-111550000D03*
%TD*%
D16*
%TO.C,R18*%
X75200000Y-111387500D03*
X75200000Y-113212500D03*
%TD*%
D17*
%TO.C,L1*%
X65328999Y-131259499D03*
X65328999Y-135659499D03*
%TD*%
D15*
%TO.C,C11*%
X66915000Y-111350000D03*
X66915000Y-113250000D03*
%TD*%
D18*
%TO.C,SW1*%
X66224999Y-121617999D03*
X66224999Y-115617999D03*
X69974999Y-121617999D03*
X69974999Y-115617999D03*
%TD*%
D19*
%TO.C,C19*%
X76336000Y-126038000D03*
X74436000Y-126038000D03*
%TD*%
D20*
%TO.C,R15*%
X107437500Y-130257000D03*
X109262500Y-130257000D03*
%TD*%
D21*
%TO.C,C9*%
X81525332Y-126038000D03*
X83425332Y-126038000D03*
%TD*%
D14*
%TO.C,C17*%
X71716000Y-132244500D03*
X71716000Y-130344500D03*
%TD*%
D12*
%TO.C,U1*%
X105540000Y-134082500D03*
X103640000Y-134082500D03*
X104590000Y-135957500D03*
%TD*%
D22*
%TO.C,R20*%
X66915000Y-109612500D03*
X66915000Y-107787500D03*
%TD*%
D23*
%TO.C,R4*%
X100019999Y-118459999D03*
X90019999Y-118459999D03*
%TD*%
D13*
%TO.C,R9*%
X91170000Y-132222500D03*
X91170000Y-129297500D03*
%TD*%
D22*
%TO.C,R23*%
X84366000Y-129792000D03*
X84366000Y-127967000D03*
%TD*%
D24*
%TO.C,D4*%
X86806000Y-136144000D03*
X82806000Y-136144000D03*
%TD*%
D15*
%TO.C,C7*%
X89154000Y-111826000D03*
X89154000Y-113726000D03*
%TD*%
D16*
%TO.C,R13*%
X64172500Y-107787500D03*
X64172500Y-109612500D03*
%TD*%
D13*
%TO.C,R8*%
X94380000Y-132222500D03*
X94380000Y-129297500D03*
%TD*%
D25*
%TO.C,R21*%
X86912500Y-126038000D03*
X85087500Y-126038000D03*
%TD*%
D15*
%TO.C,C16*%
X82326000Y-131619500D03*
X82326000Y-133519500D03*
%TD*%
%TO.C,C14*%
X86406000Y-131619500D03*
X86406000Y-133519500D03*
%TD*%
D16*
%TO.C,R1*%
X69657500Y-107787500D03*
X69657500Y-109612500D03*
%TD*%
D10*
%TO.C,D6*%
X113967500Y-132334000D03*
X112092500Y-132334000D03*
%TD*%
D22*
%TO.C,R25*%
X61116000Y-128572000D03*
X61116000Y-126747000D03*
%TD*%
D14*
%TO.C,C22*%
X71716000Y-135879500D03*
X71716000Y-133979500D03*
%TD*%
D20*
%TO.C,R16*%
X107437500Y-132289000D03*
X109262500Y-132289000D03*
%TD*%
D15*
%TO.C,C8*%
X78066000Y-107750000D03*
X78066000Y-109650000D03*
%TD*%
D26*
%TO.C,U7*%
X73275000Y-121480500D03*
X73925000Y-121480500D03*
X74575000Y-121480500D03*
X75225000Y-121480500D03*
X75875000Y-121480500D03*
X76525000Y-121480500D03*
X77175000Y-121480500D03*
X77825000Y-121480500D03*
X78475000Y-121480500D03*
X79125000Y-121480500D03*
X79125000Y-115755500D03*
X78475000Y-115755500D03*
X77825000Y-115755500D03*
X77175000Y-115755500D03*
X76525000Y-115755500D03*
X75875000Y-115755500D03*
X75225000Y-115755500D03*
X74575000Y-115755500D03*
X73925000Y-115755500D03*
X73275000Y-115755500D03*
%TD*%
D20*
%TO.C,R17*%
X107395000Y-136398000D03*
X109220000Y-136398000D03*
%TD*%
D13*
%TO.C,R6*%
X100800000Y-132182500D03*
X100800000Y-129257500D03*
%TD*%
D27*
%TO.C,D10*%
X74911000Y-134949500D03*
X78911000Y-134949500D03*
%TD*%
D14*
%TO.C,C20*%
X69572000Y-135879500D03*
X69572000Y-133979500D03*
%TD*%
D10*
%TO.C,D8*%
X113967500Y-136398000D03*
X112092500Y-136398000D03*
%TD*%
D28*
%TO.C,U8*%
X79126000Y-132007000D03*
X79126000Y-130737000D03*
X79126000Y-129467000D03*
X79126000Y-128197000D03*
X74186000Y-128197000D03*
X74186000Y-129467000D03*
X74186000Y-130737000D03*
X74186000Y-132007000D03*
%TD*%
D12*
%TO.C,U5*%
X91540000Y-134082500D03*
X89640000Y-134082500D03*
X90590000Y-135957500D03*
%TD*%
D16*
%TO.C,R11*%
X72400000Y-107787500D03*
X72400000Y-109612500D03*
%TD*%
%TO.C,R26*%
X63230000Y-126747000D03*
X63230000Y-128572000D03*
%TD*%
D22*
%TO.C,R24*%
X69572000Y-128572000D03*
X69572000Y-126747000D03*
%TD*%
D19*
%TO.C,C10*%
X79880666Y-126038000D03*
X77980666Y-126038000D03*
%TD*%
D22*
%TO.C,R22*%
X86406000Y-129792000D03*
X86406000Y-127967000D03*
%TD*%
D14*
%TO.C,C21*%
X71716000Y-128609500D03*
X71716000Y-126709500D03*
%TD*%
D12*
%TO.C,U2*%
X102040000Y-134082500D03*
X100140000Y-134082500D03*
X101090000Y-135957500D03*
%TD*%
D16*
%TO.C,R12*%
X72400000Y-111387500D03*
X72400000Y-113212500D03*
%TD*%
D22*
%TO.C,R19*%
X75200000Y-109612500D03*
X75200000Y-107787500D03*
%TD*%
D29*
%TO.C,F1*%
X100400000Y-111300000D03*
X100400000Y-108500000D03*
%TD*%
D16*
%TO.C,R14*%
X64157500Y-111387500D03*
X64157500Y-113212500D03*
%TD*%
D13*
%TO.C,R7*%
X97590000Y-132182500D03*
X97590000Y-129257500D03*
%TD*%
D20*
%TO.C,R10*%
X107437500Y-134321000D03*
X109262500Y-134321000D03*
%TD*%
D12*
%TO.C,U4*%
X95040000Y-134082500D03*
X93140000Y-134082500D03*
X94090000Y-135957500D03*
%TD*%
D10*
%TO.C,D3*%
X113967500Y-134366000D03*
X112092500Y-134366000D03*
%TD*%
D30*
%TO.C,U6*%
X86715999Y-113297999D03*
X86715999Y-110997999D03*
D31*
X80415999Y-110997999D03*
D30*
X86715999Y-108697999D03*
%TD*%
D22*
%TO.C,R2*%
X69672500Y-113212500D03*
X69672500Y-111387500D03*
%TD*%
D23*
%TO.C,R3*%
X100019999Y-124629999D03*
X90019999Y-124629999D03*
%TD*%
D15*
%TO.C,C15*%
X84366000Y-131619500D03*
X84366000Y-133519500D03*
%TD*%
D29*
%TO.C,F2*%
X88646000Y-132078000D03*
X88646000Y-129278000D03*
%TD*%
D14*
%TO.C,C12*%
X61400000Y-109670000D03*
X61400000Y-107770000D03*
%TD*%
D22*
%TO.C,R28*%
X65344000Y-128572000D03*
X65344000Y-126747000D03*
%TD*%
D14*
%TO.C,C6*%
X89122000Y-110252000D03*
X89122000Y-108352000D03*
%TD*%
D27*
%TO.C,D2*%
X93665000Y-109370000D03*
X97665000Y-109370000D03*
%TD*%
D22*
%TO.C,R27*%
X67458000Y-128572000D03*
X67458000Y-126747000D03*
%TD*%
D32*
%TO.C,D9*%
X62050000Y-116500000D03*
X62050000Y-120500000D03*
%TD*%
M02*
