G04 #@! TF.GenerationSoftware,KiCad,Pcbnew,(6.0.5-0)*
G04 #@! TF.CreationDate,2022-07-04T19:17:30-05:00*
G04 #@! TF.ProjectId,ras_pi_supercap_ups,7261735f-7069-45f7-9375-706572636170,rev?*
G04 #@! TF.SameCoordinates,Original*
G04 #@! TF.FileFunction,Legend,Top*
G04 #@! TF.FilePolarity,Positive*
%FSLAX46Y46*%
G04 Gerber Fmt 4.6, Leading zero omitted, Abs format (unit mm)*
G04 Created by KiCad (PCBNEW (6.0.5-0)) date 2022-07-04 19:17:30*
%MOMM*%
%LPD*%
G01*
G04 APERTURE LIST*
G04 Aperture macros list*
%AMRoundRect*
0 Rectangle with rounded corners*
0 $1 Rounding radius*
0 $2 $3 $4 $5 $6 $7 $8 $9 X,Y pos of 4 corners*
0 Add a 4 corners polygon primitive as box body*
4,1,4,$2,$3,$4,$5,$6,$7,$8,$9,$2,$3,0*
0 Add four circle primitives for the rounded corners*
1,1,$1+$1,$2,$3*
1,1,$1+$1,$4,$5*
1,1,$1+$1,$6,$7*
1,1,$1+$1,$8,$9*
0 Add four rect primitives between the rounded corners*
20,1,$1+$1,$2,$3,$4,$5,0*
20,1,$1+$1,$4,$5,$6,$7,0*
20,1,$1+$1,$6,$7,$8,$9,0*
20,1,$1+$1,$8,$9,$2,$3,0*%
G04 Aperture macros list end*
%ADD10C,0.150000*%
%ADD11C,0.200000*%
%ADD12C,0.100000*%
%ADD13C,0.300000*%
%ADD14C,0.500000*%
%ADD15C,0.325000*%
%ADD16C,0.120000*%
%ADD17C,0.127000*%
%ADD18RoundRect,0.243750X0.243750X0.456250X-0.243750X0.456250X-0.243750X-0.456250X0.243750X-0.456250X0*%
%ADD19R,0.450000X0.600000*%
%ADD20RoundRect,0.150000X-0.150000X0.587500X-0.150000X-0.587500X0.150000X-0.587500X0.150000X0.587500X0*%
%ADD21RoundRect,0.250000X0.625000X-0.312500X0.625000X0.312500X-0.625000X0.312500X-0.625000X-0.312500X0*%
%ADD22R,2.000000X2.000000*%
%ADD23C,2.000000*%
%ADD24RoundRect,0.250000X0.475000X-0.250000X0.475000X0.250000X-0.475000X0.250000X-0.475000X-0.250000X0*%
%ADD25RoundRect,0.250000X-0.475000X0.250000X-0.475000X-0.250000X0.475000X-0.250000X0.475000X0.250000X0*%
%ADD26R,1.408000X1.408000*%
%ADD27C,1.408000*%
%ADD28C,2.700000*%
%ADD29RoundRect,0.250000X-0.450000X0.262500X-0.450000X-0.262500X0.450000X-0.262500X0.450000X0.262500X0*%
%ADD30R,2.500000X2.000000*%
%ADD31R,0.750000X1.000000*%
%ADD32RoundRect,0.250000X0.250000X0.475000X-0.250000X0.475000X-0.250000X-0.475000X0.250000X-0.475000X0*%
%ADD33RoundRect,0.250000X-0.262500X-0.450000X0.262500X-0.450000X0.262500X0.450000X-0.262500X0.450000X0*%
%ADD34R,1.700000X1.700000*%
%ADD35O,1.700000X1.700000*%
%ADD36RoundRect,0.250000X-0.250000X-0.475000X0.250000X-0.475000X0.250000X0.475000X-0.250000X0.475000X0*%
%ADD37RoundRect,0.250000X0.450000X-0.262500X0.450000X0.262500X-0.450000X0.262500X-0.450000X-0.262500X0*%
%ADD38R,4.000000X3.400000*%
%ADD39R,2.500000X1.800000*%
%ADD40RoundRect,0.250000X0.262500X0.450000X-0.262500X0.450000X-0.262500X-0.450000X0.262500X-0.450000X0*%
%ADD41RoundRect,0.100000X0.100000X-0.637500X0.100000X0.637500X-0.100000X0.637500X-0.100000X-0.637500X0*%
%ADD42RoundRect,0.042000X0.943000X0.258000X-0.943000X0.258000X-0.943000X-0.258000X0.943000X-0.258000X0*%
%ADD43RoundRect,0.250000X0.625000X-0.375000X0.625000X0.375000X-0.625000X0.375000X-0.625000X-0.375000X0*%
%ADD44R,2.000000X1.500000*%
%ADD45R,2.000000X3.800000*%
%ADD46R,1.800000X4.400000*%
%ADD47O,1.800000X4.000000*%
%ADD48O,4.000000X1.800000*%
G04 APERTURE END LIST*
D10*
X55060000Y-134059968D02*
X59967000Y-134059968D01*
X59967000Y-134059968D02*
X59967000Y-123280031D01*
X59967000Y-123280031D02*
X55060000Y-123280031D01*
X55060000Y-123280031D02*
X55060000Y-134059968D01*
X81868000Y-118480000D02*
X81868000Y-123814000D01*
X59600000Y-106100000D02*
X59600000Y-103500000D01*
X56500000Y-150460000D02*
X94200000Y-150460000D01*
X94200000Y-150460000D02*
X94200000Y-155306000D01*
X94200000Y-155306000D02*
X56500000Y-155306000D01*
X56500000Y-155306000D02*
X56500000Y-150460000D01*
D11*
X107900000Y-100900000D02*
X56900000Y-100900000D01*
X56900000Y-100900000D02*
X56900000Y-106100000D01*
X56900000Y-106100000D02*
X107900000Y-106100000D01*
X107900000Y-106100000D02*
X107900000Y-100900000D01*
D10*
X87168000Y-121114000D02*
X85266000Y-121114000D01*
X56232000Y-150206000D02*
X94500000Y-150206000D01*
X94500000Y-150206000D02*
X94500000Y-155594000D01*
X94500000Y-155594000D02*
X56232000Y-155594000D01*
X56232000Y-155594000D02*
X56232000Y-150206000D01*
X84374000Y-115780000D02*
X87168000Y-115780000D01*
X56900000Y-103500000D02*
X59600000Y-103500000D01*
X84662000Y-118480000D02*
X81868000Y-118480000D01*
X102100000Y-155400000D02*
X108400000Y-155400000D01*
X108400000Y-155400000D02*
X108400000Y-151200000D01*
X108400000Y-151200000D02*
X102100000Y-151200000D01*
X102100000Y-151200000D02*
X102100000Y-155400000D01*
X81868000Y-123814000D02*
X84662000Y-123814000D01*
X95650000Y-155400000D02*
X101950000Y-155400000D01*
X101950000Y-155400000D02*
X101950000Y-151200000D01*
X101950000Y-151200000D02*
X95650000Y-151200000D01*
X95650000Y-151200000D02*
X95650000Y-155400000D01*
X87168000Y-115780000D02*
X87168000Y-121114000D01*
X59523000Y-112768000D02*
X55477000Y-112768000D01*
X55477000Y-112768000D02*
X55477000Y-122468000D01*
X55477000Y-122468000D02*
X59523000Y-122468000D01*
X59523000Y-122468000D02*
X59523000Y-112768000D01*
X59777000Y-112500000D02*
X55189000Y-112500000D01*
X55189000Y-112500000D02*
X55189000Y-122768000D01*
X55189000Y-122768000D02*
X59777000Y-122768000D01*
X59777000Y-122768000D02*
X59777000Y-112500000D01*
D12*
X107716666Y-119550000D02*
X107016666Y-119550000D01*
X107716666Y-119150000D01*
X107016666Y-119150000D01*
X107650000Y-118416666D02*
X107683333Y-118450000D01*
X107716666Y-118550000D01*
X107716666Y-118616666D01*
X107683333Y-118716666D01*
X107616666Y-118783333D01*
X107550000Y-118816666D01*
X107416666Y-118850000D01*
X107316666Y-118850000D01*
X107183333Y-118816666D01*
X107116666Y-118783333D01*
X107050000Y-118716666D01*
X107016666Y-118616666D01*
X107016666Y-118550000D01*
X107050000Y-118450000D01*
X107083333Y-118416666D01*
D10*
X112523571Y-114490476D02*
X112571190Y-114347619D01*
X112618809Y-114300000D01*
X112714047Y-114252380D01*
X112856904Y-114252380D01*
X112952142Y-114300000D01*
X112999761Y-114347619D01*
X113047380Y-114442857D01*
X113047380Y-114823809D01*
X112047380Y-114823809D01*
X112047380Y-114490476D01*
X112095000Y-114395238D01*
X112142619Y-114347619D01*
X112237857Y-114300000D01*
X112333095Y-114300000D01*
X112428333Y-114347619D01*
X112475952Y-114395238D01*
X112523571Y-114490476D01*
X112523571Y-114823809D01*
X113047380Y-113395238D02*
X112523571Y-113395238D01*
X112428333Y-113442857D01*
X112380714Y-113538095D01*
X112380714Y-113728571D01*
X112428333Y-113823809D01*
X112999761Y-113395238D02*
X113047380Y-113490476D01*
X113047380Y-113728571D01*
X112999761Y-113823809D01*
X112904523Y-113871428D01*
X112809285Y-113871428D01*
X112714047Y-113823809D01*
X112666428Y-113728571D01*
X112666428Y-113490476D01*
X112618809Y-113395238D01*
X113047380Y-112919047D02*
X112380714Y-112919047D01*
X112571190Y-112919047D02*
X112475952Y-112871428D01*
X112428333Y-112823809D01*
X112380714Y-112728571D01*
X112380714Y-112633333D01*
X113047380Y-112300000D02*
X112380714Y-112300000D01*
X112571190Y-112300000D02*
X112475952Y-112252380D01*
X112428333Y-112204761D01*
X112380714Y-112109523D01*
X112380714Y-112014285D01*
X112999761Y-111300000D02*
X113047380Y-111395238D01*
X113047380Y-111585714D01*
X112999761Y-111680952D01*
X112904523Y-111728571D01*
X112523571Y-111728571D01*
X112428333Y-111680952D01*
X112380714Y-111585714D01*
X112380714Y-111395238D01*
X112428333Y-111300000D01*
X112523571Y-111252380D01*
X112618809Y-111252380D01*
X112714047Y-111728571D01*
X113047380Y-110680952D02*
X112999761Y-110776190D01*
X112904523Y-110823809D01*
X112047380Y-110823809D01*
X113657380Y-113942857D02*
X114371666Y-113942857D01*
X114514523Y-113990476D01*
X114609761Y-114085714D01*
X114657380Y-114228571D01*
X114657380Y-114323809D01*
X114657380Y-113038095D02*
X114133571Y-113038095D01*
X114038333Y-113085714D01*
X113990714Y-113180952D01*
X113990714Y-113371428D01*
X114038333Y-113466666D01*
X114609761Y-113038095D02*
X114657380Y-113133333D01*
X114657380Y-113371428D01*
X114609761Y-113466666D01*
X114514523Y-113514285D01*
X114419285Y-113514285D01*
X114324047Y-113466666D01*
X114276428Y-113371428D01*
X114276428Y-113133333D01*
X114228809Y-113038095D01*
X114609761Y-112133333D02*
X114657380Y-112228571D01*
X114657380Y-112419047D01*
X114609761Y-112514285D01*
X114562142Y-112561904D01*
X114466904Y-112609523D01*
X114181190Y-112609523D01*
X114085952Y-112561904D01*
X114038333Y-112514285D01*
X113990714Y-112419047D01*
X113990714Y-112228571D01*
X114038333Y-112133333D01*
X114657380Y-111704761D02*
X113657380Y-111704761D01*
X114276428Y-111609523D02*
X114657380Y-111323809D01*
X113990714Y-111323809D02*
X114371666Y-111704761D01*
D13*
X94157142Y-115378571D02*
X94157142Y-113878571D01*
X94157142Y-114592857D02*
X95014285Y-114592857D01*
X95014285Y-115378571D02*
X95014285Y-113878571D01*
X96014285Y-113878571D02*
X96300000Y-113878571D01*
X96442857Y-113950000D01*
X96585714Y-114092857D01*
X96657142Y-114378571D01*
X96657142Y-114878571D01*
X96585714Y-115164285D01*
X96442857Y-115307142D01*
X96300000Y-115378571D01*
X96014285Y-115378571D01*
X95871428Y-115307142D01*
X95728571Y-115164285D01*
X95657142Y-114878571D01*
X95657142Y-114378571D01*
X95728571Y-114092857D01*
X95871428Y-113950000D01*
X96014285Y-113878571D01*
X97085714Y-113878571D02*
X97942857Y-113878571D01*
X97514285Y-115378571D02*
X97514285Y-113878571D01*
X98442857Y-115235714D02*
X98514285Y-115307142D01*
X98442857Y-115378571D01*
X98371428Y-115307142D01*
X98442857Y-115235714D01*
X98442857Y-115378571D01*
X98442857Y-114807142D02*
X98371428Y-113950000D01*
X98442857Y-113878571D01*
X98514285Y-113950000D01*
X98442857Y-114807142D01*
X98442857Y-113878571D01*
D10*
X85761904Y-151780714D02*
X86000000Y-152447380D01*
X86238095Y-151780714D01*
X87142857Y-152447380D02*
X86571428Y-152447380D01*
X86857142Y-152447380D02*
X86857142Y-151447380D01*
X86761904Y-151590238D01*
X86666666Y-151685476D01*
X86571428Y-151733095D01*
X87571428Y-152352142D02*
X87619047Y-152399761D01*
X87571428Y-152447380D01*
X87523809Y-152399761D01*
X87571428Y-152352142D01*
X87571428Y-152447380D01*
X88238095Y-151447380D02*
X88333333Y-151447380D01*
X88428571Y-151495000D01*
X88476190Y-151542619D01*
X88523809Y-151637857D01*
X88571428Y-151828333D01*
X88571428Y-152066428D01*
X88523809Y-152256904D01*
X88476190Y-152352142D01*
X88428571Y-152399761D01*
X88333333Y-152447380D01*
X88238095Y-152447380D01*
X88142857Y-152399761D01*
X88095238Y-152352142D01*
X88047619Y-152256904D01*
X88000000Y-152066428D01*
X88000000Y-151828333D01*
X88047619Y-151637857D01*
X88095238Y-151542619D01*
X88142857Y-151495000D01*
X88238095Y-151447380D01*
X89619047Y-151780714D02*
X90000000Y-151780714D01*
X89761904Y-152447380D02*
X89761904Y-151590238D01*
X89809523Y-151495000D01*
X89904761Y-151447380D01*
X90000000Y-151447380D01*
X90476190Y-152447380D02*
X90380952Y-152399761D01*
X90333333Y-152352142D01*
X90285714Y-152256904D01*
X90285714Y-151971190D01*
X90333333Y-151875952D01*
X90380952Y-151828333D01*
X90476190Y-151780714D01*
X90619047Y-151780714D01*
X90714285Y-151828333D01*
X90761904Y-151875952D01*
X90809523Y-151971190D01*
X90809523Y-152256904D01*
X90761904Y-152352142D01*
X90714285Y-152399761D01*
X90619047Y-152447380D01*
X90476190Y-152447380D01*
X91238095Y-152447380D02*
X91238095Y-151780714D01*
X91238095Y-151971190D02*
X91285714Y-151875952D01*
X91333333Y-151828333D01*
X91428571Y-151780714D01*
X91523809Y-151780714D01*
X85000000Y-154057380D02*
X84666666Y-153581190D01*
X84428571Y-154057380D02*
X84428571Y-153057380D01*
X84809523Y-153057380D01*
X84904761Y-153105000D01*
X84952380Y-153152619D01*
X85000000Y-153247857D01*
X85000000Y-153390714D01*
X84952380Y-153485952D01*
X84904761Y-153533571D01*
X84809523Y-153581190D01*
X84428571Y-153581190D01*
X85857142Y-154057380D02*
X85857142Y-153533571D01*
X85809523Y-153438333D01*
X85714285Y-153390714D01*
X85523809Y-153390714D01*
X85428571Y-153438333D01*
X85857142Y-154009761D02*
X85761904Y-154057380D01*
X85523809Y-154057380D01*
X85428571Y-154009761D01*
X85380952Y-153914523D01*
X85380952Y-153819285D01*
X85428571Y-153724047D01*
X85523809Y-153676428D01*
X85761904Y-153676428D01*
X85857142Y-153628809D01*
X86285714Y-154009761D02*
X86380952Y-154057380D01*
X86571428Y-154057380D01*
X86666666Y-154009761D01*
X86714285Y-153914523D01*
X86714285Y-153866904D01*
X86666666Y-153771666D01*
X86571428Y-153724047D01*
X86428571Y-153724047D01*
X86333333Y-153676428D01*
X86285714Y-153581190D01*
X86285714Y-153533571D01*
X86333333Y-153438333D01*
X86428571Y-153390714D01*
X86571428Y-153390714D01*
X86666666Y-153438333D01*
X87142857Y-153390714D02*
X87142857Y-154390714D01*
X87142857Y-153438333D02*
X87238095Y-153390714D01*
X87428571Y-153390714D01*
X87523809Y-153438333D01*
X87571428Y-153485952D01*
X87619047Y-153581190D01*
X87619047Y-153866904D01*
X87571428Y-153962142D01*
X87523809Y-154009761D01*
X87428571Y-154057380D01*
X87238095Y-154057380D01*
X87142857Y-154009761D01*
X88047619Y-154057380D02*
X88047619Y-153057380D01*
X88047619Y-153438333D02*
X88142857Y-153390714D01*
X88333333Y-153390714D01*
X88428571Y-153438333D01*
X88476190Y-153485952D01*
X88523809Y-153581190D01*
X88523809Y-153866904D01*
X88476190Y-153962142D01*
X88428571Y-154009761D01*
X88333333Y-154057380D01*
X88142857Y-154057380D01*
X88047619Y-154009761D01*
X89333333Y-154009761D02*
X89238095Y-154057380D01*
X89047619Y-154057380D01*
X88952380Y-154009761D01*
X88904761Y-153914523D01*
X88904761Y-153533571D01*
X88952380Y-153438333D01*
X89047619Y-153390714D01*
X89238095Y-153390714D01*
X89333333Y-153438333D01*
X89380952Y-153533571D01*
X89380952Y-153628809D01*
X88904761Y-153724047D01*
X89809523Y-154057380D02*
X89809523Y-153390714D01*
X89809523Y-153581190D02*
X89857142Y-153485952D01*
X89904761Y-153438333D01*
X90000000Y-153390714D01*
X90095238Y-153390714D01*
X90428571Y-154057380D02*
X90428571Y-153390714D01*
X90428571Y-153581190D02*
X90476190Y-153485952D01*
X90523809Y-153438333D01*
X90619047Y-153390714D01*
X90714285Y-153390714D01*
X90952380Y-153390714D02*
X91190476Y-154057380D01*
X91428571Y-153390714D02*
X91190476Y-154057380D01*
X91095238Y-154295476D01*
X91047619Y-154343095D01*
X90952380Y-154390714D01*
X92571428Y-154057380D02*
X92571428Y-153057380D01*
X92952380Y-153057380D01*
X93047619Y-153105000D01*
X93095238Y-153152619D01*
X93142857Y-153247857D01*
X93142857Y-153390714D01*
X93095238Y-153485952D01*
X93047619Y-153533571D01*
X92952380Y-153581190D01*
X92571428Y-153581190D01*
X93571428Y-154057380D02*
X93571428Y-153390714D01*
X93571428Y-153057380D02*
X93523809Y-153105000D01*
X93571428Y-153152619D01*
X93619047Y-153105000D01*
X93571428Y-153057380D01*
X93571428Y-153152619D01*
D12*
X86402000Y-119786666D02*
X86435333Y-119820000D01*
X86468666Y-119920000D01*
X86468666Y-119986666D01*
X86435333Y-120086666D01*
X86368666Y-120153333D01*
X86302000Y-120186666D01*
X86168666Y-120220000D01*
X86068666Y-120220000D01*
X85935333Y-120186666D01*
X85868666Y-120153333D01*
X85802000Y-120086666D01*
X85768666Y-119986666D01*
X85768666Y-119920000D01*
X85802000Y-119820000D01*
X85835333Y-119786666D01*
X86468666Y-119486666D02*
X85768666Y-119486666D01*
X86102000Y-119486666D02*
X86102000Y-119086666D01*
X86468666Y-119086666D02*
X85768666Y-119086666D01*
X86268666Y-118786666D02*
X86268666Y-118453333D01*
X86468666Y-118853333D02*
X85768666Y-118620000D01*
X86468666Y-118386666D01*
X86468666Y-117753333D02*
X86135333Y-117986666D01*
X86468666Y-118153333D02*
X85768666Y-118153333D01*
X85768666Y-117886666D01*
X85802000Y-117820000D01*
X85835333Y-117786666D01*
X85902000Y-117753333D01*
X86002000Y-117753333D01*
X86068666Y-117786666D01*
X86102000Y-117820000D01*
X86135333Y-117886666D01*
X86135333Y-118153333D01*
X85802000Y-117086666D02*
X85768666Y-117153333D01*
X85768666Y-117253333D01*
X85802000Y-117353333D01*
X85868666Y-117420000D01*
X85935333Y-117453333D01*
X86068666Y-117486666D01*
X86168666Y-117486666D01*
X86302000Y-117453333D01*
X86368666Y-117420000D01*
X86435333Y-117353333D01*
X86468666Y-117253333D01*
X86468666Y-117186666D01*
X86435333Y-117086666D01*
X86402000Y-117053333D01*
X86168666Y-117053333D01*
X86168666Y-117186666D01*
X86102000Y-116753333D02*
X86102000Y-116520000D01*
X86468666Y-116420000D02*
X86468666Y-116753333D01*
X85768666Y-116753333D01*
X85768666Y-116420000D01*
X51278666Y-113974666D02*
X51245333Y-114074666D01*
X51245333Y-114241333D01*
X51278666Y-114308000D01*
X51312000Y-114341333D01*
X51378666Y-114374666D01*
X51445333Y-114374666D01*
X51512000Y-114341333D01*
X51545333Y-114308000D01*
X51578666Y-114241333D01*
X51612000Y-114108000D01*
X51645333Y-114041333D01*
X51678666Y-114008000D01*
X51745333Y-113974666D01*
X51812000Y-113974666D01*
X51878666Y-114008000D01*
X51912000Y-114041333D01*
X51945333Y-114108000D01*
X51945333Y-114274666D01*
X51912000Y-114374666D01*
X51312000Y-115074666D02*
X51278666Y-115041333D01*
X51245333Y-114941333D01*
X51245333Y-114874666D01*
X51278666Y-114774666D01*
X51345333Y-114708000D01*
X51412000Y-114674666D01*
X51545333Y-114641333D01*
X51645333Y-114641333D01*
X51778666Y-114674666D01*
X51845333Y-114708000D01*
X51912000Y-114774666D01*
X51945333Y-114874666D01*
X51945333Y-114941333D01*
X51912000Y-115041333D01*
X51878666Y-115074666D01*
X51245333Y-115708000D02*
X51245333Y-115374666D01*
X51945333Y-115374666D01*
D14*
X57105267Y-154214285D02*
X57515982Y-154357142D01*
X58230267Y-154357142D01*
X58533839Y-154214285D01*
X58694553Y-154071428D01*
X58873125Y-153785714D01*
X58908839Y-153500000D01*
X58801696Y-153214285D01*
X58676696Y-153071428D01*
X58408839Y-152928571D01*
X57855267Y-152785714D01*
X57587410Y-152642857D01*
X57462410Y-152500000D01*
X57355267Y-152214285D01*
X57390982Y-151928571D01*
X57569553Y-151642857D01*
X57730267Y-151500000D01*
X58033839Y-151357142D01*
X58748125Y-151357142D01*
X59158839Y-151500000D01*
X60462410Y-151357142D02*
X60158839Y-153785714D01*
X60265982Y-154071428D01*
X60390982Y-154214285D01*
X60658839Y-154357142D01*
X61230267Y-154357142D01*
X61533839Y-154214285D01*
X61694553Y-154071428D01*
X61873125Y-153785714D01*
X62176696Y-151357142D01*
X63230267Y-154357142D02*
X63605267Y-151357142D01*
X64748125Y-151357142D01*
X65015982Y-151500000D01*
X65140982Y-151642857D01*
X65248125Y-151928571D01*
X65194553Y-152357142D01*
X65015982Y-152642857D01*
X64855267Y-152785714D01*
X64551696Y-152928571D01*
X63408839Y-152928571D01*
X66426696Y-152785714D02*
X67426696Y-152785714D01*
X67658839Y-154357142D02*
X66230267Y-154357142D01*
X66605267Y-151357142D01*
X68033839Y-151357142D01*
X70658839Y-154357142D02*
X69837410Y-152928571D01*
X68944553Y-154357142D02*
X69319553Y-151357142D01*
X70462410Y-151357142D01*
X70730267Y-151500000D01*
X70855267Y-151642857D01*
X70962410Y-151928571D01*
X70908839Y-152357142D01*
X70730267Y-152642857D01*
X70569553Y-152785714D01*
X70265982Y-152928571D01*
X69123125Y-152928571D01*
X74605267Y-151357142D02*
X74301696Y-153785714D01*
X74408839Y-154071428D01*
X74533839Y-154214285D01*
X74801696Y-154357142D01*
X75373125Y-154357142D01*
X75676696Y-154214285D01*
X75837410Y-154071428D01*
X76015982Y-153785714D01*
X76319553Y-151357142D01*
X77373125Y-154357142D02*
X77748125Y-151357142D01*
X78890982Y-151357142D01*
X79158839Y-151500000D01*
X79283839Y-151642857D01*
X79390982Y-151928571D01*
X79337410Y-152357142D01*
X79158839Y-152642857D01*
X78998125Y-152785714D01*
X78694553Y-152928571D01*
X77551696Y-152928571D01*
X80248125Y-154214285D02*
X80658839Y-154357142D01*
X81373125Y-154357142D01*
X81676696Y-154214285D01*
X81837410Y-154071428D01*
X82015982Y-153785714D01*
X82051696Y-153500000D01*
X81944553Y-153214285D01*
X81819553Y-153071428D01*
X81551696Y-152928571D01*
X80998125Y-152785714D01*
X80730267Y-152642857D01*
X80605267Y-152500000D01*
X80498125Y-152214285D01*
X80533839Y-151928571D01*
X80712410Y-151642857D01*
X80873125Y-151500000D01*
X81176696Y-151357142D01*
X81890982Y-151357142D01*
X82301696Y-151500000D01*
D12*
X96098333Y-152316666D02*
X96431666Y-152316666D01*
X96031666Y-152516666D02*
X96265000Y-151816666D01*
X96498333Y-152516666D01*
X97031666Y-152050000D02*
X97031666Y-152516666D01*
X96731666Y-152050000D02*
X96731666Y-152416666D01*
X96765000Y-152483333D01*
X96831666Y-152516666D01*
X96931666Y-152516666D01*
X96998333Y-152483333D01*
X97031666Y-152450000D01*
X97298333Y-152516666D02*
X97665000Y-152050000D01*
X97298333Y-152050000D02*
X97665000Y-152516666D01*
X98698333Y-152150000D02*
X98798333Y-152183333D01*
X98831666Y-152216666D01*
X98865000Y-152283333D01*
X98865000Y-152383333D01*
X98831666Y-152450000D01*
X98798333Y-152483333D01*
X98731666Y-152516666D01*
X98465000Y-152516666D01*
X98465000Y-151816666D01*
X98698333Y-151816666D01*
X98765000Y-151850000D01*
X98798333Y-151883333D01*
X98831666Y-151950000D01*
X98831666Y-152016666D01*
X98798333Y-152083333D01*
X98765000Y-152116666D01*
X98698333Y-152150000D01*
X98465000Y-152150000D01*
X99465000Y-152050000D02*
X99465000Y-152516666D01*
X99165000Y-152050000D02*
X99165000Y-152416666D01*
X99198333Y-152483333D01*
X99265000Y-152516666D01*
X99365000Y-152516666D01*
X99431666Y-152483333D01*
X99465000Y-152450000D01*
X99698333Y-152050000D02*
X99965000Y-152050000D01*
X99798333Y-151816666D02*
X99798333Y-152416666D01*
X99831666Y-152483333D01*
X99898333Y-152516666D01*
X99965000Y-152516666D01*
X100098333Y-152050000D02*
X100365000Y-152050000D01*
X100198333Y-151816666D02*
X100198333Y-152416666D01*
X100231666Y-152483333D01*
X100298333Y-152516666D01*
X100365000Y-152516666D01*
X100698333Y-152516666D02*
X100631666Y-152483333D01*
X100598333Y-152450000D01*
X100565000Y-152383333D01*
X100565000Y-152183333D01*
X100598333Y-152116666D01*
X100631666Y-152083333D01*
X100698333Y-152050000D01*
X100798333Y-152050000D01*
X100865000Y-152083333D01*
X100898333Y-152116666D01*
X100931666Y-152183333D01*
X100931666Y-152383333D01*
X100898333Y-152450000D01*
X100865000Y-152483333D01*
X100798333Y-152516666D01*
X100698333Y-152516666D01*
X101231666Y-152050000D02*
X101231666Y-152516666D01*
X101231666Y-152116666D02*
X101265000Y-152083333D01*
X101331666Y-152050000D01*
X101431666Y-152050000D01*
X101498333Y-152083333D01*
X101531666Y-152150000D01*
X101531666Y-152516666D01*
X51912000Y-119354666D02*
X51945333Y-119288000D01*
X51945333Y-119188000D01*
X51912000Y-119088000D01*
X51845333Y-119021333D01*
X51778666Y-118988000D01*
X51645333Y-118954666D01*
X51545333Y-118954666D01*
X51412000Y-118988000D01*
X51345333Y-119021333D01*
X51278666Y-119088000D01*
X51245333Y-119188000D01*
X51245333Y-119254666D01*
X51278666Y-119354666D01*
X51312000Y-119388000D01*
X51545333Y-119388000D01*
X51545333Y-119254666D01*
X51245333Y-119688000D02*
X51945333Y-119688000D01*
X51245333Y-120088000D01*
X51945333Y-120088000D01*
X51245333Y-120421333D02*
X51945333Y-120421333D01*
X51945333Y-120588000D01*
X51912000Y-120688000D01*
X51845333Y-120754666D01*
X51778666Y-120788000D01*
X51645333Y-120821333D01*
X51545333Y-120821333D01*
X51412000Y-120788000D01*
X51345333Y-120754666D01*
X51278666Y-120688000D01*
X51245333Y-120588000D01*
X51245333Y-120421333D01*
X110516666Y-132500000D02*
X110516666Y-132833333D01*
X110850000Y-132866666D01*
X110816666Y-132833333D01*
X110783333Y-132766666D01*
X110783333Y-132600000D01*
X110816666Y-132533333D01*
X110850000Y-132500000D01*
X110916666Y-132466666D01*
X111083333Y-132466666D01*
X111150000Y-132500000D01*
X111183333Y-132533333D01*
X111216666Y-132600000D01*
X111216666Y-132766666D01*
X111183333Y-132833333D01*
X111150000Y-132866666D01*
X110750000Y-132233333D02*
X111216666Y-132066666D01*
X110750000Y-131900000D01*
D10*
X50633333Y-137852380D02*
X50633333Y-136852380D01*
X51061904Y-137852380D02*
X51061904Y-137328571D01*
X51014285Y-137233333D01*
X50919047Y-137185714D01*
X50776190Y-137185714D01*
X50680952Y-137233333D01*
X50633333Y-137280952D01*
X51395238Y-137185714D02*
X51776190Y-137185714D01*
X51538095Y-136852380D02*
X51538095Y-137709523D01*
X51585714Y-137804761D01*
X51680952Y-137852380D01*
X51776190Y-137852380D01*
X51966666Y-137185714D02*
X52347619Y-137185714D01*
X52109523Y-136852380D02*
X52109523Y-137709523D01*
X52157142Y-137804761D01*
X52252380Y-137852380D01*
X52347619Y-137852380D01*
X52680952Y-137185714D02*
X52680952Y-138185714D01*
X52680952Y-137233333D02*
X52776190Y-137185714D01*
X52966666Y-137185714D01*
X53061904Y-137233333D01*
X53109523Y-137280952D01*
X53157142Y-137376190D01*
X53157142Y-137661904D01*
X53109523Y-137757142D01*
X53061904Y-137804761D01*
X52966666Y-137852380D01*
X52776190Y-137852380D01*
X52680952Y-137804761D01*
X53538095Y-137804761D02*
X53633333Y-137852380D01*
X53823809Y-137852380D01*
X53919047Y-137804761D01*
X53966666Y-137709523D01*
X53966666Y-137661904D01*
X53919047Y-137566666D01*
X53823809Y-137519047D01*
X53680952Y-137519047D01*
X53585714Y-137471428D01*
X53538095Y-137376190D01*
X53538095Y-137328571D01*
X53585714Y-137233333D01*
X53680952Y-137185714D01*
X53823809Y-137185714D01*
X53919047Y-137233333D01*
X54395238Y-137757142D02*
X54442857Y-137804761D01*
X54395238Y-137852380D01*
X54347619Y-137804761D01*
X54395238Y-137757142D01*
X54395238Y-137852380D01*
X54395238Y-137233333D02*
X54442857Y-137280952D01*
X54395238Y-137328571D01*
X54347619Y-137280952D01*
X54395238Y-137233333D01*
X54395238Y-137328571D01*
X55585714Y-136804761D02*
X54728571Y-138090476D01*
X56633333Y-136804761D02*
X55776190Y-138090476D01*
X57395238Y-137185714D02*
X57395238Y-137995238D01*
X57347619Y-138090476D01*
X57299999Y-138138095D01*
X57204761Y-138185714D01*
X57061904Y-138185714D01*
X56966666Y-138138095D01*
X57395238Y-137804761D02*
X57299999Y-137852380D01*
X57109523Y-137852380D01*
X57014285Y-137804761D01*
X56966666Y-137757142D01*
X56919047Y-137661904D01*
X56919047Y-137376190D01*
X56966666Y-137280952D01*
X57014285Y-137233333D01*
X57109523Y-137185714D01*
X57299999Y-137185714D01*
X57395238Y-137233333D01*
X57871428Y-137852380D02*
X57871428Y-137185714D01*
X57871428Y-136852380D02*
X57823809Y-136900000D01*
X57871428Y-136947619D01*
X57919047Y-136900000D01*
X57871428Y-136852380D01*
X57871428Y-136947619D01*
X58204761Y-137185714D02*
X58585714Y-137185714D01*
X58347619Y-136852380D02*
X58347619Y-137709523D01*
X58395238Y-137804761D01*
X58490476Y-137852380D01*
X58585714Y-137852380D01*
X58919047Y-137852380D02*
X58919047Y-136852380D01*
X59347619Y-137852380D02*
X59347619Y-137328571D01*
X59299999Y-137233333D01*
X59204761Y-137185714D01*
X59061904Y-137185714D01*
X58966666Y-137233333D01*
X58919047Y-137280952D01*
X60252380Y-137185714D02*
X60252380Y-137852380D01*
X59823809Y-137185714D02*
X59823809Y-137709523D01*
X59871428Y-137804761D01*
X59966666Y-137852380D01*
X60109523Y-137852380D01*
X60204761Y-137804761D01*
X60252380Y-137757142D01*
X60728571Y-137852380D02*
X60728571Y-136852380D01*
X60728571Y-137233333D02*
X60823809Y-137185714D01*
X61014285Y-137185714D01*
X61109523Y-137233333D01*
X61157142Y-137280952D01*
X61204761Y-137376190D01*
X61204761Y-137661904D01*
X61157142Y-137757142D01*
X61109523Y-137804761D01*
X61014285Y-137852380D01*
X60823809Y-137852380D01*
X60728571Y-137804761D01*
X61633333Y-137757142D02*
X61680952Y-137804761D01*
X61633333Y-137852380D01*
X61585714Y-137804761D01*
X61633333Y-137757142D01*
X61633333Y-137852380D01*
X62538095Y-137804761D02*
X62442857Y-137852380D01*
X62252380Y-137852380D01*
X62157142Y-137804761D01*
X62109523Y-137757142D01*
X62061904Y-137661904D01*
X62061904Y-137376190D01*
X62109523Y-137280952D01*
X62157142Y-137233333D01*
X62252380Y-137185714D01*
X62442857Y-137185714D01*
X62538095Y-137233333D01*
X63109523Y-137852380D02*
X63014285Y-137804761D01*
X62966666Y-137757142D01*
X62919047Y-137661904D01*
X62919047Y-137376190D01*
X62966666Y-137280952D01*
X63014285Y-137233333D01*
X63109523Y-137185714D01*
X63252380Y-137185714D01*
X63347619Y-137233333D01*
X63395238Y-137280952D01*
X63442857Y-137376190D01*
X63442857Y-137661904D01*
X63395238Y-137757142D01*
X63347619Y-137804761D01*
X63252380Y-137852380D01*
X63109523Y-137852380D01*
X63871428Y-137852380D02*
X63871428Y-137185714D01*
X63871428Y-137280952D02*
X63919047Y-137233333D01*
X64014285Y-137185714D01*
X64157142Y-137185714D01*
X64252380Y-137233333D01*
X64299999Y-137328571D01*
X64299999Y-137852380D01*
X64299999Y-137328571D02*
X64347619Y-137233333D01*
X64442857Y-137185714D01*
X64585714Y-137185714D01*
X64680952Y-137233333D01*
X64728571Y-137328571D01*
X64728571Y-137852380D01*
X65919047Y-136804761D02*
X65061904Y-138090476D01*
X66680952Y-137852380D02*
X66680952Y-137328571D01*
X66633333Y-137233333D01*
X66538095Y-137185714D01*
X66347619Y-137185714D01*
X66252380Y-137233333D01*
X66680952Y-137804761D02*
X66585714Y-137852380D01*
X66347619Y-137852380D01*
X66252380Y-137804761D01*
X66204761Y-137709523D01*
X66204761Y-137614285D01*
X66252380Y-137519047D01*
X66347619Y-137471428D01*
X66585714Y-137471428D01*
X66680952Y-137423809D01*
X67157142Y-137852380D02*
X67157142Y-136852380D01*
X67252380Y-137471428D02*
X67538095Y-137852380D01*
X67538095Y-137185714D02*
X67157142Y-137566666D01*
X68395238Y-137185714D02*
X68395238Y-137852380D01*
X67966666Y-137185714D02*
X67966666Y-137709523D01*
X68014285Y-137804761D01*
X68109523Y-137852380D01*
X68252380Y-137852380D01*
X68347619Y-137804761D01*
X68395238Y-137757142D01*
X68871428Y-137852380D02*
X68871428Y-136852380D01*
X68966666Y-137471428D02*
X69252380Y-137852380D01*
X69252380Y-137185714D02*
X68871428Y-137566666D01*
X70061904Y-137804761D02*
X69966666Y-137852380D01*
X69776190Y-137852380D01*
X69680952Y-137804761D01*
X69633333Y-137709523D01*
X69633333Y-137328571D01*
X69680952Y-137233333D01*
X69776190Y-137185714D01*
X69966666Y-137185714D01*
X70061904Y-137233333D01*
X70109523Y-137328571D01*
X70109523Y-137423809D01*
X69633333Y-137519047D01*
X70538095Y-137852380D02*
X70538095Y-137185714D01*
X70538095Y-137376190D02*
X70585714Y-137280952D01*
X70633333Y-137233333D01*
X70728571Y-137185714D01*
X70823809Y-137185714D01*
X71871428Y-136804761D02*
X71014285Y-138090476D01*
X72157142Y-137804761D02*
X72300000Y-137852380D01*
X72538095Y-137852380D01*
X72633333Y-137804761D01*
X72680952Y-137757142D01*
X72728571Y-137661904D01*
X72728571Y-137566666D01*
X72680952Y-137471428D01*
X72633333Y-137423809D01*
X72538095Y-137376190D01*
X72347619Y-137328571D01*
X72252380Y-137280952D01*
X72204761Y-137233333D01*
X72157142Y-137138095D01*
X72157142Y-137042857D01*
X72204761Y-136947619D01*
X72252380Y-136900000D01*
X72347619Y-136852380D01*
X72585714Y-136852380D01*
X72728571Y-136900000D01*
X73585714Y-137185714D02*
X73585714Y-137852380D01*
X73157142Y-137185714D02*
X73157142Y-137709523D01*
X73204761Y-137804761D01*
X73300000Y-137852380D01*
X73442857Y-137852380D01*
X73538095Y-137804761D01*
X73585714Y-137757142D01*
X74061904Y-137185714D02*
X74061904Y-138185714D01*
X74061904Y-137233333D02*
X74157142Y-137185714D01*
X74347619Y-137185714D01*
X74442857Y-137233333D01*
X74490476Y-137280952D01*
X74538095Y-137376190D01*
X74538095Y-137661904D01*
X74490476Y-137757142D01*
X74442857Y-137804761D01*
X74347619Y-137852380D01*
X74157142Y-137852380D01*
X74061904Y-137804761D01*
X75347619Y-137804761D02*
X75252380Y-137852380D01*
X75061904Y-137852380D01*
X74966666Y-137804761D01*
X74919047Y-137709523D01*
X74919047Y-137328571D01*
X74966666Y-137233333D01*
X75061904Y-137185714D01*
X75252380Y-137185714D01*
X75347619Y-137233333D01*
X75395238Y-137328571D01*
X75395238Y-137423809D01*
X74919047Y-137519047D01*
X75823809Y-137852380D02*
X75823809Y-137185714D01*
X75823809Y-137376190D02*
X75871428Y-137280952D01*
X75919047Y-137233333D01*
X76014285Y-137185714D01*
X76109523Y-137185714D01*
X76442857Y-136852380D02*
X76442857Y-137661904D01*
X76490476Y-137757142D01*
X76538095Y-137804761D01*
X76633333Y-137852380D01*
X76823809Y-137852380D01*
X76919047Y-137804761D01*
X76966666Y-137757142D01*
X77014285Y-137661904D01*
X77014285Y-136852380D01*
X77490476Y-137852380D02*
X77490476Y-136852380D01*
X77871428Y-136852380D01*
X77966666Y-136900000D01*
X78014285Y-136947619D01*
X78061904Y-137042857D01*
X78061904Y-137185714D01*
X78014285Y-137280952D01*
X77966666Y-137328571D01*
X77871428Y-137376190D01*
X77490476Y-137376190D01*
X78442857Y-137804761D02*
X78585714Y-137852380D01*
X78823809Y-137852380D01*
X78919047Y-137804761D01*
X78966666Y-137757142D01*
X79014285Y-137661904D01*
X79014285Y-137566666D01*
X78966666Y-137471428D01*
X78919047Y-137423809D01*
X78823809Y-137376190D01*
X78633333Y-137328571D01*
X78538095Y-137280952D01*
X78490476Y-137233333D01*
X78442857Y-137138095D01*
X78442857Y-137042857D01*
X78490476Y-136947619D01*
X78538095Y-136900000D01*
X78633333Y-136852380D01*
X78871428Y-136852380D01*
X79014285Y-136900000D01*
D12*
X59465333Y-131690000D02*
X59498666Y-131590000D01*
X59498666Y-131423333D01*
X59465333Y-131356666D01*
X59432000Y-131323333D01*
X59365333Y-131290000D01*
X59298666Y-131290000D01*
X59232000Y-131323333D01*
X59198666Y-131356666D01*
X59165333Y-131423333D01*
X59132000Y-131556666D01*
X59098666Y-131623333D01*
X59065333Y-131656666D01*
X58998666Y-131690000D01*
X58932000Y-131690000D01*
X58865333Y-131656666D01*
X58832000Y-131623333D01*
X58798666Y-131556666D01*
X58798666Y-131390000D01*
X58832000Y-131290000D01*
X58798666Y-131090000D02*
X58798666Y-130690000D01*
X59498666Y-130890000D02*
X58798666Y-130890000D01*
X59498666Y-130123333D02*
X59498666Y-130456666D01*
X58798666Y-130456666D01*
X59498666Y-129890000D02*
X59032000Y-129890000D01*
X58798666Y-129890000D02*
X58832000Y-129923333D01*
X58865333Y-129890000D01*
X58832000Y-129856666D01*
X58798666Y-129890000D01*
X58865333Y-129890000D01*
X59032000Y-129556666D02*
X59498666Y-129556666D01*
X59098666Y-129556666D02*
X59065333Y-129523333D01*
X59032000Y-129456666D01*
X59032000Y-129356666D01*
X59065333Y-129290000D01*
X59132000Y-129256666D01*
X59498666Y-129256666D01*
X59498666Y-128923333D02*
X58798666Y-128923333D01*
X59232000Y-128856666D02*
X59498666Y-128656666D01*
X59032000Y-128656666D02*
X59298666Y-128923333D01*
X58798666Y-128456666D02*
X59498666Y-128223333D01*
X58798666Y-127990000D01*
X58865333Y-127790000D02*
X58832000Y-127756666D01*
X58798666Y-127690000D01*
X58798666Y-127523333D01*
X58832000Y-127456666D01*
X58865333Y-127423333D01*
X58932000Y-127390000D01*
X58998666Y-127390000D01*
X59098666Y-127423333D01*
X59498666Y-127823333D01*
X59498666Y-127390000D01*
D15*
X57773809Y-113127520D02*
X57711904Y-113305497D01*
X57711904Y-113615020D01*
X57773809Y-113746568D01*
X57835714Y-113816211D01*
X57959523Y-113893592D01*
X58083333Y-113909068D01*
X58207142Y-113862639D01*
X58269047Y-113808473D01*
X58330952Y-113692401D01*
X58392857Y-113452520D01*
X58454761Y-113336449D01*
X58516666Y-113282282D01*
X58640476Y-113235854D01*
X58764285Y-113251330D01*
X58888095Y-113328711D01*
X58950000Y-113398354D01*
X59011904Y-113529901D01*
X59011904Y-113839425D01*
X58950000Y-114017401D01*
X58578571Y-115085258D02*
X57711904Y-114976925D01*
X58578571Y-114528116D02*
X57897619Y-114442997D01*
X57773809Y-114489425D01*
X57711904Y-114605497D01*
X57711904Y-114791211D01*
X57773809Y-114922758D01*
X57835714Y-114992401D01*
X58578571Y-115704306D02*
X57278571Y-115541806D01*
X58516666Y-115696568D02*
X58578571Y-115828116D01*
X58578571Y-116075735D01*
X58516666Y-116191806D01*
X58454761Y-116245973D01*
X58330952Y-116292401D01*
X57959523Y-116245973D01*
X57835714Y-116168592D01*
X57773809Y-116098949D01*
X57711904Y-115967401D01*
X57711904Y-115719782D01*
X57773809Y-115603711D01*
X57773809Y-117275139D02*
X57711904Y-117143592D01*
X57711904Y-116895973D01*
X57773809Y-116779901D01*
X57897619Y-116733473D01*
X58392857Y-116795377D01*
X58516666Y-116872758D01*
X58578571Y-117004306D01*
X58578571Y-117251925D01*
X58516666Y-117367997D01*
X58392857Y-117414425D01*
X58269047Y-117398949D01*
X58145238Y-116764425D01*
X57711904Y-117886449D02*
X58578571Y-117994782D01*
X58330952Y-117963830D02*
X58454761Y-118041211D01*
X58516666Y-118110854D01*
X58578571Y-118242401D01*
X58578571Y-118366211D01*
X59011904Y-118853711D02*
X57959523Y-118722163D01*
X57835714Y-118768592D01*
X57773809Y-118822758D01*
X57711904Y-118938830D01*
X57711904Y-119186449D01*
X57773809Y-119317997D01*
X57835714Y-119387639D01*
X57959523Y-119465020D01*
X59011904Y-119596568D01*
X57711904Y-120053116D02*
X59011904Y-120215616D01*
X59011904Y-120710854D01*
X58950000Y-120826925D01*
X58888095Y-120881092D01*
X58764285Y-120927520D01*
X58578571Y-120904306D01*
X58454761Y-120826925D01*
X58392857Y-120757282D01*
X58330952Y-120625735D01*
X58330952Y-120130497D01*
X57773809Y-121298949D02*
X57711904Y-121476925D01*
X57711904Y-121786449D01*
X57773809Y-121917997D01*
X57835714Y-121987639D01*
X57959523Y-122065020D01*
X58083333Y-122080497D01*
X58207142Y-122034068D01*
X58269047Y-121979901D01*
X58330952Y-121863830D01*
X58392857Y-121623949D01*
X58454761Y-121507877D01*
X58516666Y-121453711D01*
X58640476Y-121407282D01*
X58764285Y-121422758D01*
X58888095Y-121500139D01*
X58950000Y-121569782D01*
X59011904Y-121701330D01*
X59011904Y-122010854D01*
X58950000Y-122188830D01*
D12*
X51183333Y-126733333D02*
X51516666Y-126500000D01*
X51183333Y-126333333D02*
X51883333Y-126333333D01*
X51883333Y-126600000D01*
X51850000Y-126666666D01*
X51816666Y-126700000D01*
X51750000Y-126733333D01*
X51650000Y-126733333D01*
X51583333Y-126700000D01*
X51550000Y-126666666D01*
X51516666Y-126600000D01*
X51516666Y-126333333D01*
X51883333Y-126966666D02*
X51183333Y-127433333D01*
X51883333Y-127433333D02*
X51183333Y-126966666D01*
X51183333Y-127700000D02*
X51883333Y-127700000D01*
X51883333Y-127866666D01*
X51850000Y-127966666D01*
X51783333Y-128033333D01*
X51716666Y-128066666D01*
X51583333Y-128100000D01*
X51483333Y-128100000D01*
X51350000Y-128066666D01*
X51283333Y-128033333D01*
X51216666Y-127966666D01*
X51183333Y-127866666D01*
X51183333Y-127700000D01*
X110416666Y-131300000D02*
X110416666Y-130866666D01*
X110683333Y-131100000D01*
X110683333Y-131000000D01*
X110716666Y-130933333D01*
X110750000Y-130900000D01*
X110816666Y-130866666D01*
X110983333Y-130866666D01*
X111050000Y-130900000D01*
X111083333Y-130933333D01*
X111116666Y-131000000D01*
X111116666Y-131200000D01*
X111083333Y-131266666D01*
X111050000Y-131300000D01*
X111050000Y-130566666D02*
X111083333Y-130533333D01*
X111116666Y-130566666D01*
X111083333Y-130600000D01*
X111050000Y-130566666D01*
X111116666Y-130566666D01*
X110416666Y-130300000D02*
X110416666Y-129866666D01*
X110683333Y-130100000D01*
X110683333Y-130000000D01*
X110716666Y-129933333D01*
X110750000Y-129900000D01*
X110816666Y-129866666D01*
X110983333Y-129866666D01*
X111050000Y-129900000D01*
X111083333Y-129933333D01*
X111116666Y-130000000D01*
X111116666Y-130200000D01*
X111083333Y-130266666D01*
X111050000Y-130300000D01*
X110650000Y-129633333D02*
X111116666Y-129466666D01*
X110650000Y-129300000D01*
X51278666Y-111418000D02*
X51245333Y-111518000D01*
X51245333Y-111684666D01*
X51278666Y-111751333D01*
X51312000Y-111784666D01*
X51378666Y-111818000D01*
X51445333Y-111818000D01*
X51512000Y-111784666D01*
X51545333Y-111751333D01*
X51578666Y-111684666D01*
X51612000Y-111551333D01*
X51645333Y-111484666D01*
X51678666Y-111451333D01*
X51745333Y-111418000D01*
X51812000Y-111418000D01*
X51878666Y-111451333D01*
X51912000Y-111484666D01*
X51945333Y-111551333D01*
X51945333Y-111718000D01*
X51912000Y-111818000D01*
X51245333Y-112118000D02*
X51945333Y-112118000D01*
X51945333Y-112284666D01*
X51912000Y-112384666D01*
X51845333Y-112451333D01*
X51778666Y-112484666D01*
X51645333Y-112518000D01*
X51545333Y-112518000D01*
X51412000Y-112484666D01*
X51345333Y-112451333D01*
X51278666Y-112384666D01*
X51245333Y-112284666D01*
X51245333Y-112118000D01*
X51445333Y-112784666D02*
X51445333Y-113118000D01*
X51245333Y-112718000D02*
X51945333Y-112951333D01*
X51245333Y-113184666D01*
X57528666Y-125547333D02*
X57528666Y-125114000D01*
X57795333Y-125347333D01*
X57795333Y-125247333D01*
X57828666Y-125180666D01*
X57862000Y-125147333D01*
X57928666Y-125114000D01*
X58095333Y-125114000D01*
X58162000Y-125147333D01*
X58195333Y-125180666D01*
X58228666Y-125247333D01*
X58228666Y-125447333D01*
X58195333Y-125514000D01*
X58162000Y-125547333D01*
X57762000Y-124880666D02*
X58228666Y-124714000D01*
X57762000Y-124547333D01*
X57528666Y-124347333D02*
X57528666Y-123914000D01*
X57795333Y-124147333D01*
X57795333Y-124047333D01*
X57828666Y-123980666D01*
X57862000Y-123947333D01*
X57928666Y-123914000D01*
X58095333Y-123914000D01*
X58162000Y-123947333D01*
X58195333Y-123980666D01*
X58228666Y-124047333D01*
X58228666Y-124247333D01*
X58195333Y-124314000D01*
X58162000Y-124347333D01*
X58195333Y-128326221D02*
X58228666Y-128226221D01*
X58228666Y-128059555D01*
X58195333Y-127992888D01*
X58162000Y-127959555D01*
X58095333Y-127926221D01*
X58028666Y-127926221D01*
X57962000Y-127959555D01*
X57928666Y-127992888D01*
X57895333Y-128059555D01*
X57862000Y-128192888D01*
X57828666Y-128259555D01*
X57795333Y-128292888D01*
X57728666Y-128326221D01*
X57662000Y-128326221D01*
X57595333Y-128292888D01*
X57562000Y-128259555D01*
X57528666Y-128192888D01*
X57528666Y-128026221D01*
X57562000Y-127926221D01*
X57528666Y-127692888D02*
X58228666Y-127526221D01*
X57728666Y-127392888D01*
X58228666Y-127259555D01*
X57528666Y-127092888D01*
X58228666Y-126826221D02*
X57528666Y-126826221D01*
X58228666Y-126492888D02*
X57528666Y-126492888D01*
X58028666Y-126259555D01*
X57528666Y-126026221D01*
X58228666Y-126026221D01*
X57562000Y-130271777D02*
X57528666Y-130338444D01*
X57528666Y-130438444D01*
X57562000Y-130538444D01*
X57628666Y-130605110D01*
X57695333Y-130638444D01*
X57828666Y-130671777D01*
X57928666Y-130671777D01*
X58062000Y-130638444D01*
X58128666Y-130605110D01*
X58195333Y-130538444D01*
X58228666Y-130438444D01*
X58228666Y-130371777D01*
X58195333Y-130271777D01*
X58162000Y-130238444D01*
X57928666Y-130238444D01*
X57928666Y-130371777D01*
X58228666Y-129938444D02*
X57528666Y-129938444D01*
X58228666Y-129538444D01*
X57528666Y-129538444D01*
X58228666Y-129205110D02*
X57528666Y-129205110D01*
X57528666Y-129038444D01*
X57562000Y-128938444D01*
X57628666Y-128871777D01*
X57695333Y-128838444D01*
X57828666Y-128805110D01*
X57928666Y-128805110D01*
X58062000Y-128838444D01*
X58128666Y-128871777D01*
X58195333Y-128938444D01*
X58228666Y-129038444D01*
X58228666Y-129205110D01*
X51983333Y-116300000D02*
X51983333Y-116733333D01*
X51716666Y-116500000D01*
X51716666Y-116600000D01*
X51683333Y-116666666D01*
X51650000Y-116700000D01*
X51583333Y-116733333D01*
X51416666Y-116733333D01*
X51350000Y-116700000D01*
X51316666Y-116666666D01*
X51283333Y-116600000D01*
X51283333Y-116400000D01*
X51316666Y-116333333D01*
X51350000Y-116300000D01*
X51350000Y-117033333D02*
X51316666Y-117066666D01*
X51283333Y-117033333D01*
X51316666Y-117000000D01*
X51350000Y-117033333D01*
X51283333Y-117033333D01*
X51983333Y-117300000D02*
X51983333Y-117733333D01*
X51716666Y-117500000D01*
X51716666Y-117600000D01*
X51683333Y-117666666D01*
X51650000Y-117700000D01*
X51583333Y-117733333D01*
X51416666Y-117733333D01*
X51350000Y-117700000D01*
X51316666Y-117666666D01*
X51283333Y-117600000D01*
X51283333Y-117400000D01*
X51316666Y-117333333D01*
X51350000Y-117300000D01*
X51750000Y-117966666D02*
X51283333Y-118133333D01*
X51750000Y-118300000D01*
X51945333Y-131704666D02*
X51945333Y-132104666D01*
X51245333Y-131904666D02*
X51945333Y-131904666D01*
X51945333Y-132271333D02*
X51245333Y-132738000D01*
X51945333Y-132738000D02*
X51245333Y-132271333D01*
X51245333Y-133004666D02*
X51945333Y-133004666D01*
X51945333Y-133171333D01*
X51912000Y-133271333D01*
X51845333Y-133338000D01*
X51778666Y-133371333D01*
X51645333Y-133404666D01*
X51545333Y-133404666D01*
X51412000Y-133371333D01*
X51345333Y-133338000D01*
X51278666Y-133271333D01*
X51245333Y-133171333D01*
X51245333Y-133004666D01*
X111216666Y-134766000D02*
X111216666Y-135166000D01*
X111216666Y-134966000D02*
X110516666Y-134966000D01*
X110616666Y-135032666D01*
X110683333Y-135099333D01*
X110716666Y-135166000D01*
X110583333Y-134499333D02*
X110550000Y-134466000D01*
X110516666Y-134399333D01*
X110516666Y-134232666D01*
X110550000Y-134166000D01*
X110583333Y-134132666D01*
X110650000Y-134099333D01*
X110716666Y-134099333D01*
X110816666Y-134132666D01*
X111216666Y-134532666D01*
X111216666Y-134099333D01*
X110750000Y-133866000D02*
X111216666Y-133699333D01*
X110750000Y-133532666D01*
D10*
X112123571Y-123919047D02*
X112171190Y-123776190D01*
X112218809Y-123728571D01*
X112314047Y-123680952D01*
X112456904Y-123680952D01*
X112552142Y-123728571D01*
X112599761Y-123776190D01*
X112647380Y-123871428D01*
X112647380Y-124252380D01*
X111647380Y-124252380D01*
X111647380Y-123919047D01*
X111695000Y-123823809D01*
X111742619Y-123776190D01*
X111837857Y-123728571D01*
X111933095Y-123728571D01*
X112028333Y-123776190D01*
X112075952Y-123823809D01*
X112123571Y-123919047D01*
X112123571Y-124252380D01*
X112599761Y-122871428D02*
X112647380Y-122966666D01*
X112647380Y-123157142D01*
X112599761Y-123252380D01*
X112504523Y-123300000D01*
X112123571Y-123300000D01*
X112028333Y-123252380D01*
X111980714Y-123157142D01*
X111980714Y-122966666D01*
X112028333Y-122871428D01*
X112123571Y-122823809D01*
X112218809Y-122823809D01*
X112314047Y-123300000D01*
X112647380Y-122395238D02*
X111980714Y-122395238D01*
X112171190Y-122395238D02*
X112075952Y-122347619D01*
X112028333Y-122300000D01*
X111980714Y-122204761D01*
X111980714Y-122109523D01*
X111980714Y-121347619D02*
X112790238Y-121347619D01*
X112885476Y-121395238D01*
X112933095Y-121442857D01*
X112980714Y-121538095D01*
X112980714Y-121680952D01*
X112933095Y-121776190D01*
X112599761Y-121347619D02*
X112647380Y-121442857D01*
X112647380Y-121633333D01*
X112599761Y-121728571D01*
X112552142Y-121776190D01*
X112456904Y-121823809D01*
X112171190Y-121823809D01*
X112075952Y-121776190D01*
X112028333Y-121728571D01*
X111980714Y-121633333D01*
X111980714Y-121442857D01*
X112028333Y-121347619D01*
X114162142Y-125752380D02*
X114209761Y-125800000D01*
X114257380Y-125942857D01*
X114257380Y-126038095D01*
X114209761Y-126180952D01*
X114114523Y-126276190D01*
X114019285Y-126323809D01*
X113828809Y-126371428D01*
X113685952Y-126371428D01*
X113495476Y-126323809D01*
X113400238Y-126276190D01*
X113305000Y-126180952D01*
X113257380Y-126038095D01*
X113257380Y-125942857D01*
X113305000Y-125800000D01*
X113352619Y-125752380D01*
X114257380Y-125180952D02*
X114209761Y-125276190D01*
X114162142Y-125323809D01*
X114066904Y-125371428D01*
X113781190Y-125371428D01*
X113685952Y-125323809D01*
X113638333Y-125276190D01*
X113590714Y-125180952D01*
X113590714Y-125038095D01*
X113638333Y-124942857D01*
X113685952Y-124895238D01*
X113781190Y-124847619D01*
X114066904Y-124847619D01*
X114162142Y-124895238D01*
X114209761Y-124942857D01*
X114257380Y-125038095D01*
X114257380Y-125180952D01*
X113590714Y-124419047D02*
X114257380Y-124419047D01*
X113685952Y-124419047D02*
X113638333Y-124371428D01*
X113590714Y-124276190D01*
X113590714Y-124133333D01*
X113638333Y-124038095D01*
X113733571Y-123990476D01*
X114257380Y-123990476D01*
X113590714Y-123514285D02*
X114257380Y-123514285D01*
X113685952Y-123514285D02*
X113638333Y-123466666D01*
X113590714Y-123371428D01*
X113590714Y-123228571D01*
X113638333Y-123133333D01*
X113733571Y-123085714D01*
X114257380Y-123085714D01*
X114209761Y-122228571D02*
X114257380Y-122323809D01*
X114257380Y-122514285D01*
X114209761Y-122609523D01*
X114114523Y-122657142D01*
X113733571Y-122657142D01*
X113638333Y-122609523D01*
X113590714Y-122514285D01*
X113590714Y-122323809D01*
X113638333Y-122228571D01*
X113733571Y-122180952D01*
X113828809Y-122180952D01*
X113924047Y-122657142D01*
X114209761Y-121323809D02*
X114257380Y-121419047D01*
X114257380Y-121609523D01*
X114209761Y-121704761D01*
X114162142Y-121752380D01*
X114066904Y-121800000D01*
X113781190Y-121800000D01*
X113685952Y-121752380D01*
X113638333Y-121704761D01*
X113590714Y-121609523D01*
X113590714Y-121419047D01*
X113638333Y-121323809D01*
X113590714Y-121038095D02*
X113590714Y-120657142D01*
X113257380Y-120895238D02*
X114114523Y-120895238D01*
X114209761Y-120847619D01*
X114257380Y-120752380D01*
X114257380Y-120657142D01*
X114257380Y-120180952D02*
X114209761Y-120276190D01*
X114162142Y-120323809D01*
X114066904Y-120371428D01*
X113781190Y-120371428D01*
X113685952Y-120323809D01*
X113638333Y-120276190D01*
X113590714Y-120180952D01*
X113590714Y-120038095D01*
X113638333Y-119942857D01*
X113685952Y-119895238D01*
X113781190Y-119847619D01*
X114066904Y-119847619D01*
X114162142Y-119895238D01*
X114209761Y-119942857D01*
X114257380Y-120038095D01*
X114257380Y-120180952D01*
X114257380Y-119419047D02*
X113590714Y-119419047D01*
X113781190Y-119419047D02*
X113685952Y-119371428D01*
X113638333Y-119323809D01*
X113590714Y-119228571D01*
X113590714Y-119133333D01*
D12*
X51945333Y-122074000D02*
X51945333Y-121740666D01*
X51612000Y-121707333D01*
X51645333Y-121740666D01*
X51678666Y-121807333D01*
X51678666Y-121974000D01*
X51645333Y-122040666D01*
X51612000Y-122074000D01*
X51545333Y-122107333D01*
X51378666Y-122107333D01*
X51312000Y-122074000D01*
X51278666Y-122040666D01*
X51245333Y-121974000D01*
X51245333Y-121807333D01*
X51278666Y-121740666D01*
X51312000Y-121707333D01*
X51712000Y-122340666D02*
X51245333Y-122507333D01*
X51712000Y-122674000D01*
X82946666Y-123270000D02*
X82246666Y-123270000D01*
X82246666Y-123103333D01*
X82280000Y-123003333D01*
X82346666Y-122936666D01*
X82413333Y-122903333D01*
X82546666Y-122870000D01*
X82646666Y-122870000D01*
X82780000Y-122903333D01*
X82846666Y-122936666D01*
X82913333Y-123003333D01*
X82946666Y-123103333D01*
X82946666Y-123270000D01*
X82913333Y-122603333D02*
X82946666Y-122503333D01*
X82946666Y-122336666D01*
X82913333Y-122270000D01*
X82880000Y-122236666D01*
X82813333Y-122203333D01*
X82746666Y-122203333D01*
X82680000Y-122236666D01*
X82646666Y-122270000D01*
X82613333Y-122336666D01*
X82580000Y-122470000D01*
X82546666Y-122536666D01*
X82513333Y-122570000D01*
X82446666Y-122603333D01*
X82380000Y-122603333D01*
X82313333Y-122570000D01*
X82280000Y-122536666D01*
X82246666Y-122470000D01*
X82246666Y-122303333D01*
X82280000Y-122203333D01*
X82880000Y-121503333D02*
X82913333Y-121536666D01*
X82946666Y-121636666D01*
X82946666Y-121703333D01*
X82913333Y-121803333D01*
X82846666Y-121870000D01*
X82780000Y-121903333D01*
X82646666Y-121936666D01*
X82546666Y-121936666D01*
X82413333Y-121903333D01*
X82346666Y-121870000D01*
X82280000Y-121803333D01*
X82246666Y-121703333D01*
X82246666Y-121636666D01*
X82280000Y-121536666D01*
X82313333Y-121503333D01*
X82946666Y-121203333D02*
X82246666Y-121203333D01*
X82580000Y-121203333D02*
X82580000Y-120803333D01*
X82946666Y-120803333D02*
X82246666Y-120803333D01*
X82946666Y-120070000D02*
X82613333Y-120303333D01*
X82946666Y-120470000D02*
X82246666Y-120470000D01*
X82246666Y-120203333D01*
X82280000Y-120136666D01*
X82313333Y-120103333D01*
X82380000Y-120070000D01*
X82480000Y-120070000D01*
X82546666Y-120103333D01*
X82580000Y-120136666D01*
X82613333Y-120203333D01*
X82613333Y-120470000D01*
X82280000Y-119403333D02*
X82246666Y-119470000D01*
X82246666Y-119570000D01*
X82280000Y-119670000D01*
X82346666Y-119736666D01*
X82413333Y-119770000D01*
X82546666Y-119803333D01*
X82646666Y-119803333D01*
X82780000Y-119770000D01*
X82846666Y-119736666D01*
X82913333Y-119670000D01*
X82946666Y-119570000D01*
X82946666Y-119503333D01*
X82913333Y-119403333D01*
X82880000Y-119370000D01*
X82646666Y-119370000D01*
X82646666Y-119503333D01*
X82580000Y-119070000D02*
X82580000Y-118836666D01*
X82946666Y-118736666D02*
X82946666Y-119070000D01*
X82246666Y-119070000D01*
X82246666Y-118736666D01*
X58228666Y-133484000D02*
X57528666Y-133484000D01*
X58228666Y-133084000D01*
X57528666Y-133084000D01*
X58228666Y-132350666D02*
X57895333Y-132584000D01*
X58228666Y-132750666D02*
X57528666Y-132750666D01*
X57528666Y-132484000D01*
X57562000Y-132417333D01*
X57595333Y-132384000D01*
X57662000Y-132350666D01*
X57762000Y-132350666D01*
X57828666Y-132384000D01*
X57862000Y-132417333D01*
X57895333Y-132484000D01*
X57895333Y-132750666D01*
X58195333Y-132084000D02*
X58228666Y-131984000D01*
X58228666Y-131817333D01*
X58195333Y-131750666D01*
X58162000Y-131717333D01*
X58095333Y-131684000D01*
X58028666Y-131684000D01*
X57962000Y-131717333D01*
X57928666Y-131750666D01*
X57895333Y-131817333D01*
X57862000Y-131950666D01*
X57828666Y-132017333D01*
X57795333Y-132050666D01*
X57728666Y-132084000D01*
X57662000Y-132084000D01*
X57595333Y-132050666D01*
X57562000Y-132017333D01*
X57528666Y-131950666D01*
X57528666Y-131784000D01*
X57562000Y-131684000D01*
X57528666Y-131484000D02*
X57528666Y-131084000D01*
X58228666Y-131284000D02*
X57528666Y-131284000D01*
X102331666Y-152516666D02*
X102331666Y-151816666D01*
X102598333Y-151816666D01*
X102665000Y-151850000D01*
X102698333Y-151883333D01*
X102731666Y-151950000D01*
X102731666Y-152050000D01*
X102698333Y-152116666D01*
X102665000Y-152150000D01*
X102598333Y-152183333D01*
X102331666Y-152183333D01*
X102965000Y-151816666D02*
X103131666Y-152516666D01*
X103265000Y-152016666D01*
X103398333Y-152516666D01*
X103565000Y-151816666D01*
X104231666Y-152516666D02*
X103998333Y-152183333D01*
X103831666Y-152516666D02*
X103831666Y-151816666D01*
X104098333Y-151816666D01*
X104165000Y-151850000D01*
X104198333Y-151883333D01*
X104231666Y-151950000D01*
X104231666Y-152050000D01*
X104198333Y-152116666D01*
X104165000Y-152150000D01*
X104098333Y-152183333D01*
X103831666Y-152183333D01*
X105298333Y-152150000D02*
X105398333Y-152183333D01*
X105431666Y-152216666D01*
X105465000Y-152283333D01*
X105465000Y-152383333D01*
X105431666Y-152450000D01*
X105398333Y-152483333D01*
X105331666Y-152516666D01*
X105065000Y-152516666D01*
X105065000Y-151816666D01*
X105298333Y-151816666D01*
X105365000Y-151850000D01*
X105398333Y-151883333D01*
X105431666Y-151950000D01*
X105431666Y-152016666D01*
X105398333Y-152083333D01*
X105365000Y-152116666D01*
X105298333Y-152150000D01*
X105065000Y-152150000D01*
X106065000Y-152050000D02*
X106065000Y-152516666D01*
X105765000Y-152050000D02*
X105765000Y-152416666D01*
X105798333Y-152483333D01*
X105865000Y-152516666D01*
X105965000Y-152516666D01*
X106031666Y-152483333D01*
X106065000Y-152450000D01*
X106298333Y-152050000D02*
X106565000Y-152050000D01*
X106398333Y-151816666D02*
X106398333Y-152416666D01*
X106431666Y-152483333D01*
X106498333Y-152516666D01*
X106565000Y-152516666D01*
X106698333Y-152050000D02*
X106965000Y-152050000D01*
X106798333Y-151816666D02*
X106798333Y-152416666D01*
X106831666Y-152483333D01*
X106898333Y-152516666D01*
X106965000Y-152516666D01*
X107298333Y-152516666D02*
X107231666Y-152483333D01*
X107198333Y-152450000D01*
X107165000Y-152383333D01*
X107165000Y-152183333D01*
X107198333Y-152116666D01*
X107231666Y-152083333D01*
X107298333Y-152050000D01*
X107398333Y-152050000D01*
X107465000Y-152083333D01*
X107498333Y-152116666D01*
X107531666Y-152183333D01*
X107531666Y-152383333D01*
X107498333Y-152450000D01*
X107465000Y-152483333D01*
X107398333Y-152516666D01*
X107298333Y-152516666D01*
X107831666Y-152050000D02*
X107831666Y-152516666D01*
X107831666Y-152116666D02*
X107865000Y-152083333D01*
X107931666Y-152050000D01*
X108031666Y-152050000D01*
X108098333Y-152083333D01*
X108131666Y-152150000D01*
X108131666Y-152516666D01*
D10*
X56614285Y-115871428D02*
X55947619Y-116109523D01*
X56614285Y-116347619D01*
X55947619Y-117252380D02*
X55947619Y-116680952D01*
X55947619Y-116966666D02*
X56947619Y-116966666D01*
X56804761Y-116871428D01*
X56709523Y-116776190D01*
X56661904Y-116680952D01*
X56042857Y-117680952D02*
X55995238Y-117728571D01*
X55947619Y-117680952D01*
X55995238Y-117633333D01*
X56042857Y-117680952D01*
X55947619Y-117680952D01*
X56947619Y-118347619D02*
X56947619Y-118442857D01*
X56900000Y-118538095D01*
X56852380Y-118585714D01*
X56757142Y-118633333D01*
X56566666Y-118680952D01*
X56328571Y-118680952D01*
X56138095Y-118633333D01*
X56042857Y-118585714D01*
X55995238Y-118538095D01*
X55947619Y-118442857D01*
X55947619Y-118347619D01*
X55995238Y-118252380D01*
X56042857Y-118204761D01*
X56138095Y-118157142D01*
X56328571Y-118109523D01*
X56566666Y-118109523D01*
X56757142Y-118157142D01*
X56852380Y-118204761D01*
X56900000Y-118252380D01*
X56947619Y-118347619D01*
X64147619Y-117047619D02*
X64623809Y-116714285D01*
X64147619Y-116476190D02*
X65147619Y-116476190D01*
X65147619Y-116857142D01*
X65100000Y-116952380D01*
X65052380Y-117000000D01*
X64957142Y-117047619D01*
X64814285Y-117047619D01*
X64719047Y-117000000D01*
X64671428Y-116952380D01*
X64623809Y-116857142D01*
X64623809Y-116476190D01*
X64671428Y-117476190D02*
X64671428Y-117809523D01*
X64147619Y-117952380D02*
X64147619Y-117476190D01*
X65147619Y-117476190D01*
X65147619Y-117952380D01*
X64195238Y-118333333D02*
X64147619Y-118476190D01*
X64147619Y-118714285D01*
X64195238Y-118809523D01*
X64242857Y-118857142D01*
X64338095Y-118904761D01*
X64433333Y-118904761D01*
X64528571Y-118857142D01*
X64576190Y-118809523D01*
X64623809Y-118714285D01*
X64671428Y-118523809D01*
X64719047Y-118428571D01*
X64766666Y-118380952D01*
X64861904Y-118333333D01*
X64957142Y-118333333D01*
X65052380Y-118380952D01*
X65100000Y-118428571D01*
X65147619Y-118523809D01*
X65147619Y-118761904D01*
X65100000Y-118904761D01*
X64671428Y-119333333D02*
X64671428Y-119666666D01*
X64147619Y-119809523D02*
X64147619Y-119333333D01*
X65147619Y-119333333D01*
X65147619Y-119809523D01*
X65147619Y-120095238D02*
X65147619Y-120666666D01*
X64147619Y-120380952D02*
X65147619Y-120380952D01*
D12*
X51833680Y-129243602D02*
X51867013Y-129176936D01*
X51867013Y-129076936D01*
X51833680Y-128976936D01*
X51767013Y-128910269D01*
X51700346Y-128876936D01*
X51567013Y-128843602D01*
X51467013Y-128843602D01*
X51333680Y-128876936D01*
X51267013Y-128910269D01*
X51200346Y-128976936D01*
X51167013Y-129076936D01*
X51167013Y-129143602D01*
X51200346Y-129243602D01*
X51233680Y-129276936D01*
X51467013Y-129276936D01*
X51467013Y-129143602D01*
X51167013Y-129576936D02*
X51867013Y-129576936D01*
X51167013Y-129976936D01*
X51867013Y-129976936D01*
X51167013Y-130310269D02*
X51867013Y-130310269D01*
X51867013Y-130476936D01*
X51833680Y-130576936D01*
X51767013Y-130643602D01*
X51700346Y-130676936D01*
X51567013Y-130710269D01*
X51467013Y-130710269D01*
X51333680Y-130676936D01*
X51267013Y-130643602D01*
X51200346Y-130576936D01*
X51167013Y-130476936D01*
X51167013Y-130310269D01*
X90683333Y-107516666D02*
X90683333Y-106816666D01*
X90850000Y-106816666D01*
X90950000Y-106850000D01*
X91016666Y-106916666D01*
X91050000Y-106983333D01*
X91083333Y-107116666D01*
X91083333Y-107216666D01*
X91050000Y-107350000D01*
X91016666Y-107416666D01*
X90950000Y-107483333D01*
X90850000Y-107516666D01*
X90683333Y-107516666D01*
X91750000Y-107516666D02*
X91350000Y-107516666D01*
X91550000Y-107516666D02*
X91550000Y-106816666D01*
X91483333Y-106916666D01*
X91416666Y-106983333D01*
X91350000Y-107016666D01*
X95682666Y-136993333D02*
X96249333Y-136993333D01*
X96316000Y-136960000D01*
X96349333Y-136926666D01*
X96382666Y-136860000D01*
X96382666Y-136726666D01*
X96349333Y-136660000D01*
X96316000Y-136626666D01*
X96249333Y-136593333D01*
X95682666Y-136593333D01*
X95682666Y-136326666D02*
X95682666Y-135893333D01*
X95949333Y-136126666D01*
X95949333Y-136026666D01*
X95982666Y-135960000D01*
X96016000Y-135926666D01*
X96082666Y-135893333D01*
X96249333Y-135893333D01*
X96316000Y-135926666D01*
X96349333Y-135960000D01*
X96382666Y-136026666D01*
X96382666Y-136226666D01*
X96349333Y-136293333D01*
X96316000Y-136326666D01*
X105986666Y-132376666D02*
X105653333Y-132610000D01*
X105986666Y-132776666D02*
X105286666Y-132776666D01*
X105286666Y-132510000D01*
X105320000Y-132443333D01*
X105353333Y-132410000D01*
X105420000Y-132376666D01*
X105520000Y-132376666D01*
X105586666Y-132410000D01*
X105620000Y-132443333D01*
X105653333Y-132510000D01*
X105653333Y-132776666D01*
X105353333Y-132110000D02*
X105320000Y-132076666D01*
X105286666Y-132010000D01*
X105286666Y-131843333D01*
X105320000Y-131776666D01*
X105353333Y-131743333D01*
X105420000Y-131710000D01*
X105486666Y-131710000D01*
X105586666Y-131743333D01*
X105986666Y-132143333D01*
X105986666Y-131710000D01*
D10*
X77933333Y-148557142D02*
X77885714Y-148604761D01*
X77742857Y-148652380D01*
X77647619Y-148652380D01*
X77504761Y-148604761D01*
X77409523Y-148509523D01*
X77361904Y-148414285D01*
X77314285Y-148223809D01*
X77314285Y-148080952D01*
X77361904Y-147890476D01*
X77409523Y-147795238D01*
X77504761Y-147700000D01*
X77647619Y-147652380D01*
X77742857Y-147652380D01*
X77885714Y-147700000D01*
X77933333Y-147747619D01*
X78266666Y-147652380D02*
X78885714Y-147652380D01*
X78552380Y-148033333D01*
X78695238Y-148033333D01*
X78790476Y-148080952D01*
X78838095Y-148128571D01*
X78885714Y-148223809D01*
X78885714Y-148461904D01*
X78838095Y-148557142D01*
X78790476Y-148604761D01*
X78695238Y-148652380D01*
X78409523Y-148652380D01*
X78314285Y-148604761D01*
X78266666Y-148557142D01*
D12*
X81350000Y-129350000D02*
X81383333Y-129383333D01*
X81416666Y-129483333D01*
X81416666Y-129550000D01*
X81383333Y-129650000D01*
X81316666Y-129716666D01*
X81250000Y-129750000D01*
X81116666Y-129783333D01*
X81016666Y-129783333D01*
X80883333Y-129750000D01*
X80816666Y-129716666D01*
X80750000Y-129650000D01*
X80716666Y-129550000D01*
X80716666Y-129483333D01*
X80750000Y-129383333D01*
X80783333Y-129350000D01*
X81416666Y-128683333D02*
X81416666Y-129083333D01*
X81416666Y-128883333D02*
X80716666Y-128883333D01*
X80816666Y-128950000D01*
X80883333Y-129016666D01*
X80916666Y-129083333D01*
X81416666Y-128350000D02*
X81416666Y-128216666D01*
X81383333Y-128150000D01*
X81350000Y-128116666D01*
X81250000Y-128050000D01*
X81116666Y-128016666D01*
X80850000Y-128016666D01*
X80783333Y-128050000D01*
X80750000Y-128083333D01*
X80716666Y-128150000D01*
X80716666Y-128283333D01*
X80750000Y-128350000D01*
X80783333Y-128383333D01*
X80850000Y-128416666D01*
X81016666Y-128416666D01*
X81083333Y-128383333D01*
X81116666Y-128350000D01*
X81150000Y-128283333D01*
X81150000Y-128150000D01*
X81116666Y-128083333D01*
X81083333Y-128050000D01*
X81016666Y-128016666D01*
X60780000Y-114550000D02*
X60746666Y-114583333D01*
X60646666Y-114616666D01*
X60580000Y-114616666D01*
X60480000Y-114583333D01*
X60413333Y-114516666D01*
X60380000Y-114450000D01*
X60346666Y-114316666D01*
X60346666Y-114216666D01*
X60380000Y-114083333D01*
X60413333Y-114016666D01*
X60480000Y-113950000D01*
X60580000Y-113916666D01*
X60646666Y-113916666D01*
X60746666Y-113950000D01*
X60780000Y-113983333D01*
X61446666Y-114616666D02*
X61046666Y-114616666D01*
X61246666Y-114616666D02*
X61246666Y-113916666D01*
X61180000Y-114016666D01*
X61113333Y-114083333D01*
X61046666Y-114116666D01*
X62046666Y-114150000D02*
X62046666Y-114616666D01*
X61880000Y-113883333D02*
X61713333Y-114383333D01*
X62146666Y-114383333D01*
X58783333Y-108775414D02*
X58783333Y-108075414D01*
X58950000Y-108075414D01*
X59050000Y-108108748D01*
X59116666Y-108175414D01*
X59150000Y-108242081D01*
X59183333Y-108375414D01*
X59183333Y-108475414D01*
X59150000Y-108608748D01*
X59116666Y-108675414D01*
X59050000Y-108742081D01*
X58950000Y-108775414D01*
X58783333Y-108775414D01*
X59416666Y-108075414D02*
X59883333Y-108075414D01*
X59583333Y-108775414D01*
X104826666Y-127147500D02*
X104826666Y-127547500D01*
X104826666Y-127347500D02*
X104126666Y-127347500D01*
X104226666Y-127414166D01*
X104293333Y-127480833D01*
X104326666Y-127547500D01*
X104193333Y-126880833D02*
X104160000Y-126847500D01*
X104126666Y-126780833D01*
X104126666Y-126614166D01*
X104160000Y-126547500D01*
X104193333Y-126514166D01*
X104260000Y-126480833D01*
X104326666Y-126480833D01*
X104426666Y-126514166D01*
X104826666Y-126914166D01*
X104826666Y-126480833D01*
X104360000Y-126247500D02*
X104826666Y-126080833D01*
X104360000Y-125914166D01*
X104560000Y-119947500D02*
X104560000Y-119414166D01*
X104826666Y-119680833D02*
X104293333Y-119680833D01*
X104126666Y-118747500D02*
X104126666Y-119080833D01*
X104460000Y-119114166D01*
X104426666Y-119080833D01*
X104393333Y-119014166D01*
X104393333Y-118847500D01*
X104426666Y-118780833D01*
X104460000Y-118747500D01*
X104526666Y-118714166D01*
X104693333Y-118714166D01*
X104760000Y-118747500D01*
X104793333Y-118780833D01*
X104826666Y-118847500D01*
X104826666Y-119014166D01*
X104793333Y-119080833D01*
X104760000Y-119114166D01*
X104160000Y-124780833D02*
X104126666Y-124847500D01*
X104126666Y-124947500D01*
X104160000Y-125047500D01*
X104226666Y-125114166D01*
X104293333Y-125147500D01*
X104426666Y-125180833D01*
X104526666Y-125180833D01*
X104660000Y-125147500D01*
X104726666Y-125114166D01*
X104793333Y-125047500D01*
X104826666Y-124947500D01*
X104826666Y-124880833D01*
X104793333Y-124780833D01*
X104760000Y-124747500D01*
X104526666Y-124747500D01*
X104526666Y-124880833D01*
X104826666Y-124447500D02*
X104126666Y-124447500D01*
X104826666Y-124047500D01*
X104126666Y-124047500D01*
X104826666Y-123714166D02*
X104126666Y-123714166D01*
X104126666Y-123547500D01*
X104160000Y-123447500D01*
X104226666Y-123380833D01*
X104293333Y-123347500D01*
X104426666Y-123314166D01*
X104526666Y-123314166D01*
X104660000Y-123347500D01*
X104726666Y-123380833D01*
X104793333Y-123447500D01*
X104826666Y-123547500D01*
X104826666Y-123714166D01*
X104160000Y-122280833D02*
X104126666Y-122347500D01*
X104126666Y-122447500D01*
X104160000Y-122547500D01*
X104226666Y-122614166D01*
X104293333Y-122647500D01*
X104426666Y-122680833D01*
X104526666Y-122680833D01*
X104660000Y-122647500D01*
X104726666Y-122614166D01*
X104793333Y-122547500D01*
X104826666Y-122447500D01*
X104826666Y-122380833D01*
X104793333Y-122280833D01*
X104760000Y-122247500D01*
X104526666Y-122247500D01*
X104526666Y-122380833D01*
X104826666Y-121947500D02*
X104126666Y-121947500D01*
X104826666Y-121547500D01*
X104126666Y-121547500D01*
X104826666Y-121214166D02*
X104126666Y-121214166D01*
X104126666Y-121047500D01*
X104160000Y-120947500D01*
X104226666Y-120880833D01*
X104293333Y-120847500D01*
X104426666Y-120814166D01*
X104526666Y-120814166D01*
X104660000Y-120847500D01*
X104726666Y-120880833D01*
X104793333Y-120947500D01*
X104826666Y-121047500D01*
X104826666Y-121214166D01*
D10*
X103933333Y-148557142D02*
X103885714Y-148604761D01*
X103742857Y-148652380D01*
X103647619Y-148652380D01*
X103504761Y-148604761D01*
X103409523Y-148509523D01*
X103361904Y-148414285D01*
X103314285Y-148223809D01*
X103314285Y-148080952D01*
X103361904Y-147890476D01*
X103409523Y-147795238D01*
X103504761Y-147700000D01*
X103647619Y-147652380D01*
X103742857Y-147652380D01*
X103885714Y-147700000D01*
X103933333Y-147747619D01*
X104885714Y-148652380D02*
X104314285Y-148652380D01*
X104600000Y-148652380D02*
X104600000Y-147652380D01*
X104504761Y-147795238D01*
X104409523Y-147890476D01*
X104314285Y-147938095D01*
D12*
X76816666Y-112750000D02*
X76483333Y-112983333D01*
X76816666Y-113150000D02*
X76116666Y-113150000D01*
X76116666Y-112883333D01*
X76150000Y-112816666D01*
X76183333Y-112783333D01*
X76250000Y-112750000D01*
X76350000Y-112750000D01*
X76416666Y-112783333D01*
X76450000Y-112816666D01*
X76483333Y-112883333D01*
X76483333Y-113150000D01*
X76816666Y-112083333D02*
X76816666Y-112483333D01*
X76816666Y-112283333D02*
X76116666Y-112283333D01*
X76216666Y-112350000D01*
X76283333Y-112416666D01*
X76316666Y-112483333D01*
X76416666Y-111683333D02*
X76383333Y-111750000D01*
X76350000Y-111783333D01*
X76283333Y-111816666D01*
X76250000Y-111816666D01*
X76183333Y-111783333D01*
X76150000Y-111750000D01*
X76116666Y-111683333D01*
X76116666Y-111550000D01*
X76150000Y-111483333D01*
X76183333Y-111450000D01*
X76250000Y-111416666D01*
X76283333Y-111416666D01*
X76350000Y-111450000D01*
X76383333Y-111483333D01*
X76416666Y-111550000D01*
X76416666Y-111683333D01*
X76450000Y-111750000D01*
X76483333Y-111783333D01*
X76550000Y-111816666D01*
X76683333Y-111816666D01*
X76750000Y-111783333D01*
X76783333Y-111750000D01*
X76816666Y-111683333D01*
X76816666Y-111550000D01*
X76783333Y-111483333D01*
X76750000Y-111450000D01*
X76683333Y-111416666D01*
X76550000Y-111416666D01*
X76483333Y-111450000D01*
X76450000Y-111483333D01*
X76416666Y-111550000D01*
X63183333Y-131616666D02*
X62850000Y-131616666D01*
X62850000Y-130916666D01*
X63783333Y-131616666D02*
X63383333Y-131616666D01*
X63583333Y-131616666D02*
X63583333Y-130916666D01*
X63516666Y-131016666D01*
X63450000Y-131083333D01*
X63383333Y-131116666D01*
X66465000Y-114492500D02*
X66431666Y-114525833D01*
X66331666Y-114559166D01*
X66265000Y-114559166D01*
X66165000Y-114525833D01*
X66098333Y-114459166D01*
X66065000Y-114392500D01*
X66031666Y-114259166D01*
X66031666Y-114159166D01*
X66065000Y-114025833D01*
X66098333Y-113959166D01*
X66165000Y-113892500D01*
X66265000Y-113859166D01*
X66331666Y-113859166D01*
X66431666Y-113892500D01*
X66465000Y-113925833D01*
X67131666Y-114559166D02*
X66731666Y-114559166D01*
X66931666Y-114559166D02*
X66931666Y-113859166D01*
X66865000Y-113959166D01*
X66798333Y-114025833D01*
X66731666Y-114059166D01*
X67398333Y-113925833D02*
X67431666Y-113892500D01*
X67498333Y-113859166D01*
X67665000Y-113859166D01*
X67731666Y-113892500D01*
X67765000Y-113925833D01*
X67798333Y-113992500D01*
X67798333Y-114059166D01*
X67765000Y-114159166D01*
X67365000Y-114559166D01*
X67798333Y-114559166D01*
D10*
X66666666Y-117604761D02*
X66809523Y-117652380D01*
X67047619Y-117652380D01*
X67142857Y-117604761D01*
X67190476Y-117557142D01*
X67238095Y-117461904D01*
X67238095Y-117366666D01*
X67190476Y-117271428D01*
X67142857Y-117223809D01*
X67047619Y-117176190D01*
X66857142Y-117128571D01*
X66761904Y-117080952D01*
X66714285Y-117033333D01*
X66666666Y-116938095D01*
X66666666Y-116842857D01*
X66714285Y-116747619D01*
X66761904Y-116700000D01*
X66857142Y-116652380D01*
X67095238Y-116652380D01*
X67238095Y-116700000D01*
X67571428Y-116652380D02*
X67809523Y-117652380D01*
X68000000Y-116938095D01*
X68190476Y-117652380D01*
X68428571Y-116652380D01*
X69333333Y-117652380D02*
X68761904Y-117652380D01*
X69047619Y-117652380D02*
X69047619Y-116652380D01*
X68952380Y-116795238D01*
X68857142Y-116890476D01*
X68761904Y-116938095D01*
D12*
X74950000Y-124750000D02*
X74916666Y-124783333D01*
X74816666Y-124816666D01*
X74750000Y-124816666D01*
X74650000Y-124783333D01*
X74583333Y-124716666D01*
X74550000Y-124650000D01*
X74516666Y-124516666D01*
X74516666Y-124416666D01*
X74550000Y-124283333D01*
X74583333Y-124216666D01*
X74650000Y-124150000D01*
X74750000Y-124116666D01*
X74816666Y-124116666D01*
X74916666Y-124150000D01*
X74950000Y-124183333D01*
X75216666Y-124183333D02*
X75250000Y-124150000D01*
X75316666Y-124116666D01*
X75483333Y-124116666D01*
X75550000Y-124150000D01*
X75583333Y-124183333D01*
X75616666Y-124250000D01*
X75616666Y-124316666D01*
X75583333Y-124416666D01*
X75183333Y-124816666D01*
X75616666Y-124816666D01*
X76050000Y-124116666D02*
X76116666Y-124116666D01*
X76183333Y-124150000D01*
X76216666Y-124183333D01*
X76250000Y-124250000D01*
X76283333Y-124383333D01*
X76283333Y-124550000D01*
X76250000Y-124683333D01*
X76216666Y-124750000D01*
X76183333Y-124783333D01*
X76116666Y-124816666D01*
X76050000Y-124816666D01*
X75983333Y-124783333D01*
X75950000Y-124750000D01*
X75916666Y-124683333D01*
X75883333Y-124550000D01*
X75883333Y-124383333D01*
X75916666Y-124250000D01*
X75950000Y-124183333D01*
X75983333Y-124150000D01*
X76050000Y-124116666D01*
X107930000Y-129146666D02*
X107696666Y-128813333D01*
X107530000Y-129146666D02*
X107530000Y-128446666D01*
X107796666Y-128446666D01*
X107863333Y-128480000D01*
X107896666Y-128513333D01*
X107930000Y-128580000D01*
X107930000Y-128680000D01*
X107896666Y-128746666D01*
X107863333Y-128780000D01*
X107796666Y-128813333D01*
X107530000Y-128813333D01*
X108596666Y-129146666D02*
X108196666Y-129146666D01*
X108396666Y-129146666D02*
X108396666Y-128446666D01*
X108330000Y-128546666D01*
X108263333Y-128613333D01*
X108196666Y-128646666D01*
X109196666Y-128680000D02*
X109196666Y-129146666D01*
X109030000Y-128413333D02*
X108863333Y-128913333D01*
X109296666Y-128913333D01*
X108616666Y-155333333D02*
X109116666Y-155333333D01*
X109216666Y-155366666D01*
X109283333Y-155433333D01*
X109316666Y-155533333D01*
X109316666Y-155600000D01*
X108616666Y-154700000D02*
X108616666Y-154833333D01*
X108650000Y-154900000D01*
X108683333Y-154933333D01*
X108783333Y-155000000D01*
X108916666Y-155033333D01*
X109183333Y-155033333D01*
X109250000Y-155000000D01*
X109283333Y-154966666D01*
X109316666Y-154900000D01*
X109316666Y-154766666D01*
X109283333Y-154700000D01*
X109250000Y-154666666D01*
X109183333Y-154633333D01*
X109016666Y-154633333D01*
X108950000Y-154666666D01*
X108916666Y-154700000D01*
X108883333Y-154766666D01*
X108883333Y-154900000D01*
X108916666Y-154966666D01*
X108950000Y-155000000D01*
X109016666Y-155033333D01*
X70750000Y-131550000D02*
X70783333Y-131583333D01*
X70816666Y-131683333D01*
X70816666Y-131750000D01*
X70783333Y-131850000D01*
X70716666Y-131916666D01*
X70650000Y-131950000D01*
X70516666Y-131983333D01*
X70416666Y-131983333D01*
X70283333Y-131950000D01*
X70216666Y-131916666D01*
X70150000Y-131850000D01*
X70116666Y-131750000D01*
X70116666Y-131683333D01*
X70150000Y-131583333D01*
X70183333Y-131550000D01*
X70816666Y-130883333D02*
X70816666Y-131283333D01*
X70816666Y-131083333D02*
X70116666Y-131083333D01*
X70216666Y-131150000D01*
X70283333Y-131216666D01*
X70316666Y-131283333D01*
X70416666Y-130483333D02*
X70383333Y-130550000D01*
X70350000Y-130583333D01*
X70283333Y-130616666D01*
X70250000Y-130616666D01*
X70183333Y-130583333D01*
X70150000Y-130550000D01*
X70116666Y-130483333D01*
X70116666Y-130350000D01*
X70150000Y-130283333D01*
X70183333Y-130250000D01*
X70250000Y-130216666D01*
X70283333Y-130216666D01*
X70350000Y-130250000D01*
X70383333Y-130283333D01*
X70416666Y-130350000D01*
X70416666Y-130483333D01*
X70450000Y-130550000D01*
X70483333Y-130583333D01*
X70550000Y-130616666D01*
X70683333Y-130616666D01*
X70750000Y-130583333D01*
X70783333Y-130550000D01*
X70816666Y-130483333D01*
X70816666Y-130350000D01*
X70783333Y-130283333D01*
X70750000Y-130250000D01*
X70683333Y-130216666D01*
X70550000Y-130216666D01*
X70483333Y-130250000D01*
X70450000Y-130283333D01*
X70416666Y-130350000D01*
X102986666Y-136993333D02*
X103553333Y-136993333D01*
X103620000Y-136960000D01*
X103653333Y-136926666D01*
X103686666Y-136860000D01*
X103686666Y-136726666D01*
X103653333Y-136660000D01*
X103620000Y-136626666D01*
X103553333Y-136593333D01*
X102986666Y-136593333D01*
X103686666Y-135893333D02*
X103686666Y-136293333D01*
X103686666Y-136093333D02*
X102986666Y-136093333D01*
X103086666Y-136160000D01*
X103153333Y-136226666D01*
X103186666Y-136293333D01*
X66415000Y-107086666D02*
X66181666Y-106753333D01*
X66015000Y-107086666D02*
X66015000Y-106386666D01*
X66281666Y-106386666D01*
X66348333Y-106420000D01*
X66381666Y-106453333D01*
X66415000Y-106520000D01*
X66415000Y-106620000D01*
X66381666Y-106686666D01*
X66348333Y-106720000D01*
X66281666Y-106753333D01*
X66015000Y-106753333D01*
X66681666Y-106453333D02*
X66715000Y-106420000D01*
X66781666Y-106386666D01*
X66948333Y-106386666D01*
X67015000Y-106420000D01*
X67048333Y-106453333D01*
X67081666Y-106520000D01*
X67081666Y-106586666D01*
X67048333Y-106686666D01*
X66648333Y-107086666D01*
X67081666Y-107086666D01*
X67515000Y-106386666D02*
X67581666Y-106386666D01*
X67648333Y-106420000D01*
X67681666Y-106453333D01*
X67715000Y-106520000D01*
X67748333Y-106653333D01*
X67748333Y-106820000D01*
X67715000Y-106953333D01*
X67681666Y-107020000D01*
X67648333Y-107053333D01*
X67581666Y-107086666D01*
X67515000Y-107086666D01*
X67448333Y-107053333D01*
X67415000Y-107020000D01*
X67381666Y-106953333D01*
X67348333Y-106820000D01*
X67348333Y-106653333D01*
X67381666Y-106520000D01*
X67415000Y-106453333D01*
X67448333Y-106420000D01*
X67515000Y-106386666D01*
D10*
X51933333Y-148557142D02*
X51885714Y-148604761D01*
X51742857Y-148652380D01*
X51647619Y-148652380D01*
X51504761Y-148604761D01*
X51409523Y-148509523D01*
X51361904Y-148414285D01*
X51314285Y-148223809D01*
X51314285Y-148080952D01*
X51361904Y-147890476D01*
X51409523Y-147795238D01*
X51504761Y-147700000D01*
X51647619Y-147652380D01*
X51742857Y-147652380D01*
X51885714Y-147700000D01*
X51933333Y-147747619D01*
X52838095Y-147652380D02*
X52361904Y-147652380D01*
X52314285Y-148128571D01*
X52361904Y-148080952D01*
X52457142Y-148033333D01*
X52695238Y-148033333D01*
X52790476Y-148080952D01*
X52838095Y-148128571D01*
X52885714Y-148223809D01*
X52885714Y-148461904D01*
X52838095Y-148557142D01*
X52790476Y-148604761D01*
X52695238Y-148652380D01*
X52457142Y-148652380D01*
X52361904Y-148604761D01*
X52314285Y-148557142D01*
X102961904Y-118433333D02*
X102580952Y-118700000D01*
X102961904Y-118890476D02*
X102161904Y-118890476D01*
X102161904Y-118585714D01*
X102200000Y-118509523D01*
X102238095Y-118471428D01*
X102314285Y-118433333D01*
X102428571Y-118433333D01*
X102504761Y-118471428D01*
X102542857Y-118509523D01*
X102580952Y-118585714D01*
X102580952Y-118890476D01*
X102961904Y-117671428D02*
X102961904Y-118128571D01*
X102961904Y-117900000D02*
X102161904Y-117900000D01*
X102276190Y-117976190D01*
X102352380Y-118052380D01*
X102390476Y-118128571D01*
D12*
X92986666Y-132376666D02*
X92653333Y-132610000D01*
X92986666Y-132776666D02*
X92286666Y-132776666D01*
X92286666Y-132510000D01*
X92320000Y-132443333D01*
X92353333Y-132410000D01*
X92420000Y-132376666D01*
X92520000Y-132376666D01*
X92586666Y-132410000D01*
X92620000Y-132443333D01*
X92653333Y-132510000D01*
X92653333Y-132776666D01*
X92286666Y-131776666D02*
X92286666Y-131910000D01*
X92320000Y-131976666D01*
X92353333Y-132010000D01*
X92453333Y-132076666D01*
X92586666Y-132110000D01*
X92853333Y-132110000D01*
X92920000Y-132076666D01*
X92953333Y-132043333D01*
X92986666Y-131976666D01*
X92986666Y-131843333D01*
X92953333Y-131776666D01*
X92920000Y-131743333D01*
X92853333Y-131710000D01*
X92686666Y-131710000D01*
X92620000Y-131743333D01*
X92586666Y-131776666D01*
X92553333Y-131843333D01*
X92553333Y-131976666D01*
X92586666Y-132043333D01*
X92620000Y-132076666D01*
X92686666Y-132110000D01*
X82050000Y-124916666D02*
X81816666Y-124583333D01*
X81650000Y-124916666D02*
X81650000Y-124216666D01*
X81916666Y-124216666D01*
X81983333Y-124250000D01*
X82016666Y-124283333D01*
X82050000Y-124350000D01*
X82050000Y-124450000D01*
X82016666Y-124516666D01*
X81983333Y-124550000D01*
X81916666Y-124583333D01*
X81650000Y-124583333D01*
X82316666Y-124283333D02*
X82350000Y-124250000D01*
X82416666Y-124216666D01*
X82583333Y-124216666D01*
X82650000Y-124250000D01*
X82683333Y-124283333D01*
X82716666Y-124350000D01*
X82716666Y-124416666D01*
X82683333Y-124516666D01*
X82283333Y-124916666D01*
X82716666Y-124916666D01*
X82983333Y-124283333D02*
X83016666Y-124250000D01*
X83083333Y-124216666D01*
X83250000Y-124216666D01*
X83316666Y-124250000D01*
X83350000Y-124283333D01*
X83383333Y-124350000D01*
X83383333Y-124416666D01*
X83350000Y-124516666D01*
X82950000Y-124916666D01*
X83383333Y-124916666D01*
X81312666Y-136660666D02*
X80612666Y-136660666D01*
X80612666Y-136494000D01*
X80646000Y-136394000D01*
X80712666Y-136327333D01*
X80779333Y-136294000D01*
X80912666Y-136260666D01*
X81012666Y-136260666D01*
X81146000Y-136294000D01*
X81212666Y-136327333D01*
X81279333Y-136394000D01*
X81312666Y-136494000D01*
X81312666Y-136660666D01*
X80846000Y-135660666D02*
X81312666Y-135660666D01*
X80579333Y-135827333D02*
X81079333Y-135994000D01*
X81079333Y-135560666D01*
X88983333Y-115050000D02*
X88950000Y-115083333D01*
X88850000Y-115116666D01*
X88783333Y-115116666D01*
X88683333Y-115083333D01*
X88616666Y-115016666D01*
X88583333Y-114950000D01*
X88550000Y-114816666D01*
X88550000Y-114716666D01*
X88583333Y-114583333D01*
X88616666Y-114516666D01*
X88683333Y-114450000D01*
X88783333Y-114416666D01*
X88850000Y-114416666D01*
X88950000Y-114450000D01*
X88983333Y-114483333D01*
X89383333Y-114716666D02*
X89316666Y-114683333D01*
X89283333Y-114650000D01*
X89250000Y-114583333D01*
X89250000Y-114550000D01*
X89283333Y-114483333D01*
X89316666Y-114450000D01*
X89383333Y-114416666D01*
X89516666Y-114416666D01*
X89583333Y-114450000D01*
X89616666Y-114483333D01*
X89650000Y-114550000D01*
X89650000Y-114583333D01*
X89616666Y-114650000D01*
X89583333Y-114683333D01*
X89516666Y-114716666D01*
X89383333Y-114716666D01*
X89316666Y-114750000D01*
X89283333Y-114783333D01*
X89250000Y-114850000D01*
X89250000Y-114983333D01*
X89283333Y-115050000D01*
X89316666Y-115083333D01*
X89383333Y-115116666D01*
X89516666Y-115116666D01*
X89583333Y-115083333D01*
X89616666Y-115050000D01*
X89650000Y-114983333D01*
X89650000Y-114850000D01*
X89616666Y-114783333D01*
X89583333Y-114750000D01*
X89516666Y-114716666D01*
X63650000Y-107126666D02*
X63416666Y-106793333D01*
X63250000Y-107126666D02*
X63250000Y-106426666D01*
X63516666Y-106426666D01*
X63583333Y-106460000D01*
X63616666Y-106493333D01*
X63650000Y-106560000D01*
X63650000Y-106660000D01*
X63616666Y-106726666D01*
X63583333Y-106760000D01*
X63516666Y-106793333D01*
X63250000Y-106793333D01*
X64316666Y-107126666D02*
X63916666Y-107126666D01*
X64116666Y-107126666D02*
X64116666Y-106426666D01*
X64050000Y-106526666D01*
X63983333Y-106593333D01*
X63916666Y-106626666D01*
X64583333Y-106493333D02*
X64616666Y-106460000D01*
X64683333Y-106426666D01*
X64850000Y-106426666D01*
X64916666Y-106460000D01*
X64950000Y-106493333D01*
X64983333Y-106560000D01*
X64983333Y-106626666D01*
X64950000Y-106726666D01*
X64550000Y-107126666D01*
X64983333Y-107126666D01*
X96186666Y-132376666D02*
X95853333Y-132610000D01*
X96186666Y-132776666D02*
X95486666Y-132776666D01*
X95486666Y-132510000D01*
X95520000Y-132443333D01*
X95553333Y-132410000D01*
X95620000Y-132376666D01*
X95720000Y-132376666D01*
X95786666Y-132410000D01*
X95820000Y-132443333D01*
X95853333Y-132510000D01*
X95853333Y-132776666D01*
X95486666Y-131743333D02*
X95486666Y-132076666D01*
X95820000Y-132110000D01*
X95786666Y-132076666D01*
X95753333Y-132010000D01*
X95753333Y-131843333D01*
X95786666Y-131776666D01*
X95820000Y-131743333D01*
X95886666Y-131710000D01*
X96053333Y-131710000D01*
X96120000Y-131743333D01*
X96153333Y-131776666D01*
X96186666Y-131843333D01*
X96186666Y-132010000D01*
X96153333Y-132076666D01*
X96120000Y-132110000D01*
X85550000Y-124916666D02*
X85316666Y-124583333D01*
X85150000Y-124916666D02*
X85150000Y-124216666D01*
X85416666Y-124216666D01*
X85483333Y-124250000D01*
X85516666Y-124283333D01*
X85550000Y-124350000D01*
X85550000Y-124450000D01*
X85516666Y-124516666D01*
X85483333Y-124550000D01*
X85416666Y-124583333D01*
X85150000Y-124583333D01*
X86216666Y-124916666D02*
X85816666Y-124916666D01*
X86016666Y-124916666D02*
X86016666Y-124216666D01*
X85950000Y-124316666D01*
X85883333Y-124383333D01*
X85816666Y-124416666D01*
X86816666Y-124216666D02*
X86683333Y-124216666D01*
X86616666Y-124250000D01*
X86583333Y-124283333D01*
X86516666Y-124383333D01*
X86483333Y-124516666D01*
X86483333Y-124783333D01*
X86516666Y-124850000D01*
X86550000Y-124883333D01*
X86616666Y-124916666D01*
X86750000Y-124916666D01*
X86816666Y-124883333D01*
X86850000Y-124850000D01*
X86883333Y-124783333D01*
X86883333Y-124616666D01*
X86850000Y-124550000D01*
X86816666Y-124516666D01*
X86750000Y-124483333D01*
X86616666Y-124483333D01*
X86550000Y-124516666D01*
X86516666Y-124550000D01*
X86483333Y-124616666D01*
X69701944Y-107074166D02*
X69468611Y-106740833D01*
X69301944Y-107074166D02*
X69301944Y-106374166D01*
X69568611Y-106374166D01*
X69635277Y-106407500D01*
X69668611Y-106440833D01*
X69701944Y-106507500D01*
X69701944Y-106607500D01*
X69668611Y-106674166D01*
X69635277Y-106707500D01*
X69568611Y-106740833D01*
X69301944Y-106740833D01*
X70101944Y-106674166D02*
X70035277Y-106640833D01*
X70001944Y-106607500D01*
X69968611Y-106540833D01*
X69968611Y-106507500D01*
X70001944Y-106440833D01*
X70035277Y-106407500D01*
X70101944Y-106374166D01*
X70235277Y-106374166D01*
X70301944Y-106407500D01*
X70335277Y-106440833D01*
X70368611Y-106507500D01*
X70368611Y-106540833D01*
X70335277Y-106607500D01*
X70301944Y-106640833D01*
X70235277Y-106674166D01*
X70101944Y-106674166D01*
X70035277Y-106707500D01*
X70001944Y-106740833D01*
X69968611Y-106807500D01*
X69968611Y-106940833D01*
X70001944Y-107007500D01*
X70035277Y-107040833D01*
X70101944Y-107074166D01*
X70235277Y-107074166D01*
X70301944Y-107040833D01*
X70335277Y-107007500D01*
X70368611Y-106940833D01*
X70368611Y-106807500D01*
X70335277Y-106740833D01*
X70301944Y-106707500D01*
X70235277Y-106674166D01*
X60680000Y-125818666D02*
X60446666Y-125485333D01*
X60280000Y-125818666D02*
X60280000Y-125118666D01*
X60546666Y-125118666D01*
X60613333Y-125152000D01*
X60646666Y-125185333D01*
X60680000Y-125252000D01*
X60680000Y-125352000D01*
X60646666Y-125418666D01*
X60613333Y-125452000D01*
X60546666Y-125485333D01*
X60280000Y-125485333D01*
X60946666Y-125185333D02*
X60980000Y-125152000D01*
X61046666Y-125118666D01*
X61213333Y-125118666D01*
X61280000Y-125152000D01*
X61313333Y-125185333D01*
X61346666Y-125252000D01*
X61346666Y-125318666D01*
X61313333Y-125418666D01*
X60913333Y-125818666D01*
X61346666Y-125818666D01*
X61946666Y-125352000D02*
X61946666Y-125818666D01*
X61780000Y-125085333D02*
X61613333Y-125585333D01*
X62046666Y-125585333D01*
D10*
X64933333Y-148557142D02*
X64885714Y-148604761D01*
X64742857Y-148652380D01*
X64647619Y-148652380D01*
X64504761Y-148604761D01*
X64409523Y-148509523D01*
X64361904Y-148414285D01*
X64314285Y-148223809D01*
X64314285Y-148080952D01*
X64361904Y-147890476D01*
X64409523Y-147795238D01*
X64504761Y-147700000D01*
X64647619Y-147652380D01*
X64742857Y-147652380D01*
X64885714Y-147700000D01*
X64933333Y-147747619D01*
X65790476Y-147985714D02*
X65790476Y-148652380D01*
X65552380Y-147604761D02*
X65314285Y-148319047D01*
X65933333Y-148319047D01*
D12*
X73250000Y-135350000D02*
X73283333Y-135383333D01*
X73316666Y-135483333D01*
X73316666Y-135550000D01*
X73283333Y-135650000D01*
X73216666Y-135716666D01*
X73150000Y-135750000D01*
X73016666Y-135783333D01*
X72916666Y-135783333D01*
X72783333Y-135750000D01*
X72716666Y-135716666D01*
X72650000Y-135650000D01*
X72616666Y-135550000D01*
X72616666Y-135483333D01*
X72650000Y-135383333D01*
X72683333Y-135350000D01*
X72683333Y-135083333D02*
X72650000Y-135050000D01*
X72616666Y-134983333D01*
X72616666Y-134816666D01*
X72650000Y-134750000D01*
X72683333Y-134716666D01*
X72750000Y-134683333D01*
X72816666Y-134683333D01*
X72916666Y-134716666D01*
X73316666Y-135116666D01*
X73316666Y-134683333D01*
X72616666Y-134450000D02*
X72616666Y-134016666D01*
X72883333Y-134250000D01*
X72883333Y-134150000D01*
X72916666Y-134083333D01*
X72950000Y-134050000D01*
X73016666Y-134016666D01*
X73183333Y-134016666D01*
X73250000Y-134050000D01*
X73283333Y-134083333D01*
X73316666Y-134150000D01*
X73316666Y-134350000D01*
X73283333Y-134416666D01*
X73250000Y-134450000D01*
X53266666Y-125101666D02*
X53266666Y-125601666D01*
X53233333Y-125701666D01*
X53166666Y-125768333D01*
X53066666Y-125801666D01*
X53000000Y-125801666D01*
X53533333Y-125101666D02*
X53966666Y-125101666D01*
X53733333Y-125368333D01*
X53833333Y-125368333D01*
X53900000Y-125401666D01*
X53933333Y-125435000D01*
X53966666Y-125501666D01*
X53966666Y-125668333D01*
X53933333Y-125735000D01*
X53900000Y-125768333D01*
X53833333Y-125801666D01*
X53633333Y-125801666D01*
X53566666Y-125768333D01*
X53533333Y-125735000D01*
X77883333Y-106950000D02*
X77850000Y-106983333D01*
X77750000Y-107016666D01*
X77683333Y-107016666D01*
X77583333Y-106983333D01*
X77516666Y-106916666D01*
X77483333Y-106850000D01*
X77450000Y-106716666D01*
X77450000Y-106616666D01*
X77483333Y-106483333D01*
X77516666Y-106416666D01*
X77583333Y-106350000D01*
X77683333Y-106316666D01*
X77750000Y-106316666D01*
X77850000Y-106350000D01*
X77883333Y-106383333D01*
X78216666Y-107016666D02*
X78350000Y-107016666D01*
X78416666Y-106983333D01*
X78450000Y-106950000D01*
X78516666Y-106850000D01*
X78550000Y-106716666D01*
X78550000Y-106450000D01*
X78516666Y-106383333D01*
X78483333Y-106350000D01*
X78416666Y-106316666D01*
X78283333Y-106316666D01*
X78216666Y-106350000D01*
X78183333Y-106383333D01*
X78150000Y-106450000D01*
X78150000Y-106616666D01*
X78183333Y-106683333D01*
X78216666Y-106716666D01*
X78283333Y-106750000D01*
X78416666Y-106750000D01*
X78483333Y-106716666D01*
X78516666Y-106683333D01*
X78550000Y-106616666D01*
X79816666Y-122351333D02*
X80383333Y-122351333D01*
X80450000Y-122318000D01*
X80483333Y-122284666D01*
X80516666Y-122218000D01*
X80516666Y-122084666D01*
X80483333Y-122018000D01*
X80450000Y-121984666D01*
X80383333Y-121951333D01*
X79816666Y-121951333D01*
X79816666Y-121684666D02*
X79816666Y-121218000D01*
X80516666Y-121518000D01*
X107850000Y-138016666D02*
X107616666Y-137683333D01*
X107450000Y-138016666D02*
X107450000Y-137316666D01*
X107716666Y-137316666D01*
X107783333Y-137350000D01*
X107816666Y-137383333D01*
X107850000Y-137450000D01*
X107850000Y-137550000D01*
X107816666Y-137616666D01*
X107783333Y-137650000D01*
X107716666Y-137683333D01*
X107450000Y-137683333D01*
X108116666Y-137383333D02*
X108150000Y-137350000D01*
X108216666Y-137316666D01*
X108383333Y-137316666D01*
X108450000Y-137350000D01*
X108483333Y-137383333D01*
X108516666Y-137450000D01*
X108516666Y-137516666D01*
X108483333Y-137616666D01*
X108083333Y-138016666D01*
X108516666Y-138016666D01*
X108750000Y-137316666D02*
X109216666Y-137316666D01*
X108916666Y-138016666D01*
X102686666Y-132376666D02*
X102353333Y-132610000D01*
X102686666Y-132776666D02*
X101986666Y-132776666D01*
X101986666Y-132510000D01*
X102020000Y-132443333D01*
X102053333Y-132410000D01*
X102120000Y-132376666D01*
X102220000Y-132376666D01*
X102286666Y-132410000D01*
X102320000Y-132443333D01*
X102353333Y-132510000D01*
X102353333Y-132776666D01*
X101986666Y-132143333D02*
X101986666Y-131710000D01*
X102253333Y-131943333D01*
X102253333Y-131843333D01*
X102286666Y-131776666D01*
X102320000Y-131743333D01*
X102386666Y-131710000D01*
X102553333Y-131710000D01*
X102620000Y-131743333D01*
X102653333Y-131776666D01*
X102686666Y-131843333D01*
X102686666Y-132043333D01*
X102653333Y-132110000D01*
X102620000Y-132143333D01*
X79383333Y-133816666D02*
X79383333Y-133116666D01*
X79550000Y-133116666D01*
X79650000Y-133150000D01*
X79716666Y-133216666D01*
X79750000Y-133283333D01*
X79783333Y-133416666D01*
X79783333Y-133516666D01*
X79750000Y-133650000D01*
X79716666Y-133716666D01*
X79650000Y-133783333D01*
X79550000Y-133816666D01*
X79383333Y-133816666D01*
X80183333Y-133416666D02*
X80116666Y-133383333D01*
X80083333Y-133350000D01*
X80050000Y-133283333D01*
X80050000Y-133250000D01*
X80083333Y-133183333D01*
X80116666Y-133150000D01*
X80183333Y-133116666D01*
X80316666Y-133116666D01*
X80383333Y-133150000D01*
X80416666Y-133183333D01*
X80450000Y-133250000D01*
X80450000Y-133283333D01*
X80416666Y-133350000D01*
X80383333Y-133383333D01*
X80316666Y-133416666D01*
X80183333Y-133416666D01*
X80116666Y-133450000D01*
X80083333Y-133483333D01*
X80050000Y-133550000D01*
X80050000Y-133683333D01*
X80083333Y-133750000D01*
X80116666Y-133783333D01*
X80183333Y-133816666D01*
X80316666Y-133816666D01*
X80383333Y-133783333D01*
X80416666Y-133750000D01*
X80450000Y-133683333D01*
X80450000Y-133550000D01*
X80416666Y-133483333D01*
X80383333Y-133450000D01*
X80316666Y-133416666D01*
X69161000Y-132950000D02*
X69127666Y-132983333D01*
X69027666Y-133016666D01*
X68961000Y-133016666D01*
X68861000Y-132983333D01*
X68794333Y-132916666D01*
X68761000Y-132850000D01*
X68727666Y-132716666D01*
X68727666Y-132616666D01*
X68761000Y-132483333D01*
X68794333Y-132416666D01*
X68861000Y-132350000D01*
X68961000Y-132316666D01*
X69027666Y-132316666D01*
X69127666Y-132350000D01*
X69161000Y-132383333D01*
X69427666Y-132383333D02*
X69461000Y-132350000D01*
X69527666Y-132316666D01*
X69694333Y-132316666D01*
X69761000Y-132350000D01*
X69794333Y-132383333D01*
X69827666Y-132450000D01*
X69827666Y-132516666D01*
X69794333Y-132616666D01*
X69394333Y-133016666D01*
X69827666Y-133016666D01*
X70494333Y-133016666D02*
X70094333Y-133016666D01*
X70294333Y-133016666D02*
X70294333Y-132316666D01*
X70227666Y-132416666D01*
X70161000Y-132483333D01*
X70094333Y-132516666D01*
X111314666Y-136874666D02*
X110614666Y-136874666D01*
X110614666Y-136708000D01*
X110648000Y-136608000D01*
X110714666Y-136541333D01*
X110781333Y-136508000D01*
X110914666Y-136474666D01*
X111014666Y-136474666D01*
X111148000Y-136508000D01*
X111214666Y-136541333D01*
X111281333Y-136608000D01*
X111314666Y-136708000D01*
X111314666Y-136874666D01*
X111314666Y-136141333D02*
X111314666Y-136008000D01*
X111281333Y-135941333D01*
X111248000Y-135908000D01*
X111148000Y-135841333D01*
X111014666Y-135808000D01*
X110748000Y-135808000D01*
X110681333Y-135841333D01*
X110648000Y-135874666D01*
X110614666Y-135941333D01*
X110614666Y-136074666D01*
X110648000Y-136141333D01*
X110681333Y-136174666D01*
X110748000Y-136208000D01*
X110914666Y-136208000D01*
X110981333Y-136174666D01*
X111014666Y-136141333D01*
X111048000Y-136074666D01*
X111048000Y-135941333D01*
X111014666Y-135874666D01*
X110981333Y-135841333D01*
X110914666Y-135808000D01*
X78966666Y-127014166D02*
X78966666Y-127580833D01*
X79000000Y-127647500D01*
X79033333Y-127680833D01*
X79100000Y-127714166D01*
X79233333Y-127714166D01*
X79300000Y-127680833D01*
X79333333Y-127647500D01*
X79366666Y-127580833D01*
X79366666Y-127014166D01*
X79800000Y-127314166D02*
X79733333Y-127280833D01*
X79700000Y-127247500D01*
X79666666Y-127180833D01*
X79666666Y-127147500D01*
X79700000Y-127080833D01*
X79733333Y-127047500D01*
X79800000Y-127014166D01*
X79933333Y-127014166D01*
X80000000Y-127047500D01*
X80033333Y-127080833D01*
X80066666Y-127147500D01*
X80066666Y-127180833D01*
X80033333Y-127247500D01*
X80000000Y-127280833D01*
X79933333Y-127314166D01*
X79800000Y-127314166D01*
X79733333Y-127347500D01*
X79700000Y-127380833D01*
X79666666Y-127447500D01*
X79666666Y-127580833D01*
X79700000Y-127647500D01*
X79733333Y-127680833D01*
X79800000Y-127714166D01*
X79933333Y-127714166D01*
X80000000Y-127680833D01*
X80033333Y-127647500D01*
X80066666Y-127580833D01*
X80066666Y-127447500D01*
X80033333Y-127380833D01*
X80000000Y-127347500D01*
X79933333Y-127314166D01*
X88682666Y-136993333D02*
X89249333Y-136993333D01*
X89316000Y-136960000D01*
X89349333Y-136926666D01*
X89382666Y-136860000D01*
X89382666Y-136726666D01*
X89349333Y-136660000D01*
X89316000Y-136626666D01*
X89249333Y-136593333D01*
X88682666Y-136593333D01*
X88682666Y-135926666D02*
X88682666Y-136260000D01*
X89016000Y-136293333D01*
X88982666Y-136260000D01*
X88949333Y-136193333D01*
X88949333Y-136026666D01*
X88982666Y-135960000D01*
X89016000Y-135926666D01*
X89082666Y-135893333D01*
X89249333Y-135893333D01*
X89316000Y-135926666D01*
X89349333Y-135960000D01*
X89382666Y-136026666D01*
X89382666Y-136193333D01*
X89349333Y-136260000D01*
X89316000Y-136293333D01*
X72212222Y-107074166D02*
X71978889Y-106740833D01*
X71812222Y-107074166D02*
X71812222Y-106374166D01*
X72078889Y-106374166D01*
X72145555Y-106407500D01*
X72178889Y-106440833D01*
X72212222Y-106507500D01*
X72212222Y-106607500D01*
X72178889Y-106674166D01*
X72145555Y-106707500D01*
X72078889Y-106740833D01*
X71812222Y-106740833D01*
X72545555Y-107074166D02*
X72678889Y-107074166D01*
X72745555Y-107040833D01*
X72778889Y-107007500D01*
X72845555Y-106907500D01*
X72878889Y-106774166D01*
X72878889Y-106507500D01*
X72845555Y-106440833D01*
X72812222Y-106407500D01*
X72745555Y-106374166D01*
X72612222Y-106374166D01*
X72545555Y-106407500D01*
X72512222Y-106440833D01*
X72478889Y-106507500D01*
X72478889Y-106674166D01*
X72512222Y-106740833D01*
X72545555Y-106774166D01*
X72612222Y-106807500D01*
X72745555Y-106807500D01*
X72812222Y-106774166D01*
X72845555Y-106740833D01*
X72878889Y-106674166D01*
X62747000Y-125818666D02*
X62513666Y-125485333D01*
X62347000Y-125818666D02*
X62347000Y-125118666D01*
X62613666Y-125118666D01*
X62680333Y-125152000D01*
X62713666Y-125185333D01*
X62747000Y-125252000D01*
X62747000Y-125352000D01*
X62713666Y-125418666D01*
X62680333Y-125452000D01*
X62613666Y-125485333D01*
X62347000Y-125485333D01*
X63013666Y-125185333D02*
X63047000Y-125152000D01*
X63113666Y-125118666D01*
X63280333Y-125118666D01*
X63347000Y-125152000D01*
X63380333Y-125185333D01*
X63413666Y-125252000D01*
X63413666Y-125318666D01*
X63380333Y-125418666D01*
X62980333Y-125818666D01*
X63413666Y-125818666D01*
X64047000Y-125118666D02*
X63713666Y-125118666D01*
X63680333Y-125452000D01*
X63713666Y-125418666D01*
X63780333Y-125385333D01*
X63947000Y-125385333D01*
X64013666Y-125418666D01*
X64047000Y-125452000D01*
X64080333Y-125518666D01*
X64080333Y-125685333D01*
X64047000Y-125752000D01*
X64013666Y-125785333D01*
X63947000Y-125818666D01*
X63780333Y-125818666D01*
X63713666Y-125785333D01*
X63680333Y-125752000D01*
X69061000Y-125818666D02*
X68827666Y-125485333D01*
X68661000Y-125818666D02*
X68661000Y-125118666D01*
X68927666Y-125118666D01*
X68994333Y-125152000D01*
X69027666Y-125185333D01*
X69061000Y-125252000D01*
X69061000Y-125352000D01*
X69027666Y-125418666D01*
X68994333Y-125452000D01*
X68927666Y-125485333D01*
X68661000Y-125485333D01*
X69327666Y-125185333D02*
X69361000Y-125152000D01*
X69427666Y-125118666D01*
X69594333Y-125118666D01*
X69661000Y-125152000D01*
X69694333Y-125185333D01*
X69727666Y-125252000D01*
X69727666Y-125318666D01*
X69694333Y-125418666D01*
X69294333Y-125818666D01*
X69727666Y-125818666D01*
X69961000Y-125118666D02*
X70394333Y-125118666D01*
X70161000Y-125385333D01*
X70261000Y-125385333D01*
X70327666Y-125418666D01*
X70361000Y-125452000D01*
X70394333Y-125518666D01*
X70394333Y-125685333D01*
X70361000Y-125752000D01*
X70327666Y-125785333D01*
X70261000Y-125818666D01*
X70061000Y-125818666D01*
X69994333Y-125785333D01*
X69961000Y-125752000D01*
X78450000Y-124750000D02*
X78416666Y-124783333D01*
X78316666Y-124816666D01*
X78250000Y-124816666D01*
X78150000Y-124783333D01*
X78083333Y-124716666D01*
X78050000Y-124650000D01*
X78016666Y-124516666D01*
X78016666Y-124416666D01*
X78050000Y-124283333D01*
X78083333Y-124216666D01*
X78150000Y-124150000D01*
X78250000Y-124116666D01*
X78316666Y-124116666D01*
X78416666Y-124150000D01*
X78450000Y-124183333D01*
X79116666Y-124816666D02*
X78716666Y-124816666D01*
X78916666Y-124816666D02*
X78916666Y-124116666D01*
X78850000Y-124216666D01*
X78783333Y-124283333D01*
X78716666Y-124316666D01*
X79783333Y-124816666D02*
X79383333Y-124816666D01*
X79583333Y-124816666D02*
X79583333Y-124116666D01*
X79516666Y-124216666D01*
X79450000Y-124283333D01*
X79383333Y-124316666D01*
X71176000Y-125752000D02*
X71142666Y-125785333D01*
X71042666Y-125818666D01*
X70976000Y-125818666D01*
X70876000Y-125785333D01*
X70809333Y-125718666D01*
X70776000Y-125652000D01*
X70742666Y-125518666D01*
X70742666Y-125418666D01*
X70776000Y-125285333D01*
X70809333Y-125218666D01*
X70876000Y-125152000D01*
X70976000Y-125118666D01*
X71042666Y-125118666D01*
X71142666Y-125152000D01*
X71176000Y-125185333D01*
X71442666Y-125185333D02*
X71476000Y-125152000D01*
X71542666Y-125118666D01*
X71709333Y-125118666D01*
X71776000Y-125152000D01*
X71809333Y-125185333D01*
X71842666Y-125252000D01*
X71842666Y-125318666D01*
X71809333Y-125418666D01*
X71409333Y-125818666D01*
X71842666Y-125818666D01*
X72109333Y-125185333D02*
X72142666Y-125152000D01*
X72209333Y-125118666D01*
X72376000Y-125118666D01*
X72442666Y-125152000D01*
X72476000Y-125185333D01*
X72509333Y-125252000D01*
X72509333Y-125318666D01*
X72476000Y-125418666D01*
X72076000Y-125818666D01*
X72509333Y-125818666D01*
X99386666Y-136993333D02*
X99953333Y-136993333D01*
X100020000Y-136960000D01*
X100053333Y-136926666D01*
X100086666Y-136860000D01*
X100086666Y-136726666D01*
X100053333Y-136660000D01*
X100020000Y-136626666D01*
X99953333Y-136593333D01*
X99386666Y-136593333D01*
X99453333Y-136293333D02*
X99420000Y-136260000D01*
X99386666Y-136193333D01*
X99386666Y-136026666D01*
X99420000Y-135960000D01*
X99453333Y-135926666D01*
X99520000Y-135893333D01*
X99586666Y-135893333D01*
X99686666Y-135926666D01*
X100086666Y-136326666D01*
X100086666Y-135893333D01*
X71960000Y-114546666D02*
X71726666Y-114213333D01*
X71560000Y-114546666D02*
X71560000Y-113846666D01*
X71826666Y-113846666D01*
X71893333Y-113880000D01*
X71926666Y-113913333D01*
X71960000Y-113980000D01*
X71960000Y-114080000D01*
X71926666Y-114146666D01*
X71893333Y-114180000D01*
X71826666Y-114213333D01*
X71560000Y-114213333D01*
X72626666Y-114546666D02*
X72226666Y-114546666D01*
X72426666Y-114546666D02*
X72426666Y-113846666D01*
X72360000Y-113946666D01*
X72293333Y-114013333D01*
X72226666Y-114046666D01*
X73060000Y-113846666D02*
X73126666Y-113846666D01*
X73193333Y-113880000D01*
X73226666Y-113913333D01*
X73260000Y-113980000D01*
X73293333Y-114113333D01*
X73293333Y-114280000D01*
X73260000Y-114413333D01*
X73226666Y-114480000D01*
X73193333Y-114513333D01*
X73126666Y-114546666D01*
X73060000Y-114546666D01*
X72993333Y-114513333D01*
X72960000Y-114480000D01*
X72926666Y-114413333D01*
X72893333Y-114280000D01*
X72893333Y-114113333D01*
X72926666Y-113980000D01*
X72960000Y-113913333D01*
X72993333Y-113880000D01*
X73060000Y-113846666D01*
X74750000Y-107116666D02*
X74516666Y-106783333D01*
X74350000Y-107116666D02*
X74350000Y-106416666D01*
X74616666Y-106416666D01*
X74683333Y-106450000D01*
X74716666Y-106483333D01*
X74750000Y-106550000D01*
X74750000Y-106650000D01*
X74716666Y-106716666D01*
X74683333Y-106750000D01*
X74616666Y-106783333D01*
X74350000Y-106783333D01*
X75416666Y-107116666D02*
X75016666Y-107116666D01*
X75216666Y-107116666D02*
X75216666Y-106416666D01*
X75150000Y-106516666D01*
X75083333Y-106583333D01*
X75016666Y-106616666D01*
X75750000Y-107116666D02*
X75883333Y-107116666D01*
X75950000Y-107083333D01*
X75983333Y-107050000D01*
X76050000Y-106950000D01*
X76083333Y-106816666D01*
X76083333Y-106550000D01*
X76050000Y-106483333D01*
X76016666Y-106450000D01*
X75950000Y-106416666D01*
X75816666Y-106416666D01*
X75750000Y-106450000D01*
X75716666Y-106483333D01*
X75683333Y-106550000D01*
X75683333Y-106716666D01*
X75716666Y-106783333D01*
X75750000Y-106816666D01*
X75816666Y-106850000D01*
X75950000Y-106850000D01*
X76016666Y-106816666D01*
X76050000Y-106783333D01*
X76083333Y-106716666D01*
X100166666Y-107150000D02*
X99933333Y-107150000D01*
X99933333Y-107516666D02*
X99933333Y-106816666D01*
X100266666Y-106816666D01*
X100500000Y-106883333D02*
X100533333Y-106850000D01*
X100600000Y-106816666D01*
X100766666Y-106816666D01*
X100833333Y-106850000D01*
X100866666Y-106883333D01*
X100900000Y-106950000D01*
X100900000Y-107016666D01*
X100866666Y-107116666D01*
X100466666Y-107516666D01*
X100900000Y-107516666D01*
X63650000Y-114559166D02*
X63416666Y-114225833D01*
X63250000Y-114559166D02*
X63250000Y-113859166D01*
X63516666Y-113859166D01*
X63583333Y-113892500D01*
X63616666Y-113925833D01*
X63650000Y-113992500D01*
X63650000Y-114092500D01*
X63616666Y-114159166D01*
X63583333Y-114192500D01*
X63516666Y-114225833D01*
X63250000Y-114225833D01*
X64316666Y-114559166D02*
X63916666Y-114559166D01*
X64116666Y-114559166D02*
X64116666Y-113859166D01*
X64050000Y-113959166D01*
X63983333Y-114025833D01*
X63916666Y-114059166D01*
X64550000Y-113859166D02*
X64983333Y-113859166D01*
X64750000Y-114125833D01*
X64850000Y-114125833D01*
X64916666Y-114159166D01*
X64950000Y-114192500D01*
X64983333Y-114259166D01*
X64983333Y-114425833D01*
X64950000Y-114492500D01*
X64916666Y-114525833D01*
X64850000Y-114559166D01*
X64650000Y-114559166D01*
X64583333Y-114525833D01*
X64550000Y-114492500D01*
X99386666Y-132376666D02*
X99053333Y-132610000D01*
X99386666Y-132776666D02*
X98686666Y-132776666D01*
X98686666Y-132510000D01*
X98720000Y-132443333D01*
X98753333Y-132410000D01*
X98820000Y-132376666D01*
X98920000Y-132376666D01*
X98986666Y-132410000D01*
X99020000Y-132443333D01*
X99053333Y-132510000D01*
X99053333Y-132776666D01*
X98920000Y-131776666D02*
X99386666Y-131776666D01*
X98653333Y-131943333D02*
X99153333Y-132110000D01*
X99153333Y-131676666D01*
X92182666Y-136993333D02*
X92749333Y-136993333D01*
X92816000Y-136960000D01*
X92849333Y-136926666D01*
X92882666Y-136860000D01*
X92882666Y-136726666D01*
X92849333Y-136660000D01*
X92816000Y-136626666D01*
X92749333Y-136593333D01*
X92182666Y-136593333D01*
X92416000Y-135960000D02*
X92882666Y-135960000D01*
X92149333Y-136126666D02*
X92649333Y-136293333D01*
X92649333Y-135860000D01*
X79888666Y-107874666D02*
X79888666Y-108441333D01*
X79922000Y-108508000D01*
X79955333Y-108541333D01*
X80022000Y-108574666D01*
X80155333Y-108574666D01*
X80222000Y-108541333D01*
X80255333Y-108508000D01*
X80288666Y-108441333D01*
X80288666Y-107874666D01*
X80922000Y-107874666D02*
X80788666Y-107874666D01*
X80722000Y-107908000D01*
X80688666Y-107941333D01*
X80622000Y-108041333D01*
X80588666Y-108174666D01*
X80588666Y-108441333D01*
X80622000Y-108508000D01*
X80655333Y-108541333D01*
X80722000Y-108574666D01*
X80855333Y-108574666D01*
X80922000Y-108541333D01*
X80955333Y-108508000D01*
X80988666Y-108441333D01*
X80988666Y-108274666D01*
X80955333Y-108208000D01*
X80922000Y-108174666D01*
X80855333Y-108141333D01*
X80722000Y-108141333D01*
X80655333Y-108174666D01*
X80622000Y-108208000D01*
X80588666Y-108274666D01*
X53267666Y-109616666D02*
X53267666Y-110116666D01*
X53234333Y-110216666D01*
X53167666Y-110283333D01*
X53067666Y-110316666D01*
X53001000Y-110316666D01*
X53567666Y-109683333D02*
X53601000Y-109650000D01*
X53667666Y-109616666D01*
X53834333Y-109616666D01*
X53901000Y-109650000D01*
X53934333Y-109683333D01*
X53967666Y-109750000D01*
X53967666Y-109816666D01*
X53934333Y-109916666D01*
X53534333Y-110316666D01*
X53967666Y-110316666D01*
X69192500Y-114546666D02*
X68959166Y-114213333D01*
X68792500Y-114546666D02*
X68792500Y-113846666D01*
X69059166Y-113846666D01*
X69125833Y-113880000D01*
X69159166Y-113913333D01*
X69192500Y-113980000D01*
X69192500Y-114080000D01*
X69159166Y-114146666D01*
X69125833Y-114180000D01*
X69059166Y-114213333D01*
X68792500Y-114213333D01*
X69859166Y-114546666D02*
X69459166Y-114546666D01*
X69659166Y-114546666D02*
X69659166Y-113846666D01*
X69592500Y-113946666D01*
X69525833Y-114013333D01*
X69459166Y-114046666D01*
X70525833Y-114546666D02*
X70125833Y-114546666D01*
X70325833Y-114546666D02*
X70325833Y-113846666D01*
X70259166Y-113946666D01*
X70192500Y-114013333D01*
X70125833Y-114046666D01*
D10*
X108132380Y-113035523D02*
X108846666Y-113035523D01*
X108989523Y-113083142D01*
X109084761Y-113178380D01*
X109132380Y-113321238D01*
X109132380Y-113416476D01*
X109132380Y-112035523D02*
X109132380Y-112606952D01*
X109132380Y-112321238D02*
X108132380Y-112321238D01*
X108275238Y-112416476D01*
X108370476Y-112511714D01*
X108418095Y-112606952D01*
X108132380Y-111416476D02*
X108132380Y-111321238D01*
X108180000Y-111226000D01*
X108227619Y-111178380D01*
X108322857Y-111130761D01*
X108513333Y-111083142D01*
X108751428Y-111083142D01*
X108941904Y-111130761D01*
X109037142Y-111178380D01*
X109084761Y-111226000D01*
X109132380Y-111321238D01*
X109132380Y-111416476D01*
X109084761Y-111511714D01*
X109037142Y-111559333D01*
X108941904Y-111606952D01*
X108751428Y-111654571D01*
X108513333Y-111654571D01*
X108322857Y-111606952D01*
X108227619Y-111559333D01*
X108180000Y-111511714D01*
X108132380Y-111416476D01*
X103061904Y-125114285D02*
X102680952Y-125380952D01*
X103061904Y-125571428D02*
X102261904Y-125571428D01*
X102261904Y-125266666D01*
X102300000Y-125190476D01*
X102338095Y-125152380D01*
X102414285Y-125114285D01*
X102528571Y-125114285D01*
X102604761Y-125152380D01*
X102642857Y-125190476D01*
X102680952Y-125266666D01*
X102680952Y-125571428D01*
X102338095Y-124809523D02*
X102300000Y-124771428D01*
X102261904Y-124695238D01*
X102261904Y-124504761D01*
X102300000Y-124428571D01*
X102338095Y-124390476D01*
X102414285Y-124352380D01*
X102490476Y-124352380D01*
X102604761Y-124390476D01*
X103061904Y-124847619D01*
X103061904Y-124352380D01*
X102604761Y-123895238D02*
X102566666Y-123971428D01*
X102528571Y-124009523D01*
X102452380Y-124047619D01*
X102414285Y-124047619D01*
X102338095Y-124009523D01*
X102300000Y-123971428D01*
X102261904Y-123895238D01*
X102261904Y-123742857D01*
X102300000Y-123666666D01*
X102338095Y-123628571D01*
X102414285Y-123590476D01*
X102452380Y-123590476D01*
X102528571Y-123628571D01*
X102566666Y-123666666D01*
X102604761Y-123742857D01*
X102604761Y-123895238D01*
X102642857Y-123971428D01*
X102680952Y-124009523D01*
X102757142Y-124047619D01*
X102909523Y-124047619D01*
X102985714Y-124009523D01*
X103023809Y-123971428D01*
X103061904Y-123895238D01*
X103061904Y-123742857D01*
X103023809Y-123666666D01*
X102985714Y-123628571D01*
X102909523Y-123590476D01*
X102757142Y-123590476D01*
X102680952Y-123628571D01*
X102642857Y-123666666D01*
X102604761Y-123742857D01*
D12*
X87904666Y-133300000D02*
X87671333Y-133300000D01*
X87671333Y-133666666D02*
X87671333Y-132966666D01*
X88004666Y-132966666D01*
X88638000Y-133666666D02*
X88238000Y-133666666D01*
X88438000Y-133666666D02*
X88438000Y-132966666D01*
X88371333Y-133066666D01*
X88304666Y-133133333D01*
X88238000Y-133166666D01*
X60810000Y-107060000D02*
X60776666Y-107093333D01*
X60676666Y-107126666D01*
X60610000Y-107126666D01*
X60510000Y-107093333D01*
X60443333Y-107026666D01*
X60410000Y-106960000D01*
X60376666Y-106826666D01*
X60376666Y-106726666D01*
X60410000Y-106593333D01*
X60443333Y-106526666D01*
X60510000Y-106460000D01*
X60610000Y-106426666D01*
X60676666Y-106426666D01*
X60776666Y-106460000D01*
X60810000Y-106493333D01*
X61476666Y-107126666D02*
X61076666Y-107126666D01*
X61276666Y-107126666D02*
X61276666Y-106426666D01*
X61210000Y-106526666D01*
X61143333Y-106593333D01*
X61076666Y-106626666D01*
X61710000Y-106426666D02*
X62143333Y-106426666D01*
X61910000Y-106693333D01*
X62010000Y-106693333D01*
X62076666Y-106726666D01*
X62110000Y-106760000D01*
X62143333Y-106826666D01*
X62143333Y-106993333D01*
X62110000Y-107060000D01*
X62076666Y-107093333D01*
X62010000Y-107126666D01*
X61810000Y-107126666D01*
X61743333Y-107093333D01*
X61710000Y-107060000D01*
X64850000Y-125816666D02*
X64616666Y-125483333D01*
X64450000Y-125816666D02*
X64450000Y-125116666D01*
X64716666Y-125116666D01*
X64783333Y-125150000D01*
X64816666Y-125183333D01*
X64850000Y-125250000D01*
X64850000Y-125350000D01*
X64816666Y-125416666D01*
X64783333Y-125450000D01*
X64716666Y-125483333D01*
X64450000Y-125483333D01*
X65083333Y-125116666D02*
X65516666Y-125116666D01*
X65283333Y-125383333D01*
X65383333Y-125383333D01*
X65450000Y-125416666D01*
X65483333Y-125450000D01*
X65516666Y-125516666D01*
X65516666Y-125683333D01*
X65483333Y-125750000D01*
X65450000Y-125783333D01*
X65383333Y-125816666D01*
X65183333Y-125816666D01*
X65116666Y-125783333D01*
X65083333Y-125750000D01*
X65750000Y-125116666D02*
X66183333Y-125116666D01*
X65950000Y-125383333D01*
X66050000Y-125383333D01*
X66116666Y-125416666D01*
X66150000Y-125450000D01*
X66183333Y-125516666D01*
X66183333Y-125683333D01*
X66150000Y-125750000D01*
X66116666Y-125783333D01*
X66050000Y-125816666D01*
X65850000Y-125816666D01*
X65783333Y-125783333D01*
X65750000Y-125750000D01*
X88983333Y-107450000D02*
X88950000Y-107483333D01*
X88850000Y-107516666D01*
X88783333Y-107516666D01*
X88683333Y-107483333D01*
X88616666Y-107416666D01*
X88583333Y-107350000D01*
X88550000Y-107216666D01*
X88550000Y-107116666D01*
X88583333Y-106983333D01*
X88616666Y-106916666D01*
X88683333Y-106850000D01*
X88783333Y-106816666D01*
X88850000Y-106816666D01*
X88950000Y-106850000D01*
X88983333Y-106883333D01*
X89216666Y-106816666D02*
X89683333Y-106816666D01*
X89383333Y-107516666D01*
X95183333Y-107516666D02*
X95183333Y-106816666D01*
X95350000Y-106816666D01*
X95450000Y-106850000D01*
X95516666Y-106916666D01*
X95550000Y-106983333D01*
X95583333Y-107116666D01*
X95583333Y-107216666D01*
X95550000Y-107350000D01*
X95516666Y-107416666D01*
X95450000Y-107483333D01*
X95350000Y-107516666D01*
X95183333Y-107516666D01*
X95850000Y-106883333D02*
X95883333Y-106850000D01*
X95950000Y-106816666D01*
X96116666Y-106816666D01*
X96183333Y-106850000D01*
X96216666Y-106883333D01*
X96250000Y-106950000D01*
X96250000Y-107016666D01*
X96216666Y-107116666D01*
X95816666Y-107516666D01*
X96250000Y-107516666D01*
D10*
X90933333Y-148557142D02*
X90885714Y-148604761D01*
X90742857Y-148652380D01*
X90647619Y-148652380D01*
X90504761Y-148604761D01*
X90409523Y-148509523D01*
X90361904Y-148414285D01*
X90314285Y-148223809D01*
X90314285Y-148080952D01*
X90361904Y-147890476D01*
X90409523Y-147795238D01*
X90504761Y-147700000D01*
X90647619Y-147652380D01*
X90742857Y-147652380D01*
X90885714Y-147700000D01*
X90933333Y-147747619D01*
X91314285Y-147747619D02*
X91361904Y-147700000D01*
X91457142Y-147652380D01*
X91695238Y-147652380D01*
X91790476Y-147700000D01*
X91838095Y-147747619D01*
X91885714Y-147842857D01*
X91885714Y-147938095D01*
X91838095Y-148080952D01*
X91266666Y-148652380D01*
X91885714Y-148652380D01*
D12*
X66961000Y-125818666D02*
X66727666Y-125485333D01*
X66561000Y-125818666D02*
X66561000Y-125118666D01*
X66827666Y-125118666D01*
X66894333Y-125152000D01*
X66927666Y-125185333D01*
X66961000Y-125252000D01*
X66961000Y-125352000D01*
X66927666Y-125418666D01*
X66894333Y-125452000D01*
X66827666Y-125485333D01*
X66561000Y-125485333D01*
X67227666Y-125185333D02*
X67261000Y-125152000D01*
X67327666Y-125118666D01*
X67494333Y-125118666D01*
X67561000Y-125152000D01*
X67594333Y-125185333D01*
X67627666Y-125252000D01*
X67627666Y-125318666D01*
X67594333Y-125418666D01*
X67194333Y-125818666D01*
X67627666Y-125818666D01*
X68227666Y-125118666D02*
X68094333Y-125118666D01*
X68027666Y-125152000D01*
X67994333Y-125185333D01*
X67927666Y-125285333D01*
X67894333Y-125418666D01*
X67894333Y-125685333D01*
X67927666Y-125752000D01*
X67961000Y-125785333D01*
X68027666Y-125818666D01*
X68161000Y-125818666D01*
X68227666Y-125785333D01*
X68261000Y-125752000D01*
X68294333Y-125685333D01*
X68294333Y-125518666D01*
X68261000Y-125452000D01*
X68227666Y-125418666D01*
X68161000Y-125385333D01*
X68027666Y-125385333D01*
X67961000Y-125418666D01*
X67927666Y-125452000D01*
X67894333Y-125518666D01*
X55750666Y-103611333D02*
X56250666Y-103611333D01*
X56350666Y-103644666D01*
X56417333Y-103711333D01*
X56450666Y-103811333D01*
X56450666Y-103878000D01*
X56050666Y-103178000D02*
X56017333Y-103244666D01*
X55984000Y-103278000D01*
X55917333Y-103311333D01*
X55884000Y-103311333D01*
X55817333Y-103278000D01*
X55784000Y-103244666D01*
X55750666Y-103178000D01*
X55750666Y-103044666D01*
X55784000Y-102978000D01*
X55817333Y-102944666D01*
X55884000Y-102911333D01*
X55917333Y-102911333D01*
X55984000Y-102944666D01*
X56017333Y-102978000D01*
X56050666Y-103044666D01*
X56050666Y-103178000D01*
X56084000Y-103244666D01*
X56117333Y-103278000D01*
X56184000Y-103311333D01*
X56317333Y-103311333D01*
X56384000Y-103278000D01*
X56417333Y-103244666D01*
X56450666Y-103178000D01*
X56450666Y-103044666D01*
X56417333Y-102978000D01*
X56384000Y-102944666D01*
X56317333Y-102911333D01*
X56184000Y-102911333D01*
X56117333Y-102944666D01*
X56084000Y-102978000D01*
X56050666Y-103044666D01*
X55766666Y-134316666D02*
X55766666Y-134816666D01*
X55733333Y-134916666D01*
X55666666Y-134983333D01*
X55566666Y-135016666D01*
X55500000Y-135016666D01*
X56033333Y-134316666D02*
X56500000Y-134316666D01*
X56200000Y-135016666D01*
X84366666Y-114916666D02*
X84366666Y-115416666D01*
X84333333Y-115516666D01*
X84266666Y-115583333D01*
X84166666Y-115616666D01*
X84100000Y-115616666D01*
X85066666Y-115616666D02*
X84666666Y-115616666D01*
X84866666Y-115616666D02*
X84866666Y-114916666D01*
X84800000Y-115016666D01*
X84733333Y-115083333D01*
X84666666Y-115116666D01*
D16*
X114699095Y-129342000D02*
X112014095Y-129342000D01*
X114699095Y-131262000D02*
X114699095Y-129342000D01*
X112014095Y-131262000D02*
X114699095Y-131262000D01*
X91950000Y-107720000D02*
X90250000Y-107720000D01*
X91950000Y-107720000D02*
X91950000Y-110270000D01*
X90250000Y-107720000D02*
X90250000Y-110270000D01*
X99150000Y-135020000D02*
X99150000Y-133345000D01*
X96030000Y-135020000D02*
X96030000Y-135670000D01*
X96030000Y-135020000D02*
X96030000Y-134370000D01*
X99150000Y-135020000D02*
X99150000Y-135670000D01*
X103100000Y-131447064D02*
X103100000Y-129992936D01*
X104920000Y-131447064D02*
X104920000Y-129992936D01*
X78679937Y-146836000D02*
X78679937Y-139964000D01*
X80839937Y-148224000D02*
X80839937Y-144641000D01*
X78479937Y-146606000D02*
X78479937Y-140194000D01*
X78759937Y-142159000D02*
X78759937Y-139880000D01*
X79439937Y-142159000D02*
X79439937Y-139290000D01*
X79319937Y-142159000D02*
X79319937Y-139380000D01*
X79399937Y-142159000D02*
X79399937Y-139320000D01*
X80959937Y-148262000D02*
X80959937Y-144641000D01*
X82040937Y-148465000D02*
X82040937Y-138335000D01*
X80919937Y-142159000D02*
X80919937Y-138550000D01*
X81359937Y-148365000D02*
X81359937Y-138435000D01*
X79559937Y-147594000D02*
X79559937Y-144641000D01*
X79799937Y-147747000D02*
X79799937Y-144641000D01*
X80559937Y-142159000D02*
X80559937Y-138677000D01*
X81079937Y-142159000D02*
X81079937Y-138503000D01*
X80159937Y-147945000D02*
X80159937Y-144641000D01*
X79839937Y-147771000D02*
X79839937Y-144641000D01*
X81679937Y-148424000D02*
X81679937Y-138376000D01*
X82400937Y-148480000D02*
X82400937Y-138320000D01*
X79999937Y-147862000D02*
X79999937Y-144641000D01*
X80759937Y-148197000D02*
X80759937Y-144641000D01*
X78319937Y-146400000D02*
X78319937Y-140400000D01*
X78559937Y-146701000D02*
X78559937Y-140099000D01*
X81880937Y-148450000D02*
X81880937Y-138350000D01*
X82320937Y-148479000D02*
X82320937Y-138321000D01*
X87420583Y-146775000D02*
X87420583Y-145775000D01*
X78759937Y-146920000D02*
X78759937Y-144641000D01*
X79039937Y-147189000D02*
X79039937Y-144641000D01*
X79199937Y-147325000D02*
X79199937Y-144641000D01*
X80719937Y-148183000D02*
X80719937Y-144641000D01*
X79999937Y-142159000D02*
X79999937Y-138938000D01*
X82240937Y-148477000D02*
X82240937Y-138323000D01*
X79239937Y-142159000D02*
X79239937Y-139443000D01*
X80119937Y-142159000D02*
X80119937Y-138875000D01*
X79639937Y-142159000D02*
X79639937Y-139153000D01*
X81319937Y-148356000D02*
X81319937Y-138444000D01*
X78159937Y-146170000D02*
X78159937Y-140630000D01*
X82280937Y-148478000D02*
X82280937Y-138322000D01*
X80719937Y-142159000D02*
X80719937Y-138617000D01*
X81519937Y-148397000D02*
X81519937Y-138403000D01*
X81079937Y-148297000D02*
X81079937Y-144641000D01*
X78519937Y-146654000D02*
X78519937Y-140146000D01*
X82000937Y-148462000D02*
X82000937Y-138338000D01*
X82120937Y-148470000D02*
X82120937Y-138330000D01*
X81199937Y-148328000D02*
X81199937Y-138472000D01*
X79239937Y-147357000D02*
X79239937Y-144641000D01*
X79679937Y-147673000D02*
X79679937Y-144641000D01*
X78599937Y-146747000D02*
X78599937Y-140053000D01*
X79279937Y-142159000D02*
X79279937Y-139411000D01*
X79759937Y-142159000D02*
X79759937Y-139077000D01*
X78399937Y-146506000D02*
X78399937Y-140294000D01*
X77439937Y-144462000D02*
X77439937Y-142338000D01*
X79879937Y-147795000D02*
X79879937Y-144641000D01*
X80839937Y-142159000D02*
X80839937Y-138576000D01*
X80319937Y-142159000D02*
X80319937Y-138779000D01*
X80799937Y-142159000D02*
X80799937Y-138589000D01*
X81279937Y-148347000D02*
X81279937Y-138453000D01*
X80519937Y-148107000D02*
X80519937Y-144641000D01*
X82160937Y-148473000D02*
X82160937Y-138327000D01*
X80879937Y-142159000D02*
X80879937Y-138563000D01*
X77919937Y-145765000D02*
X77919937Y-141035000D01*
X80079937Y-147904000D02*
X80079937Y-144641000D01*
X81159937Y-148318000D02*
X81159937Y-144641000D01*
X80999937Y-142159000D02*
X80999937Y-138526000D01*
X77399937Y-144262000D02*
X77399937Y-142538000D01*
X80279937Y-148003000D02*
X80279937Y-144641000D01*
X77759937Y-145437000D02*
X77759937Y-141363000D01*
X80559937Y-148123000D02*
X80559937Y-144641000D01*
X80239937Y-142159000D02*
X80239937Y-138816000D01*
X79599937Y-142159000D02*
X79599937Y-139179000D01*
X78999937Y-142159000D02*
X78999937Y-139647000D01*
X78639937Y-146792000D02*
X78639937Y-140008000D01*
X80439937Y-142159000D02*
X80439937Y-138726000D01*
X79319937Y-147420000D02*
X79319937Y-144641000D01*
X79559937Y-142159000D02*
X79559937Y-139206000D01*
X81800937Y-148440000D02*
X81800937Y-138360000D01*
X78279937Y-146345000D02*
X78279937Y-140455000D01*
X78919937Y-142159000D02*
X78919937Y-139721000D01*
X80679937Y-148168000D02*
X80679937Y-144641000D01*
X77839937Y-145609000D02*
X77839937Y-141191000D01*
X78079937Y-146045000D02*
X78079937Y-140755000D01*
X79359937Y-142159000D02*
X79359937Y-139350000D01*
X81119937Y-148307000D02*
X81119937Y-144641000D01*
X80519937Y-142159000D02*
X80519937Y-138693000D01*
X78239937Y-146289000D02*
X78239937Y-140511000D01*
X78879937Y-147040000D02*
X78879937Y-144641000D01*
X79119937Y-142159000D02*
X79119937Y-139542000D01*
X80799937Y-148211000D02*
X80799937Y-144641000D01*
X80759937Y-142159000D02*
X80759937Y-138603000D01*
X77479937Y-144630000D02*
X77479937Y-142170000D01*
X81439937Y-148382000D02*
X81439937Y-138418000D01*
X78959937Y-147116000D02*
X78959937Y-144641000D01*
X78719937Y-146878000D02*
X78719937Y-144641000D01*
X82200937Y-148475000D02*
X82200937Y-138325000D01*
X82080937Y-148468000D02*
X82080937Y-138332000D01*
X80159937Y-142159000D02*
X80159937Y-138855000D01*
X78799937Y-142159000D02*
X78799937Y-139839000D01*
X79479937Y-147538000D02*
X79479937Y-144641000D01*
X79399937Y-147480000D02*
X79399937Y-144641000D01*
X77559937Y-144910000D02*
X77559937Y-141890000D01*
X81399937Y-148374000D02*
X81399937Y-138426000D01*
X79719937Y-147698000D02*
X79719937Y-144641000D01*
X79599937Y-147621000D02*
X79599937Y-144641000D01*
X80199937Y-147964000D02*
X80199937Y-144641000D01*
X80959937Y-142159000D02*
X80959937Y-138538000D01*
X80039937Y-142159000D02*
X80039937Y-138917000D01*
X79039937Y-142159000D02*
X79039937Y-139611000D01*
X79159937Y-147292000D02*
X79159937Y-144641000D01*
X79879937Y-142159000D02*
X79879937Y-139005000D01*
X81840937Y-148445000D02*
X81840937Y-138355000D01*
X79479937Y-142159000D02*
X79479937Y-139262000D01*
X81479937Y-148390000D02*
X81479937Y-138410000D01*
X81960937Y-148458000D02*
X81960937Y-138342000D01*
X77879937Y-145689000D02*
X77879937Y-141111000D01*
X81039937Y-142159000D02*
X81039937Y-138515000D01*
X77639937Y-145142000D02*
X77639937Y-141658000D01*
X78119937Y-146109000D02*
X78119937Y-140691000D01*
X79199937Y-142159000D02*
X79199937Y-139475000D01*
X80439937Y-148074000D02*
X80439937Y-144641000D01*
X79359937Y-147450000D02*
X79359937Y-144641000D01*
X80359937Y-142159000D02*
X80359937Y-138761000D01*
X78799937Y-146961000D02*
X78799937Y-144641000D01*
X78959937Y-142159000D02*
X78959937Y-139684000D01*
X81559937Y-148404000D02*
X81559937Y-138396000D01*
X77799937Y-145525000D02*
X77799937Y-141275000D01*
X79759937Y-147723000D02*
X79759937Y-144641000D01*
X80399937Y-148057000D02*
X80399937Y-144641000D01*
X80599937Y-148138000D02*
X80599937Y-144641000D01*
X81719937Y-148430000D02*
X81719937Y-138370000D01*
X87920583Y-146275000D02*
X86920583Y-146275000D01*
X80039937Y-147883000D02*
X80039937Y-144641000D01*
X79679937Y-142159000D02*
X79679937Y-139127000D01*
X79439937Y-147510000D02*
X79439937Y-144641000D01*
X77519937Y-144778000D02*
X77519937Y-142022000D01*
X81119937Y-142159000D02*
X81119937Y-138493000D01*
X78999937Y-147153000D02*
X78999937Y-144641000D01*
X79079937Y-142159000D02*
X79079937Y-139576000D01*
X79519937Y-142159000D02*
X79519937Y-139234000D01*
X80639937Y-142159000D02*
X80639937Y-138646000D01*
X78039937Y-145979000D02*
X78039937Y-140821000D01*
X78439937Y-146556000D02*
X78439937Y-140244000D01*
X80239937Y-147984000D02*
X80239937Y-144641000D01*
X77719937Y-145344000D02*
X77719937Y-141456000D01*
X77999937Y-145910000D02*
X77999937Y-140890000D01*
X81639937Y-148418000D02*
X81639937Y-138382000D01*
X77599937Y-145030000D02*
X77599937Y-141770000D01*
X77959937Y-145839000D02*
X77959937Y-140961000D01*
X79719937Y-142159000D02*
X79719937Y-139102000D01*
X81920937Y-148454000D02*
X81920937Y-138346000D01*
X77359937Y-143999000D02*
X77359937Y-142801000D01*
X80999937Y-148274000D02*
X80999937Y-144641000D01*
X82440937Y-148480000D02*
X82440937Y-138320000D01*
X80599937Y-142159000D02*
X80599937Y-138662000D01*
X79279937Y-147389000D02*
X79279937Y-144641000D01*
X79159937Y-142159000D02*
X79159937Y-139508000D01*
X81760937Y-148435000D02*
X81760937Y-138365000D01*
X79079937Y-147224000D02*
X79079937Y-144641000D01*
X81039937Y-148285000D02*
X81039937Y-144641000D01*
X79519937Y-147566000D02*
X79519937Y-144641000D01*
X80919937Y-148250000D02*
X80919937Y-144641000D01*
X80279937Y-142159000D02*
X80279937Y-138797000D01*
X81599937Y-148411000D02*
X81599937Y-138389000D01*
X80479937Y-142159000D02*
X80479937Y-138710000D01*
X79919937Y-147817000D02*
X79919937Y-144641000D01*
X80639937Y-148154000D02*
X80639937Y-144641000D01*
X80199937Y-142159000D02*
X80199937Y-138836000D01*
X80399937Y-142159000D02*
X80399937Y-138743000D01*
X78879937Y-142159000D02*
X78879937Y-139760000D01*
X79119937Y-147258000D02*
X79119937Y-144641000D01*
X79959937Y-147840000D02*
X79959937Y-144641000D01*
X80079937Y-142159000D02*
X80079937Y-138896000D01*
X78919937Y-147079000D02*
X78919937Y-144641000D01*
X78839937Y-142159000D02*
X78839937Y-139799000D01*
X80119937Y-147925000D02*
X80119937Y-144641000D01*
X81239937Y-148338000D02*
X81239937Y-138462000D01*
X77679937Y-145246000D02*
X77679937Y-141554000D01*
X82360937Y-148480000D02*
X82360937Y-138320000D01*
X81159937Y-142159000D02*
X81159937Y-138482000D01*
X79919937Y-142159000D02*
X79919937Y-138983000D01*
X80879937Y-148237000D02*
X80879937Y-144641000D01*
X80319937Y-148021000D02*
X80319937Y-144641000D01*
X80479937Y-148090000D02*
X80479937Y-144641000D01*
X79959937Y-142159000D02*
X79959937Y-138960000D01*
X79839937Y-142159000D02*
X79839937Y-139029000D01*
X78359937Y-146454000D02*
X78359937Y-140346000D01*
X80359937Y-148039000D02*
X80359937Y-144641000D01*
X80679937Y-142159000D02*
X80679937Y-138632000D01*
X79799937Y-142159000D02*
X79799937Y-139053000D01*
X78839937Y-147001000D02*
X78839937Y-144641000D01*
X78199937Y-146230000D02*
X78199937Y-140570000D01*
X79639937Y-147647000D02*
X79639937Y-144641000D01*
X78719937Y-142159000D02*
X78719937Y-139922000D01*
X87560937Y-143400000D02*
G75*
G03*
X87560937Y-143400000I-5120000J0D01*
G01*
X81591000Y-129140752D02*
X81591000Y-128618248D01*
X83061000Y-129140752D02*
X83061000Y-128618248D01*
X62135000Y-112058748D02*
X62135000Y-112581252D01*
X60665000Y-112058748D02*
X60665000Y-112581252D01*
X60150000Y-109000000D02*
X58450000Y-109000000D01*
X60150000Y-109000000D02*
X60150000Y-111550000D01*
X58450000Y-109000000D02*
X58450000Y-111550000D01*
D17*
X109760000Y-128047500D02*
X108360000Y-128047500D01*
X103760000Y-118047500D02*
X108360000Y-118047500D01*
X109760000Y-118047500D02*
X117260000Y-118047500D01*
X108360000Y-128047500D02*
X108360000Y-118047500D01*
X117260000Y-118047500D02*
X117260000Y-128047500D01*
X117260000Y-128047500D02*
X109760000Y-128047500D01*
X108360000Y-118047500D02*
X109760000Y-118047500D01*
X108360000Y-128047500D02*
X103760000Y-128047500D01*
X109760000Y-128047500D02*
X109760000Y-118047500D01*
X103760000Y-128047500D02*
X103760000Y-118047500D01*
D11*
X105610000Y-128847500D02*
G75*
G03*
X105610000Y-128847500I-100000J0D01*
G01*
D16*
X106956915Y-142159000D02*
X106956915Y-138576000D01*
X107716915Y-148411000D02*
X107716915Y-138389000D01*
X106316915Y-142159000D02*
X106316915Y-138836000D01*
X106116915Y-147862000D02*
X106116915Y-144641000D01*
X103756915Y-145142000D02*
X103756915Y-141658000D01*
X105636915Y-147566000D02*
X105636915Y-144641000D01*
X104916915Y-146961000D02*
X104916915Y-144641000D01*
X105876915Y-147723000D02*
X105876915Y-144641000D01*
X107276915Y-142159000D02*
X107276915Y-138482000D01*
X108077915Y-148458000D02*
X108077915Y-138342000D01*
X103956915Y-145609000D02*
X103956915Y-141191000D01*
X105716915Y-147621000D02*
X105716915Y-144641000D01*
X106156915Y-142159000D02*
X106156915Y-138917000D01*
X105556915Y-147510000D02*
X105556915Y-144641000D01*
X104556915Y-146556000D02*
X104556915Y-140244000D01*
X107196915Y-142159000D02*
X107196915Y-138503000D01*
X107196915Y-148297000D02*
X107196915Y-144641000D01*
X106276915Y-142159000D02*
X106276915Y-138855000D01*
X103596915Y-144630000D02*
X103596915Y-142170000D01*
X104876915Y-142159000D02*
X104876915Y-139880000D01*
X106076915Y-147840000D02*
X106076915Y-144641000D01*
X105956915Y-142159000D02*
X105956915Y-139029000D01*
X104076915Y-145839000D02*
X104076915Y-140961000D01*
X104316915Y-146230000D02*
X104316915Y-140570000D01*
X105556915Y-142159000D02*
X105556915Y-139290000D01*
X106396915Y-142159000D02*
X106396915Y-138797000D01*
X105996915Y-142159000D02*
X105996915Y-139005000D01*
X105356915Y-147357000D02*
X105356915Y-144641000D01*
X104396915Y-146345000D02*
X104396915Y-140455000D01*
X106436915Y-142159000D02*
X106436915Y-138779000D01*
X105956915Y-147771000D02*
X105956915Y-144641000D01*
X105996915Y-147795000D02*
X105996915Y-144641000D01*
X104956915Y-147001000D02*
X104956915Y-144641000D01*
X107156915Y-142159000D02*
X107156915Y-138515000D01*
X107636915Y-148397000D02*
X107636915Y-138403000D01*
X105436915Y-147420000D02*
X105436915Y-144641000D01*
X105196915Y-147224000D02*
X105196915Y-144641000D01*
X104236915Y-146109000D02*
X104236915Y-140691000D01*
X106916915Y-142159000D02*
X106916915Y-138589000D01*
X105196915Y-142159000D02*
X105196915Y-139576000D01*
X107236915Y-148307000D02*
X107236915Y-144641000D01*
X105436915Y-142159000D02*
X105436915Y-139380000D01*
X107356915Y-148338000D02*
X107356915Y-138462000D01*
X106356915Y-147984000D02*
X106356915Y-144641000D01*
X104716915Y-146747000D02*
X104716915Y-140053000D01*
X105396915Y-147389000D02*
X105396915Y-144641000D01*
X108037915Y-148454000D02*
X108037915Y-138346000D01*
X108157915Y-148465000D02*
X108157915Y-138335000D01*
X105756915Y-147647000D02*
X105756915Y-144641000D01*
X106636915Y-148107000D02*
X106636915Y-144641000D01*
X105276915Y-147292000D02*
X105276915Y-144641000D01*
X106476915Y-142159000D02*
X106476915Y-138761000D01*
X106156915Y-147883000D02*
X106156915Y-144641000D01*
X108277915Y-148473000D02*
X108277915Y-138327000D01*
X104436915Y-146400000D02*
X104436915Y-140400000D01*
X106836915Y-148183000D02*
X106836915Y-144641000D01*
X104036915Y-145765000D02*
X104036915Y-141035000D01*
X106676915Y-148123000D02*
X106676915Y-144641000D01*
X104596915Y-146606000D02*
X104596915Y-140194000D01*
X107436915Y-148356000D02*
X107436915Y-138444000D01*
X107476915Y-148365000D02*
X107476915Y-138435000D01*
X107116915Y-148274000D02*
X107116915Y-144641000D01*
X107756915Y-148418000D02*
X107756915Y-138382000D01*
X104996915Y-142159000D02*
X104996915Y-139760000D01*
X105516915Y-147480000D02*
X105516915Y-144641000D01*
X105876915Y-142159000D02*
X105876915Y-139077000D01*
X105676915Y-142159000D02*
X105676915Y-139206000D01*
X105356915Y-142159000D02*
X105356915Y-139443000D01*
X108317915Y-148475000D02*
X108317915Y-138325000D01*
X107676915Y-148404000D02*
X107676915Y-138396000D01*
X107796915Y-148424000D02*
X107796915Y-138376000D01*
X106196915Y-147904000D02*
X106196915Y-144641000D01*
X106876915Y-148197000D02*
X106876915Y-144641000D01*
X106556915Y-148074000D02*
X106556915Y-144641000D01*
X105076915Y-142159000D02*
X105076915Y-139684000D01*
X107076915Y-142159000D02*
X107076915Y-138538000D01*
X108117915Y-148462000D02*
X108117915Y-138338000D01*
X107556915Y-148382000D02*
X107556915Y-138418000D01*
X103916915Y-145525000D02*
X103916915Y-141275000D01*
X105836915Y-147698000D02*
X105836915Y-144641000D01*
X105916915Y-142159000D02*
X105916915Y-139053000D01*
X106596915Y-142159000D02*
X106596915Y-138710000D01*
X105236915Y-147258000D02*
X105236915Y-144641000D01*
X106076915Y-142159000D02*
X106076915Y-138960000D01*
X103836915Y-145344000D02*
X103836915Y-141456000D01*
X104356915Y-146289000D02*
X104356915Y-140511000D01*
X104836915Y-142159000D02*
X104836915Y-139922000D01*
X107276915Y-148318000D02*
X107276915Y-144641000D01*
X104916915Y-142159000D02*
X104916915Y-139839000D01*
X106876915Y-142159000D02*
X106876915Y-138603000D01*
X108437915Y-148479000D02*
X108437915Y-138321000D01*
X105596915Y-147538000D02*
X105596915Y-144641000D01*
X107836915Y-148430000D02*
X107836915Y-138370000D01*
X105316915Y-142159000D02*
X105316915Y-139475000D01*
X107036915Y-148250000D02*
X107036915Y-144641000D01*
X105516915Y-142159000D02*
X105516915Y-139320000D01*
X105476915Y-142159000D02*
X105476915Y-139350000D01*
X103996915Y-145689000D02*
X103996915Y-141111000D01*
X105756915Y-142159000D02*
X105756915Y-139153000D01*
X106316915Y-147964000D02*
X106316915Y-144641000D01*
X104636915Y-146654000D02*
X104636915Y-140146000D01*
X103516915Y-144262000D02*
X103516915Y-142538000D01*
X104476915Y-146454000D02*
X104476915Y-140346000D01*
X106996915Y-142159000D02*
X106996915Y-138563000D01*
X106916915Y-148211000D02*
X106916915Y-144641000D01*
X106556915Y-142159000D02*
X106556915Y-138726000D01*
X107877915Y-148435000D02*
X107877915Y-138365000D01*
X103556915Y-144462000D02*
X103556915Y-142338000D01*
X106596915Y-148090000D02*
X106596915Y-144641000D01*
X105396915Y-142159000D02*
X105396915Y-139411000D01*
X107076915Y-148262000D02*
X107076915Y-144641000D01*
X104116915Y-145910000D02*
X104116915Y-140890000D01*
X105156915Y-142159000D02*
X105156915Y-139611000D01*
X107236915Y-142159000D02*
X107236915Y-138493000D01*
X106276915Y-147945000D02*
X106276915Y-144641000D01*
X105076915Y-147116000D02*
X105076915Y-144641000D01*
X105236915Y-142159000D02*
X105236915Y-139542000D01*
X108237915Y-148470000D02*
X108237915Y-138330000D01*
X104996915Y-147040000D02*
X104996915Y-144641000D01*
X103716915Y-145030000D02*
X103716915Y-141770000D01*
X104876915Y-146920000D02*
X104876915Y-144641000D01*
X107957915Y-148445000D02*
X107957915Y-138355000D01*
X107997915Y-148450000D02*
X107997915Y-138350000D01*
X106756915Y-148154000D02*
X106756915Y-144641000D01*
X104676915Y-146701000D02*
X104676915Y-140099000D01*
X103796915Y-145246000D02*
X103796915Y-141554000D01*
X106116915Y-142159000D02*
X106116915Y-138938000D01*
X107596915Y-148390000D02*
X107596915Y-138410000D01*
X108197915Y-148468000D02*
X108197915Y-138332000D01*
X106196915Y-142159000D02*
X106196915Y-138896000D01*
X104956915Y-142159000D02*
X104956915Y-139799000D01*
X105316915Y-147325000D02*
X105316915Y-144641000D01*
X106036915Y-147817000D02*
X106036915Y-144641000D01*
X106676915Y-142159000D02*
X106676915Y-138677000D01*
X106036915Y-142159000D02*
X106036915Y-138983000D01*
X108397915Y-148478000D02*
X108397915Y-138322000D01*
X105036915Y-142159000D02*
X105036915Y-139721000D01*
X108477915Y-148480000D02*
X108477915Y-138320000D01*
X106516915Y-142159000D02*
X106516915Y-138743000D01*
X105276915Y-142159000D02*
X105276915Y-139508000D01*
X106396915Y-148003000D02*
X106396915Y-144641000D01*
X104796915Y-146836000D02*
X104796915Y-139964000D01*
X108517915Y-148480000D02*
X108517915Y-138320000D01*
X105716915Y-142159000D02*
X105716915Y-139179000D01*
X105476915Y-147450000D02*
X105476915Y-144641000D01*
X113537561Y-146775000D02*
X113537561Y-145775000D01*
X104516915Y-146506000D02*
X104516915Y-140294000D01*
X107917915Y-148440000D02*
X107917915Y-138360000D01*
X107036915Y-142159000D02*
X107036915Y-138550000D01*
X106356915Y-142159000D02*
X106356915Y-138816000D01*
X106836915Y-142159000D02*
X106836915Y-138617000D01*
X105836915Y-142159000D02*
X105836915Y-139102000D01*
X106236915Y-142159000D02*
X106236915Y-138875000D01*
X104156915Y-145979000D02*
X104156915Y-140821000D01*
X105116915Y-142159000D02*
X105116915Y-139647000D01*
X106956915Y-148224000D02*
X106956915Y-144641000D01*
X105156915Y-147189000D02*
X105156915Y-144641000D01*
X105036915Y-147079000D02*
X105036915Y-144641000D01*
X106516915Y-148057000D02*
X106516915Y-144641000D01*
X107156915Y-148285000D02*
X107156915Y-144641000D01*
X106636915Y-142159000D02*
X106636915Y-138693000D01*
X105796915Y-142159000D02*
X105796915Y-139127000D01*
X106796915Y-142159000D02*
X106796915Y-138632000D01*
X106716915Y-142159000D02*
X106716915Y-138662000D01*
X108357915Y-148477000D02*
X108357915Y-138323000D01*
X114037561Y-146275000D02*
X113037561Y-146275000D01*
X103876915Y-145437000D02*
X103876915Y-141363000D01*
X107396915Y-148347000D02*
X107396915Y-138453000D01*
X106716915Y-148138000D02*
X106716915Y-144641000D01*
X103676915Y-144910000D02*
X103676915Y-141890000D01*
X104756915Y-146792000D02*
X104756915Y-140008000D01*
X108557915Y-148480000D02*
X108557915Y-138320000D01*
X106796915Y-148168000D02*
X106796915Y-144641000D01*
X105116915Y-147153000D02*
X105116915Y-144641000D01*
X105636915Y-142159000D02*
X105636915Y-139234000D01*
X105676915Y-147594000D02*
X105676915Y-144641000D01*
X106476915Y-148039000D02*
X106476915Y-144641000D01*
X104196915Y-146045000D02*
X104196915Y-140755000D01*
X106436915Y-148021000D02*
X106436915Y-144641000D01*
X103636915Y-144778000D02*
X103636915Y-142022000D01*
X104276915Y-146170000D02*
X104276915Y-140630000D01*
X104836915Y-146878000D02*
X104836915Y-144641000D01*
X106236915Y-147925000D02*
X106236915Y-144641000D01*
X105796915Y-147673000D02*
X105796915Y-144641000D01*
X106996915Y-148237000D02*
X106996915Y-144641000D01*
X103476915Y-143999000D02*
X103476915Y-142801000D01*
X106756915Y-142159000D02*
X106756915Y-138646000D01*
X105916915Y-147747000D02*
X105916915Y-144641000D01*
X107516915Y-148374000D02*
X107516915Y-138426000D01*
X107316915Y-148328000D02*
X107316915Y-138472000D01*
X107116915Y-142159000D02*
X107116915Y-138526000D01*
X105596915Y-142159000D02*
X105596915Y-139262000D01*
X113677915Y-143400000D02*
G75*
G03*
X113677915Y-143400000I-5120000J0D01*
G01*
X75935000Y-112072936D02*
X75935000Y-112527064D01*
X74465000Y-112072936D02*
X74465000Y-112527064D01*
X68029000Y-136259500D02*
X66829000Y-136259500D01*
X62629000Y-136259500D02*
X62629000Y-130659500D01*
X63829000Y-136259500D02*
X62629000Y-136259500D01*
X62629000Y-130659500D02*
X63829000Y-130659500D01*
X68029000Y-130659500D02*
X68029000Y-136259500D01*
X66829000Y-130659500D02*
X68029000Y-130659500D01*
X67650000Y-112038748D02*
X67650000Y-112561252D01*
X66180000Y-112038748D02*
X66180000Y-112561252D01*
D17*
X66920000Y-121168000D02*
X69280000Y-121168000D01*
X69280000Y-116068000D02*
X66920000Y-116068000D01*
X70650000Y-116368000D02*
X70650000Y-120868000D01*
X65550000Y-116368000D02*
X65550000Y-120868000D01*
D11*
X66325000Y-122868000D02*
G75*
G03*
X66325000Y-122868000I-100000J0D01*
G01*
D16*
X75647252Y-125303000D02*
X75124748Y-125303000D01*
X75647252Y-126773000D02*
X75124748Y-126773000D01*
X108122936Y-130992000D02*
X108577064Y-130992000D01*
X108122936Y-129522000D02*
X108577064Y-129522000D01*
X107135000Y-152710000D02*
X107135000Y-154040000D01*
X104535000Y-152710000D02*
X104535000Y-155370000D01*
X104535000Y-155370000D02*
X96855000Y-155370000D01*
X105805000Y-152710000D02*
X107135000Y-152710000D01*
X104535000Y-152710000D02*
X96855000Y-152710000D01*
X96855000Y-152710000D02*
X96855000Y-155370000D01*
X82214080Y-125303000D02*
X82736584Y-125303000D01*
X82214080Y-126773000D02*
X82736584Y-126773000D01*
X70981000Y-131555752D02*
X70981000Y-131033248D01*
X72451000Y-131555752D02*
X72451000Y-131033248D01*
X106150000Y-135020000D02*
X106150000Y-135670000D01*
X103030000Y-135020000D02*
X103030000Y-135670000D01*
X106150000Y-135020000D02*
X106150000Y-133345000D01*
X103030000Y-135020000D02*
X103030000Y-134370000D01*
X66180000Y-108927064D02*
X66180000Y-108472936D01*
X67650000Y-108927064D02*
X67650000Y-108472936D01*
X51842959Y-145839000D02*
X51842959Y-140961000D01*
X52882959Y-142159000D02*
X52882959Y-139647000D01*
X53602959Y-147698000D02*
X53602959Y-144641000D01*
X54202959Y-142159000D02*
X54202959Y-138779000D01*
X54802959Y-142159000D02*
X54802959Y-138550000D01*
X55282959Y-148374000D02*
X55282959Y-138426000D01*
X53362959Y-147538000D02*
X53362959Y-144641000D01*
X54282959Y-148057000D02*
X54282959Y-144641000D01*
X52842959Y-142159000D02*
X52842959Y-139684000D01*
X52642959Y-146920000D02*
X52642959Y-144641000D01*
X52562959Y-146836000D02*
X52562959Y-139964000D01*
X54682959Y-142159000D02*
X54682959Y-138589000D01*
X53162959Y-147389000D02*
X53162959Y-144641000D01*
X52802959Y-142159000D02*
X52802959Y-139721000D01*
X53482959Y-147621000D02*
X53482959Y-144641000D01*
X55763959Y-148450000D02*
X55763959Y-138350000D01*
X53162959Y-142159000D02*
X53162959Y-139411000D01*
X55803959Y-148454000D02*
X55803959Y-138346000D01*
X54122959Y-142159000D02*
X54122959Y-138816000D01*
X52762959Y-147040000D02*
X52762959Y-144641000D01*
X53002959Y-142159000D02*
X53002959Y-139542000D01*
X53602959Y-142159000D02*
X53602959Y-139102000D01*
X54882959Y-148274000D02*
X54882959Y-144641000D01*
X54482959Y-148138000D02*
X54482959Y-144641000D01*
X54242959Y-142159000D02*
X54242959Y-138761000D01*
X52722959Y-142159000D02*
X52722959Y-139799000D01*
X53562959Y-147673000D02*
X53562959Y-144641000D01*
X52282959Y-146506000D02*
X52282959Y-140294000D01*
X53242959Y-142159000D02*
X53242959Y-139350000D01*
X54962959Y-148297000D02*
X54962959Y-144641000D01*
X55643959Y-148435000D02*
X55643959Y-138365000D01*
X54642959Y-142159000D02*
X54642959Y-138603000D01*
X55723959Y-148445000D02*
X55723959Y-138355000D01*
X53282959Y-142159000D02*
X53282959Y-139320000D01*
X52802959Y-147079000D02*
X52802959Y-144641000D01*
X54162959Y-142159000D02*
X54162959Y-138797000D01*
X52682959Y-142159000D02*
X52682959Y-139839000D01*
X53202959Y-147420000D02*
X53202959Y-144641000D01*
X54922959Y-148285000D02*
X54922959Y-144641000D01*
X53122959Y-147357000D02*
X53122959Y-144641000D01*
X53682959Y-142159000D02*
X53682959Y-139053000D01*
X53802959Y-142159000D02*
X53802959Y-138983000D01*
X55843959Y-148458000D02*
X55843959Y-138342000D01*
X54482959Y-142159000D02*
X54482959Y-138662000D01*
X51282959Y-144262000D02*
X51282959Y-142538000D01*
X54242959Y-148039000D02*
X54242959Y-144641000D01*
X55082959Y-148328000D02*
X55082959Y-138472000D01*
X53002959Y-147258000D02*
X53002959Y-144641000D01*
X54882959Y-142159000D02*
X54882959Y-138526000D01*
X55402959Y-148397000D02*
X55402959Y-138403000D01*
X56323959Y-148480000D02*
X56323959Y-138320000D01*
X54522959Y-148154000D02*
X54522959Y-144641000D01*
X51922959Y-145979000D02*
X51922959Y-140821000D01*
X56203959Y-148479000D02*
X56203959Y-138321000D01*
X55683959Y-148440000D02*
X55683959Y-138360000D01*
X51362959Y-144630000D02*
X51362959Y-142170000D01*
X54282959Y-142159000D02*
X54282959Y-138743000D01*
X55562959Y-148424000D02*
X55562959Y-138376000D01*
X54762959Y-142159000D02*
X54762959Y-138563000D01*
X53082959Y-147325000D02*
X53082959Y-144641000D01*
X54202959Y-148021000D02*
X54202959Y-144641000D01*
X54362959Y-142159000D02*
X54362959Y-138710000D01*
X55122959Y-148338000D02*
X55122959Y-138462000D01*
X53242959Y-147450000D02*
X53242959Y-144641000D01*
X54362959Y-148090000D02*
X54362959Y-144641000D01*
X51482959Y-145030000D02*
X51482959Y-141770000D01*
X52762959Y-142159000D02*
X52762959Y-139760000D01*
X54562959Y-148168000D02*
X54562959Y-144641000D01*
X54442959Y-148123000D02*
X54442959Y-144641000D01*
X54322959Y-148074000D02*
X54322959Y-144641000D01*
X55522959Y-148418000D02*
X55522959Y-138382000D01*
X52602959Y-146878000D02*
X52602959Y-144641000D01*
X53522959Y-142159000D02*
X53522959Y-139153000D01*
X53322959Y-142159000D02*
X53322959Y-139290000D01*
X53402959Y-147566000D02*
X53402959Y-144641000D01*
X53642959Y-142159000D02*
X53642959Y-139077000D01*
X56243959Y-148480000D02*
X56243959Y-138320000D01*
X53722959Y-142159000D02*
X53722959Y-139029000D01*
X55883959Y-148462000D02*
X55883959Y-138338000D01*
X52122959Y-146289000D02*
X52122959Y-140511000D01*
X55002959Y-148307000D02*
X55002959Y-144641000D01*
X61803605Y-146275000D02*
X60803605Y-146275000D01*
X51522959Y-145142000D02*
X51522959Y-141658000D01*
X53642959Y-147723000D02*
X53642959Y-144641000D01*
X53442959Y-142159000D02*
X53442959Y-139206000D01*
X54722959Y-148224000D02*
X54722959Y-144641000D01*
X52962959Y-142159000D02*
X52962959Y-139576000D01*
X54162959Y-148003000D02*
X54162959Y-144641000D01*
X53922959Y-147883000D02*
X53922959Y-144641000D01*
X52242959Y-146454000D02*
X52242959Y-140346000D01*
X55602959Y-148430000D02*
X55602959Y-138370000D01*
X53882959Y-142159000D02*
X53882959Y-138938000D01*
X54602959Y-142159000D02*
X54602959Y-138617000D01*
X56043959Y-148473000D02*
X56043959Y-138327000D01*
X51882959Y-145910000D02*
X51882959Y-140890000D01*
X52442959Y-146701000D02*
X52442959Y-140099000D01*
X52002959Y-146109000D02*
X52002959Y-140691000D01*
X54042959Y-142159000D02*
X54042959Y-138855000D01*
X55162959Y-148347000D02*
X55162959Y-138453000D01*
X56283959Y-148480000D02*
X56283959Y-138320000D01*
X52642959Y-142159000D02*
X52642959Y-139880000D01*
X54762959Y-148237000D02*
X54762959Y-144641000D01*
X55242959Y-148365000D02*
X55242959Y-138435000D01*
X52162959Y-146345000D02*
X52162959Y-140455000D01*
X53762959Y-147795000D02*
X53762959Y-144641000D01*
X53322959Y-147510000D02*
X53322959Y-144641000D01*
X55202959Y-148356000D02*
X55202959Y-138444000D01*
X55042959Y-148318000D02*
X55042959Y-144641000D01*
X61303605Y-146775000D02*
X61303605Y-145775000D01*
X53522959Y-147647000D02*
X53522959Y-144641000D01*
X51322959Y-144462000D02*
X51322959Y-142338000D01*
X51962959Y-146045000D02*
X51962959Y-140755000D01*
X54682959Y-148211000D02*
X54682959Y-144641000D01*
X53922959Y-142159000D02*
X53922959Y-138917000D01*
X51682959Y-145525000D02*
X51682959Y-141275000D01*
X53402959Y-142159000D02*
X53402959Y-139234000D01*
X53842959Y-147840000D02*
X53842959Y-144641000D01*
X53282959Y-147480000D02*
X53282959Y-144641000D01*
X52722959Y-147001000D02*
X52722959Y-144641000D01*
X54962959Y-142159000D02*
X54962959Y-138503000D01*
X53722959Y-147771000D02*
X53722959Y-144641000D01*
X54722959Y-142159000D02*
X54722959Y-138576000D01*
X54842959Y-142159000D02*
X54842959Y-138538000D01*
X55362959Y-148390000D02*
X55362959Y-138410000D01*
X54082959Y-142159000D02*
X54082959Y-138836000D01*
X51402959Y-144778000D02*
X51402959Y-142022000D01*
X54442959Y-142159000D02*
X54442959Y-138677000D01*
X52042959Y-146170000D02*
X52042959Y-140630000D01*
X54402959Y-148107000D02*
X54402959Y-144641000D01*
X54642959Y-148197000D02*
X54642959Y-144641000D01*
X51802959Y-145765000D02*
X51802959Y-141035000D01*
X53482959Y-142159000D02*
X53482959Y-139179000D01*
X55442959Y-148404000D02*
X55442959Y-138396000D01*
X52322959Y-146556000D02*
X52322959Y-140244000D01*
X53842959Y-142159000D02*
X53842959Y-138960000D01*
X54042959Y-147945000D02*
X54042959Y-144641000D01*
X51762959Y-145689000D02*
X51762959Y-141111000D01*
X51642959Y-145437000D02*
X51642959Y-141363000D01*
X52082959Y-146230000D02*
X52082959Y-140570000D01*
X52882959Y-147153000D02*
X52882959Y-144641000D01*
X52962959Y-147224000D02*
X52962959Y-144641000D01*
X52842959Y-147116000D02*
X52842959Y-144641000D01*
X56163959Y-148478000D02*
X56163959Y-138322000D01*
X52682959Y-146961000D02*
X52682959Y-144641000D01*
X52602959Y-142159000D02*
X52602959Y-139922000D01*
X53082959Y-142159000D02*
X53082959Y-139475000D01*
X53682959Y-147747000D02*
X53682959Y-144641000D01*
X52482959Y-146747000D02*
X52482959Y-140053000D01*
X53762959Y-142159000D02*
X53762959Y-139005000D01*
X51442959Y-144910000D02*
X51442959Y-141890000D01*
X53042959Y-142159000D02*
X53042959Y-139508000D01*
X51242959Y-143999000D02*
X51242959Y-142801000D01*
X51562959Y-145246000D02*
X51562959Y-141554000D01*
X54562959Y-142159000D02*
X54562959Y-138632000D01*
X53962959Y-147904000D02*
X53962959Y-144641000D01*
X52402959Y-146654000D02*
X52402959Y-140146000D01*
X53362959Y-142159000D02*
X53362959Y-139262000D01*
X53202959Y-142159000D02*
X53202959Y-139380000D01*
X53042959Y-147292000D02*
X53042959Y-144641000D01*
X55963959Y-148468000D02*
X55963959Y-138332000D01*
X55042959Y-142159000D02*
X55042959Y-138482000D01*
X56123959Y-148477000D02*
X56123959Y-138323000D01*
X54002959Y-142159000D02*
X54002959Y-138875000D01*
X54602959Y-148183000D02*
X54602959Y-144641000D01*
X55482959Y-148411000D02*
X55482959Y-138389000D01*
X53962959Y-142159000D02*
X53962959Y-138896000D01*
X55322959Y-148382000D02*
X55322959Y-138418000D01*
X56003959Y-148470000D02*
X56003959Y-138330000D01*
X54842959Y-148262000D02*
X54842959Y-144641000D01*
X53562959Y-142159000D02*
X53562959Y-139127000D01*
X54522959Y-142159000D02*
X54522959Y-138646000D01*
X52522959Y-146792000D02*
X52522959Y-140008000D01*
X55002959Y-142159000D02*
X55002959Y-138493000D01*
X54122959Y-147984000D02*
X54122959Y-144641000D01*
X54322959Y-142159000D02*
X54322959Y-138726000D01*
X53122959Y-142159000D02*
X53122959Y-139443000D01*
X54082959Y-147964000D02*
X54082959Y-144641000D01*
X52922959Y-147189000D02*
X52922959Y-144641000D01*
X51722959Y-145609000D02*
X51722959Y-141191000D01*
X52362959Y-146606000D02*
X52362959Y-140194000D01*
X52922959Y-142159000D02*
X52922959Y-139611000D01*
X53882959Y-147862000D02*
X53882959Y-144641000D01*
X53802959Y-147817000D02*
X53802959Y-144641000D01*
X52202959Y-146400000D02*
X52202959Y-140400000D01*
X54002959Y-147925000D02*
X54002959Y-144641000D01*
X55923959Y-148465000D02*
X55923959Y-138335000D01*
X53442959Y-147594000D02*
X53442959Y-144641000D01*
X56083959Y-148475000D02*
X56083959Y-138325000D01*
X54922959Y-142159000D02*
X54922959Y-138515000D01*
X51602959Y-145344000D02*
X51602959Y-141456000D01*
X54402959Y-142159000D02*
X54402959Y-138693000D01*
X54802959Y-148250000D02*
X54802959Y-144641000D01*
X61443959Y-143400000D02*
G75*
G03*
X61443959Y-143400000I-5120000J0D01*
G01*
D17*
X100270000Y-115710000D02*
X100270000Y-116285000D01*
X89770000Y-120635000D02*
X89770000Y-121210000D01*
X89770000Y-115710000D02*
X89770000Y-116285000D01*
X100270000Y-120635000D02*
X100270000Y-121210000D01*
X89770000Y-121210000D02*
X100270000Y-121210000D01*
X89770000Y-115710000D02*
X100270000Y-115710000D01*
D16*
X92080000Y-131487064D02*
X92080000Y-130032936D01*
X90260000Y-131487064D02*
X90260000Y-130032936D01*
X85101000Y-129106564D02*
X85101000Y-128652436D01*
X83631000Y-129106564D02*
X83631000Y-128652436D01*
X88206000Y-137794000D02*
X88206000Y-134494000D01*
X88206000Y-137794000D02*
X82806000Y-137794000D01*
X88206000Y-134494000D02*
X82806000Y-134494000D01*
X88419000Y-112514748D02*
X88419000Y-113037252D01*
X89889000Y-112514748D02*
X89889000Y-113037252D01*
X64907500Y-108472936D02*
X64907500Y-108927064D01*
X63437500Y-108472936D02*
X63437500Y-108927064D01*
X95290000Y-131487064D02*
X95290000Y-130032936D01*
X93470000Y-131487064D02*
X93470000Y-130032936D01*
X86227064Y-125303000D02*
X85772936Y-125303000D01*
X86227064Y-126773000D02*
X85772936Y-126773000D01*
X83061000Y-132308248D02*
X83061000Y-132830752D01*
X81591000Y-132308248D02*
X81591000Y-132830752D01*
X87141000Y-132308248D02*
X87141000Y-132830752D01*
X85671000Y-132308248D02*
X85671000Y-132830752D01*
X70392500Y-108472936D02*
X70392500Y-108927064D01*
X68922500Y-108472936D02*
X68922500Y-108927064D01*
X114715000Y-133294000D02*
X114715000Y-131374000D01*
X114715000Y-131374000D02*
X112030000Y-131374000D01*
X112030000Y-133294000D02*
X114715000Y-133294000D01*
X60381000Y-127886564D02*
X60381000Y-127432436D01*
X61851000Y-127886564D02*
X61851000Y-127432436D01*
X68061448Y-142159000D02*
X68061448Y-138493000D01*
X65181448Y-146289000D02*
X65181448Y-140511000D01*
X67061448Y-142159000D02*
X67061448Y-138875000D01*
X64541448Y-145030000D02*
X64541448Y-141770000D01*
X67501448Y-142159000D02*
X67501448Y-138677000D01*
X66261448Y-142159000D02*
X66261448Y-139380000D01*
X67501448Y-148123000D02*
X67501448Y-144641000D01*
X66261448Y-147420000D02*
X66261448Y-144641000D01*
X67621448Y-142159000D02*
X67621448Y-138632000D01*
X65861448Y-142159000D02*
X65861448Y-139721000D01*
X69062448Y-148470000D02*
X69062448Y-138330000D01*
X67261448Y-142159000D02*
X67261448Y-138779000D01*
X66181448Y-142159000D02*
X66181448Y-139443000D01*
X64301448Y-143999000D02*
X64301448Y-142801000D01*
X68581448Y-148418000D02*
X68581448Y-138382000D01*
X68341448Y-148374000D02*
X68341448Y-138426000D01*
X67541448Y-148138000D02*
X67541448Y-144641000D01*
X67781448Y-148224000D02*
X67781448Y-144641000D01*
X66781448Y-142159000D02*
X66781448Y-139029000D01*
X68902448Y-148458000D02*
X68902448Y-138342000D01*
X65221448Y-146345000D02*
X65221448Y-140455000D01*
X64581448Y-145142000D02*
X64581448Y-141658000D01*
X66221448Y-147389000D02*
X66221448Y-144641000D01*
X66501448Y-142159000D02*
X66501448Y-139206000D01*
X64501448Y-144910000D02*
X64501448Y-141890000D01*
X74362094Y-146775000D02*
X74362094Y-145775000D01*
X66541448Y-147621000D02*
X66541448Y-144641000D01*
X66701448Y-142159000D02*
X66701448Y-139077000D01*
X64381448Y-144462000D02*
X64381448Y-142338000D01*
X67621448Y-148168000D02*
X67621448Y-144641000D01*
X67741448Y-148211000D02*
X67741448Y-144641000D01*
X65781448Y-147001000D02*
X65781448Y-144641000D01*
X66941448Y-147862000D02*
X66941448Y-144641000D01*
X68702448Y-148435000D02*
X68702448Y-138365000D01*
X68141448Y-148328000D02*
X68141448Y-138472000D01*
X69142448Y-148475000D02*
X69142448Y-138325000D01*
X69022448Y-148468000D02*
X69022448Y-138332000D01*
X67701448Y-148197000D02*
X67701448Y-144641000D01*
X69222448Y-148478000D02*
X69222448Y-138322000D01*
X67541448Y-142159000D02*
X67541448Y-138662000D01*
X64661448Y-145344000D02*
X64661448Y-141456000D01*
X66421448Y-142159000D02*
X66421448Y-139262000D01*
X66141448Y-147325000D02*
X66141448Y-144641000D01*
X64701448Y-145437000D02*
X64701448Y-141363000D01*
X65101448Y-146170000D02*
X65101448Y-140630000D01*
X68261448Y-148356000D02*
X68261448Y-138444000D01*
X64861448Y-145765000D02*
X64861448Y-141035000D01*
X64421448Y-144630000D02*
X64421448Y-142170000D01*
X65861448Y-147079000D02*
X65861448Y-144641000D01*
X66661448Y-147698000D02*
X66661448Y-144641000D01*
X66381448Y-142159000D02*
X66381448Y-139290000D01*
X65461448Y-146654000D02*
X65461448Y-140146000D01*
X68621448Y-148424000D02*
X68621448Y-138376000D01*
X65501448Y-146701000D02*
X65501448Y-140099000D01*
X68021448Y-142159000D02*
X68021448Y-138503000D01*
X66501448Y-147594000D02*
X66501448Y-144641000D01*
X67861448Y-148250000D02*
X67861448Y-144641000D01*
X66581448Y-142159000D02*
X66581448Y-139153000D01*
X66701448Y-147723000D02*
X66701448Y-144641000D01*
X68942448Y-148462000D02*
X68942448Y-138338000D01*
X67861448Y-142159000D02*
X67861448Y-138550000D01*
X65701448Y-146920000D02*
X65701448Y-144641000D01*
X67221448Y-142159000D02*
X67221448Y-138797000D01*
X64461448Y-144778000D02*
X64461448Y-142022000D01*
X66141448Y-142159000D02*
X66141448Y-139475000D01*
X64901448Y-145839000D02*
X64901448Y-140961000D01*
X66821448Y-147795000D02*
X66821448Y-144641000D01*
X66781448Y-147771000D02*
X66781448Y-144641000D01*
X67341448Y-142159000D02*
X67341448Y-138743000D01*
X65661448Y-146878000D02*
X65661448Y-144641000D01*
X67301448Y-148039000D02*
X67301448Y-144641000D01*
X68782448Y-148445000D02*
X68782448Y-138355000D01*
X67661448Y-142159000D02*
X67661448Y-138617000D01*
X68101448Y-148318000D02*
X68101448Y-144641000D01*
X66341448Y-142159000D02*
X66341448Y-139320000D01*
X65261448Y-146400000D02*
X65261448Y-140400000D01*
X67661448Y-148183000D02*
X67661448Y-144641000D01*
X65061448Y-146109000D02*
X65061448Y-140691000D01*
X67181448Y-147984000D02*
X67181448Y-144641000D01*
X67821448Y-148237000D02*
X67821448Y-144641000D01*
X65821448Y-142159000D02*
X65821448Y-139760000D01*
X66301448Y-147450000D02*
X66301448Y-144641000D01*
X66061448Y-142159000D02*
X66061448Y-139542000D01*
X69102448Y-148473000D02*
X69102448Y-138327000D01*
X67461448Y-148107000D02*
X67461448Y-144641000D01*
X67941448Y-142159000D02*
X67941448Y-138526000D01*
X66421448Y-147538000D02*
X66421448Y-144641000D01*
X67461448Y-142159000D02*
X67461448Y-138693000D01*
X68541448Y-148411000D02*
X68541448Y-138389000D01*
X67581448Y-142159000D02*
X67581448Y-138646000D01*
X66741448Y-142159000D02*
X66741448Y-139053000D01*
X65661448Y-142159000D02*
X65661448Y-139922000D01*
X68501448Y-148404000D02*
X68501448Y-138396000D01*
X65581448Y-146792000D02*
X65581448Y-140008000D01*
X67581448Y-148154000D02*
X67581448Y-144641000D01*
X68982448Y-148465000D02*
X68982448Y-138335000D01*
X66941448Y-142159000D02*
X66941448Y-138938000D01*
X66301448Y-142159000D02*
X66301448Y-139350000D01*
X67741448Y-142159000D02*
X67741448Y-138589000D01*
X67381448Y-148074000D02*
X67381448Y-144641000D01*
X68221448Y-148347000D02*
X68221448Y-138453000D01*
X66861448Y-147817000D02*
X66861448Y-144641000D01*
X67981448Y-148285000D02*
X67981448Y-144641000D01*
X64341448Y-144262000D02*
X64341448Y-142538000D01*
X66341448Y-147480000D02*
X66341448Y-144641000D01*
X66981448Y-142159000D02*
X66981448Y-138917000D01*
X67061448Y-147925000D02*
X67061448Y-144641000D01*
X67341448Y-148057000D02*
X67341448Y-144641000D01*
X67141448Y-142159000D02*
X67141448Y-138836000D01*
X65941448Y-142159000D02*
X65941448Y-139647000D01*
X65421448Y-146606000D02*
X65421448Y-140194000D01*
X66901448Y-142159000D02*
X66901448Y-138960000D01*
X67141448Y-147964000D02*
X67141448Y-144641000D01*
X66101448Y-147292000D02*
X66101448Y-144641000D01*
X68061448Y-148307000D02*
X68061448Y-144641000D01*
X67021448Y-147904000D02*
X67021448Y-144641000D01*
X65981448Y-147189000D02*
X65981448Y-144641000D01*
X65741448Y-146961000D02*
X65741448Y-144641000D01*
X66981448Y-147883000D02*
X66981448Y-144641000D01*
X65541448Y-146747000D02*
X65541448Y-140053000D01*
X65701448Y-142159000D02*
X65701448Y-139880000D01*
X67781448Y-142159000D02*
X67781448Y-138576000D01*
X67301448Y-142159000D02*
X67301448Y-138761000D01*
X65941448Y-147153000D02*
X65941448Y-144641000D01*
X67981448Y-142159000D02*
X67981448Y-138515000D01*
X67021448Y-142159000D02*
X67021448Y-138896000D01*
X67101448Y-142159000D02*
X67101448Y-138855000D01*
X68742448Y-148440000D02*
X68742448Y-138360000D01*
X64821448Y-145689000D02*
X64821448Y-141111000D01*
X67181448Y-142159000D02*
X67181448Y-138816000D01*
X66581448Y-147647000D02*
X66581448Y-144641000D01*
X68021448Y-148297000D02*
X68021448Y-144641000D01*
X65741448Y-142159000D02*
X65741448Y-139839000D01*
X69302448Y-148480000D02*
X69302448Y-138320000D01*
X64941448Y-145910000D02*
X64941448Y-140890000D01*
X68822448Y-148450000D02*
X68822448Y-138350000D01*
X68101448Y-142159000D02*
X68101448Y-138482000D01*
X68381448Y-148382000D02*
X68381448Y-138418000D01*
X65021448Y-146045000D02*
X65021448Y-140755000D01*
X66381448Y-147510000D02*
X66381448Y-144641000D01*
X67821448Y-142159000D02*
X67821448Y-138563000D01*
X66621448Y-147673000D02*
X66621448Y-144641000D01*
X67421448Y-142159000D02*
X67421448Y-138710000D01*
X67381448Y-142159000D02*
X67381448Y-138726000D01*
X66101448Y-142159000D02*
X66101448Y-139508000D01*
X65621448Y-146836000D02*
X65621448Y-139964000D01*
X64741448Y-145525000D02*
X64741448Y-141275000D01*
X67261448Y-148021000D02*
X67261448Y-144641000D01*
X65301448Y-146454000D02*
X65301448Y-140346000D01*
X68421448Y-148390000D02*
X68421448Y-138410000D01*
X69342448Y-148480000D02*
X69342448Y-138320000D01*
X66741448Y-147747000D02*
X66741448Y-144641000D01*
X67101448Y-147945000D02*
X67101448Y-144641000D01*
X68181448Y-148338000D02*
X68181448Y-138462000D01*
X66021448Y-142159000D02*
X66021448Y-139576000D01*
X68301448Y-148365000D02*
X68301448Y-138435000D01*
X64981448Y-145979000D02*
X64981448Y-140821000D01*
X67221448Y-148003000D02*
X67221448Y-144641000D01*
X65781448Y-142159000D02*
X65781448Y-139799000D01*
X65901448Y-142159000D02*
X65901448Y-139684000D01*
X67421448Y-148090000D02*
X67421448Y-144641000D01*
X66461448Y-147566000D02*
X66461448Y-144641000D01*
X66821448Y-142159000D02*
X66821448Y-139005000D01*
X69382448Y-148480000D02*
X69382448Y-138320000D01*
X65901448Y-147116000D02*
X65901448Y-144641000D01*
X65821448Y-147040000D02*
X65821448Y-144641000D01*
X65141448Y-146230000D02*
X65141448Y-140570000D01*
X64621448Y-145246000D02*
X64621448Y-141554000D01*
X69262448Y-148479000D02*
X69262448Y-138321000D01*
X66461448Y-142159000D02*
X66461448Y-139234000D01*
X66021448Y-147224000D02*
X66021448Y-144641000D01*
X68461448Y-148397000D02*
X68461448Y-138403000D01*
X68862448Y-148454000D02*
X68862448Y-138346000D01*
X66901448Y-147840000D02*
X66901448Y-144641000D01*
X67901448Y-142159000D02*
X67901448Y-138538000D01*
X65381448Y-146556000D02*
X65381448Y-140244000D01*
X65981448Y-142159000D02*
X65981448Y-139611000D01*
X66061448Y-147258000D02*
X66061448Y-144641000D01*
X65341448Y-146506000D02*
X65341448Y-140294000D01*
X64781448Y-145609000D02*
X64781448Y-141191000D01*
X66541448Y-142159000D02*
X66541448Y-139179000D01*
X66181448Y-147357000D02*
X66181448Y-144641000D01*
X66661448Y-142159000D02*
X66661448Y-139102000D01*
X69182448Y-148477000D02*
X69182448Y-138323000D01*
X66621448Y-142159000D02*
X66621448Y-139127000D01*
X68661448Y-148430000D02*
X68661448Y-138370000D01*
X67701448Y-142159000D02*
X67701448Y-138603000D01*
X66861448Y-142159000D02*
X66861448Y-138983000D01*
X66221448Y-142159000D02*
X66221448Y-139411000D01*
X67901448Y-148262000D02*
X67901448Y-144641000D01*
X67941448Y-148274000D02*
X67941448Y-144641000D01*
X74862094Y-146275000D02*
X73862094Y-146275000D01*
X74502448Y-143400000D02*
G75*
G03*
X74502448Y-143400000I-5120000J0D01*
G01*
X70981000Y-135190752D02*
X70981000Y-134668248D01*
X72451000Y-135190752D02*
X72451000Y-134668248D01*
X52171000Y-133770000D02*
X54831000Y-133770000D01*
X54831000Y-128630000D02*
X54831000Y-133770000D01*
X52171000Y-127360000D02*
X52171000Y-126030000D01*
X52171000Y-128630000D02*
X52171000Y-133770000D01*
X52171000Y-128630000D02*
X54831000Y-128630000D01*
X52171000Y-126030000D02*
X53501000Y-126030000D01*
X108122936Y-133024000D02*
X108577064Y-133024000D01*
X108122936Y-131554000D02*
X108577064Y-131554000D01*
X77331000Y-108438748D02*
X77331000Y-108961252D01*
X78801000Y-108438748D02*
X78801000Y-108961252D01*
X79585000Y-118618000D02*
X79585000Y-120818000D01*
X72815000Y-118618000D02*
X72815000Y-122218000D01*
X72815000Y-118618000D02*
X72815000Y-116418000D01*
X79585000Y-118618000D02*
X79585000Y-116418000D01*
X108080436Y-137133000D02*
X108534564Y-137133000D01*
X108080436Y-135663000D02*
X108534564Y-135663000D01*
X101710000Y-131447064D02*
X101710000Y-129992936D01*
X99890000Y-131447064D02*
X99890000Y-129992936D01*
X73511000Y-136599500D02*
X78911000Y-136599500D01*
X73511000Y-133299500D02*
X78911000Y-133299500D01*
X73511000Y-133299500D02*
X73511000Y-136599500D01*
X68837000Y-135190752D02*
X68837000Y-134668248D01*
X70307000Y-135190752D02*
X70307000Y-134668248D01*
X114715000Y-135438000D02*
X112030000Y-135438000D01*
X114715000Y-137358000D02*
X114715000Y-135438000D01*
X112030000Y-137358000D02*
X114715000Y-137358000D01*
D17*
X78606000Y-132627000D02*
X74706000Y-132627000D01*
X78606000Y-127577000D02*
X74706000Y-127577000D01*
D11*
X80796000Y-132407000D02*
G75*
G03*
X80796000Y-132407000I-100000J0D01*
G01*
D16*
X92150000Y-135020000D02*
X92150000Y-133345000D01*
X92150000Y-135020000D02*
X92150000Y-135670000D01*
X89030000Y-135020000D02*
X89030000Y-135670000D01*
X89030000Y-135020000D02*
X89030000Y-134370000D01*
X71665000Y-108472936D02*
X71665000Y-108927064D01*
X73135000Y-108472936D02*
X73135000Y-108927064D01*
X62495000Y-127432436D02*
X62495000Y-127886564D01*
X63965000Y-127432436D02*
X63965000Y-127886564D01*
X70307000Y-127886564D02*
X70307000Y-127432436D01*
X68837000Y-127886564D02*
X68837000Y-127432436D01*
X79191918Y-125303000D02*
X78669414Y-125303000D01*
X79191918Y-126773000D02*
X78669414Y-126773000D01*
X87141000Y-129106564D02*
X87141000Y-128652436D01*
X85671000Y-129106564D02*
X85671000Y-128652436D01*
X70981000Y-127920752D02*
X70981000Y-127398248D01*
X72451000Y-127920752D02*
X72451000Y-127398248D01*
X102650000Y-135020000D02*
X102650000Y-133345000D01*
X99530000Y-135020000D02*
X99530000Y-135670000D01*
X102650000Y-135020000D02*
X102650000Y-135670000D01*
X99530000Y-135020000D02*
X99530000Y-134370000D01*
X71665000Y-112072936D02*
X71665000Y-112527064D01*
X73135000Y-112072936D02*
X73135000Y-112527064D01*
X75935000Y-108927064D02*
X75935000Y-108472936D01*
X74465000Y-108927064D02*
X74465000Y-108472936D01*
X99490000Y-110502064D02*
X99490000Y-109297936D01*
X101310000Y-110502064D02*
X101310000Y-109297936D01*
X64892500Y-112072936D02*
X64892500Y-112527064D01*
X63422500Y-112072936D02*
X63422500Y-112527064D01*
X98500000Y-131447064D02*
X98500000Y-129992936D01*
X96680000Y-131447064D02*
X96680000Y-129992936D01*
X108122936Y-135056000D02*
X108577064Y-135056000D01*
X108122936Y-133586000D02*
X108577064Y-133586000D01*
X95650000Y-135020000D02*
X95650000Y-135670000D01*
X92530000Y-135020000D02*
X92530000Y-134370000D01*
X92530000Y-135020000D02*
X92530000Y-135670000D01*
X95650000Y-135020000D02*
X95650000Y-133345000D01*
X114715000Y-135326000D02*
X114715000Y-133406000D01*
X114715000Y-133406000D02*
X112030000Y-133406000D01*
X112030000Y-135326000D02*
X114715000Y-135326000D01*
X85416000Y-107588000D02*
X81656000Y-107588000D01*
X87666000Y-114408000D02*
X81656000Y-114408000D01*
X81656000Y-107588000D02*
X81656000Y-108848000D01*
X81656000Y-114408000D02*
X81656000Y-113148000D01*
X54831000Y-122280000D02*
X54831000Y-123610000D01*
X54831000Y-123610000D02*
X53501000Y-123610000D01*
X54831000Y-121010000D02*
X54831000Y-110790000D01*
X54831000Y-110790000D02*
X52171000Y-110790000D01*
X52171000Y-121010000D02*
X52171000Y-110790000D01*
X54831000Y-121010000D02*
X52171000Y-121010000D01*
X70407500Y-112527064D02*
X70407500Y-112072936D01*
X68937500Y-112527064D02*
X68937500Y-112072936D01*
X103850000Y-116706000D02*
X103850000Y-114606000D01*
X118550000Y-116706000D02*
X103850000Y-116706000D01*
X118550000Y-107506000D02*
X118550000Y-116706000D01*
X103550000Y-115306000D02*
X103550000Y-117006000D01*
X103850000Y-107506000D02*
X105650000Y-107506000D01*
X110050000Y-107506000D02*
X118550000Y-107506000D01*
X103550000Y-117006000D02*
X105150000Y-117006000D01*
X103850000Y-109606000D02*
X103850000Y-107506000D01*
D17*
X89770000Y-126805000D02*
X89770000Y-127380000D01*
X89770000Y-121880000D02*
X89770000Y-122455000D01*
X100270000Y-126805000D02*
X100270000Y-127380000D01*
X100270000Y-121880000D02*
X100270000Y-122455000D01*
X89770000Y-127380000D02*
X100270000Y-127380000D01*
X89770000Y-121880000D02*
X100270000Y-121880000D01*
D16*
X85101000Y-132308248D02*
X85101000Y-132830752D01*
X83631000Y-132308248D02*
X83631000Y-132830752D01*
X89556000Y-131280064D02*
X89556000Y-130075936D01*
X87736000Y-131280064D02*
X87736000Y-130075936D01*
X62135000Y-108981252D02*
X62135000Y-108458748D01*
X60665000Y-108981252D02*
X60665000Y-108458748D01*
X64609000Y-127886564D02*
X64609000Y-127432436D01*
X66079000Y-127886564D02*
X66079000Y-127432436D01*
X88387000Y-109563252D02*
X88387000Y-109040748D01*
X89857000Y-109563252D02*
X89857000Y-109040748D01*
X92265000Y-107720000D02*
X92265000Y-111020000D01*
X92265000Y-111020000D02*
X97665000Y-111020000D01*
X92265000Y-107720000D02*
X97665000Y-107720000D01*
G36*
X92306291Y-111703270D02*
G01*
X92309990Y-111707730D01*
X92310972Y-111712333D01*
X92309744Y-111719589D01*
X92305911Y-111730622D01*
X92299079Y-111746559D01*
X92288852Y-111768525D01*
X92288163Y-111769974D01*
X92253097Y-111848570D01*
X92224100Y-111924894D01*
X92200463Y-112001230D01*
X92181479Y-112079858D01*
X92166724Y-112161224D01*
X92163865Y-112180664D01*
X92161657Y-112198644D01*
X92160020Y-112216665D01*
X92158874Y-112236232D01*
X92158142Y-112258846D01*
X92157744Y-112286010D01*
X92157601Y-112319227D01*
X92157597Y-112334693D01*
X92157953Y-112381725D01*
X92159097Y-112422566D01*
X92161229Y-112459169D01*
X92164551Y-112493485D01*
X92169262Y-112527465D01*
X92175562Y-112563062D01*
X92183653Y-112602228D01*
X92186308Y-112614285D01*
X92213316Y-112717356D01*
X92248376Y-112820271D01*
X92291376Y-112922821D01*
X92342202Y-113024796D01*
X92400742Y-113125984D01*
X92466884Y-113226177D01*
X92540515Y-113325162D01*
X92614058Y-113414156D01*
X92632093Y-113434538D01*
X92652748Y-113457179D01*
X92674907Y-113480921D01*
X92697453Y-113504603D01*
X92719269Y-113527067D01*
X92739237Y-113547151D01*
X92756240Y-113563697D01*
X92769162Y-113575544D01*
X92771215Y-113577296D01*
X92789890Y-113592930D01*
X92790059Y-113502587D01*
X92790220Y-113471140D01*
X92790649Y-113446237D01*
X92791460Y-113426263D01*
X92792767Y-113409600D01*
X92794684Y-113394631D01*
X92797326Y-113379739D01*
X92799475Y-113369387D01*
X92819639Y-113295100D01*
X92847459Y-113223644D01*
X92882933Y-113155025D01*
X92926058Y-113089245D01*
X92976833Y-113026309D01*
X93035254Y-112966218D01*
X93101319Y-112908978D01*
X93128663Y-112887798D01*
X93154769Y-112868889D01*
X93182732Y-112849883D01*
X93211593Y-112831320D01*
X93240395Y-112813739D01*
X93268177Y-112797680D01*
X93293983Y-112783681D01*
X93316852Y-112772282D01*
X93335826Y-112764024D01*
X93349947Y-112759445D01*
X93357703Y-112758912D01*
X93365469Y-112763398D01*
X93366895Y-112771663D01*
X93361938Y-112784143D01*
X93353719Y-112796929D01*
X93332517Y-112832007D01*
X93313673Y-112874115D01*
X93297509Y-112922380D01*
X93284351Y-112975926D01*
X93280939Y-112993426D01*
X93277352Y-113019021D01*
X93274610Y-113051034D01*
X93272721Y-113087762D01*
X93271698Y-113127502D01*
X93271549Y-113168551D01*
X93272286Y-113209206D01*
X93273918Y-113247764D01*
X93276457Y-113282523D01*
X93279038Y-113305638D01*
X93293255Y-113395052D01*
X93312155Y-113486139D01*
X93335930Y-113579529D01*
X93364773Y-113675850D01*
X93398876Y-113775729D01*
X93438432Y-113879796D01*
X93483633Y-113988678D01*
X93499255Y-114024489D01*
X93534734Y-114108991D01*
X93564669Y-114189357D01*
X93589485Y-114267021D01*
X93609606Y-114343415D01*
X93625459Y-114419973D01*
X93635544Y-114483673D01*
X93638944Y-114515533D01*
X93641288Y-114552670D01*
X93642578Y-114593009D01*
X93642813Y-114634477D01*
X93641993Y-114674998D01*
X93640118Y-114712497D01*
X93637187Y-114744900D01*
X93635543Y-114757142D01*
X93618755Y-114842627D01*
X93594994Y-114924232D01*
X93564166Y-115002110D01*
X93526176Y-115076413D01*
X93480930Y-115147294D01*
X93428332Y-115214904D01*
X93368289Y-115279397D01*
X93300705Y-115340925D01*
X93245898Y-115384550D01*
X93185734Y-115426902D01*
X93118994Y-115468494D01*
X93047266Y-115508502D01*
X92972136Y-115546105D01*
X92895194Y-115580480D01*
X92818027Y-115610805D01*
X92789385Y-115620955D01*
X92769473Y-115627619D01*
X92755746Y-115631668D01*
X92746757Y-115633382D01*
X92741058Y-115633041D01*
X92737336Y-115631040D01*
X92731993Y-115624612D01*
X92731922Y-115617684D01*
X92737656Y-115609368D01*
X92749725Y-115598772D01*
X92762044Y-115589652D01*
X92809577Y-115551526D01*
X92849727Y-115510076D01*
X92882448Y-115465387D01*
X92907692Y-115417540D01*
X92925411Y-115366618D01*
X92935557Y-115312704D01*
X92937743Y-115285374D01*
X92936506Y-115228228D01*
X92927846Y-115169677D01*
X92912119Y-115110800D01*
X92889677Y-115052677D01*
X92860877Y-114996386D01*
X92826073Y-114943007D01*
X92824464Y-114940816D01*
X92805211Y-114914461D01*
X92790234Y-114893213D01*
X92778745Y-114875776D01*
X92769954Y-114860853D01*
X92763074Y-114847149D01*
X92757317Y-114833368D01*
X92754537Y-114825830D01*
X92741058Y-114778418D01*
X92732198Y-114725540D01*
X92728028Y-114668511D01*
X92728624Y-114608647D01*
X92734058Y-114547265D01*
X92737608Y-114522551D01*
X92740199Y-114506328D01*
X92714016Y-114527092D01*
X92679017Y-114559547D01*
X92647563Y-114597993D01*
X92620817Y-114640611D01*
X92599945Y-114685583D01*
X92587643Y-114724489D01*
X92579670Y-114769659D01*
X92576385Y-114819382D01*
X92577706Y-114871585D01*
X92583551Y-114924196D01*
X92593838Y-114975144D01*
X92598260Y-114991470D01*
X92603516Y-115011775D01*
X92605354Y-115025627D01*
X92603642Y-115034045D01*
X92598249Y-115038051D01*
X92592163Y-115038775D01*
X92583471Y-115035195D01*
X92572296Y-115025185D01*
X92559325Y-115009834D01*
X92545245Y-114990237D01*
X92530743Y-114967483D01*
X92516506Y-114942666D01*
X92503220Y-114916876D01*
X92491573Y-114891207D01*
X92482250Y-114866749D01*
X92480418Y-114861127D01*
X92469080Y-114818165D01*
X92462857Y-114776724D01*
X92461770Y-114735120D01*
X92465841Y-114691670D01*
X92475093Y-114644691D01*
X92483655Y-114612302D01*
X92497324Y-114562388D01*
X92507993Y-114518126D01*
X92515947Y-114477698D01*
X92521475Y-114439285D01*
X92524864Y-114401069D01*
X92526401Y-114361231D01*
X92526566Y-114340923D01*
X92522915Y-114268981D01*
X92511993Y-114200747D01*
X92493790Y-114136194D01*
X92468294Y-114075295D01*
X92435495Y-114018020D01*
X92395380Y-113964341D01*
X92360689Y-113926628D01*
X92343224Y-113910091D01*
X92323122Y-113892536D01*
X92302127Y-113875350D01*
X92281978Y-113859918D01*
X92264418Y-113847630D01*
X92252735Y-113840643D01*
X92240868Y-113834507D01*
X92249565Y-113856029D01*
X92269133Y-113911684D01*
X92285185Y-113972714D01*
X92286419Y-113978326D01*
X92291621Y-114010232D01*
X92294963Y-114047759D01*
X92296445Y-114088578D01*
X92296066Y-114130361D01*
X92293826Y-114170778D01*
X92289724Y-114207503D01*
X92286484Y-114226228D01*
X92269012Y-114294353D01*
X92244135Y-114363641D01*
X92212326Y-114433124D01*
X92174064Y-114501837D01*
X92129822Y-114568812D01*
X92095437Y-114614285D01*
X92081533Y-114630957D01*
X92065018Y-114649574D01*
X92046828Y-114669205D01*
X92027899Y-114688917D01*
X92009168Y-114707777D01*
X91991569Y-114724853D01*
X91976040Y-114739212D01*
X91963515Y-114749923D01*
X91954932Y-114756052D01*
X91952037Y-114757142D01*
X91943726Y-114755677D01*
X91938929Y-114750467D01*
X91937269Y-114740293D01*
X91938370Y-114723937D01*
X91939388Y-114716167D01*
X91942350Y-114666867D01*
X91937300Y-114618409D01*
X91924375Y-114571146D01*
X91903714Y-114525434D01*
X91875453Y-114481629D01*
X91839731Y-114440084D01*
X91827634Y-114428166D01*
X91814916Y-114416778D01*
X91799772Y-114404275D01*
X91783521Y-114391614D01*
X91767481Y-114379754D01*
X91752973Y-114369656D01*
X91741313Y-114362278D01*
X91733822Y-114358578D01*
X91731874Y-114358526D01*
X91732133Y-114362946D01*
X91734317Y-114373154D01*
X91737980Y-114387126D01*
X91738879Y-114390294D01*
X91743688Y-114412677D01*
X91747297Y-114441007D01*
X91749609Y-114473146D01*
X91750529Y-114506953D01*
X91749957Y-114540288D01*
X91747799Y-114571011D01*
X91747269Y-114575808D01*
X91738913Y-114628806D01*
X91725797Y-114687080D01*
X91708252Y-114749525D01*
X91686604Y-114815033D01*
X91661182Y-114882497D01*
X91643753Y-114924628D01*
X91623755Y-114972651D01*
X91607480Y-115014931D01*
X91594598Y-115052811D01*
X91584777Y-115087634D01*
X91577689Y-115120743D01*
X91573003Y-115153481D01*
X91570388Y-115187191D01*
X91569514Y-115223217D01*
X91569510Y-115226530D01*
X91569713Y-115254459D01*
X91570422Y-115276224D01*
X91571810Y-115293815D01*
X91574048Y-115309225D01*
X91577309Y-115324445D01*
X91578334Y-115328571D01*
X91596474Y-115384170D01*
X91621800Y-115436255D01*
X91654371Y-115484894D01*
X91694249Y-115530152D01*
X91741491Y-115572098D01*
X91796157Y-115610796D01*
X91858308Y-115646315D01*
X91865944Y-115650202D01*
X91885929Y-115660518D01*
X91899572Y-115668313D01*
X91907996Y-115674366D01*
X91912325Y-115679455D01*
X91913576Y-115683211D01*
X91911834Y-115693177D01*
X91904819Y-115699008D01*
X91899951Y-115699595D01*
X91894824Y-115698696D01*
X91883049Y-115696370D01*
X91865963Y-115692888D01*
X91844905Y-115688523D01*
X91822151Y-115683746D01*
X91749812Y-115667721D01*
X91684244Y-115651559D01*
X91624061Y-115634858D01*
X91567874Y-115617219D01*
X91514296Y-115598239D01*
X91479476Y-115584697D01*
X91380762Y-115541961D01*
X91289496Y-115496214D01*
X91205495Y-115447343D01*
X91128575Y-115395234D01*
X91058552Y-115339774D01*
X91013179Y-115298550D01*
X90954869Y-115237149D01*
X90904003Y-115172498D01*
X90860611Y-115104763D01*
X90824722Y-115034108D01*
X90796365Y-114960700D01*
X90775567Y-114884704D01*
X90762360Y-114806285D01*
X90756771Y-114725610D01*
X90758829Y-114642843D01*
X90768565Y-114558149D01*
X90786005Y-114471696D01*
X90811180Y-114383647D01*
X90839299Y-114306122D01*
X90873573Y-114226893D01*
X90912225Y-114150970D01*
X90956158Y-114076797D01*
X91006279Y-114002817D01*
X91048150Y-113946938D01*
X91080566Y-113901840D01*
X91107696Y-113856170D01*
X91130062Y-113808586D01*
X91148191Y-113757745D01*
X91162608Y-113702304D01*
X91173835Y-113640920D01*
X91177280Y-113616485D01*
X91183466Y-113552810D01*
X91186269Y-113483300D01*
X91185751Y-113409522D01*
X91181973Y-113333042D01*
X91174998Y-113255426D01*
X91164885Y-113178241D01*
X91158557Y-113139643D01*
X91154788Y-113116158D01*
X91153151Y-113099513D01*
X91153782Y-113088632D01*
X91156818Y-113082440D01*
X91162394Y-113079862D01*
X91166162Y-113079591D01*
X91171712Y-113081743D01*
X91182549Y-113087633D01*
X91197209Y-113096409D01*
X91214226Y-113107221D01*
X91217712Y-113109505D01*
X91285065Y-113158100D01*
X91345371Y-113210583D01*
X91398939Y-113267304D01*
X91446078Y-113328612D01*
X91487097Y-113394855D01*
X91509826Y-113439051D01*
X91539277Y-113509931D01*
X91562167Y-113585174D01*
X91578454Y-113664226D01*
X91588094Y-113746532D01*
X91591042Y-113831536D01*
X91587255Y-113918683D01*
X91576690Y-114007419D01*
X91561052Y-114089513D01*
X91557158Y-114107438D01*
X91554208Y-114122166D01*
X91552518Y-114132045D01*
X91552321Y-114135418D01*
X91555349Y-114133197D01*
X91561661Y-114124967D01*
X91570568Y-114111855D01*
X91581382Y-114094984D01*
X91593418Y-114075480D01*
X91605986Y-114054468D01*
X91618400Y-114033073D01*
X91629972Y-114012419D01*
X91640015Y-113993632D01*
X91645046Y-113983673D01*
X91677088Y-113911127D01*
X91701379Y-113839646D01*
X91718108Y-113768384D01*
X91727460Y-113696497D01*
X91729623Y-113623137D01*
X91729046Y-113604081D01*
X91726818Y-113567259D01*
X91723138Y-113533514D01*
X91717576Y-113500541D01*
X91709704Y-113466032D01*
X91699094Y-113427680D01*
X91691925Y-113404074D01*
X91658419Y-113286441D01*
X91632186Y-113172232D01*
X91613200Y-113061213D01*
X91601435Y-112953150D01*
X91596864Y-112847809D01*
X91599463Y-112744956D01*
X91608283Y-112651380D01*
X91625147Y-112550860D01*
X91649429Y-112453665D01*
X91681005Y-112359994D01*
X91719751Y-112270048D01*
X91765542Y-112184027D01*
X91818255Y-112102130D01*
X91877764Y-112024557D01*
X91943946Y-111951509D01*
X92016676Y-111883184D01*
X92095830Y-111819784D01*
X92148424Y-111782804D01*
X92170385Y-111768578D01*
X92193903Y-111754120D01*
X92217755Y-111740101D01*
X92240721Y-111727193D01*
X92261577Y-111716068D01*
X92279103Y-111707398D01*
X92292076Y-111701856D01*
X92298852Y-111700095D01*
X92306291Y-111703270D01*
G37*
X93658426Y-148138000D02*
X93658426Y-144641000D01*
X92418426Y-142159000D02*
X92418426Y-139350000D01*
X91498426Y-146556000D02*
X91498426Y-140244000D01*
X94098426Y-142159000D02*
X94098426Y-138515000D01*
X94138426Y-142159000D02*
X94138426Y-138503000D01*
X95099426Y-148465000D02*
X95099426Y-138335000D01*
X93938426Y-142159000D02*
X93938426Y-138563000D01*
X92018426Y-142159000D02*
X92018426Y-139684000D01*
X95499426Y-148480000D02*
X95499426Y-138320000D01*
X91378426Y-146400000D02*
X91378426Y-140400000D01*
X90418426Y-143999000D02*
X90418426Y-142801000D01*
X92378426Y-147420000D02*
X92378426Y-144641000D01*
X91298426Y-146289000D02*
X91298426Y-140511000D01*
X90698426Y-145142000D02*
X90698426Y-141658000D01*
X91018426Y-145839000D02*
X91018426Y-140961000D01*
X91538426Y-146606000D02*
X91538426Y-140194000D01*
X91818426Y-142159000D02*
X91818426Y-139880000D01*
X91898426Y-147001000D02*
X91898426Y-144641000D01*
X93898426Y-142159000D02*
X93898426Y-138576000D01*
X93058426Y-147862000D02*
X93058426Y-144641000D01*
X93858426Y-142159000D02*
X93858426Y-138589000D01*
X94458426Y-148374000D02*
X94458426Y-138426000D01*
X93858426Y-148211000D02*
X93858426Y-144641000D01*
X91098426Y-145979000D02*
X91098426Y-140821000D01*
X93818426Y-148197000D02*
X93818426Y-144641000D01*
X94498426Y-148382000D02*
X94498426Y-138418000D01*
X93578426Y-148107000D02*
X93578426Y-144641000D01*
X92978426Y-147817000D02*
X92978426Y-144641000D01*
X94138426Y-148297000D02*
X94138426Y-144641000D01*
X93658426Y-142159000D02*
X93658426Y-138662000D01*
X93058426Y-142159000D02*
X93058426Y-138938000D01*
X90818426Y-145437000D02*
X90818426Y-141363000D01*
X92058426Y-147153000D02*
X92058426Y-144641000D01*
X92658426Y-147621000D02*
X92658426Y-144641000D01*
X90458426Y-144262000D02*
X90458426Y-142538000D01*
X92898426Y-142159000D02*
X92898426Y-139029000D01*
X93818426Y-142159000D02*
X93818426Y-138603000D01*
X94698426Y-148418000D02*
X94698426Y-138382000D01*
X93378426Y-148021000D02*
X93378426Y-144641000D01*
X91138426Y-146045000D02*
X91138426Y-140755000D01*
X94378426Y-148356000D02*
X94378426Y-138444000D01*
X92938426Y-147795000D02*
X92938426Y-144641000D01*
X92178426Y-142159000D02*
X92178426Y-139542000D01*
X90938426Y-145689000D02*
X90938426Y-141111000D01*
X91218426Y-146170000D02*
X91218426Y-140630000D01*
X94058426Y-148274000D02*
X94058426Y-144641000D01*
X93338426Y-142159000D02*
X93338426Y-138797000D01*
X90498426Y-144462000D02*
X90498426Y-142338000D01*
X93298426Y-142159000D02*
X93298426Y-138816000D01*
X92298426Y-142159000D02*
X92298426Y-139443000D01*
X93498426Y-142159000D02*
X93498426Y-138726000D01*
X93458426Y-148057000D02*
X93458426Y-144641000D01*
X93218426Y-142159000D02*
X93218426Y-138855000D01*
X94819426Y-148435000D02*
X94819426Y-138365000D01*
X94859426Y-148440000D02*
X94859426Y-138360000D01*
X91898426Y-142159000D02*
X91898426Y-139799000D01*
X92898426Y-147771000D02*
X92898426Y-144641000D01*
X95139426Y-148468000D02*
X95139426Y-138332000D01*
X94578426Y-148397000D02*
X94578426Y-138403000D01*
X92138426Y-142159000D02*
X92138426Y-139576000D01*
X92058426Y-142159000D02*
X92058426Y-139647000D01*
X93098426Y-147883000D02*
X93098426Y-144641000D01*
X92778426Y-142159000D02*
X92778426Y-139102000D01*
X93778426Y-148183000D02*
X93778426Y-144641000D01*
X92818426Y-147723000D02*
X92818426Y-144641000D01*
X92578426Y-142159000D02*
X92578426Y-139234000D01*
X92978426Y-142159000D02*
X92978426Y-138983000D01*
X90898426Y-145609000D02*
X90898426Y-141191000D01*
X94018426Y-142159000D02*
X94018426Y-138538000D01*
X92258426Y-147325000D02*
X92258426Y-144641000D01*
X93738426Y-142159000D02*
X93738426Y-138632000D01*
X93978426Y-142159000D02*
X93978426Y-138550000D01*
X92258426Y-142159000D02*
X92258426Y-139475000D01*
X91338426Y-146345000D02*
X91338426Y-140455000D01*
X91738426Y-146836000D02*
X91738426Y-139964000D01*
X95459426Y-148480000D02*
X95459426Y-138320000D01*
X93898426Y-148224000D02*
X93898426Y-144641000D01*
X90738426Y-145246000D02*
X90738426Y-141554000D01*
X92138426Y-147224000D02*
X92138426Y-144641000D01*
X93218426Y-147945000D02*
X93218426Y-144641000D01*
X95299426Y-148477000D02*
X95299426Y-138323000D01*
X91418426Y-146454000D02*
X91418426Y-140346000D01*
X91658426Y-146747000D02*
X91658426Y-140053000D01*
X94018426Y-148262000D02*
X94018426Y-144641000D01*
X95059426Y-148462000D02*
X95059426Y-138338000D01*
X95339426Y-148478000D02*
X95339426Y-138322000D01*
X95259426Y-148475000D02*
X95259426Y-138325000D01*
X92218426Y-142159000D02*
X92218426Y-139508000D01*
X95019426Y-148458000D02*
X95019426Y-138342000D01*
X100979072Y-146275000D02*
X99979072Y-146275000D01*
X93458426Y-142159000D02*
X93458426Y-138743000D01*
X91698426Y-146792000D02*
X91698426Y-140008000D01*
X93618426Y-148123000D02*
X93618426Y-144641000D01*
X93418426Y-142159000D02*
X93418426Y-138761000D01*
X93738426Y-148168000D02*
X93738426Y-144641000D01*
X93178426Y-142159000D02*
X93178426Y-138875000D01*
X93018426Y-142159000D02*
X93018426Y-138960000D01*
X90538426Y-144630000D02*
X90538426Y-142170000D01*
X92458426Y-142159000D02*
X92458426Y-139320000D01*
X93978426Y-148250000D02*
X93978426Y-144641000D01*
X92778426Y-147698000D02*
X92778426Y-144641000D01*
X91578426Y-146654000D02*
X91578426Y-140146000D01*
X95419426Y-148480000D02*
X95419426Y-138320000D01*
X91778426Y-146878000D02*
X91778426Y-144641000D01*
X91178426Y-146109000D02*
X91178426Y-140691000D01*
X93018426Y-147840000D02*
X93018426Y-144641000D01*
X94178426Y-148307000D02*
X94178426Y-144641000D01*
X91938426Y-147040000D02*
X91938426Y-144641000D01*
X92218426Y-147292000D02*
X92218426Y-144641000D01*
X93698426Y-142159000D02*
X93698426Y-138646000D01*
X94979426Y-148454000D02*
X94979426Y-138346000D01*
X93538426Y-148090000D02*
X93538426Y-144641000D01*
X92338426Y-147389000D02*
X92338426Y-144641000D01*
X94538426Y-148390000D02*
X94538426Y-138410000D01*
X92458426Y-147480000D02*
X92458426Y-144641000D01*
X91258426Y-146230000D02*
X91258426Y-140570000D01*
X90578426Y-144778000D02*
X90578426Y-142022000D01*
X94738426Y-148424000D02*
X94738426Y-138376000D01*
X92658426Y-142159000D02*
X92658426Y-139179000D01*
X91458426Y-146506000D02*
X91458426Y-140294000D01*
X91778426Y-142159000D02*
X91778426Y-139922000D01*
X93618426Y-142159000D02*
X93618426Y-138677000D01*
X94058426Y-142159000D02*
X94058426Y-138526000D01*
X94618426Y-148404000D02*
X94618426Y-138396000D01*
X92738426Y-142159000D02*
X92738426Y-139127000D01*
X93338426Y-148003000D02*
X93338426Y-144641000D01*
X93298426Y-147984000D02*
X93298426Y-144641000D01*
X92698426Y-147647000D02*
X92698426Y-144641000D01*
X90858426Y-145525000D02*
X90858426Y-141275000D01*
X90978426Y-145765000D02*
X90978426Y-141035000D01*
X90658426Y-145030000D02*
X90658426Y-141770000D01*
X95379426Y-148479000D02*
X95379426Y-138321000D01*
X93418426Y-148039000D02*
X93418426Y-144641000D01*
X92418426Y-147450000D02*
X92418426Y-144641000D01*
X91058426Y-145910000D02*
X91058426Y-140890000D01*
X93258426Y-142159000D02*
X93258426Y-138836000D01*
X94338426Y-148347000D02*
X94338426Y-138453000D01*
X93178426Y-147925000D02*
X93178426Y-144641000D01*
X93098426Y-142159000D02*
X93098426Y-138917000D01*
X92098426Y-142159000D02*
X92098426Y-139611000D01*
X94418426Y-148365000D02*
X94418426Y-138435000D01*
X92858426Y-147747000D02*
X92858426Y-144641000D01*
X91858426Y-142159000D02*
X91858426Y-139839000D01*
X93778426Y-142159000D02*
X93778426Y-138617000D01*
X93578426Y-142159000D02*
X93578426Y-138693000D01*
X92298426Y-147357000D02*
X92298426Y-144641000D01*
X92818426Y-142159000D02*
X92818426Y-139077000D01*
X91978426Y-147079000D02*
X91978426Y-144641000D01*
X93258426Y-147964000D02*
X93258426Y-144641000D01*
X91978426Y-142159000D02*
X91978426Y-139721000D01*
X93138426Y-147904000D02*
X93138426Y-144641000D01*
X93698426Y-148154000D02*
X93698426Y-144641000D01*
X92538426Y-147538000D02*
X92538426Y-144641000D01*
X93378426Y-142159000D02*
X93378426Y-138779000D01*
X92738426Y-147673000D02*
X92738426Y-144641000D01*
X92498426Y-142159000D02*
X92498426Y-139290000D01*
X93938426Y-148237000D02*
X93938426Y-144641000D01*
X91858426Y-146961000D02*
X91858426Y-144641000D01*
X94218426Y-148318000D02*
X94218426Y-144641000D01*
X94258426Y-148328000D02*
X94258426Y-138472000D01*
X92618426Y-147594000D02*
X92618426Y-144641000D01*
X92098426Y-147189000D02*
X92098426Y-144641000D01*
X92938426Y-142159000D02*
X92938426Y-139005000D01*
X91938426Y-142159000D02*
X91938426Y-139760000D01*
X91818426Y-146920000D02*
X91818426Y-144641000D01*
X92578426Y-147566000D02*
X92578426Y-144641000D01*
X92498426Y-147510000D02*
X92498426Y-144641000D01*
X93498426Y-148074000D02*
X93498426Y-144641000D01*
X94178426Y-142159000D02*
X94178426Y-138493000D01*
X92858426Y-142159000D02*
X92858426Y-139053000D01*
X100479072Y-146775000D02*
X100479072Y-145775000D01*
X92538426Y-142159000D02*
X92538426Y-139262000D01*
X94098426Y-148285000D02*
X94098426Y-144641000D01*
X94298426Y-148338000D02*
X94298426Y-138462000D01*
X91618426Y-146701000D02*
X91618426Y-140099000D01*
X94778426Y-148430000D02*
X94778426Y-138370000D01*
X94658426Y-148411000D02*
X94658426Y-138389000D01*
X90618426Y-144910000D02*
X90618426Y-141890000D01*
X93538426Y-142159000D02*
X93538426Y-138710000D01*
X92178426Y-147258000D02*
X92178426Y-144641000D01*
X92378426Y-142159000D02*
X92378426Y-139380000D01*
X92018426Y-147116000D02*
X92018426Y-144641000D01*
X93138426Y-142159000D02*
X93138426Y-138896000D01*
X90778426Y-145344000D02*
X90778426Y-141456000D01*
X94939426Y-148450000D02*
X94939426Y-138350000D01*
X95219426Y-148473000D02*
X95219426Y-138327000D01*
X94218426Y-142159000D02*
X94218426Y-138482000D01*
X92338426Y-142159000D02*
X92338426Y-139411000D01*
X95179426Y-148470000D02*
X95179426Y-138330000D01*
X92698426Y-142159000D02*
X92698426Y-139153000D01*
X94899426Y-148445000D02*
X94899426Y-138355000D01*
X92618426Y-142159000D02*
X92618426Y-139206000D01*
X100619426Y-143400000D02*
G75*
G03*
X100619426Y-143400000I-5120000J0D01*
G01*
X66723000Y-127886564D02*
X66723000Y-127432436D01*
X68193000Y-127886564D02*
X68193000Y-127432436D01*
%LPC*%
D18*
X113951595Y-130302000D03*
X112076595Y-130302000D03*
D19*
X91100000Y-108170000D03*
X91100000Y-110270000D03*
D20*
X98540000Y-134082500D03*
X96640000Y-134082500D03*
X97590000Y-135957500D03*
D21*
X104010000Y-132182500D03*
X104010000Y-129257500D03*
D22*
X84940937Y-143400000D03*
D23*
X79940937Y-143400000D03*
D24*
X82326000Y-129829500D03*
X82326000Y-127929500D03*
D25*
X61400000Y-111370000D03*
X61400000Y-113270000D03*
D19*
X59300000Y-109450000D03*
X59300000Y-111550000D03*
D26*
X105960000Y-126797500D03*
D27*
X105960000Y-124297500D03*
X105960000Y-121797500D03*
X105960000Y-119297500D03*
D22*
X111057915Y-143400000D03*
D23*
X106057915Y-143400000D03*
D28*
X53500000Y-103500000D03*
D29*
X75200000Y-111387500D03*
X75200000Y-113212500D03*
D28*
X111500000Y-103500000D03*
D30*
X65329000Y-131259500D03*
X65329000Y-135659500D03*
D28*
X111540000Y-152500000D03*
D25*
X66915000Y-111350000D03*
X66915000Y-113250000D03*
D31*
X66225000Y-115618000D03*
X66225000Y-121618000D03*
X69975000Y-121618000D03*
X69975000Y-115618000D03*
D32*
X76336000Y-126038000D03*
X74436000Y-126038000D03*
D33*
X107437500Y-130257000D03*
X109262500Y-130257000D03*
D34*
X105805000Y-154040000D03*
D35*
X103265000Y-154040000D03*
X100725000Y-154040000D03*
X98185000Y-154040000D03*
D36*
X81525332Y-126038000D03*
X83425332Y-126038000D03*
D24*
X71716000Y-132244500D03*
X71716000Y-130344500D03*
D20*
X105540000Y-134082500D03*
X103640000Y-134082500D03*
X104590000Y-135957500D03*
D37*
X66915000Y-109612500D03*
X66915000Y-107787500D03*
D22*
X58823959Y-143400000D03*
D23*
X53823959Y-143400000D03*
D38*
X100020000Y-118460000D03*
X90020000Y-118460000D03*
D21*
X91170000Y-132222500D03*
X91170000Y-129297500D03*
D37*
X84366000Y-129792000D03*
X84366000Y-127967000D03*
D39*
X86806000Y-136144000D03*
X82806000Y-136144000D03*
D25*
X89154000Y-111826000D03*
X89154000Y-113726000D03*
D29*
X64172500Y-107787500D03*
X64172500Y-109612500D03*
D21*
X94380000Y-132222500D03*
X94380000Y-129297500D03*
D28*
X53500000Y-152500000D03*
D40*
X86912500Y-126038000D03*
X85087500Y-126038000D03*
D25*
X82326000Y-131619500D03*
X82326000Y-133519500D03*
X86406000Y-131619500D03*
X86406000Y-133519500D03*
D29*
X69657500Y-107787500D03*
X69657500Y-109612500D03*
D18*
X113967500Y-132334000D03*
X112092500Y-132334000D03*
D37*
X61116000Y-128572000D03*
X61116000Y-126747000D03*
D22*
X71882448Y-143400000D03*
D23*
X66882448Y-143400000D03*
D24*
X71716000Y-135879500D03*
X71716000Y-133979500D03*
D34*
X53501000Y-127360000D03*
D35*
X53501000Y-129900000D03*
X53501000Y-132440000D03*
D33*
X107437500Y-132289000D03*
X109262500Y-132289000D03*
D25*
X78066000Y-107750000D03*
X78066000Y-109650000D03*
D41*
X73275000Y-121480500D03*
X73925000Y-121480500D03*
X74575000Y-121480500D03*
X75225000Y-121480500D03*
X75875000Y-121480500D03*
X76525000Y-121480500D03*
X77175000Y-121480500D03*
X77825000Y-121480500D03*
X78475000Y-121480500D03*
X79125000Y-121480500D03*
X79125000Y-115755500D03*
X78475000Y-115755500D03*
X77825000Y-115755500D03*
X77175000Y-115755500D03*
X76525000Y-115755500D03*
X75875000Y-115755500D03*
X75225000Y-115755500D03*
X74575000Y-115755500D03*
X73925000Y-115755500D03*
X73275000Y-115755500D03*
D33*
X107395000Y-136398000D03*
X109220000Y-136398000D03*
D21*
X100800000Y-132182500D03*
X100800000Y-129257500D03*
D39*
X74911000Y-134949500D03*
X78911000Y-134949500D03*
D24*
X69572000Y-135879500D03*
X69572000Y-133979500D03*
D18*
X113967500Y-136398000D03*
X112092500Y-136398000D03*
D42*
X79126000Y-132007000D03*
X79126000Y-130737000D03*
X79126000Y-129467000D03*
X79126000Y-128197000D03*
X74186000Y-128197000D03*
X74186000Y-129467000D03*
X74186000Y-130737000D03*
X74186000Y-132007000D03*
D20*
X91540000Y-134082500D03*
X89640000Y-134082500D03*
X90590000Y-135957500D03*
D29*
X72400000Y-107787500D03*
X72400000Y-109612500D03*
X63230000Y-126747000D03*
X63230000Y-128572000D03*
D37*
X69572000Y-128572000D03*
X69572000Y-126747000D03*
D32*
X79880666Y-126038000D03*
X77980666Y-126038000D03*
D37*
X86406000Y-129792000D03*
X86406000Y-127967000D03*
D24*
X71716000Y-128609500D03*
X71716000Y-126709500D03*
D20*
X102040000Y-134082500D03*
X100140000Y-134082500D03*
X101090000Y-135957500D03*
D29*
X72400000Y-111387500D03*
X72400000Y-113212500D03*
D37*
X75200000Y-109612500D03*
X75200000Y-107787500D03*
D43*
X100400000Y-111300000D03*
X100400000Y-108500000D03*
D29*
X64157500Y-111387500D03*
X64157500Y-113212500D03*
D21*
X97590000Y-132182500D03*
X97590000Y-129257500D03*
D33*
X107437500Y-134321000D03*
X109262500Y-134321000D03*
D20*
X95040000Y-134082500D03*
X93140000Y-134082500D03*
X94090000Y-135957500D03*
D18*
X113967500Y-134366000D03*
X112092500Y-134366000D03*
D44*
X86716000Y-113298000D03*
D45*
X80416000Y-110998000D03*
D44*
X86716000Y-110998000D03*
X86716000Y-108698000D03*
D34*
X53501000Y-122280000D03*
D35*
X53501000Y-119740000D03*
X53501000Y-117200000D03*
X53501000Y-114660000D03*
X53501000Y-112120000D03*
D37*
X69672500Y-113212500D03*
X69672500Y-111387500D03*
D46*
X104850000Y-112106000D03*
D47*
X110650000Y-112106000D03*
D48*
X107850000Y-107306000D03*
D38*
X100020000Y-124630000D03*
X90020000Y-124630000D03*
D25*
X84366000Y-131619500D03*
X84366000Y-133519500D03*
D43*
X88646000Y-132078000D03*
X88646000Y-129278000D03*
D24*
X61400000Y-109670000D03*
X61400000Y-107770000D03*
D37*
X65344000Y-128572000D03*
X65344000Y-126747000D03*
D24*
X89122000Y-110252000D03*
X89122000Y-108352000D03*
D39*
X93665000Y-109370000D03*
X97665000Y-109370000D03*
D22*
X97999426Y-143400000D03*
D23*
X92999426Y-143400000D03*
D37*
X67458000Y-128572000D03*
X67458000Y-126747000D03*
D34*
X58300000Y-104770000D03*
D35*
X58300000Y-102230000D03*
X60840000Y-104770000D03*
X60840000Y-102230000D03*
X63380000Y-104770000D03*
X63380000Y-102230000D03*
X65920000Y-104770000D03*
X65920000Y-102230000D03*
X68460000Y-104770000D03*
X68460000Y-102230000D03*
X71000000Y-104770000D03*
X71000000Y-102230000D03*
X73540000Y-104770000D03*
X73540000Y-102230000D03*
X76080000Y-104770000D03*
X76080000Y-102230000D03*
X78620000Y-104770000D03*
X78620000Y-102230000D03*
X81160000Y-104770000D03*
X81160000Y-102230000D03*
X83700000Y-104770000D03*
X83700000Y-102230000D03*
X86240000Y-104770000D03*
X86240000Y-102230000D03*
X88780000Y-104770000D03*
X88780000Y-102230000D03*
X91320000Y-104770000D03*
X91320000Y-102230000D03*
X93860000Y-104770000D03*
X93860000Y-102230000D03*
X96400000Y-104770000D03*
X96400000Y-102230000D03*
X98940000Y-104770000D03*
X98940000Y-102230000D03*
X101480000Y-104770000D03*
X101480000Y-102230000D03*
X104020000Y-104770000D03*
X104020000Y-102230000D03*
X106560000Y-104770000D03*
X106560000Y-102230000D03*
D34*
X56041000Y-124820000D03*
D35*
X56041000Y-127360000D03*
X56041000Y-129900000D03*
X56041000Y-132440000D03*
D34*
X84468000Y-117222000D03*
D35*
X84468000Y-119762000D03*
X84468000Y-122302000D03*
M02*
