G04 #@! TF.GenerationSoftware,KiCad,Pcbnew,(6.0.5-0)*
G04 #@! TF.CreationDate,2022-07-04T19:17:30-05:00*
G04 #@! TF.ProjectId,ras_pi_supercap_ups,7261735f-7069-45f7-9375-706572636170,rev?*
G04 #@! TF.SameCoordinates,Original*
G04 #@! TF.FileFunction,Legend,Bot*
G04 #@! TF.FilePolarity,Positive*
%FSLAX46Y46*%
G04 Gerber Fmt 4.6, Leading zero omitted, Abs format (unit mm)*
G04 Created by KiCad (PCBNEW (6.0.5-0)) date 2022-07-04 19:17:30*
%MOMM*%
%LPD*%
G01*
G04 APERTURE LIST*
G04 Aperture macros list*
%AMFreePoly0*
4,1,22,0.500000,-0.750000,0.000000,-0.750000,0.000000,-0.745033,-0.079941,-0.743568,-0.215256,-0.701293,-0.333266,-0.622738,-0.424486,-0.514219,-0.481581,-0.384460,-0.499164,-0.250000,-0.500000,-0.250000,-0.500000,0.250000,-0.499164,0.250000,-0.499963,0.256109,-0.478152,0.396186,-0.417904,0.524511,-0.324060,0.630769,-0.204165,0.706417,-0.067858,0.745374,0.000000,0.744959,0.000000,0.750000,
0.500000,0.750000,0.500000,-0.750000,0.500000,-0.750000,$1*%
%AMFreePoly1*
4,1,20,0.000000,0.744959,0.073905,0.744508,0.209726,0.703889,0.328688,0.626782,0.421226,0.519385,0.479903,0.390333,0.500000,0.250000,0.500000,-0.250000,0.499851,-0.262216,0.476331,-0.402017,0.414519,-0.529596,0.319384,-0.634700,0.198574,-0.708877,0.061801,-0.746166,0.000000,-0.745033,0.000000,-0.750000,-0.500000,-0.750000,-0.500000,0.750000,0.000000,0.750000,0.000000,0.744959,
0.000000,0.744959,$1*%
G04 Aperture macros list end*
%ADD10C,0.150000*%
%ADD11C,0.100000*%
%ADD12C,0.500000*%
%ADD13C,0.120000*%
%ADD14C,0.010000*%
%ADD15R,2.000000X2.000000*%
%ADD16C,2.000000*%
%ADD17R,1.408000X1.408000*%
%ADD18C,1.408000*%
%ADD19C,2.700000*%
%ADD20R,1.700000X1.700000*%
%ADD21O,1.700000X1.700000*%
%ADD22R,1.800000X4.400000*%
%ADD23O,1.800000X4.000000*%
%ADD24O,4.000000X1.800000*%
%ADD25FreePoly0,90.000000*%
%ADD26FreePoly1,90.000000*%
G04 APERTURE END LIST*
D10*
X63500000Y-137506000D02*
X101200000Y-137506000D01*
X101200000Y-137506000D02*
X101200000Y-132660000D01*
X101200000Y-132660000D02*
X63500000Y-132660000D01*
X63500000Y-132660000D02*
X63500000Y-137506000D01*
X56050000Y-134112000D02*
X60200000Y-134112000D01*
X60200000Y-134112000D02*
X60200000Y-123556000D01*
X60200000Y-123556000D02*
X56050000Y-123556000D01*
X56050000Y-123556000D02*
X56050000Y-134112000D01*
X81679000Y-115760000D02*
X84473000Y-115760000D01*
X63200000Y-137794000D02*
X101468000Y-137794000D01*
X101468000Y-137794000D02*
X101468000Y-132406000D01*
X101468000Y-132406000D02*
X63200000Y-132406000D01*
X63200000Y-132406000D02*
X63200000Y-137794000D01*
X84185000Y-123794000D02*
X86979000Y-123794000D01*
X102040000Y-115650000D02*
X88500000Y-115650000D01*
X88500000Y-115650000D02*
X88500000Y-122240000D01*
X88500000Y-122240000D02*
X102040000Y-122240000D01*
X102040000Y-122240000D02*
X102040000Y-115650000D01*
X81679000Y-121094000D02*
X81679000Y-115760000D01*
X86979000Y-118460000D02*
X84185000Y-118460000D01*
X54864000Y-123556000D02*
X50800000Y-123556000D01*
X50800000Y-123556000D02*
X50800000Y-134112000D01*
X50800000Y-134112000D02*
X54864000Y-134112000D01*
X54864000Y-134112000D02*
X54864000Y-123556000D01*
X83581000Y-121094000D02*
X81679000Y-121094000D01*
X103800000Y-118000000D02*
X109800000Y-118000000D01*
X109800000Y-118000000D02*
X109800000Y-128000000D01*
X109800000Y-128000000D02*
X103800000Y-128000000D01*
X103800000Y-128000000D02*
X103800000Y-118000000D01*
X86979000Y-123794000D02*
X86979000Y-118460000D01*
X50800000Y-110490000D02*
X54864000Y-110490000D01*
X54864000Y-110490000D02*
X54864000Y-123556000D01*
X54864000Y-123556000D02*
X50800000Y-123556000D01*
X50800000Y-123556000D02*
X50800000Y-110490000D01*
X102100000Y-151200000D02*
X108400000Y-151200000D01*
X108400000Y-151200000D02*
X108400000Y-155400000D01*
X108400000Y-155400000D02*
X102100000Y-155400000D01*
X102100000Y-155400000D02*
X102100000Y-151200000D01*
X95650000Y-151200000D02*
X101950000Y-151200000D01*
X101950000Y-151200000D02*
X101950000Y-155400000D01*
X101950000Y-155400000D02*
X95650000Y-155400000D01*
X95650000Y-155400000D02*
X95650000Y-151200000D01*
D11*
X57983333Y-133750000D02*
X58683333Y-133750000D01*
X57983333Y-133350000D01*
X58683333Y-133350000D01*
X57983333Y-132616666D02*
X58316666Y-132850000D01*
X57983333Y-133016666D02*
X58683333Y-133016666D01*
X58683333Y-132750000D01*
X58650000Y-132683333D01*
X58616666Y-132650000D01*
X58550000Y-132616666D01*
X58450000Y-132616666D01*
X58383333Y-132650000D01*
X58350000Y-132683333D01*
X58316666Y-132750000D01*
X58316666Y-133016666D01*
X58016666Y-132350000D02*
X57983333Y-132250000D01*
X57983333Y-132083333D01*
X58016666Y-132016666D01*
X58050000Y-131983333D01*
X58116666Y-131950000D01*
X58183333Y-131950000D01*
X58250000Y-131983333D01*
X58283333Y-132016666D01*
X58316666Y-132083333D01*
X58350000Y-132216666D01*
X58383333Y-132283333D01*
X58416666Y-132316666D01*
X58483333Y-132350000D01*
X58550000Y-132350000D01*
X58616666Y-132316666D01*
X58650000Y-132283333D01*
X58683333Y-132216666D01*
X58683333Y-132050000D01*
X58650000Y-131950000D01*
X58683333Y-131750000D02*
X58683333Y-131350000D01*
X57983333Y-131550000D02*
X58683333Y-131550000D01*
X58650000Y-130433333D02*
X58683333Y-130500000D01*
X58683333Y-130600000D01*
X58650000Y-130700000D01*
X58583333Y-130766666D01*
X58516666Y-130800000D01*
X58383333Y-130833333D01*
X58283333Y-130833333D01*
X58150000Y-130800000D01*
X58083333Y-130766666D01*
X58016666Y-130700000D01*
X57983333Y-130600000D01*
X57983333Y-130533333D01*
X58016666Y-130433333D01*
X58050000Y-130400000D01*
X58283333Y-130400000D01*
X58283333Y-130533333D01*
X57983333Y-130100000D02*
X58683333Y-130100000D01*
X57983333Y-129700000D01*
X58683333Y-129700000D01*
X57983333Y-129366666D02*
X58683333Y-129366666D01*
X58683333Y-129200000D01*
X58650000Y-129100000D01*
X58583333Y-129033333D01*
X58516666Y-129000000D01*
X58383333Y-128966666D01*
X58283333Y-128966666D01*
X58150000Y-129000000D01*
X58083333Y-129033333D01*
X58016666Y-129100000D01*
X57983333Y-129200000D01*
X57983333Y-129366666D01*
X51945333Y-122528000D02*
X51945333Y-122861333D01*
X51612000Y-122894666D01*
X51645333Y-122861333D01*
X51678666Y-122794666D01*
X51678666Y-122628000D01*
X51645333Y-122561333D01*
X51612000Y-122528000D01*
X51545333Y-122494666D01*
X51378666Y-122494666D01*
X51312000Y-122528000D01*
X51278666Y-122561333D01*
X51245333Y-122628000D01*
X51245333Y-122794666D01*
X51278666Y-122861333D01*
X51312000Y-122894666D01*
X51712000Y-122261333D02*
X51245333Y-122094666D01*
X51712000Y-121928000D01*
X51912000Y-120167333D02*
X51945333Y-120234000D01*
X51945333Y-120334000D01*
X51912000Y-120434000D01*
X51845333Y-120500666D01*
X51778666Y-120534000D01*
X51645333Y-120567333D01*
X51545333Y-120567333D01*
X51412000Y-120534000D01*
X51345333Y-120500666D01*
X51278666Y-120434000D01*
X51245333Y-120334000D01*
X51245333Y-120267333D01*
X51278666Y-120167333D01*
X51312000Y-120134000D01*
X51545333Y-120134000D01*
X51545333Y-120267333D01*
X51245333Y-119834000D02*
X51945333Y-119834000D01*
X51245333Y-119434000D01*
X51945333Y-119434000D01*
X51245333Y-119100666D02*
X51945333Y-119100666D01*
X51945333Y-118934000D01*
X51912000Y-118834000D01*
X51845333Y-118767333D01*
X51778666Y-118734000D01*
X51645333Y-118700666D01*
X51545333Y-118700666D01*
X51412000Y-118734000D01*
X51345333Y-118767333D01*
X51278666Y-118834000D01*
X51245333Y-118934000D01*
X51245333Y-119100666D01*
X108950000Y-119616666D02*
X108950000Y-118916666D01*
X108550000Y-119616666D01*
X108550000Y-118916666D01*
X107816666Y-119550000D02*
X107850000Y-119583333D01*
X107950000Y-119616666D01*
X108016666Y-119616666D01*
X108116666Y-119583333D01*
X108183333Y-119516666D01*
X108216666Y-119450000D01*
X108250000Y-119316666D01*
X108250000Y-119216666D01*
X108216666Y-119083333D01*
X108183333Y-119016666D01*
X108116666Y-118950000D01*
X108016666Y-118916666D01*
X107950000Y-118916666D01*
X107850000Y-118950000D01*
X107816666Y-118983333D01*
X82445000Y-119766666D02*
X82411666Y-119800000D01*
X82378333Y-119900000D01*
X82378333Y-119966666D01*
X82411666Y-120066666D01*
X82478333Y-120133333D01*
X82545000Y-120166666D01*
X82678333Y-120200000D01*
X82778333Y-120200000D01*
X82911666Y-120166666D01*
X82978333Y-120133333D01*
X83045000Y-120066666D01*
X83078333Y-119966666D01*
X83078333Y-119900000D01*
X83045000Y-119800000D01*
X83011666Y-119766666D01*
X82378333Y-119466666D02*
X83078333Y-119466666D01*
X82745000Y-119466666D02*
X82745000Y-119066666D01*
X82378333Y-119066666D02*
X83078333Y-119066666D01*
X82578333Y-118766666D02*
X82578333Y-118433333D01*
X82378333Y-118833333D02*
X83078333Y-118600000D01*
X82378333Y-118366666D01*
X82378333Y-117733333D02*
X82711666Y-117966666D01*
X82378333Y-118133333D02*
X83078333Y-118133333D01*
X83078333Y-117866666D01*
X83045000Y-117800000D01*
X83011666Y-117766666D01*
X82945000Y-117733333D01*
X82845000Y-117733333D01*
X82778333Y-117766666D01*
X82745000Y-117800000D01*
X82711666Y-117866666D01*
X82711666Y-118133333D01*
X83045000Y-117066666D02*
X83078333Y-117133333D01*
X83078333Y-117233333D01*
X83045000Y-117333333D01*
X82978333Y-117400000D01*
X82911666Y-117433333D01*
X82778333Y-117466666D01*
X82678333Y-117466666D01*
X82545000Y-117433333D01*
X82478333Y-117400000D01*
X82411666Y-117333333D01*
X82378333Y-117233333D01*
X82378333Y-117166666D01*
X82411666Y-117066666D01*
X82445000Y-117033333D01*
X82678333Y-117033333D01*
X82678333Y-117166666D01*
X82745000Y-116733333D02*
X82745000Y-116500000D01*
X82378333Y-116400000D02*
X82378333Y-116733333D01*
X83078333Y-116733333D01*
X83078333Y-116400000D01*
X51850000Y-130333333D02*
X51883333Y-130400000D01*
X51883333Y-130500000D01*
X51850000Y-130600000D01*
X51783333Y-130666666D01*
X51716666Y-130700000D01*
X51583333Y-130733333D01*
X51483333Y-130733333D01*
X51350000Y-130700000D01*
X51283333Y-130666666D01*
X51216666Y-130600000D01*
X51183333Y-130500000D01*
X51183333Y-130433333D01*
X51216666Y-130333333D01*
X51250000Y-130300000D01*
X51483333Y-130300000D01*
X51483333Y-130433333D01*
X51183333Y-130000000D02*
X51883333Y-130000000D01*
X51183333Y-129600000D01*
X51883333Y-129600000D01*
X51183333Y-129266666D02*
X51883333Y-129266666D01*
X51883333Y-129100000D01*
X51850000Y-129000000D01*
X51783333Y-128933333D01*
X51716666Y-128900000D01*
X51583333Y-128866666D01*
X51483333Y-128866666D01*
X51350000Y-128900000D01*
X51283333Y-128933333D01*
X51216666Y-129000000D01*
X51183333Y-129100000D01*
X51183333Y-129266666D01*
X58683333Y-125633333D02*
X58683333Y-125200000D01*
X58416666Y-125433333D01*
X58416666Y-125333333D01*
X58383333Y-125266666D01*
X58350000Y-125233333D01*
X58283333Y-125200000D01*
X58116666Y-125200000D01*
X58050000Y-125233333D01*
X58016666Y-125266666D01*
X57983333Y-125333333D01*
X57983333Y-125533333D01*
X58016666Y-125600000D01*
X58050000Y-125633333D01*
X58450000Y-124966666D02*
X57983333Y-124800000D01*
X58450000Y-124633333D01*
X58683333Y-124433333D02*
X58683333Y-124000000D01*
X58416666Y-124233333D01*
X58416666Y-124133333D01*
X58383333Y-124066666D01*
X58350000Y-124033333D01*
X58283333Y-124000000D01*
X58116666Y-124000000D01*
X58050000Y-124033333D01*
X58016666Y-124066666D01*
X57983333Y-124133333D01*
X57983333Y-124333333D01*
X58016666Y-124400000D01*
X58050000Y-124433333D01*
X108833333Y-121550000D02*
X108900000Y-121516666D01*
X109000000Y-121516666D01*
X109100000Y-121550000D01*
X109166666Y-121616666D01*
X109200000Y-121683333D01*
X109233333Y-121816666D01*
X109233333Y-121916666D01*
X109200000Y-122050000D01*
X109166666Y-122116666D01*
X109100000Y-122183333D01*
X109000000Y-122216666D01*
X108933333Y-122216666D01*
X108833333Y-122183333D01*
X108800000Y-122150000D01*
X108800000Y-121916666D01*
X108933333Y-121916666D01*
X108500000Y-122216666D02*
X108500000Y-121516666D01*
X108100000Y-122216666D01*
X108100000Y-121516666D01*
X107766666Y-122216666D02*
X107766666Y-121516666D01*
X107600000Y-121516666D01*
X107500000Y-121550000D01*
X107433333Y-121616666D01*
X107400000Y-121683333D01*
X107366666Y-121816666D01*
X107366666Y-121916666D01*
X107400000Y-122050000D01*
X107433333Y-122116666D01*
X107500000Y-122183333D01*
X107600000Y-122216666D01*
X107766666Y-122216666D01*
X85900333Y-123250000D02*
X86600333Y-123250000D01*
X86600333Y-123083333D01*
X86567000Y-122983333D01*
X86500333Y-122916666D01*
X86433666Y-122883333D01*
X86300333Y-122850000D01*
X86200333Y-122850000D01*
X86067000Y-122883333D01*
X86000333Y-122916666D01*
X85933666Y-122983333D01*
X85900333Y-123083333D01*
X85900333Y-123250000D01*
X85933666Y-122583333D02*
X85900333Y-122483333D01*
X85900333Y-122316666D01*
X85933666Y-122250000D01*
X85967000Y-122216666D01*
X86033666Y-122183333D01*
X86100333Y-122183333D01*
X86167000Y-122216666D01*
X86200333Y-122250000D01*
X86233666Y-122316666D01*
X86267000Y-122450000D01*
X86300333Y-122516666D01*
X86333666Y-122550000D01*
X86400333Y-122583333D01*
X86467000Y-122583333D01*
X86533666Y-122550000D01*
X86567000Y-122516666D01*
X86600333Y-122450000D01*
X86600333Y-122283333D01*
X86567000Y-122183333D01*
X85967000Y-121483333D02*
X85933666Y-121516666D01*
X85900333Y-121616666D01*
X85900333Y-121683333D01*
X85933666Y-121783333D01*
X86000333Y-121850000D01*
X86067000Y-121883333D01*
X86200333Y-121916666D01*
X86300333Y-121916666D01*
X86433666Y-121883333D01*
X86500333Y-121850000D01*
X86567000Y-121783333D01*
X86600333Y-121683333D01*
X86600333Y-121616666D01*
X86567000Y-121516666D01*
X86533666Y-121483333D01*
X85900333Y-121183333D02*
X86600333Y-121183333D01*
X86267000Y-121183333D02*
X86267000Y-120783333D01*
X85900333Y-120783333D02*
X86600333Y-120783333D01*
X85900333Y-120050000D02*
X86233666Y-120283333D01*
X85900333Y-120450000D02*
X86600333Y-120450000D01*
X86600333Y-120183333D01*
X86567000Y-120116666D01*
X86533666Y-120083333D01*
X86467000Y-120050000D01*
X86367000Y-120050000D01*
X86300333Y-120083333D01*
X86267000Y-120116666D01*
X86233666Y-120183333D01*
X86233666Y-120450000D01*
X86567000Y-119383333D02*
X86600333Y-119450000D01*
X86600333Y-119550000D01*
X86567000Y-119650000D01*
X86500333Y-119716666D01*
X86433666Y-119750000D01*
X86300333Y-119783333D01*
X86200333Y-119783333D01*
X86067000Y-119750000D01*
X86000333Y-119716666D01*
X85933666Y-119650000D01*
X85900333Y-119550000D01*
X85900333Y-119483333D01*
X85933666Y-119383333D01*
X85967000Y-119350000D01*
X86200333Y-119350000D01*
X86200333Y-119483333D01*
X86267000Y-119050000D02*
X86267000Y-118816666D01*
X85900333Y-118716666D02*
X85900333Y-119050000D01*
X86600333Y-119050000D01*
X86600333Y-118716666D01*
D12*
X100594732Y-136414285D02*
X100184017Y-136557142D01*
X99469732Y-136557142D01*
X99166160Y-136414285D01*
X99005446Y-136271428D01*
X98826875Y-135985714D01*
X98791160Y-135700000D01*
X98898303Y-135414285D01*
X99023303Y-135271428D01*
X99291160Y-135128571D01*
X99844732Y-134985714D01*
X100112589Y-134842857D01*
X100237589Y-134700000D01*
X100344732Y-134414285D01*
X100309017Y-134128571D01*
X100130446Y-133842857D01*
X99969732Y-133700000D01*
X99666160Y-133557142D01*
X98951875Y-133557142D01*
X98541160Y-133700000D01*
X97237589Y-133557142D02*
X97541160Y-135985714D01*
X97434017Y-136271428D01*
X97309017Y-136414285D01*
X97041160Y-136557142D01*
X96469732Y-136557142D01*
X96166160Y-136414285D01*
X96005446Y-136271428D01*
X95826875Y-135985714D01*
X95523303Y-133557142D01*
X94469732Y-136557142D02*
X94094732Y-133557142D01*
X92951875Y-133557142D01*
X92684017Y-133700000D01*
X92559017Y-133842857D01*
X92451875Y-134128571D01*
X92505446Y-134557142D01*
X92684017Y-134842857D01*
X92844732Y-134985714D01*
X93148303Y-135128571D01*
X94291160Y-135128571D01*
X91273303Y-134985714D02*
X90273303Y-134985714D01*
X90041160Y-136557142D02*
X91469732Y-136557142D01*
X91094732Y-133557142D01*
X89666160Y-133557142D01*
X87041160Y-136557142D02*
X87862589Y-135128571D01*
X88755446Y-136557142D02*
X88380446Y-133557142D01*
X87237589Y-133557142D01*
X86969732Y-133700000D01*
X86844732Y-133842857D01*
X86737589Y-134128571D01*
X86791160Y-134557142D01*
X86969732Y-134842857D01*
X87130446Y-134985714D01*
X87434017Y-135128571D01*
X88576875Y-135128571D01*
X83094732Y-133557142D02*
X83398303Y-135985714D01*
X83291160Y-136271428D01*
X83166160Y-136414285D01*
X82898303Y-136557142D01*
X82326875Y-136557142D01*
X82023303Y-136414285D01*
X81862589Y-136271428D01*
X81684017Y-135985714D01*
X81380446Y-133557142D01*
X80326875Y-136557142D02*
X79951875Y-133557142D01*
X78809017Y-133557142D01*
X78541160Y-133700000D01*
X78416160Y-133842857D01*
X78309017Y-134128571D01*
X78362589Y-134557142D01*
X78541160Y-134842857D01*
X78701875Y-134985714D01*
X79005446Y-135128571D01*
X80148303Y-135128571D01*
X77451875Y-136414285D02*
X77041160Y-136557142D01*
X76326875Y-136557142D01*
X76023303Y-136414285D01*
X75862589Y-136271428D01*
X75684017Y-135985714D01*
X75648303Y-135700000D01*
X75755446Y-135414285D01*
X75880446Y-135271428D01*
X76148303Y-135128571D01*
X76701875Y-134985714D01*
X76969732Y-134842857D01*
X77094732Y-134700000D01*
X77201875Y-134414285D01*
X77166160Y-134128571D01*
X76987589Y-133842857D01*
X76826875Y-133700000D01*
X76523303Y-133557142D01*
X75809017Y-133557142D01*
X75398303Y-133700000D01*
D10*
X110031071Y-145923571D02*
X109888214Y-145971190D01*
X109840595Y-146018809D01*
X109792976Y-146114047D01*
X109792976Y-146256904D01*
X109840595Y-146352142D01*
X109888214Y-146399761D01*
X109983452Y-146447380D01*
X110364404Y-146447380D01*
X110364404Y-145447380D01*
X110031071Y-145447380D01*
X109935833Y-145495000D01*
X109888214Y-145542619D01*
X109840595Y-145637857D01*
X109840595Y-145733095D01*
X109888214Y-145828333D01*
X109935833Y-145875952D01*
X110031071Y-145923571D01*
X110364404Y-145923571D01*
X108935833Y-146447380D02*
X108935833Y-145923571D01*
X108983452Y-145828333D01*
X109078690Y-145780714D01*
X109269166Y-145780714D01*
X109364404Y-145828333D01*
X108935833Y-146399761D02*
X109031071Y-146447380D01*
X109269166Y-146447380D01*
X109364404Y-146399761D01*
X109412023Y-146304523D01*
X109412023Y-146209285D01*
X109364404Y-146114047D01*
X109269166Y-146066428D01*
X109031071Y-146066428D01*
X108935833Y-146018809D01*
X108507261Y-146399761D02*
X108412023Y-146447380D01*
X108221547Y-146447380D01*
X108126309Y-146399761D01*
X108078690Y-146304523D01*
X108078690Y-146256904D01*
X108126309Y-146161666D01*
X108221547Y-146114047D01*
X108364404Y-146114047D01*
X108459642Y-146066428D01*
X108507261Y-145971190D01*
X108507261Y-145923571D01*
X108459642Y-145828333D01*
X108364404Y-145780714D01*
X108221547Y-145780714D01*
X108126309Y-145828333D01*
X107269166Y-146399761D02*
X107364404Y-146447380D01*
X107554880Y-146447380D01*
X107650119Y-146399761D01*
X107697738Y-146304523D01*
X107697738Y-145923571D01*
X107650119Y-145828333D01*
X107554880Y-145780714D01*
X107364404Y-145780714D01*
X107269166Y-145828333D01*
X107221547Y-145923571D01*
X107221547Y-146018809D01*
X107697738Y-146114047D01*
X106364404Y-146447380D02*
X106364404Y-145447380D01*
X106364404Y-146399761D02*
X106459642Y-146447380D01*
X106650119Y-146447380D01*
X106745357Y-146399761D01*
X106792976Y-146352142D01*
X106840595Y-146256904D01*
X106840595Y-145971190D01*
X106792976Y-145875952D01*
X106745357Y-145828333D01*
X106650119Y-145780714D01*
X106459642Y-145780714D01*
X106364404Y-145828333D01*
X104697738Y-145780714D02*
X104697738Y-146447380D01*
X105126309Y-145780714D02*
X105126309Y-146304523D01*
X105078690Y-146399761D01*
X104983452Y-146447380D01*
X104840595Y-146447380D01*
X104745357Y-146399761D01*
X104697738Y-146352142D01*
X104221547Y-145780714D02*
X104221547Y-146780714D01*
X104221547Y-145828333D02*
X104126309Y-145780714D01*
X103935833Y-145780714D01*
X103840595Y-145828333D01*
X103792976Y-145875952D01*
X103745357Y-145971190D01*
X103745357Y-146256904D01*
X103792976Y-146352142D01*
X103840595Y-146399761D01*
X103935833Y-146447380D01*
X104126309Y-146447380D01*
X104221547Y-146399761D01*
X103173928Y-146447380D02*
X103269166Y-146399761D01*
X103316785Y-146352142D01*
X103364404Y-146256904D01*
X103364404Y-145971190D01*
X103316785Y-145875952D01*
X103269166Y-145828333D01*
X103173928Y-145780714D01*
X103031071Y-145780714D01*
X102935833Y-145828333D01*
X102888214Y-145875952D01*
X102840595Y-145971190D01*
X102840595Y-146256904D01*
X102888214Y-146352142D01*
X102935833Y-146399761D01*
X103031071Y-146447380D01*
X103173928Y-146447380D01*
X102412023Y-145780714D02*
X102412023Y-146447380D01*
X102412023Y-145875952D02*
X102364404Y-145828333D01*
X102269166Y-145780714D01*
X102126309Y-145780714D01*
X102031071Y-145828333D01*
X101983452Y-145923571D01*
X101983452Y-146447380D01*
X101507261Y-146352142D02*
X101459642Y-146399761D01*
X101507261Y-146447380D01*
X101554880Y-146399761D01*
X101507261Y-146352142D01*
X101507261Y-146447380D01*
X101507261Y-145828333D02*
X101459642Y-145875952D01*
X101507261Y-145923571D01*
X101554880Y-145875952D01*
X101507261Y-145828333D01*
X101507261Y-145923571D01*
X110364404Y-147676428D02*
X109602500Y-147676428D01*
X107840595Y-148057380D02*
X108412023Y-148057380D01*
X108126309Y-148057380D02*
X108126309Y-147057380D01*
X108221547Y-147200238D01*
X108316785Y-147295476D01*
X108412023Y-147343095D01*
X107459642Y-147152619D02*
X107412023Y-147105000D01*
X107316785Y-147057380D01*
X107078690Y-147057380D01*
X106983452Y-147105000D01*
X106935833Y-147152619D01*
X106888214Y-147247857D01*
X106888214Y-147343095D01*
X106935833Y-147485952D01*
X107507261Y-148057380D01*
X106888214Y-148057380D01*
X106554880Y-147390714D02*
X106316785Y-148057380D01*
X106078690Y-147390714D01*
X104983452Y-148009761D02*
X104840595Y-148057380D01*
X104602500Y-148057380D01*
X104507261Y-148009761D01*
X104459642Y-147962142D01*
X104412023Y-147866904D01*
X104412023Y-147771666D01*
X104459642Y-147676428D01*
X104507261Y-147628809D01*
X104602500Y-147581190D01*
X104792976Y-147533571D01*
X104888214Y-147485952D01*
X104935833Y-147438333D01*
X104983452Y-147343095D01*
X104983452Y-147247857D01*
X104935833Y-147152619D01*
X104888214Y-147105000D01*
X104792976Y-147057380D01*
X104554880Y-147057380D01*
X104412023Y-147105000D01*
X103554880Y-147390714D02*
X103554880Y-148057380D01*
X103983452Y-147390714D02*
X103983452Y-147914523D01*
X103935833Y-148009761D01*
X103840595Y-148057380D01*
X103697738Y-148057380D01*
X103602500Y-148009761D01*
X103554880Y-147962142D01*
X103078690Y-147390714D02*
X103078690Y-148390714D01*
X103078690Y-147438333D02*
X102983452Y-147390714D01*
X102792976Y-147390714D01*
X102697738Y-147438333D01*
X102650119Y-147485952D01*
X102602500Y-147581190D01*
X102602500Y-147866904D01*
X102650119Y-147962142D01*
X102697738Y-148009761D01*
X102792976Y-148057380D01*
X102983452Y-148057380D01*
X103078690Y-148009761D01*
X101792976Y-148009761D02*
X101888214Y-148057380D01*
X102078690Y-148057380D01*
X102173928Y-148009761D01*
X102221547Y-147914523D01*
X102221547Y-147533571D01*
X102173928Y-147438333D01*
X102078690Y-147390714D01*
X101888214Y-147390714D01*
X101792976Y-147438333D01*
X101745357Y-147533571D01*
X101745357Y-147628809D01*
X102221547Y-147724047D01*
X101316785Y-148057380D02*
X101316785Y-147390714D01*
X101316785Y-147581190D02*
X101269166Y-147485952D01*
X101221547Y-147438333D01*
X101126309Y-147390714D01*
X101031071Y-147390714D01*
X100126309Y-147962142D02*
X100173928Y-148009761D01*
X100316785Y-148057380D01*
X100412023Y-148057380D01*
X100554880Y-148009761D01*
X100650119Y-147914523D01*
X100697738Y-147819285D01*
X100745357Y-147628809D01*
X100745357Y-147485952D01*
X100697738Y-147295476D01*
X100650119Y-147200238D01*
X100554880Y-147105000D01*
X100412023Y-147057380D01*
X100316785Y-147057380D01*
X100173928Y-147105000D01*
X100126309Y-147152619D01*
X99269166Y-148057380D02*
X99269166Y-147533571D01*
X99316785Y-147438333D01*
X99412023Y-147390714D01*
X99602500Y-147390714D01*
X99697738Y-147438333D01*
X99269166Y-148009761D02*
X99364404Y-148057380D01*
X99602500Y-148057380D01*
X99697738Y-148009761D01*
X99745357Y-147914523D01*
X99745357Y-147819285D01*
X99697738Y-147724047D01*
X99602500Y-147676428D01*
X99364404Y-147676428D01*
X99269166Y-147628809D01*
X98792976Y-147390714D02*
X98792976Y-148390714D01*
X98792976Y-147438333D02*
X98697738Y-147390714D01*
X98507261Y-147390714D01*
X98412023Y-147438333D01*
X98364404Y-147485952D01*
X98316785Y-147581190D01*
X98316785Y-147866904D01*
X98364404Y-147962142D01*
X98412023Y-148009761D01*
X98507261Y-148057380D01*
X98697738Y-148057380D01*
X98792976Y-148009761D01*
X97459642Y-148057380D02*
X97459642Y-147533571D01*
X97507261Y-147438333D01*
X97602500Y-147390714D01*
X97792976Y-147390714D01*
X97888214Y-147438333D01*
X97459642Y-148009761D02*
X97554880Y-148057380D01*
X97792976Y-148057380D01*
X97888214Y-148009761D01*
X97935833Y-147914523D01*
X97935833Y-147819285D01*
X97888214Y-147724047D01*
X97792976Y-147676428D01*
X97554880Y-147676428D01*
X97459642Y-147628809D01*
X96554880Y-148009761D02*
X96650119Y-148057380D01*
X96840595Y-148057380D01*
X96935833Y-148009761D01*
X96983452Y-147962142D01*
X97031071Y-147866904D01*
X97031071Y-147581190D01*
X96983452Y-147485952D01*
X96935833Y-147438333D01*
X96840595Y-147390714D01*
X96650119Y-147390714D01*
X96554880Y-147438333D01*
X96126309Y-148057380D02*
X96126309Y-147390714D01*
X96126309Y-147057380D02*
X96173928Y-147105000D01*
X96126309Y-147152619D01*
X96078690Y-147105000D01*
X96126309Y-147057380D01*
X96126309Y-147152619D01*
X95792976Y-147390714D02*
X95412023Y-147390714D01*
X95650119Y-147057380D02*
X95650119Y-147914523D01*
X95602500Y-148009761D01*
X95507261Y-148057380D01*
X95412023Y-148057380D01*
X94935833Y-148057380D02*
X95031071Y-148009761D01*
X95078690Y-147962142D01*
X95126309Y-147866904D01*
X95126309Y-147581190D01*
X95078690Y-147485952D01*
X95031071Y-147438333D01*
X94935833Y-147390714D01*
X94792976Y-147390714D01*
X94697738Y-147438333D01*
X94650119Y-147485952D01*
X94602500Y-147581190D01*
X94602500Y-147866904D01*
X94650119Y-147962142D01*
X94697738Y-148009761D01*
X94792976Y-148057380D01*
X94935833Y-148057380D01*
X94173928Y-148057380D02*
X94173928Y-147390714D01*
X94173928Y-147581190D02*
X94126309Y-147485952D01*
X94078690Y-147438333D01*
X93983452Y-147390714D01*
X93888214Y-147390714D01*
X92792976Y-147057380D02*
X92792976Y-147866904D01*
X92745357Y-147962142D01*
X92697738Y-148009761D01*
X92602500Y-148057380D01*
X92412023Y-148057380D01*
X92316785Y-148009761D01*
X92269166Y-147962142D01*
X92221547Y-147866904D01*
X92221547Y-147057380D01*
X91745357Y-148057380D02*
X91745357Y-147057380D01*
X91364404Y-147057380D01*
X91269166Y-147105000D01*
X91221547Y-147152619D01*
X91173928Y-147247857D01*
X91173928Y-147390714D01*
X91221547Y-147485952D01*
X91269166Y-147533571D01*
X91364404Y-147581190D01*
X91745357Y-147581190D01*
X90792976Y-148009761D02*
X90650119Y-148057380D01*
X90412023Y-148057380D01*
X90316785Y-148009761D01*
X90269166Y-147962142D01*
X90221547Y-147866904D01*
X90221547Y-147771666D01*
X90269166Y-147676428D01*
X90316785Y-147628809D01*
X90412023Y-147581190D01*
X90602500Y-147533571D01*
X90697738Y-147485952D01*
X90745357Y-147438333D01*
X90792976Y-147343095D01*
X90792976Y-147247857D01*
X90745357Y-147152619D01*
X90697738Y-147105000D01*
X90602500Y-147057380D01*
X90364404Y-147057380D01*
X90221547Y-147105000D01*
X89031071Y-147676428D02*
X88269166Y-147676428D01*
X87078690Y-148009761D02*
X86935833Y-148057380D01*
X86697738Y-148057380D01*
X86602500Y-148009761D01*
X86554880Y-147962142D01*
X86507261Y-147866904D01*
X86507261Y-147771666D01*
X86554880Y-147676428D01*
X86602500Y-147628809D01*
X86697738Y-147581190D01*
X86888214Y-147533571D01*
X86983452Y-147485952D01*
X87031071Y-147438333D01*
X87078690Y-147343095D01*
X87078690Y-147247857D01*
X87031071Y-147152619D01*
X86983452Y-147105000D01*
X86888214Y-147057380D01*
X86650119Y-147057380D01*
X86507261Y-147105000D01*
X85650119Y-148009761D02*
X85745357Y-148057380D01*
X85935833Y-148057380D01*
X86031071Y-148009761D01*
X86078690Y-147962142D01*
X86126309Y-147866904D01*
X86126309Y-147581190D01*
X86078690Y-147485952D01*
X86031071Y-147438333D01*
X85935833Y-147390714D01*
X85745357Y-147390714D01*
X85650119Y-147438333D01*
X85078690Y-148057380D02*
X85173928Y-148009761D01*
X85221547Y-147962142D01*
X85269166Y-147866904D01*
X85269166Y-147581190D01*
X85221547Y-147485952D01*
X85173928Y-147438333D01*
X85078690Y-147390714D01*
X84935833Y-147390714D01*
X84840595Y-147438333D01*
X84792976Y-147485952D01*
X84745357Y-147581190D01*
X84745357Y-147866904D01*
X84792976Y-147962142D01*
X84840595Y-148009761D01*
X84935833Y-148057380D01*
X85078690Y-148057380D01*
X84459642Y-147390714D02*
X84078690Y-147390714D01*
X84316785Y-147057380D02*
X84316785Y-147914523D01*
X84269166Y-148009761D01*
X84173928Y-148057380D01*
X84078690Y-148057380D01*
X83888214Y-147390714D02*
X83507261Y-147390714D01*
X83745357Y-147057380D02*
X83745357Y-147914523D01*
X83697738Y-148009761D01*
X83602500Y-148057380D01*
X83507261Y-148057380D01*
X82078690Y-147533571D02*
X81935833Y-147581190D01*
X81888214Y-147628809D01*
X81840595Y-147724047D01*
X81840595Y-147866904D01*
X81888214Y-147962142D01*
X81935833Y-148009761D01*
X82031071Y-148057380D01*
X82412023Y-148057380D01*
X82412023Y-147057380D01*
X82078690Y-147057380D01*
X81983452Y-147105000D01*
X81935833Y-147152619D01*
X81888214Y-147247857D01*
X81888214Y-147343095D01*
X81935833Y-147438333D01*
X81983452Y-147485952D01*
X82078690Y-147533571D01*
X82412023Y-147533571D01*
X80983452Y-148057380D02*
X80983452Y-147533571D01*
X81031071Y-147438333D01*
X81126309Y-147390714D01*
X81316785Y-147390714D01*
X81412023Y-147438333D01*
X80983452Y-148009761D02*
X81078690Y-148057380D01*
X81316785Y-148057380D01*
X81412023Y-148009761D01*
X81459642Y-147914523D01*
X81459642Y-147819285D01*
X81412023Y-147724047D01*
X81316785Y-147676428D01*
X81078690Y-147676428D01*
X80983452Y-147628809D01*
X80507261Y-148057380D02*
X80507261Y-147057380D01*
X80412023Y-147676428D02*
X80126309Y-148057380D01*
X80126309Y-147390714D02*
X80507261Y-147771666D01*
X79316785Y-148009761D02*
X79412023Y-148057380D01*
X79602500Y-148057380D01*
X79697738Y-148009761D01*
X79745357Y-147914523D01*
X79745357Y-147533571D01*
X79697738Y-147438333D01*
X79602500Y-147390714D01*
X79412023Y-147390714D01*
X79316785Y-147438333D01*
X79269166Y-147533571D01*
X79269166Y-147628809D01*
X79745357Y-147724047D01*
X78840595Y-148057380D02*
X78840595Y-147390714D01*
X78840595Y-147581190D02*
X78792976Y-147485952D01*
X78745357Y-147438333D01*
X78650119Y-147390714D01*
X78554880Y-147390714D01*
X77459642Y-147676428D02*
X76697738Y-147676428D01*
X75459642Y-148057380D02*
X75459642Y-147057380D01*
X75031071Y-148057380D02*
X75031071Y-147533571D01*
X75078690Y-147438333D01*
X75173928Y-147390714D01*
X75316785Y-147390714D01*
X75412023Y-147438333D01*
X75459642Y-147485952D01*
X74697738Y-147390714D02*
X74316785Y-147390714D01*
X74554880Y-147057380D02*
X74554880Y-147914523D01*
X74507261Y-148009761D01*
X74412023Y-148057380D01*
X74316785Y-148057380D01*
X74126309Y-147390714D02*
X73745357Y-147390714D01*
X73983452Y-147057380D02*
X73983452Y-147914523D01*
X73935833Y-148009761D01*
X73840595Y-148057380D01*
X73745357Y-148057380D01*
X73412023Y-147390714D02*
X73412023Y-148390714D01*
X73412023Y-147438333D02*
X73316785Y-147390714D01*
X73126309Y-147390714D01*
X73031071Y-147438333D01*
X72983452Y-147485952D01*
X72935833Y-147581190D01*
X72935833Y-147866904D01*
X72983452Y-147962142D01*
X73031071Y-148009761D01*
X73126309Y-148057380D01*
X73316785Y-148057380D01*
X73412023Y-148009761D01*
X72507261Y-147962142D02*
X72459642Y-148009761D01*
X72507261Y-148057380D01*
X72554880Y-148009761D01*
X72507261Y-147962142D01*
X72507261Y-148057380D01*
X72507261Y-147438333D02*
X72459642Y-147485952D01*
X72507261Y-147533571D01*
X72554880Y-147485952D01*
X72507261Y-147438333D01*
X72507261Y-147533571D01*
X71316785Y-147009761D02*
X72173928Y-148295476D01*
X70269166Y-147009761D02*
X71126309Y-148295476D01*
X70031071Y-147390714D02*
X69840595Y-148057380D01*
X69650119Y-147581190D01*
X69459642Y-148057380D01*
X69269166Y-147390714D01*
X68983452Y-147390714D02*
X68792976Y-148057380D01*
X68602500Y-147581190D01*
X68412023Y-148057380D01*
X68221547Y-147390714D01*
X67935833Y-147390714D02*
X67745357Y-148057380D01*
X67554880Y-147581190D01*
X67364404Y-148057380D01*
X67173928Y-147390714D01*
X66792976Y-147962142D02*
X66745357Y-148009761D01*
X66792976Y-148057380D01*
X66840595Y-148009761D01*
X66792976Y-147962142D01*
X66792976Y-148057380D01*
X66364404Y-148009761D02*
X66269166Y-148057380D01*
X66078690Y-148057380D01*
X65983452Y-148009761D01*
X65935833Y-147914523D01*
X65935833Y-147866904D01*
X65983452Y-147771666D01*
X66078690Y-147724047D01*
X66221547Y-147724047D01*
X66316785Y-147676428D01*
X66364404Y-147581190D01*
X66364404Y-147533571D01*
X66316785Y-147438333D01*
X66221547Y-147390714D01*
X66078690Y-147390714D01*
X65983452Y-147438333D01*
X65507261Y-148057380D02*
X65507261Y-147390714D01*
X65507261Y-147485952D02*
X65459642Y-147438333D01*
X65364404Y-147390714D01*
X65221547Y-147390714D01*
X65126309Y-147438333D01*
X65078690Y-147533571D01*
X65078690Y-148057380D01*
X65078690Y-147533571D02*
X65031071Y-147438333D01*
X64935833Y-147390714D01*
X64792976Y-147390714D01*
X64697738Y-147438333D01*
X64650119Y-147533571D01*
X64650119Y-148057380D01*
X64173928Y-148057380D02*
X64173928Y-147057380D01*
X64173928Y-147438333D02*
X64078690Y-147390714D01*
X63888214Y-147390714D01*
X63792976Y-147438333D01*
X63745357Y-147485952D01*
X63697738Y-147581190D01*
X63697738Y-147866904D01*
X63745357Y-147962142D01*
X63792976Y-148009761D01*
X63888214Y-148057380D01*
X64078690Y-148057380D01*
X64173928Y-148009761D01*
X62840595Y-148057380D02*
X62840595Y-147533571D01*
X62888214Y-147438333D01*
X62983452Y-147390714D01*
X63173928Y-147390714D01*
X63269166Y-147438333D01*
X62840595Y-148009761D02*
X62935833Y-148057380D01*
X63173928Y-148057380D01*
X63269166Y-148009761D01*
X63316785Y-147914523D01*
X63316785Y-147819285D01*
X63269166Y-147724047D01*
X63173928Y-147676428D01*
X62935833Y-147676428D01*
X62840595Y-147628809D01*
X62364404Y-148057380D02*
X62364404Y-147057380D01*
X62269166Y-147676428D02*
X61983452Y-148057380D01*
X61983452Y-147390714D02*
X62364404Y-147771666D01*
X61173928Y-148009761D02*
X61269166Y-148057380D01*
X61459642Y-148057380D01*
X61554880Y-148009761D01*
X61602500Y-147914523D01*
X61602500Y-147533571D01*
X61554880Y-147438333D01*
X61459642Y-147390714D01*
X61269166Y-147390714D01*
X61173928Y-147438333D01*
X61126309Y-147533571D01*
X61126309Y-147628809D01*
X61602500Y-147724047D01*
X60697738Y-148057380D02*
X60697738Y-147390714D01*
X60697738Y-147581190D02*
X60650119Y-147485952D01*
X60602500Y-147438333D01*
X60507261Y-147390714D01*
X60412023Y-147390714D01*
X60078690Y-147962142D02*
X60031071Y-148009761D01*
X60078690Y-148057380D01*
X60126309Y-148009761D01*
X60078690Y-147962142D01*
X60078690Y-148057380D01*
X59173928Y-148009761D02*
X59269166Y-148057380D01*
X59459642Y-148057380D01*
X59554880Y-148009761D01*
X59602500Y-147962142D01*
X59650119Y-147866904D01*
X59650119Y-147581190D01*
X59602500Y-147485952D01*
X59554880Y-147438333D01*
X59459642Y-147390714D01*
X59269166Y-147390714D01*
X59173928Y-147438333D01*
X58602500Y-148057380D02*
X58697738Y-148009761D01*
X58745357Y-147962142D01*
X58792976Y-147866904D01*
X58792976Y-147581190D01*
X58745357Y-147485952D01*
X58697738Y-147438333D01*
X58602500Y-147390714D01*
X58459642Y-147390714D01*
X58364404Y-147438333D01*
X58316785Y-147485952D01*
X58269166Y-147581190D01*
X58269166Y-147866904D01*
X58316785Y-147962142D01*
X58364404Y-148009761D01*
X58459642Y-148057380D01*
X58602500Y-148057380D01*
X57840595Y-148057380D02*
X57840595Y-147390714D01*
X57840595Y-147485952D02*
X57792976Y-147438333D01*
X57697738Y-147390714D01*
X57554880Y-147390714D01*
X57459642Y-147438333D01*
X57412023Y-147533571D01*
X57412023Y-148057380D01*
X57412023Y-147533571D02*
X57364404Y-147438333D01*
X57269166Y-147390714D01*
X57126309Y-147390714D01*
X57031071Y-147438333D01*
X56983452Y-147533571D01*
X56983452Y-148057380D01*
X110364404Y-149286428D02*
X109602500Y-149286428D01*
X108364404Y-149667380D02*
X108364404Y-148667380D01*
X108031071Y-149381666D01*
X107697738Y-148667380D01*
X107697738Y-149667380D01*
X106888214Y-149143571D02*
X107221547Y-149143571D01*
X107221547Y-149667380D02*
X107221547Y-148667380D01*
X106745357Y-148667380D01*
X106364404Y-149667380D02*
X106364404Y-148667380D01*
X106031071Y-149381666D01*
X105697738Y-148667380D01*
X105697738Y-149667380D01*
X104459642Y-149143571D02*
X104126309Y-149143571D01*
X103983452Y-149667380D02*
X104459642Y-149667380D01*
X104459642Y-148667380D01*
X103983452Y-148667380D01*
X103554880Y-149667380D02*
X103554880Y-149000714D01*
X103554880Y-149095952D02*
X103507261Y-149048333D01*
X103412023Y-149000714D01*
X103269166Y-149000714D01*
X103173928Y-149048333D01*
X103126309Y-149143571D01*
X103126309Y-149667380D01*
X103126309Y-149143571D02*
X103078690Y-149048333D01*
X102983452Y-149000714D01*
X102840595Y-149000714D01*
X102745357Y-149048333D01*
X102697738Y-149143571D01*
X102697738Y-149667380D01*
X101792976Y-149000714D02*
X101792976Y-149667380D01*
X102221547Y-149000714D02*
X102221547Y-149524523D01*
X102173928Y-149619761D01*
X102078690Y-149667380D01*
X101935833Y-149667380D01*
X101840595Y-149619761D01*
X101792976Y-149572142D01*
X101173928Y-149667380D02*
X101269166Y-149619761D01*
X101316785Y-149524523D01*
X101316785Y-148667380D01*
X100364404Y-149667380D02*
X100364404Y-149143571D01*
X100412023Y-149048333D01*
X100507261Y-149000714D01*
X100697738Y-149000714D01*
X100792976Y-149048333D01*
X100364404Y-149619761D02*
X100459642Y-149667380D01*
X100697738Y-149667380D01*
X100792976Y-149619761D01*
X100840595Y-149524523D01*
X100840595Y-149429285D01*
X100792976Y-149334047D01*
X100697738Y-149286428D01*
X100459642Y-149286428D01*
X100364404Y-149238809D01*
X100031071Y-149000714D02*
X99650119Y-149000714D01*
X99888214Y-148667380D02*
X99888214Y-149524523D01*
X99840595Y-149619761D01*
X99745357Y-149667380D01*
X99650119Y-149667380D01*
X99173928Y-149667380D02*
X99269166Y-149619761D01*
X99316785Y-149572142D01*
X99364404Y-149476904D01*
X99364404Y-149191190D01*
X99316785Y-149095952D01*
X99269166Y-149048333D01*
X99173928Y-149000714D01*
X99031071Y-149000714D01*
X98935833Y-149048333D01*
X98888214Y-149095952D01*
X98840595Y-149191190D01*
X98840595Y-149476904D01*
X98888214Y-149572142D01*
X98935833Y-149619761D01*
X99031071Y-149667380D01*
X99173928Y-149667380D01*
X98412023Y-149667380D02*
X98412023Y-149000714D01*
X98412023Y-149191190D02*
X98364404Y-149095952D01*
X98316785Y-149048333D01*
X98221547Y-149000714D01*
X98126309Y-149000714D01*
X97031071Y-149286428D02*
X96269166Y-149286428D01*
X95031071Y-149667380D02*
X95031071Y-148667380D01*
X94792976Y-148667380D01*
X94650119Y-148715000D01*
X94554880Y-148810238D01*
X94507261Y-148905476D01*
X94459642Y-149095952D01*
X94459642Y-149238809D01*
X94507261Y-149429285D01*
X94554880Y-149524523D01*
X94650119Y-149619761D01*
X94792976Y-149667380D01*
X95031071Y-149667380D01*
X93602500Y-149667380D02*
X93602500Y-149143571D01*
X93650119Y-149048333D01*
X93745357Y-149000714D01*
X93935833Y-149000714D01*
X94031071Y-149048333D01*
X93602500Y-149619761D02*
X93697738Y-149667380D01*
X93935833Y-149667380D01*
X94031071Y-149619761D01*
X94078690Y-149524523D01*
X94078690Y-149429285D01*
X94031071Y-149334047D01*
X93935833Y-149286428D01*
X93697738Y-149286428D01*
X93602500Y-149238809D01*
X93221547Y-149000714D02*
X92983452Y-149667380D01*
X92745357Y-149000714D01*
X92364404Y-149667380D02*
X92364404Y-149000714D01*
X92364404Y-148667380D02*
X92412023Y-148715000D01*
X92364404Y-148762619D01*
X92316785Y-148715000D01*
X92364404Y-148667380D01*
X92364404Y-148762619D01*
X91459642Y-149667380D02*
X91459642Y-148667380D01*
X91459642Y-149619761D02*
X91554880Y-149667380D01*
X91745357Y-149667380D01*
X91840595Y-149619761D01*
X91888214Y-149572142D01*
X91935833Y-149476904D01*
X91935833Y-149191190D01*
X91888214Y-149095952D01*
X91840595Y-149048333D01*
X91745357Y-149000714D01*
X91554880Y-149000714D01*
X91459642Y-149048333D01*
X89697738Y-148715000D02*
X89792976Y-148667380D01*
X89935833Y-148667380D01*
X90078690Y-148715000D01*
X90173928Y-148810238D01*
X90221547Y-148905476D01*
X90269166Y-149095952D01*
X90269166Y-149238809D01*
X90221547Y-149429285D01*
X90173928Y-149524523D01*
X90078690Y-149619761D01*
X89935833Y-149667380D01*
X89840595Y-149667380D01*
X89697738Y-149619761D01*
X89650119Y-149572142D01*
X89650119Y-149238809D01*
X89840595Y-149238809D01*
X88840595Y-149619761D02*
X88935833Y-149667380D01*
X89126309Y-149667380D01*
X89221547Y-149619761D01*
X89269166Y-149524523D01*
X89269166Y-149143571D01*
X89221547Y-149048333D01*
X89126309Y-149000714D01*
X88935833Y-149000714D01*
X88840595Y-149048333D01*
X88792976Y-149143571D01*
X88792976Y-149238809D01*
X89269166Y-149334047D01*
X88412023Y-149619761D02*
X88316785Y-149667380D01*
X88126309Y-149667380D01*
X88031071Y-149619761D01*
X87983452Y-149524523D01*
X87983452Y-149476904D01*
X88031071Y-149381666D01*
X88126309Y-149334047D01*
X88269166Y-149334047D01*
X88364404Y-149286428D01*
X88412023Y-149191190D01*
X88412023Y-149143571D01*
X88364404Y-149048333D01*
X88269166Y-149000714D01*
X88126309Y-149000714D01*
X88031071Y-149048333D01*
X87602500Y-149619761D02*
X87507261Y-149667380D01*
X87316785Y-149667380D01*
X87221547Y-149619761D01*
X87173928Y-149524523D01*
X87173928Y-149476904D01*
X87221547Y-149381666D01*
X87316785Y-149334047D01*
X87459642Y-149334047D01*
X87554880Y-149286428D01*
X87602500Y-149191190D01*
X87602500Y-149143571D01*
X87554880Y-149048333D01*
X87459642Y-149000714D01*
X87316785Y-149000714D01*
X87221547Y-149048333D01*
X86840595Y-149000714D02*
X86650119Y-149667380D01*
X86459642Y-149191190D01*
X86269166Y-149667380D01*
X86078690Y-149000714D01*
X85316785Y-149619761D02*
X85412023Y-149667380D01*
X85602500Y-149667380D01*
X85697738Y-149619761D01*
X85745357Y-149524523D01*
X85745357Y-149143571D01*
X85697738Y-149048333D01*
X85602500Y-149000714D01*
X85412023Y-149000714D01*
X85316785Y-149048333D01*
X85269166Y-149143571D01*
X85269166Y-149238809D01*
X85745357Y-149334047D01*
X84840595Y-149667380D02*
X84840595Y-149000714D01*
X84840595Y-148667380D02*
X84888214Y-148715000D01*
X84840595Y-148762619D01*
X84792976Y-148715000D01*
X84840595Y-148667380D01*
X84840595Y-148762619D01*
X84364404Y-149000714D02*
X84364404Y-149667380D01*
X84364404Y-149095952D02*
X84316785Y-149048333D01*
X84221547Y-149000714D01*
X84078690Y-149000714D01*
X83983452Y-149048333D01*
X83935833Y-149143571D01*
X83935833Y-149667380D01*
X82697738Y-149286428D02*
X81935833Y-149286428D01*
X80697738Y-149667380D02*
X80697738Y-148667380D01*
X80269166Y-149667380D02*
X80269166Y-149143571D01*
X80316785Y-149048333D01*
X80412023Y-149000714D01*
X80554880Y-149000714D01*
X80650119Y-149048333D01*
X80697738Y-149095952D01*
X79935833Y-149000714D02*
X79554880Y-149000714D01*
X79792976Y-148667380D02*
X79792976Y-149524523D01*
X79745357Y-149619761D01*
X79650119Y-149667380D01*
X79554880Y-149667380D01*
X79364404Y-149000714D02*
X78983452Y-149000714D01*
X79221547Y-148667380D02*
X79221547Y-149524523D01*
X79173928Y-149619761D01*
X79078690Y-149667380D01*
X78983452Y-149667380D01*
X78650119Y-149000714D02*
X78650119Y-150000714D01*
X78650119Y-149048333D02*
X78554880Y-149000714D01*
X78364404Y-149000714D01*
X78269166Y-149048333D01*
X78221547Y-149095952D01*
X78173928Y-149191190D01*
X78173928Y-149476904D01*
X78221547Y-149572142D01*
X78269166Y-149619761D01*
X78364404Y-149667380D01*
X78554880Y-149667380D01*
X78650119Y-149619761D01*
X77792976Y-149619761D02*
X77697738Y-149667380D01*
X77507261Y-149667380D01*
X77412023Y-149619761D01*
X77364404Y-149524523D01*
X77364404Y-149476904D01*
X77412023Y-149381666D01*
X77507261Y-149334047D01*
X77650119Y-149334047D01*
X77745357Y-149286428D01*
X77792976Y-149191190D01*
X77792976Y-149143571D01*
X77745357Y-149048333D01*
X77650119Y-149000714D01*
X77507261Y-149000714D01*
X77412023Y-149048333D01*
X76935833Y-149572142D02*
X76888214Y-149619761D01*
X76935833Y-149667380D01*
X76983452Y-149619761D01*
X76935833Y-149572142D01*
X76935833Y-149667380D01*
X76935833Y-149048333D02*
X76888214Y-149095952D01*
X76935833Y-149143571D01*
X76983452Y-149095952D01*
X76935833Y-149048333D01*
X76935833Y-149143571D01*
X75745357Y-148619761D02*
X76602500Y-149905476D01*
X74697738Y-148619761D02*
X75554880Y-149905476D01*
X74459642Y-149000714D02*
X74269166Y-149667380D01*
X74078690Y-149191190D01*
X73888214Y-149667380D01*
X73697738Y-149000714D01*
X73412023Y-149000714D02*
X73221547Y-149667380D01*
X73031071Y-149191190D01*
X72840595Y-149667380D01*
X72650119Y-149000714D01*
X72364404Y-149000714D02*
X72173928Y-149667380D01*
X71983452Y-149191190D01*
X71792976Y-149667380D01*
X71602500Y-149000714D01*
X71221547Y-149572142D02*
X71173928Y-149619761D01*
X71221547Y-149667380D01*
X71269166Y-149619761D01*
X71221547Y-149572142D01*
X71221547Y-149667380D01*
X70745357Y-149000714D02*
X70745357Y-150000714D01*
X70745357Y-149048333D02*
X70650119Y-149000714D01*
X70459642Y-149000714D01*
X70364404Y-149048333D01*
X70316785Y-149095952D01*
X70269166Y-149191190D01*
X70269166Y-149476904D01*
X70316785Y-149572142D01*
X70364404Y-149619761D01*
X70459642Y-149667380D01*
X70650119Y-149667380D01*
X70745357Y-149619761D01*
X69412023Y-149667380D02*
X69412023Y-148667380D01*
X69412023Y-149619761D02*
X69507261Y-149667380D01*
X69697738Y-149667380D01*
X69792976Y-149619761D01*
X69840595Y-149572142D01*
X69888214Y-149476904D01*
X69888214Y-149191190D01*
X69840595Y-149095952D01*
X69792976Y-149048333D01*
X69697738Y-149000714D01*
X69507261Y-149000714D01*
X69412023Y-149048333D01*
X68935833Y-149000714D02*
X68935833Y-150000714D01*
X68935833Y-149048333D02*
X68840595Y-149000714D01*
X68650119Y-149000714D01*
X68554880Y-149048333D01*
X68507261Y-149095952D01*
X68459642Y-149191190D01*
X68459642Y-149476904D01*
X68507261Y-149572142D01*
X68554880Y-149619761D01*
X68650119Y-149667380D01*
X68840595Y-149667380D01*
X68935833Y-149619761D01*
X67888214Y-149095952D02*
X67983452Y-149048333D01*
X68031071Y-149000714D01*
X68078690Y-148905476D01*
X68078690Y-148857857D01*
X68031071Y-148762619D01*
X67983452Y-148715000D01*
X67888214Y-148667380D01*
X67697738Y-148667380D01*
X67602500Y-148715000D01*
X67554880Y-148762619D01*
X67507261Y-148857857D01*
X67507261Y-148905476D01*
X67554880Y-149000714D01*
X67602500Y-149048333D01*
X67697738Y-149095952D01*
X67888214Y-149095952D01*
X67983452Y-149143571D01*
X68031071Y-149191190D01*
X68078690Y-149286428D01*
X68078690Y-149476904D01*
X68031071Y-149572142D01*
X67983452Y-149619761D01*
X67888214Y-149667380D01*
X67697738Y-149667380D01*
X67602500Y-149619761D01*
X67554880Y-149572142D01*
X67507261Y-149476904D01*
X67507261Y-149286428D01*
X67554880Y-149191190D01*
X67602500Y-149143571D01*
X67697738Y-149095952D01*
X66935833Y-149667380D02*
X67031071Y-149619761D01*
X67078690Y-149572142D01*
X67126309Y-149476904D01*
X67126309Y-149191190D01*
X67078690Y-149095952D01*
X67031071Y-149048333D01*
X66935833Y-149000714D01*
X66792976Y-149000714D01*
X66697738Y-149048333D01*
X66650119Y-149095952D01*
X66602500Y-149191190D01*
X66602500Y-149476904D01*
X66650119Y-149572142D01*
X66697738Y-149619761D01*
X66792976Y-149667380D01*
X66935833Y-149667380D01*
X66173928Y-149000714D02*
X66173928Y-149667380D01*
X66173928Y-149095952D02*
X66126309Y-149048333D01*
X66031071Y-149000714D01*
X65888214Y-149000714D01*
X65792976Y-149048333D01*
X65745357Y-149143571D01*
X65745357Y-149667380D01*
X65126309Y-149667380D02*
X65221547Y-149619761D01*
X65269166Y-149524523D01*
X65269166Y-148667380D01*
X64745357Y-149667380D02*
X64745357Y-149000714D01*
X64745357Y-148667380D02*
X64792976Y-148715000D01*
X64745357Y-148762619D01*
X64697738Y-148715000D01*
X64745357Y-148667380D01*
X64745357Y-148762619D01*
X64269166Y-149000714D02*
X64269166Y-149667380D01*
X64269166Y-149095952D02*
X64221547Y-149048333D01*
X64126309Y-149000714D01*
X63983452Y-149000714D01*
X63888214Y-149048333D01*
X63840595Y-149143571D01*
X63840595Y-149667380D01*
X62983452Y-149619761D02*
X63078690Y-149667380D01*
X63269166Y-149667380D01*
X63364404Y-149619761D01*
X63412023Y-149524523D01*
X63412023Y-149143571D01*
X63364404Y-149048333D01*
X63269166Y-149000714D01*
X63078690Y-149000714D01*
X62983452Y-149048333D01*
X62935833Y-149143571D01*
X62935833Y-149238809D01*
X63412023Y-149334047D01*
X62507261Y-149572142D02*
X62459642Y-149619761D01*
X62507261Y-149667380D01*
X62554880Y-149619761D01*
X62507261Y-149572142D01*
X62507261Y-149667380D01*
X61602500Y-149619761D02*
X61697738Y-149667380D01*
X61888214Y-149667380D01*
X61983452Y-149619761D01*
X62031071Y-149572142D01*
X62078690Y-149476904D01*
X62078690Y-149191190D01*
X62031071Y-149095952D01*
X61983452Y-149048333D01*
X61888214Y-149000714D01*
X61697738Y-149000714D01*
X61602500Y-149048333D01*
X61031071Y-149667380D02*
X61126309Y-149619761D01*
X61173928Y-149572142D01*
X61221547Y-149476904D01*
X61221547Y-149191190D01*
X61173928Y-149095952D01*
X61126309Y-149048333D01*
X61031071Y-149000714D01*
X60888214Y-149000714D01*
X60792976Y-149048333D01*
X60745357Y-149095952D01*
X60697738Y-149191190D01*
X60697738Y-149476904D01*
X60745357Y-149572142D01*
X60792976Y-149619761D01*
X60888214Y-149667380D01*
X61031071Y-149667380D01*
X60269166Y-149667380D02*
X60269166Y-149000714D01*
X60269166Y-149095952D02*
X60221547Y-149048333D01*
X60126309Y-149000714D01*
X59983452Y-149000714D01*
X59888214Y-149048333D01*
X59840595Y-149143571D01*
X59840595Y-149667380D01*
X59840595Y-149143571D02*
X59792976Y-149048333D01*
X59697738Y-149000714D01*
X59554880Y-149000714D01*
X59459642Y-149048333D01*
X59412023Y-149143571D01*
X59412023Y-149667380D01*
X58221547Y-148619761D02*
X59078690Y-149905476D01*
X57888214Y-149667380D02*
X57888214Y-149000714D01*
X57888214Y-149095952D02*
X57840595Y-149048333D01*
X57745357Y-149000714D01*
X57602500Y-149000714D01*
X57507261Y-149048333D01*
X57459642Y-149143571D01*
X57459642Y-149667380D01*
X57459642Y-149143571D02*
X57412023Y-149048333D01*
X57316785Y-149000714D01*
X57173928Y-149000714D01*
X57078690Y-149048333D01*
X57031071Y-149143571D01*
X57031071Y-149667380D01*
X56697738Y-149000714D02*
X56316785Y-149000714D01*
X56554880Y-149667380D02*
X56554880Y-148810238D01*
X56507261Y-148715000D01*
X56412023Y-148667380D01*
X56316785Y-148667380D01*
X55983452Y-149667380D02*
X55983452Y-149000714D01*
X55983452Y-149095952D02*
X55935833Y-149048333D01*
X55840595Y-149000714D01*
X55697738Y-149000714D01*
X55602500Y-149048333D01*
X55554880Y-149143571D01*
X55554880Y-149667380D01*
X55554880Y-149143571D02*
X55507261Y-149048333D01*
X55412023Y-149000714D01*
X55269166Y-149000714D01*
X55173928Y-149048333D01*
X55126309Y-149143571D01*
X55126309Y-149667380D01*
X53935833Y-148619761D02*
X54792976Y-149905476D01*
D11*
X108168333Y-152516666D02*
X108168333Y-151816666D01*
X107901666Y-151816666D01*
X107835000Y-151850000D01*
X107801666Y-151883333D01*
X107768333Y-151950000D01*
X107768333Y-152050000D01*
X107801666Y-152116666D01*
X107835000Y-152150000D01*
X107901666Y-152183333D01*
X108168333Y-152183333D01*
X107535000Y-151816666D02*
X107368333Y-152516666D01*
X107235000Y-152016666D01*
X107101666Y-152516666D01*
X106935000Y-151816666D01*
X106268333Y-152516666D02*
X106501666Y-152183333D01*
X106668333Y-152516666D02*
X106668333Y-151816666D01*
X106401666Y-151816666D01*
X106335000Y-151850000D01*
X106301666Y-151883333D01*
X106268333Y-151950000D01*
X106268333Y-152050000D01*
X106301666Y-152116666D01*
X106335000Y-152150000D01*
X106401666Y-152183333D01*
X106668333Y-152183333D01*
X105201666Y-152150000D02*
X105101666Y-152183333D01*
X105068333Y-152216666D01*
X105035000Y-152283333D01*
X105035000Y-152383333D01*
X105068333Y-152450000D01*
X105101666Y-152483333D01*
X105168333Y-152516666D01*
X105435000Y-152516666D01*
X105435000Y-151816666D01*
X105201666Y-151816666D01*
X105135000Y-151850000D01*
X105101666Y-151883333D01*
X105068333Y-151950000D01*
X105068333Y-152016666D01*
X105101666Y-152083333D01*
X105135000Y-152116666D01*
X105201666Y-152150000D01*
X105435000Y-152150000D01*
X104435000Y-152050000D02*
X104435000Y-152516666D01*
X104735000Y-152050000D02*
X104735000Y-152416666D01*
X104701666Y-152483333D01*
X104635000Y-152516666D01*
X104535000Y-152516666D01*
X104468333Y-152483333D01*
X104435000Y-152450000D01*
X104201666Y-152050000D02*
X103935000Y-152050000D01*
X104101666Y-151816666D02*
X104101666Y-152416666D01*
X104068333Y-152483333D01*
X104001666Y-152516666D01*
X103935000Y-152516666D01*
X103801666Y-152050000D02*
X103535000Y-152050000D01*
X103701666Y-151816666D02*
X103701666Y-152416666D01*
X103668333Y-152483333D01*
X103601666Y-152516666D01*
X103535000Y-152516666D01*
X103201666Y-152516666D02*
X103268333Y-152483333D01*
X103301666Y-152450000D01*
X103335000Y-152383333D01*
X103335000Y-152183333D01*
X103301666Y-152116666D01*
X103268333Y-152083333D01*
X103201666Y-152050000D01*
X103101666Y-152050000D01*
X103035000Y-152083333D01*
X103001666Y-152116666D01*
X102968333Y-152183333D01*
X102968333Y-152383333D01*
X103001666Y-152450000D01*
X103035000Y-152483333D01*
X103101666Y-152516666D01*
X103201666Y-152516666D01*
X102668333Y-152050000D02*
X102668333Y-152516666D01*
X102668333Y-152116666D02*
X102635000Y-152083333D01*
X102568333Y-152050000D01*
X102468333Y-152050000D01*
X102401666Y-152083333D01*
X102368333Y-152150000D01*
X102368333Y-152516666D01*
D10*
X100185714Y-119752142D02*
X100233333Y-119799761D01*
X100376190Y-119847380D01*
X100471428Y-119847380D01*
X100614285Y-119799761D01*
X100709523Y-119704523D01*
X100757142Y-119609285D01*
X100804761Y-119418809D01*
X100804761Y-119275952D01*
X100757142Y-119085476D01*
X100709523Y-118990238D01*
X100614285Y-118895000D01*
X100471428Y-118847380D01*
X100376190Y-118847380D01*
X100233333Y-118895000D01*
X100185714Y-118942619D01*
X99328571Y-119180714D02*
X99328571Y-119847380D01*
X99757142Y-119180714D02*
X99757142Y-119704523D01*
X99709523Y-119799761D01*
X99614285Y-119847380D01*
X99471428Y-119847380D01*
X99376190Y-119799761D01*
X99328571Y-119752142D01*
X98995238Y-119180714D02*
X98614285Y-119180714D01*
X98852380Y-118847380D02*
X98852380Y-119704523D01*
X98804761Y-119799761D01*
X98709523Y-119847380D01*
X98614285Y-119847380D01*
X97661904Y-119180714D02*
X97280952Y-119180714D01*
X97519047Y-118847380D02*
X97519047Y-119704523D01*
X97471428Y-119799761D01*
X97376190Y-119847380D01*
X97280952Y-119847380D01*
X96804761Y-119847380D02*
X96900000Y-119799761D01*
X96947619Y-119752142D01*
X96995238Y-119656904D01*
X96995238Y-119371190D01*
X96947619Y-119275952D01*
X96900000Y-119228333D01*
X96804761Y-119180714D01*
X96661904Y-119180714D01*
X96566666Y-119228333D01*
X96519047Y-119275952D01*
X96471428Y-119371190D01*
X96471428Y-119656904D01*
X96519047Y-119752142D01*
X96566666Y-119799761D01*
X96661904Y-119847380D01*
X96804761Y-119847380D01*
X94900000Y-119799761D02*
X94995238Y-119847380D01*
X95185714Y-119847380D01*
X95280952Y-119799761D01*
X95328571Y-119704523D01*
X95328571Y-119323571D01*
X95280952Y-119228333D01*
X95185714Y-119180714D01*
X94995238Y-119180714D01*
X94900000Y-119228333D01*
X94852380Y-119323571D01*
X94852380Y-119418809D01*
X95328571Y-119514047D01*
X94423809Y-119180714D02*
X94423809Y-119847380D01*
X94423809Y-119275952D02*
X94376190Y-119228333D01*
X94280952Y-119180714D01*
X94138095Y-119180714D01*
X94042857Y-119228333D01*
X93995238Y-119323571D01*
X93995238Y-119847380D01*
X93090476Y-119847380D02*
X93090476Y-119323571D01*
X93138095Y-119228333D01*
X93233333Y-119180714D01*
X93423809Y-119180714D01*
X93519047Y-119228333D01*
X93090476Y-119799761D02*
X93185714Y-119847380D01*
X93423809Y-119847380D01*
X93519047Y-119799761D01*
X93566666Y-119704523D01*
X93566666Y-119609285D01*
X93519047Y-119514047D01*
X93423809Y-119466428D01*
X93185714Y-119466428D01*
X93090476Y-119418809D01*
X92614285Y-119847380D02*
X92614285Y-118847380D01*
X92614285Y-119228333D02*
X92519047Y-119180714D01*
X92328571Y-119180714D01*
X92233333Y-119228333D01*
X92185714Y-119275952D01*
X92138095Y-119371190D01*
X92138095Y-119656904D01*
X92185714Y-119752142D01*
X92233333Y-119799761D01*
X92328571Y-119847380D01*
X92519047Y-119847380D01*
X92614285Y-119799761D01*
X91566666Y-119847380D02*
X91661904Y-119799761D01*
X91709523Y-119704523D01*
X91709523Y-118847380D01*
X90804761Y-119799761D02*
X90900000Y-119847380D01*
X91090476Y-119847380D01*
X91185714Y-119799761D01*
X91233333Y-119704523D01*
X91233333Y-119323571D01*
X91185714Y-119228333D01*
X91090476Y-119180714D01*
X90900000Y-119180714D01*
X90804761Y-119228333D01*
X90757142Y-119323571D01*
X90757142Y-119418809D01*
X91233333Y-119514047D01*
X101114285Y-121457380D02*
X101114285Y-120457380D01*
X101114285Y-121409761D02*
X101209523Y-121457380D01*
X101400000Y-121457380D01*
X101495238Y-121409761D01*
X101542857Y-121362142D01*
X101590476Y-121266904D01*
X101590476Y-120981190D01*
X101542857Y-120885952D01*
X101495238Y-120838333D01*
X101400000Y-120790714D01*
X101209523Y-120790714D01*
X101114285Y-120838333D01*
X100638095Y-121457380D02*
X100638095Y-120790714D01*
X100638095Y-120457380D02*
X100685714Y-120505000D01*
X100638095Y-120552619D01*
X100590476Y-120505000D01*
X100638095Y-120457380D01*
X100638095Y-120552619D01*
X100209523Y-121409761D02*
X100114285Y-121457380D01*
X99923809Y-121457380D01*
X99828571Y-121409761D01*
X99780952Y-121314523D01*
X99780952Y-121266904D01*
X99828571Y-121171666D01*
X99923809Y-121124047D01*
X100066666Y-121124047D01*
X100161904Y-121076428D01*
X100209523Y-120981190D01*
X100209523Y-120933571D01*
X100161904Y-120838333D01*
X100066666Y-120790714D01*
X99923809Y-120790714D01*
X99828571Y-120838333D01*
X98923809Y-121409761D02*
X99019047Y-121457380D01*
X99209523Y-121457380D01*
X99304761Y-121409761D01*
X99352380Y-121362142D01*
X99400000Y-121266904D01*
X99400000Y-120981190D01*
X99352380Y-120885952D01*
X99304761Y-120838333D01*
X99209523Y-120790714D01*
X99019047Y-120790714D01*
X98923809Y-120838333D01*
X98495238Y-121457380D02*
X98495238Y-120457380D01*
X98066666Y-121457380D02*
X98066666Y-120933571D01*
X98114285Y-120838333D01*
X98209523Y-120790714D01*
X98352380Y-120790714D01*
X98447619Y-120838333D01*
X98495238Y-120885952D01*
X97161904Y-121457380D02*
X97161904Y-120933571D01*
X97209523Y-120838333D01*
X97304761Y-120790714D01*
X97495238Y-120790714D01*
X97590476Y-120838333D01*
X97161904Y-121409761D02*
X97257142Y-121457380D01*
X97495238Y-121457380D01*
X97590476Y-121409761D01*
X97638095Y-121314523D01*
X97638095Y-121219285D01*
X97590476Y-121124047D01*
X97495238Y-121076428D01*
X97257142Y-121076428D01*
X97161904Y-121028809D01*
X96685714Y-121457380D02*
X96685714Y-120790714D01*
X96685714Y-120981190D02*
X96638095Y-120885952D01*
X96590476Y-120838333D01*
X96495238Y-120790714D01*
X96400000Y-120790714D01*
X95638095Y-120790714D02*
X95638095Y-121600238D01*
X95685714Y-121695476D01*
X95733333Y-121743095D01*
X95828571Y-121790714D01*
X95971428Y-121790714D01*
X96066666Y-121743095D01*
X95638095Y-121409761D02*
X95733333Y-121457380D01*
X95923809Y-121457380D01*
X96019047Y-121409761D01*
X96066666Y-121362142D01*
X96114285Y-121266904D01*
X96114285Y-120981190D01*
X96066666Y-120885952D01*
X96019047Y-120838333D01*
X95923809Y-120790714D01*
X95733333Y-120790714D01*
X95638095Y-120838333D01*
X94780952Y-121409761D02*
X94876190Y-121457380D01*
X95066666Y-121457380D01*
X95161904Y-121409761D01*
X95209523Y-121314523D01*
X95209523Y-120933571D01*
X95161904Y-120838333D01*
X95066666Y-120790714D01*
X94876190Y-120790714D01*
X94780952Y-120838333D01*
X94733333Y-120933571D01*
X94733333Y-121028809D01*
X95209523Y-121124047D01*
X93114285Y-121409761D02*
X93209523Y-121457380D01*
X93400000Y-121457380D01*
X93495238Y-121409761D01*
X93542857Y-121362142D01*
X93590476Y-121266904D01*
X93590476Y-120981190D01*
X93542857Y-120885952D01*
X93495238Y-120838333D01*
X93400000Y-120790714D01*
X93209523Y-120790714D01*
X93114285Y-120838333D01*
X92685714Y-121457380D02*
X92685714Y-120790714D01*
X92685714Y-120457380D02*
X92733333Y-120505000D01*
X92685714Y-120552619D01*
X92638095Y-120505000D01*
X92685714Y-120457380D01*
X92685714Y-120552619D01*
X92209523Y-121457380D02*
X92209523Y-120790714D01*
X92209523Y-120981190D02*
X92161904Y-120885952D01*
X92114285Y-120838333D01*
X92019047Y-120790714D01*
X91923809Y-120790714D01*
X91161904Y-121409761D02*
X91257142Y-121457380D01*
X91447619Y-121457380D01*
X91542857Y-121409761D01*
X91590476Y-121362142D01*
X91638095Y-121266904D01*
X91638095Y-120981190D01*
X91590476Y-120885952D01*
X91542857Y-120838333D01*
X91447619Y-120790714D01*
X91257142Y-120790714D01*
X91161904Y-120838333D01*
X90304761Y-120790714D02*
X90304761Y-121457380D01*
X90733333Y-120790714D02*
X90733333Y-121314523D01*
X90685714Y-121409761D01*
X90590476Y-121457380D01*
X90447619Y-121457380D01*
X90352380Y-121409761D01*
X90304761Y-121362142D01*
X89828571Y-121457380D02*
X89828571Y-120790714D01*
X89828571Y-120457380D02*
X89876190Y-120505000D01*
X89828571Y-120552619D01*
X89780952Y-120505000D01*
X89828571Y-120457380D01*
X89828571Y-120552619D01*
X89495238Y-120790714D02*
X89114285Y-120790714D01*
X89352380Y-120457380D02*
X89352380Y-121314523D01*
X89304761Y-121409761D01*
X89209523Y-121457380D01*
X89114285Y-121457380D01*
X70033333Y-133175714D02*
X69652380Y-133175714D01*
X69890476Y-133842380D02*
X69890476Y-132985238D01*
X69842857Y-132890000D01*
X69747619Y-132842380D01*
X69652380Y-132842380D01*
X69176190Y-133842380D02*
X69271428Y-133794761D01*
X69319047Y-133747142D01*
X69366666Y-133651904D01*
X69366666Y-133366190D01*
X69319047Y-133270952D01*
X69271428Y-133223333D01*
X69176190Y-133175714D01*
X69033333Y-133175714D01*
X68938095Y-133223333D01*
X68890476Y-133270952D01*
X68842857Y-133366190D01*
X68842857Y-133651904D01*
X68890476Y-133747142D01*
X68938095Y-133794761D01*
X69033333Y-133842380D01*
X69176190Y-133842380D01*
X68414285Y-133842380D02*
X68414285Y-133175714D01*
X68414285Y-133366190D02*
X68366666Y-133270952D01*
X68319047Y-133223333D01*
X68223809Y-133175714D01*
X68128571Y-133175714D01*
X72700000Y-135452380D02*
X73033333Y-134976190D01*
X73271428Y-135452380D02*
X73271428Y-134452380D01*
X72890476Y-134452380D01*
X72795238Y-134500000D01*
X72747619Y-134547619D01*
X72700000Y-134642857D01*
X72700000Y-134785714D01*
X72747619Y-134880952D01*
X72795238Y-134928571D01*
X72890476Y-134976190D01*
X73271428Y-134976190D01*
X71842857Y-135452380D02*
X71842857Y-134928571D01*
X71890476Y-134833333D01*
X71985714Y-134785714D01*
X72176190Y-134785714D01*
X72271428Y-134833333D01*
X71842857Y-135404761D02*
X71938095Y-135452380D01*
X72176190Y-135452380D01*
X72271428Y-135404761D01*
X72319047Y-135309523D01*
X72319047Y-135214285D01*
X72271428Y-135119047D01*
X72176190Y-135071428D01*
X71938095Y-135071428D01*
X71842857Y-135023809D01*
X71414285Y-135404761D02*
X71319047Y-135452380D01*
X71128571Y-135452380D01*
X71033333Y-135404761D01*
X70985714Y-135309523D01*
X70985714Y-135261904D01*
X71033333Y-135166666D01*
X71128571Y-135119047D01*
X71271428Y-135119047D01*
X71366666Y-135071428D01*
X71414285Y-134976190D01*
X71414285Y-134928571D01*
X71366666Y-134833333D01*
X71271428Y-134785714D01*
X71128571Y-134785714D01*
X71033333Y-134833333D01*
X70557142Y-134785714D02*
X70557142Y-135785714D01*
X70557142Y-134833333D02*
X70461904Y-134785714D01*
X70271428Y-134785714D01*
X70176190Y-134833333D01*
X70128571Y-134880952D01*
X70080952Y-134976190D01*
X70080952Y-135261904D01*
X70128571Y-135357142D01*
X70176190Y-135404761D01*
X70271428Y-135452380D01*
X70461904Y-135452380D01*
X70557142Y-135404761D01*
X69652380Y-135452380D02*
X69652380Y-134452380D01*
X69652380Y-134833333D02*
X69557142Y-134785714D01*
X69366666Y-134785714D01*
X69271428Y-134833333D01*
X69223809Y-134880952D01*
X69176190Y-134976190D01*
X69176190Y-135261904D01*
X69223809Y-135357142D01*
X69271428Y-135404761D01*
X69366666Y-135452380D01*
X69557142Y-135452380D01*
X69652380Y-135404761D01*
X68366666Y-135404761D02*
X68461904Y-135452380D01*
X68652380Y-135452380D01*
X68747619Y-135404761D01*
X68795238Y-135309523D01*
X68795238Y-134928571D01*
X68747619Y-134833333D01*
X68652380Y-134785714D01*
X68461904Y-134785714D01*
X68366666Y-134833333D01*
X68319047Y-134928571D01*
X68319047Y-135023809D01*
X68795238Y-135119047D01*
X67890476Y-135452380D02*
X67890476Y-134785714D01*
X67890476Y-134976190D02*
X67842857Y-134880952D01*
X67795238Y-134833333D01*
X67700000Y-134785714D01*
X67604761Y-134785714D01*
X67271428Y-135452380D02*
X67271428Y-134785714D01*
X67271428Y-134976190D02*
X67223809Y-134880952D01*
X67176190Y-134833333D01*
X67080952Y-134785714D01*
X66985714Y-134785714D01*
X66747619Y-134785714D02*
X66509523Y-135452380D01*
X66271428Y-134785714D02*
X66509523Y-135452380D01*
X66604761Y-135690476D01*
X66652380Y-135738095D01*
X66747619Y-135785714D01*
X65128571Y-135452380D02*
X65128571Y-134452380D01*
X64747619Y-134452380D01*
X64652380Y-134500000D01*
X64604761Y-134547619D01*
X64557142Y-134642857D01*
X64557142Y-134785714D01*
X64604761Y-134880952D01*
X64652380Y-134928571D01*
X64747619Y-134976190D01*
X65128571Y-134976190D01*
X64128571Y-135452380D02*
X64128571Y-134785714D01*
X64128571Y-134452380D02*
X64176190Y-134500000D01*
X64128571Y-134547619D01*
X64080952Y-134500000D01*
X64128571Y-134452380D01*
X64128571Y-134547619D01*
X70128571Y-136395714D02*
X69890476Y-137062380D01*
X69652380Y-136395714D01*
X68747619Y-137062380D02*
X69319047Y-137062380D01*
X69033333Y-137062380D02*
X69033333Y-136062380D01*
X69128571Y-136205238D01*
X69223809Y-136300476D01*
X69319047Y-136348095D01*
X68319047Y-136967142D02*
X68271428Y-137014761D01*
X68319047Y-137062380D01*
X68366666Y-137014761D01*
X68319047Y-136967142D01*
X68319047Y-137062380D01*
X67652380Y-136062380D02*
X67557142Y-136062380D01*
X67461904Y-136110000D01*
X67414285Y-136157619D01*
X67366666Y-136252857D01*
X67319047Y-136443333D01*
X67319047Y-136681428D01*
X67366666Y-136871904D01*
X67414285Y-136967142D01*
X67461904Y-137014761D01*
X67557142Y-137062380D01*
X67652380Y-137062380D01*
X67747619Y-137014761D01*
X67795238Y-136967142D01*
X67842857Y-136871904D01*
X67890476Y-136681428D01*
X67890476Y-136443333D01*
X67842857Y-136252857D01*
X67795238Y-136157619D01*
X67747619Y-136110000D01*
X67652380Y-136062380D01*
D11*
X51278666Y-112864000D02*
X51245333Y-112764000D01*
X51245333Y-112597333D01*
X51278666Y-112530666D01*
X51312000Y-112497333D01*
X51378666Y-112464000D01*
X51445333Y-112464000D01*
X51512000Y-112497333D01*
X51545333Y-112530666D01*
X51578666Y-112597333D01*
X51612000Y-112730666D01*
X51645333Y-112797333D01*
X51678666Y-112830666D01*
X51745333Y-112864000D01*
X51812000Y-112864000D01*
X51878666Y-112830666D01*
X51912000Y-112797333D01*
X51945333Y-112730666D01*
X51945333Y-112564000D01*
X51912000Y-112464000D01*
X51245333Y-112164000D02*
X51945333Y-112164000D01*
X51945333Y-111997333D01*
X51912000Y-111897333D01*
X51845333Y-111830666D01*
X51778666Y-111797333D01*
X51645333Y-111764000D01*
X51545333Y-111764000D01*
X51412000Y-111797333D01*
X51345333Y-111830666D01*
X51278666Y-111897333D01*
X51245333Y-111997333D01*
X51245333Y-112164000D01*
X51445333Y-111497333D02*
X51445333Y-111164000D01*
X51245333Y-111564000D02*
X51945333Y-111330666D01*
X51245333Y-111097333D01*
X93778770Y-117050000D02*
X93945437Y-117050000D01*
X93820437Y-116050000D01*
X93653770Y-116050000D01*
X93262104Y-116116666D02*
X93128770Y-116116666D01*
X93066270Y-116150000D01*
X93007937Y-116216666D01*
X92991270Y-116350000D01*
X93020437Y-116583333D01*
X93070437Y-116716666D01*
X93145437Y-116783333D01*
X93216270Y-116816666D01*
X93349604Y-116816666D01*
X93412104Y-116783333D01*
X93470437Y-116716666D01*
X93487104Y-116583333D01*
X93457937Y-116350000D01*
X93407937Y-116216666D01*
X93332937Y-116150000D01*
X93262104Y-116116666D01*
X92691270Y-116350000D02*
X92778770Y-117050000D01*
X92695437Y-116383333D02*
X92624604Y-116350000D01*
X92491270Y-116350000D01*
X92428770Y-116383333D01*
X92399604Y-116416666D01*
X92374604Y-116483333D01*
X92399604Y-116683333D01*
X92441270Y-116750000D01*
X92478770Y-116783333D01*
X92549604Y-116816666D01*
X92682937Y-116816666D01*
X92745437Y-116783333D01*
X92157937Y-116350000D02*
X91891270Y-116350000D01*
X92028770Y-116116666D02*
X92103770Y-116716666D01*
X92078770Y-116783333D01*
X92016270Y-116816666D01*
X91949604Y-116816666D01*
X91716270Y-116816666D02*
X91657937Y-116350000D01*
X91628770Y-116116666D02*
X91666270Y-116150000D01*
X91637104Y-116183333D01*
X91599604Y-116150000D01*
X91628770Y-116116666D01*
X91637104Y-116183333D01*
X91282937Y-116816666D02*
X91345437Y-116783333D01*
X91374604Y-116750000D01*
X91399604Y-116683333D01*
X91374604Y-116483333D01*
X91332937Y-116416666D01*
X91295437Y-116383333D01*
X91224604Y-116350000D01*
X91124604Y-116350000D01*
X91062104Y-116383333D01*
X91032937Y-116416666D01*
X91007937Y-116483333D01*
X91032937Y-116683333D01*
X91074604Y-116750000D01*
X91112104Y-116783333D01*
X91182937Y-116816666D01*
X91282937Y-116816666D01*
X90691270Y-116350000D02*
X90749604Y-116816666D01*
X90699604Y-116416666D02*
X90662104Y-116383333D01*
X90591270Y-116350000D01*
X90491270Y-116350000D01*
X90428770Y-116383333D01*
X90403770Y-116450000D01*
X90449604Y-116816666D01*
X89816270Y-116816666D02*
X89770437Y-116450000D01*
X89795437Y-116383333D01*
X89857937Y-116350000D01*
X89991270Y-116350000D01*
X90062104Y-116383333D01*
X89812104Y-116783333D02*
X89882937Y-116816666D01*
X90049604Y-116816666D01*
X90112104Y-116783333D01*
X90137104Y-116716666D01*
X90128770Y-116650000D01*
X90087104Y-116583333D01*
X90016270Y-116550000D01*
X89849604Y-116550000D01*
X89778770Y-116516666D01*
X89382937Y-116816666D02*
X89445437Y-116783333D01*
X89470437Y-116716666D01*
X89395437Y-116116666D01*
X89212104Y-117050000D02*
X89045437Y-117050000D01*
X88920437Y-116050000D01*
X89087104Y-116050000D01*
X101501666Y-152316666D02*
X101168333Y-152316666D01*
X101568333Y-152516666D02*
X101335000Y-151816666D01*
X101101666Y-152516666D01*
X100568333Y-152050000D02*
X100568333Y-152516666D01*
X100868333Y-152050000D02*
X100868333Y-152416666D01*
X100835000Y-152483333D01*
X100768333Y-152516666D01*
X100668333Y-152516666D01*
X100601666Y-152483333D01*
X100568333Y-152450000D01*
X100301666Y-152516666D02*
X99935000Y-152050000D01*
X100301666Y-152050000D02*
X99935000Y-152516666D01*
X98901666Y-152150000D02*
X98801666Y-152183333D01*
X98768333Y-152216666D01*
X98735000Y-152283333D01*
X98735000Y-152383333D01*
X98768333Y-152450000D01*
X98801666Y-152483333D01*
X98868333Y-152516666D01*
X99135000Y-152516666D01*
X99135000Y-151816666D01*
X98901666Y-151816666D01*
X98835000Y-151850000D01*
X98801666Y-151883333D01*
X98768333Y-151950000D01*
X98768333Y-152016666D01*
X98801666Y-152083333D01*
X98835000Y-152116666D01*
X98901666Y-152150000D01*
X99135000Y-152150000D01*
X98135000Y-152050000D02*
X98135000Y-152516666D01*
X98435000Y-152050000D02*
X98435000Y-152416666D01*
X98401666Y-152483333D01*
X98335000Y-152516666D01*
X98235000Y-152516666D01*
X98168333Y-152483333D01*
X98135000Y-152450000D01*
X97901666Y-152050000D02*
X97635000Y-152050000D01*
X97801666Y-151816666D02*
X97801666Y-152416666D01*
X97768333Y-152483333D01*
X97701666Y-152516666D01*
X97635000Y-152516666D01*
X97501666Y-152050000D02*
X97235000Y-152050000D01*
X97401666Y-151816666D02*
X97401666Y-152416666D01*
X97368333Y-152483333D01*
X97301666Y-152516666D01*
X97235000Y-152516666D01*
X96901666Y-152516666D02*
X96968333Y-152483333D01*
X97001666Y-152450000D01*
X97035000Y-152383333D01*
X97035000Y-152183333D01*
X97001666Y-152116666D01*
X96968333Y-152083333D01*
X96901666Y-152050000D01*
X96801666Y-152050000D01*
X96735000Y-152083333D01*
X96701666Y-152116666D01*
X96668333Y-152183333D01*
X96668333Y-152383333D01*
X96701666Y-152450000D01*
X96735000Y-152483333D01*
X96801666Y-152516666D01*
X96901666Y-152516666D01*
X96368333Y-152050000D02*
X96368333Y-152516666D01*
X96368333Y-152116666D02*
X96335000Y-152083333D01*
X96268333Y-152050000D01*
X96168333Y-152050000D01*
X96101666Y-152083333D01*
X96068333Y-152150000D01*
X96068333Y-152516666D01*
X51183333Y-127666666D02*
X51516666Y-127900000D01*
X51183333Y-128066666D02*
X51883333Y-128066666D01*
X51883333Y-127800000D01*
X51850000Y-127733333D01*
X51816666Y-127700000D01*
X51750000Y-127666666D01*
X51650000Y-127666666D01*
X51583333Y-127700000D01*
X51550000Y-127733333D01*
X51516666Y-127800000D01*
X51516666Y-128066666D01*
X51883333Y-127433333D02*
X51183333Y-126966666D01*
X51883333Y-126966666D02*
X51183333Y-127433333D01*
X51183333Y-126700000D02*
X51883333Y-126700000D01*
X51883333Y-126533333D01*
X51850000Y-126433333D01*
X51783333Y-126366666D01*
X51716666Y-126333333D01*
X51583333Y-126300000D01*
X51483333Y-126300000D01*
X51350000Y-126333333D01*
X51283333Y-126366666D01*
X51216666Y-126433333D01*
X51183333Y-126533333D01*
X51183333Y-126700000D01*
X51945333Y-133217333D02*
X51945333Y-132817333D01*
X51245333Y-133017333D02*
X51945333Y-133017333D01*
X51945333Y-132650666D02*
X51245333Y-132184000D01*
X51945333Y-132184000D02*
X51245333Y-132650666D01*
X51245333Y-131917333D02*
X51945333Y-131917333D01*
X51945333Y-131750666D01*
X51912000Y-131650666D01*
X51845333Y-131584000D01*
X51778666Y-131550666D01*
X51645333Y-131517333D01*
X51545333Y-131517333D01*
X51412000Y-131550666D01*
X51345333Y-131584000D01*
X51278666Y-131650666D01*
X51245333Y-131750666D01*
X51245333Y-131917333D01*
X59216666Y-130850000D02*
X59183333Y-130750000D01*
X59183333Y-130583333D01*
X59216666Y-130516666D01*
X59250000Y-130483333D01*
X59316666Y-130450000D01*
X59383333Y-130450000D01*
X59450000Y-130483333D01*
X59483333Y-130516666D01*
X59516666Y-130583333D01*
X59550000Y-130716666D01*
X59583333Y-130783333D01*
X59616666Y-130816666D01*
X59683333Y-130850000D01*
X59750000Y-130850000D01*
X59816666Y-130816666D01*
X59850000Y-130783333D01*
X59883333Y-130716666D01*
X59883333Y-130550000D01*
X59850000Y-130450000D01*
X59883333Y-130250000D02*
X59883333Y-129850000D01*
X59183333Y-130050000D02*
X59883333Y-130050000D01*
X59183333Y-129283333D02*
X59183333Y-129616666D01*
X59883333Y-129616666D01*
X59183333Y-129050000D02*
X59650000Y-129050000D01*
X59883333Y-129050000D02*
X59850000Y-129083333D01*
X59816666Y-129050000D01*
X59850000Y-129016666D01*
X59883333Y-129050000D01*
X59816666Y-129050000D01*
X59650000Y-128716666D02*
X59183333Y-128716666D01*
X59583333Y-128716666D02*
X59616666Y-128683333D01*
X59650000Y-128616666D01*
X59650000Y-128516666D01*
X59616666Y-128450000D01*
X59550000Y-128416666D01*
X59183333Y-128416666D01*
X59183333Y-128083333D02*
X59883333Y-128083333D01*
X59450000Y-128016666D02*
X59183333Y-127816666D01*
X59650000Y-127816666D02*
X59383333Y-128083333D01*
X59883333Y-127616666D02*
X59183333Y-127383333D01*
X59883333Y-127150000D01*
X59816666Y-126950000D02*
X59850000Y-126916666D01*
X59883333Y-126850000D01*
X59883333Y-126683333D01*
X59850000Y-126616666D01*
X59816666Y-126583333D01*
X59750000Y-126550000D01*
X59683333Y-126550000D01*
X59583333Y-126583333D01*
X59183333Y-126983333D01*
X59183333Y-126550000D01*
X58016666Y-128466666D02*
X57983333Y-128366666D01*
X57983333Y-128200000D01*
X58016666Y-128133333D01*
X58050000Y-128100000D01*
X58116666Y-128066666D01*
X58183333Y-128066666D01*
X58250000Y-128100000D01*
X58283333Y-128133333D01*
X58316666Y-128200000D01*
X58350000Y-128333333D01*
X58383333Y-128400000D01*
X58416666Y-128433333D01*
X58483333Y-128466666D01*
X58550000Y-128466666D01*
X58616666Y-128433333D01*
X58650000Y-128400000D01*
X58683333Y-128333333D01*
X58683333Y-128166666D01*
X58650000Y-128066666D01*
X58683333Y-127833333D02*
X57983333Y-127666666D01*
X58483333Y-127533333D01*
X57983333Y-127400000D01*
X58683333Y-127233333D01*
X57983333Y-126966666D02*
X58683333Y-126966666D01*
X57983333Y-126633333D02*
X58683333Y-126633333D01*
X58183333Y-126400000D01*
X58683333Y-126166666D01*
X57983333Y-126166666D01*
X51278666Y-115387333D02*
X51245333Y-115287333D01*
X51245333Y-115120666D01*
X51278666Y-115054000D01*
X51312000Y-115020666D01*
X51378666Y-114987333D01*
X51445333Y-114987333D01*
X51512000Y-115020666D01*
X51545333Y-115054000D01*
X51578666Y-115120666D01*
X51612000Y-115254000D01*
X51645333Y-115320666D01*
X51678666Y-115354000D01*
X51745333Y-115387333D01*
X51812000Y-115387333D01*
X51878666Y-115354000D01*
X51912000Y-115320666D01*
X51945333Y-115254000D01*
X51945333Y-115087333D01*
X51912000Y-114987333D01*
X51312000Y-114287333D02*
X51278666Y-114320666D01*
X51245333Y-114420666D01*
X51245333Y-114487333D01*
X51278666Y-114587333D01*
X51345333Y-114654000D01*
X51412000Y-114687333D01*
X51545333Y-114720666D01*
X51645333Y-114720666D01*
X51778666Y-114687333D01*
X51845333Y-114654000D01*
X51912000Y-114587333D01*
X51945333Y-114487333D01*
X51945333Y-114420666D01*
X51912000Y-114320666D01*
X51878666Y-114287333D01*
X51245333Y-113654000D02*
X51245333Y-113987333D01*
X51945333Y-113987333D01*
X109366666Y-126716666D02*
X109133333Y-127416666D01*
X108900000Y-126716666D01*
X108666666Y-127416666D02*
X108666666Y-126716666D01*
X108333333Y-127416666D02*
X108333333Y-126716666D01*
X107933333Y-127416666D01*
X107933333Y-126716666D01*
X54050000Y-124416666D02*
X54050000Y-124983333D01*
X54016666Y-125050000D01*
X53983333Y-125083333D01*
X53916666Y-125116666D01*
X53783333Y-125116666D01*
X53716666Y-125083333D01*
X53683333Y-125050000D01*
X53650000Y-124983333D01*
X53650000Y-124416666D01*
X53350000Y-124916666D02*
X53016666Y-124916666D01*
X53416666Y-125116666D02*
X53183333Y-124416666D01*
X52950000Y-125116666D01*
X52316666Y-125116666D02*
X52550000Y-124783333D01*
X52716666Y-125116666D02*
X52716666Y-124416666D01*
X52450000Y-124416666D01*
X52383333Y-124450000D01*
X52350000Y-124483333D01*
X52316666Y-124550000D01*
X52316666Y-124650000D01*
X52350000Y-124716666D01*
X52383333Y-124750000D01*
X52450000Y-124783333D01*
X52716666Y-124783333D01*
X52116666Y-124416666D02*
X51716666Y-124416666D01*
X51916666Y-125116666D02*
X51916666Y-124416666D01*
X51116666Y-125116666D02*
X51516666Y-125116666D01*
X51316666Y-125116666D02*
X51316666Y-124416666D01*
X51383333Y-124516666D01*
X51450000Y-124583333D01*
X51516666Y-124616666D01*
D10*
X96626666Y-107912380D02*
X96626666Y-106912380D01*
X96198095Y-107912380D02*
X96198095Y-107388571D01*
X96245714Y-107293333D01*
X96340952Y-107245714D01*
X96483809Y-107245714D01*
X96579047Y-107293333D01*
X96626666Y-107340952D01*
X95864761Y-107245714D02*
X95483809Y-107245714D01*
X95721904Y-106912380D02*
X95721904Y-107769523D01*
X95674285Y-107864761D01*
X95579047Y-107912380D01*
X95483809Y-107912380D01*
X95293333Y-107245714D02*
X94912380Y-107245714D01*
X95150476Y-106912380D02*
X95150476Y-107769523D01*
X95102857Y-107864761D01*
X95007619Y-107912380D01*
X94912380Y-107912380D01*
X94579047Y-107245714D02*
X94579047Y-108245714D01*
X94579047Y-107293333D02*
X94483809Y-107245714D01*
X94293333Y-107245714D01*
X94198095Y-107293333D01*
X94150476Y-107340952D01*
X94102857Y-107436190D01*
X94102857Y-107721904D01*
X94150476Y-107817142D01*
X94198095Y-107864761D01*
X94293333Y-107912380D01*
X94483809Y-107912380D01*
X94579047Y-107864761D01*
X93721904Y-107864761D02*
X93626666Y-107912380D01*
X93436190Y-107912380D01*
X93340952Y-107864761D01*
X93293333Y-107769523D01*
X93293333Y-107721904D01*
X93340952Y-107626666D01*
X93436190Y-107579047D01*
X93579047Y-107579047D01*
X93674285Y-107531428D01*
X93721904Y-107436190D01*
X93721904Y-107388571D01*
X93674285Y-107293333D01*
X93579047Y-107245714D01*
X93436190Y-107245714D01*
X93340952Y-107293333D01*
X92864761Y-107817142D02*
X92817142Y-107864761D01*
X92864761Y-107912380D01*
X92912380Y-107864761D01*
X92864761Y-107817142D01*
X92864761Y-107912380D01*
X92864761Y-107293333D02*
X92817142Y-107340952D01*
X92864761Y-107388571D01*
X92912380Y-107340952D01*
X92864761Y-107293333D01*
X92864761Y-107388571D01*
X91674285Y-106864761D02*
X92531428Y-108150476D01*
X90626666Y-106864761D02*
X91483809Y-108150476D01*
X89864761Y-107245714D02*
X89864761Y-108055238D01*
X89912380Y-108150476D01*
X89960000Y-108198095D01*
X90055238Y-108245714D01*
X90198095Y-108245714D01*
X90293333Y-108198095D01*
X89864761Y-107864761D02*
X89960000Y-107912380D01*
X90150476Y-107912380D01*
X90245714Y-107864761D01*
X90293333Y-107817142D01*
X90340952Y-107721904D01*
X90340952Y-107436190D01*
X90293333Y-107340952D01*
X90245714Y-107293333D01*
X90150476Y-107245714D01*
X89960000Y-107245714D01*
X89864761Y-107293333D01*
X89388571Y-107912380D02*
X89388571Y-107245714D01*
X89388571Y-106912380D02*
X89436190Y-106960000D01*
X89388571Y-107007619D01*
X89340952Y-106960000D01*
X89388571Y-106912380D01*
X89388571Y-107007619D01*
X89055238Y-107245714D02*
X88674285Y-107245714D01*
X88912380Y-106912380D02*
X88912380Y-107769523D01*
X88864761Y-107864761D01*
X88769523Y-107912380D01*
X88674285Y-107912380D01*
X88340952Y-107912380D02*
X88340952Y-106912380D01*
X87912380Y-107912380D02*
X87912380Y-107388571D01*
X87960000Y-107293333D01*
X88055238Y-107245714D01*
X88198095Y-107245714D01*
X88293333Y-107293333D01*
X88340952Y-107340952D01*
X87007619Y-107245714D02*
X87007619Y-107912380D01*
X87436190Y-107245714D02*
X87436190Y-107769523D01*
X87388571Y-107864761D01*
X87293333Y-107912380D01*
X87150476Y-107912380D01*
X87055238Y-107864761D01*
X87007619Y-107817142D01*
X86531428Y-107912380D02*
X86531428Y-106912380D01*
X86531428Y-107293333D02*
X86436190Y-107245714D01*
X86245714Y-107245714D01*
X86150476Y-107293333D01*
X86102857Y-107340952D01*
X86055238Y-107436190D01*
X86055238Y-107721904D01*
X86102857Y-107817142D01*
X86150476Y-107864761D01*
X86245714Y-107912380D01*
X86436190Y-107912380D01*
X86531428Y-107864761D01*
X85626666Y-107817142D02*
X85579047Y-107864761D01*
X85626666Y-107912380D01*
X85674285Y-107864761D01*
X85626666Y-107817142D01*
X85626666Y-107912380D01*
X84721904Y-107864761D02*
X84817142Y-107912380D01*
X85007619Y-107912380D01*
X85102857Y-107864761D01*
X85150476Y-107817142D01*
X85198095Y-107721904D01*
X85198095Y-107436190D01*
X85150476Y-107340952D01*
X85102857Y-107293333D01*
X85007619Y-107245714D01*
X84817142Y-107245714D01*
X84721904Y-107293333D01*
X84150476Y-107912380D02*
X84245714Y-107864761D01*
X84293333Y-107817142D01*
X84340952Y-107721904D01*
X84340952Y-107436190D01*
X84293333Y-107340952D01*
X84245714Y-107293333D01*
X84150476Y-107245714D01*
X84007619Y-107245714D01*
X83912380Y-107293333D01*
X83864761Y-107340952D01*
X83817142Y-107436190D01*
X83817142Y-107721904D01*
X83864761Y-107817142D01*
X83912380Y-107864761D01*
X84007619Y-107912380D01*
X84150476Y-107912380D01*
X83388571Y-107912380D02*
X83388571Y-107245714D01*
X83388571Y-107340952D02*
X83340952Y-107293333D01*
X83245714Y-107245714D01*
X83102857Y-107245714D01*
X83007619Y-107293333D01*
X82960000Y-107388571D01*
X82960000Y-107912380D01*
X82960000Y-107388571D02*
X82912380Y-107293333D01*
X82817142Y-107245714D01*
X82674285Y-107245714D01*
X82579047Y-107293333D01*
X82531428Y-107388571D01*
X82531428Y-107912380D01*
X81340952Y-106864761D02*
X82198095Y-108150476D01*
X80579047Y-107912380D02*
X80579047Y-107388571D01*
X80626666Y-107293333D01*
X80721904Y-107245714D01*
X80912380Y-107245714D01*
X81007619Y-107293333D01*
X80579047Y-107864761D02*
X80674285Y-107912380D01*
X80912380Y-107912380D01*
X81007619Y-107864761D01*
X81055238Y-107769523D01*
X81055238Y-107674285D01*
X81007619Y-107579047D01*
X80912380Y-107531428D01*
X80674285Y-107531428D01*
X80579047Y-107483809D01*
X80102857Y-107912380D02*
X80102857Y-106912380D01*
X80007619Y-107531428D02*
X79721904Y-107912380D01*
X79721904Y-107245714D02*
X80102857Y-107626666D01*
X78864761Y-107245714D02*
X78864761Y-107912380D01*
X79293333Y-107245714D02*
X79293333Y-107769523D01*
X79245714Y-107864761D01*
X79150476Y-107912380D01*
X79007619Y-107912380D01*
X78912380Y-107864761D01*
X78864761Y-107817142D01*
X78388571Y-107912380D02*
X78388571Y-106912380D01*
X78293333Y-107531428D02*
X78007619Y-107912380D01*
X78007619Y-107245714D02*
X78388571Y-107626666D01*
X77198095Y-107864761D02*
X77293333Y-107912380D01*
X77483809Y-107912380D01*
X77579047Y-107864761D01*
X77626666Y-107769523D01*
X77626666Y-107388571D01*
X77579047Y-107293333D01*
X77483809Y-107245714D01*
X77293333Y-107245714D01*
X77198095Y-107293333D01*
X77150476Y-107388571D01*
X77150476Y-107483809D01*
X77626666Y-107579047D01*
X76721904Y-107912380D02*
X76721904Y-107245714D01*
X76721904Y-107436190D02*
X76674285Y-107340952D01*
X76626666Y-107293333D01*
X76531428Y-107245714D01*
X76436190Y-107245714D01*
X75388571Y-106864761D02*
X76245714Y-108150476D01*
X75102857Y-107864761D02*
X74960000Y-107912380D01*
X74721904Y-107912380D01*
X74626666Y-107864761D01*
X74579047Y-107817142D01*
X74531428Y-107721904D01*
X74531428Y-107626666D01*
X74579047Y-107531428D01*
X74626666Y-107483809D01*
X74721904Y-107436190D01*
X74912380Y-107388571D01*
X75007619Y-107340952D01*
X75055238Y-107293333D01*
X75102857Y-107198095D01*
X75102857Y-107102857D01*
X75055238Y-107007619D01*
X75007619Y-106960000D01*
X74912380Y-106912380D01*
X74674285Y-106912380D01*
X74531428Y-106960000D01*
X73674285Y-107245714D02*
X73674285Y-107912380D01*
X74102857Y-107245714D02*
X74102857Y-107769523D01*
X74055238Y-107864761D01*
X73960000Y-107912380D01*
X73817142Y-107912380D01*
X73721904Y-107864761D01*
X73674285Y-107817142D01*
X73198095Y-107245714D02*
X73198095Y-108245714D01*
X73198095Y-107293333D02*
X73102857Y-107245714D01*
X72912380Y-107245714D01*
X72817142Y-107293333D01*
X72769523Y-107340952D01*
X72721904Y-107436190D01*
X72721904Y-107721904D01*
X72769523Y-107817142D01*
X72817142Y-107864761D01*
X72912380Y-107912380D01*
X73102857Y-107912380D01*
X73198095Y-107864761D01*
X71912380Y-107864761D02*
X72007619Y-107912380D01*
X72198095Y-107912380D01*
X72293333Y-107864761D01*
X72340952Y-107769523D01*
X72340952Y-107388571D01*
X72293333Y-107293333D01*
X72198095Y-107245714D01*
X72007619Y-107245714D01*
X71912380Y-107293333D01*
X71864761Y-107388571D01*
X71864761Y-107483809D01*
X72340952Y-107579047D01*
X71436190Y-107912380D02*
X71436190Y-107245714D01*
X71436190Y-107436190D02*
X71388571Y-107340952D01*
X71340952Y-107293333D01*
X71245714Y-107245714D01*
X71150476Y-107245714D01*
X70817142Y-106912380D02*
X70817142Y-107721904D01*
X70769523Y-107817142D01*
X70721904Y-107864761D01*
X70626666Y-107912380D01*
X70436190Y-107912380D01*
X70340952Y-107864761D01*
X70293333Y-107817142D01*
X70245714Y-107721904D01*
X70245714Y-106912380D01*
X69769523Y-107912380D02*
X69769523Y-106912380D01*
X69388571Y-106912380D01*
X69293333Y-106960000D01*
X69245714Y-107007619D01*
X69198095Y-107102857D01*
X69198095Y-107245714D01*
X69245714Y-107340952D01*
X69293333Y-107388571D01*
X69388571Y-107436190D01*
X69769523Y-107436190D01*
X68817142Y-107864761D02*
X68674285Y-107912380D01*
X68436190Y-107912380D01*
X68340952Y-107864761D01*
X68293333Y-107817142D01*
X68245714Y-107721904D01*
X68245714Y-107626666D01*
X68293333Y-107531428D01*
X68340952Y-107483809D01*
X68436190Y-107436190D01*
X68626666Y-107388571D01*
X68721904Y-107340952D01*
X68769523Y-107293333D01*
X68817142Y-107198095D01*
X68817142Y-107102857D01*
X68769523Y-107007619D01*
X68721904Y-106960000D01*
X68626666Y-106912380D01*
X68388571Y-106912380D01*
X68245714Y-106960000D01*
D11*
X108933333Y-124150000D02*
X109000000Y-124116666D01*
X109100000Y-124116666D01*
X109200000Y-124150000D01*
X109266666Y-124216666D01*
X109300000Y-124283333D01*
X109333333Y-124416666D01*
X109333333Y-124516666D01*
X109300000Y-124650000D01*
X109266666Y-124716666D01*
X109200000Y-124783333D01*
X109100000Y-124816666D01*
X109033333Y-124816666D01*
X108933333Y-124783333D01*
X108900000Y-124750000D01*
X108900000Y-124516666D01*
X109033333Y-124516666D01*
X108600000Y-124816666D02*
X108600000Y-124116666D01*
X108200000Y-124816666D01*
X108200000Y-124116666D01*
X107866666Y-124816666D02*
X107866666Y-124116666D01*
X107700000Y-124116666D01*
X107600000Y-124150000D01*
X107533333Y-124216666D01*
X107500000Y-124283333D01*
X107466666Y-124416666D01*
X107466666Y-124516666D01*
X107500000Y-124650000D01*
X107533333Y-124716666D01*
X107600000Y-124783333D01*
X107700000Y-124816666D01*
X107866666Y-124816666D01*
X51983333Y-118000000D02*
X51983333Y-117566666D01*
X51716666Y-117800000D01*
X51716666Y-117700000D01*
X51683333Y-117633333D01*
X51650000Y-117600000D01*
X51583333Y-117566666D01*
X51416666Y-117566666D01*
X51350000Y-117600000D01*
X51316666Y-117633333D01*
X51283333Y-117700000D01*
X51283333Y-117900000D01*
X51316666Y-117966666D01*
X51350000Y-118000000D01*
X51350000Y-117266666D02*
X51316666Y-117233333D01*
X51283333Y-117266666D01*
X51316666Y-117300000D01*
X51350000Y-117266666D01*
X51283333Y-117266666D01*
X51983333Y-117000000D02*
X51983333Y-116566666D01*
X51716666Y-116800000D01*
X51716666Y-116700000D01*
X51683333Y-116633333D01*
X51650000Y-116600000D01*
X51583333Y-116566666D01*
X51416666Y-116566666D01*
X51350000Y-116600000D01*
X51316666Y-116633333D01*
X51283333Y-116700000D01*
X51283333Y-116900000D01*
X51316666Y-116966666D01*
X51350000Y-117000000D01*
X51750000Y-116333333D02*
X51283333Y-116166666D01*
X51750000Y-116000000D01*
X98783333Y-117116666D02*
X98783333Y-117616666D01*
X98816666Y-117716666D01*
X98883333Y-117783333D01*
X98983333Y-117816666D01*
X99050000Y-117816666D01*
X98450000Y-117816666D02*
X98450000Y-117116666D01*
X98183333Y-117116666D01*
X98116666Y-117150000D01*
X98083333Y-117183333D01*
X98050000Y-117250000D01*
X98050000Y-117350000D01*
X98083333Y-117416666D01*
X98116666Y-117450000D01*
X98183333Y-117483333D01*
X98450000Y-117483333D01*
X97383333Y-117816666D02*
X97783333Y-117816666D01*
X97583333Y-117816666D02*
X97583333Y-117116666D01*
X97650000Y-117216666D01*
X97716666Y-117283333D01*
X97783333Y-117316666D01*
D13*
X96250000Y-116070000D02*
X95650000Y-116070000D01*
X96950000Y-118170000D02*
X96950000Y-116770000D01*
X95650000Y-118870000D02*
X96250000Y-118870000D01*
X94950000Y-116770000D02*
X94950000Y-118170000D01*
X95650000Y-116070000D02*
G75*
G03*
X94950000Y-116770000I0J-700000D01*
G01*
X96250000Y-118870000D02*
G75*
G03*
X96950000Y-118170000I1J699999D01*
G01*
X94950000Y-118170000D02*
G75*
G03*
X95650000Y-118870000I699999J-1D01*
G01*
X96950000Y-116770000D02*
G75*
G03*
X96250000Y-116070000I-700000J0D01*
G01*
G36*
X57123764Y-135084612D02*
G01*
X57212450Y-135086413D01*
X57299419Y-135089212D01*
X57379782Y-135092930D01*
X57448646Y-135097490D01*
X57501120Y-135102813D01*
X57691921Y-135134241D01*
X57965623Y-135201153D01*
X58229787Y-135291971D01*
X58483047Y-135405897D01*
X58724041Y-135542133D01*
X58951402Y-135699882D01*
X59163767Y-135878344D01*
X59359770Y-136076723D01*
X59538048Y-136294218D01*
X59616872Y-136405017D01*
X59764354Y-136645637D01*
X59888081Y-136897714D01*
X59987795Y-137160614D01*
X60063241Y-137433706D01*
X60114162Y-137716354D01*
X60117963Y-137748472D01*
X60125334Y-137842014D01*
X60130066Y-137951854D01*
X60132161Y-138070887D01*
X60131618Y-138192009D01*
X60128437Y-138308118D01*
X60122618Y-138412107D01*
X60114162Y-138496875D01*
X60100945Y-138585709D01*
X60042808Y-138862383D01*
X59960958Y-139129070D01*
X59856385Y-139384573D01*
X59730079Y-139627698D01*
X59583030Y-139857247D01*
X59416227Y-140072026D01*
X59230660Y-140270838D01*
X59027320Y-140452487D01*
X58807195Y-140615777D01*
X58571277Y-140759513D01*
X58320553Y-140882498D01*
X58056016Y-140983536D01*
X57974934Y-141008667D01*
X57847338Y-141043083D01*
X57714872Y-141073706D01*
X57587271Y-141098341D01*
X57474271Y-141114789D01*
X57473762Y-141114847D01*
X57428417Y-141118531D01*
X57365909Y-141121663D01*
X57291083Y-141124197D01*
X57208783Y-141126083D01*
X57123854Y-141127274D01*
X57041142Y-141127723D01*
X56965490Y-141127382D01*
X56901744Y-141126203D01*
X56854749Y-141124138D01*
X56829349Y-141121141D01*
X56799583Y-141113164D01*
X56799583Y-140196186D01*
X57074089Y-140196504D01*
X57129233Y-140196352D01*
X57254742Y-140193680D01*
X57362894Y-140187016D01*
X57460130Y-140175463D01*
X57552893Y-140158129D01*
X57647623Y-140134118D01*
X57750763Y-140102535D01*
X57934252Y-140033336D01*
X58142307Y-139929931D01*
X58335845Y-139805719D01*
X58513579Y-139662168D01*
X58674219Y-139500748D01*
X58816478Y-139322928D01*
X58939069Y-139130177D01*
X59040701Y-138923965D01*
X59120089Y-138705759D01*
X59175943Y-138477031D01*
X59177181Y-138470233D01*
X59189149Y-138380571D01*
X59197116Y-138273837D01*
X59201074Y-138157234D01*
X59201015Y-138037965D01*
X59196934Y-137923234D01*
X59188823Y-137820244D01*
X59176674Y-137736197D01*
X59156515Y-137643629D01*
X59088456Y-137414193D01*
X58997234Y-137196394D01*
X58883527Y-136991520D01*
X58748015Y-136800861D01*
X58591378Y-136625705D01*
X58532099Y-136568408D01*
X58379702Y-136439326D01*
X58217062Y-136327977D01*
X58036511Y-136228879D01*
X57960803Y-136192911D01*
X57778168Y-136118839D01*
X57597580Y-136065075D01*
X57413141Y-136030382D01*
X57218953Y-136013523D01*
X57009119Y-136013259D01*
X56799583Y-136020530D01*
X56799583Y-135100065D01*
X56829349Y-135092088D01*
X56849697Y-135088945D01*
X56896330Y-135085975D01*
X56960813Y-135084315D01*
X57038255Y-135083887D01*
X57123764Y-135084612D01*
G37*
D14*
X57123764Y-135084612D02*
X57212450Y-135086413D01*
X57299419Y-135089212D01*
X57379782Y-135092930D01*
X57448646Y-135097490D01*
X57501120Y-135102813D01*
X57691921Y-135134241D01*
X57965623Y-135201153D01*
X58229787Y-135291971D01*
X58483047Y-135405897D01*
X58724041Y-135542133D01*
X58951402Y-135699882D01*
X59163767Y-135878344D01*
X59359770Y-136076723D01*
X59538048Y-136294218D01*
X59616872Y-136405017D01*
X59764354Y-136645637D01*
X59888081Y-136897714D01*
X59987795Y-137160614D01*
X60063241Y-137433706D01*
X60114162Y-137716354D01*
X60117963Y-137748472D01*
X60125334Y-137842014D01*
X60130066Y-137951854D01*
X60132161Y-138070887D01*
X60131618Y-138192009D01*
X60128437Y-138308118D01*
X60122618Y-138412107D01*
X60114162Y-138496875D01*
X60100945Y-138585709D01*
X60042808Y-138862383D01*
X59960958Y-139129070D01*
X59856385Y-139384573D01*
X59730079Y-139627698D01*
X59583030Y-139857247D01*
X59416227Y-140072026D01*
X59230660Y-140270838D01*
X59027320Y-140452487D01*
X58807195Y-140615777D01*
X58571277Y-140759513D01*
X58320553Y-140882498D01*
X58056016Y-140983536D01*
X57974934Y-141008667D01*
X57847338Y-141043083D01*
X57714872Y-141073706D01*
X57587271Y-141098341D01*
X57474271Y-141114789D01*
X57473762Y-141114847D01*
X57428417Y-141118531D01*
X57365909Y-141121663D01*
X57291083Y-141124197D01*
X57208783Y-141126083D01*
X57123854Y-141127274D01*
X57041142Y-141127723D01*
X56965490Y-141127382D01*
X56901744Y-141126203D01*
X56854749Y-141124138D01*
X56829349Y-141121141D01*
X56799583Y-141113164D01*
X56799583Y-140196186D01*
X57074089Y-140196504D01*
X57129233Y-140196352D01*
X57254742Y-140193680D01*
X57362894Y-140187016D01*
X57460130Y-140175463D01*
X57552893Y-140158129D01*
X57647623Y-140134118D01*
X57750763Y-140102535D01*
X57934252Y-140033336D01*
X58142307Y-139929931D01*
X58335845Y-139805719D01*
X58513579Y-139662168D01*
X58674219Y-139500748D01*
X58816478Y-139322928D01*
X58939069Y-139130177D01*
X59040701Y-138923965D01*
X59120089Y-138705759D01*
X59175943Y-138477031D01*
X59177181Y-138470233D01*
X59189149Y-138380571D01*
X59197116Y-138273837D01*
X59201074Y-138157234D01*
X59201015Y-138037965D01*
X59196934Y-137923234D01*
X59188823Y-137820244D01*
X59176674Y-137736197D01*
X59156515Y-137643629D01*
X59088456Y-137414193D01*
X58997234Y-137196394D01*
X58883527Y-136991520D01*
X58748015Y-136800861D01*
X58591378Y-136625705D01*
X58532099Y-136568408D01*
X58379702Y-136439326D01*
X58217062Y-136327977D01*
X58036511Y-136228879D01*
X57960803Y-136192911D01*
X57778168Y-136118839D01*
X57597580Y-136065075D01*
X57413141Y-136030382D01*
X57218953Y-136013523D01*
X57009119Y-136013259D01*
X56799583Y-136020530D01*
X56799583Y-135100065D01*
X56829349Y-135092088D01*
X56849697Y-135088945D01*
X56896330Y-135085975D01*
X56960813Y-135084315D01*
X57038255Y-135083887D01*
X57123764Y-135084612D01*
G36*
X51947787Y-135084008D02*
G01*
X52059313Y-135084968D01*
X52192615Y-135089356D01*
X52312480Y-135097981D01*
X52426300Y-135111592D01*
X52541470Y-135130938D01*
X52665381Y-135156769D01*
X52765691Y-135181267D01*
X53022400Y-135262322D01*
X53272491Y-135367517D01*
X53513515Y-135495325D01*
X53743027Y-135644214D01*
X53958578Y-135812656D01*
X54157720Y-135999121D01*
X54338007Y-136202079D01*
X54341427Y-136206325D01*
X54502924Y-136428177D01*
X54643879Y-136665877D01*
X54763609Y-136917809D01*
X54861431Y-137182354D01*
X54936661Y-137457894D01*
X54988617Y-137742812D01*
X54994662Y-137800752D01*
X54999834Y-137887298D01*
X55002981Y-137987925D01*
X55004105Y-138096009D01*
X55003208Y-138204923D01*
X55000292Y-138308046D01*
X54995359Y-138398751D01*
X54988410Y-138470416D01*
X54985865Y-138489155D01*
X54934588Y-138767092D01*
X54859289Y-139038532D01*
X54760975Y-139301089D01*
X54640652Y-139552378D01*
X54499327Y-139790012D01*
X54338007Y-140011607D01*
X54301460Y-140055859D01*
X54167650Y-140201982D01*
X54016573Y-140346431D01*
X53854786Y-140483545D01*
X53688844Y-140607667D01*
X53525303Y-140713135D01*
X53469501Y-140745068D01*
X53256315Y-140852465D01*
X53030575Y-140945284D01*
X52798614Y-141021376D01*
X52566763Y-141078594D01*
X52341354Y-141114789D01*
X52334289Y-141115526D01*
X52285821Y-141118981D01*
X52217842Y-141122126D01*
X52136109Y-141124766D01*
X52046376Y-141126709D01*
X51954401Y-141127762D01*
X51666667Y-141129479D01*
X51666667Y-140196776D01*
X51954401Y-140196799D01*
X52025141Y-140196664D01*
X52110832Y-140195769D01*
X52179119Y-140193702D01*
X52235391Y-140190078D01*
X52285042Y-140184513D01*
X52333462Y-140176622D01*
X52386044Y-140166021D01*
X52391745Y-140164794D01*
X52625262Y-140101206D01*
X52846309Y-140014624D01*
X53053891Y-139905719D01*
X53247010Y-139775163D01*
X53424667Y-139623630D01*
X53585866Y-139451791D01*
X53729608Y-139260319D01*
X53739064Y-139245967D01*
X53795440Y-139151569D01*
X53851718Y-139043892D01*
X53904815Y-138929878D01*
X53951648Y-138816469D01*
X53989136Y-138710611D01*
X54014196Y-138619244D01*
X54023561Y-138576250D01*
X52261979Y-138576250D01*
X52261979Y-137636979D01*
X54023561Y-137636979D01*
X54014196Y-137593984D01*
X54008102Y-137568388D01*
X53980625Y-137477488D01*
X53942318Y-137373702D01*
X53896164Y-137263866D01*
X53845145Y-137154820D01*
X53792244Y-137053402D01*
X53740446Y-136966449D01*
X53715807Y-136929379D01*
X53575547Y-136746430D01*
X53415951Y-136580418D01*
X53238780Y-136432544D01*
X53045799Y-136304009D01*
X52838768Y-136196012D01*
X52619451Y-136109754D01*
X52389611Y-136046436D01*
X52355711Y-136039308D01*
X52309012Y-136031008D01*
X52261524Y-136024996D01*
X52208112Y-136020914D01*
X52143645Y-136018408D01*
X52062990Y-136017120D01*
X51961015Y-136016695D01*
X51666665Y-136016406D01*
X51666667Y-135083750D01*
X51947787Y-135084008D01*
G37*
X51947787Y-135084008D02*
X52059313Y-135084968D01*
X52192615Y-135089356D01*
X52312480Y-135097981D01*
X52426300Y-135111592D01*
X52541470Y-135130938D01*
X52665381Y-135156769D01*
X52765691Y-135181267D01*
X53022400Y-135262322D01*
X53272491Y-135367517D01*
X53513515Y-135495325D01*
X53743027Y-135644214D01*
X53958578Y-135812656D01*
X54157720Y-135999121D01*
X54338007Y-136202079D01*
X54341427Y-136206325D01*
X54502924Y-136428177D01*
X54643879Y-136665877D01*
X54763609Y-136917809D01*
X54861431Y-137182354D01*
X54936661Y-137457894D01*
X54988617Y-137742812D01*
X54994662Y-137800752D01*
X54999834Y-137887298D01*
X55002981Y-137987925D01*
X55004105Y-138096009D01*
X55003208Y-138204923D01*
X55000292Y-138308046D01*
X54995359Y-138398751D01*
X54988410Y-138470416D01*
X54985865Y-138489155D01*
X54934588Y-138767092D01*
X54859289Y-139038532D01*
X54760975Y-139301089D01*
X54640652Y-139552378D01*
X54499327Y-139790012D01*
X54338007Y-140011607D01*
X54301460Y-140055859D01*
X54167650Y-140201982D01*
X54016573Y-140346431D01*
X53854786Y-140483545D01*
X53688844Y-140607667D01*
X53525303Y-140713135D01*
X53469501Y-140745068D01*
X53256315Y-140852465D01*
X53030575Y-140945284D01*
X52798614Y-141021376D01*
X52566763Y-141078594D01*
X52341354Y-141114789D01*
X52334289Y-141115526D01*
X52285821Y-141118981D01*
X52217842Y-141122126D01*
X52136109Y-141124766D01*
X52046376Y-141126709D01*
X51954401Y-141127762D01*
X51666667Y-141129479D01*
X51666667Y-140196776D01*
X51954401Y-140196799D01*
X52025141Y-140196664D01*
X52110832Y-140195769D01*
X52179119Y-140193702D01*
X52235391Y-140190078D01*
X52285042Y-140184513D01*
X52333462Y-140176622D01*
X52386044Y-140166021D01*
X52391745Y-140164794D01*
X52625262Y-140101206D01*
X52846309Y-140014624D01*
X53053891Y-139905719D01*
X53247010Y-139775163D01*
X53424667Y-139623630D01*
X53585866Y-139451791D01*
X53729608Y-139260319D01*
X53739064Y-139245967D01*
X53795440Y-139151569D01*
X53851718Y-139043892D01*
X53904815Y-138929878D01*
X53951648Y-138816469D01*
X53989136Y-138710611D01*
X54014196Y-138619244D01*
X54023561Y-138576250D01*
X52261979Y-138576250D01*
X52261979Y-137636979D01*
X54023561Y-137636979D01*
X54014196Y-137593984D01*
X54008102Y-137568388D01*
X53980625Y-137477488D01*
X53942318Y-137373702D01*
X53896164Y-137263866D01*
X53845145Y-137154820D01*
X53792244Y-137053402D01*
X53740446Y-136966449D01*
X53715807Y-136929379D01*
X53575547Y-136746430D01*
X53415951Y-136580418D01*
X53238780Y-136432544D01*
X53045799Y-136304009D01*
X52838768Y-136196012D01*
X52619451Y-136109754D01*
X52389611Y-136046436D01*
X52355711Y-136039308D01*
X52309012Y-136031008D01*
X52261524Y-136024996D01*
X52208112Y-136020914D01*
X52143645Y-136018408D01*
X52062990Y-136017120D01*
X51961015Y-136016695D01*
X51666665Y-136016406D01*
X51666667Y-135083750D01*
X51947787Y-135084008D01*
D13*
X59570000Y-106100000D02*
X107890000Y-106100000D01*
X56970000Y-100900000D02*
X107890000Y-100900000D01*
X56970000Y-106100000D02*
X58300000Y-106100000D01*
X107890000Y-100900000D02*
X107890000Y-106100000D01*
X56970000Y-103500000D02*
X59570000Y-103500000D01*
X59570000Y-103500000D02*
X59570000Y-106100000D01*
X56970000Y-104770000D02*
X56970000Y-106100000D01*
X56970000Y-100900000D02*
X56970000Y-103500000D01*
G36*
X108179079Y-139498533D02*
G01*
X108180489Y-139615550D01*
X108186007Y-139710058D01*
X108197185Y-139778751D01*
X108215572Y-139825478D01*
X108242717Y-139854089D01*
X108280168Y-139868432D01*
X108329474Y-139872358D01*
X108376552Y-139868854D01*
X108414574Y-139855139D01*
X108442210Y-139827355D01*
X108461009Y-139781651D01*
X108472519Y-139714179D01*
X108478290Y-139621089D01*
X108479869Y-139498533D01*
X108479869Y-139238421D01*
X108646974Y-139238421D01*
X108646974Y-139552004D01*
X108646688Y-139635705D01*
X108644459Y-139743943D01*
X108638869Y-139826489D01*
X108628561Y-139888068D01*
X108612183Y-139933405D01*
X108588379Y-139967226D01*
X108555796Y-139994257D01*
X108513079Y-140019221D01*
X108423377Y-140050825D01*
X108329761Y-140052887D01*
X108241496Y-140023783D01*
X108202986Y-140004917D01*
X108183880Y-140002097D01*
X108179079Y-140015428D01*
X108171109Y-140030396D01*
X108142578Y-140038281D01*
X108087172Y-140040526D01*
X107995264Y-140040526D01*
X107995264Y-139238421D01*
X108179079Y-139238421D01*
X108179079Y-139498533D01*
G37*
D14*
X108179079Y-139498533D02*
X108180489Y-139615550D01*
X108186007Y-139710058D01*
X108197185Y-139778751D01*
X108215572Y-139825478D01*
X108242717Y-139854089D01*
X108280168Y-139868432D01*
X108329474Y-139872358D01*
X108376552Y-139868854D01*
X108414574Y-139855139D01*
X108442210Y-139827355D01*
X108461009Y-139781651D01*
X108472519Y-139714179D01*
X108478290Y-139621089D01*
X108479869Y-139498533D01*
X108479869Y-139238421D01*
X108646974Y-139238421D01*
X108646974Y-139552004D01*
X108646688Y-139635705D01*
X108644459Y-139743943D01*
X108638869Y-139826489D01*
X108628561Y-139888068D01*
X108612183Y-139933405D01*
X108588379Y-139967226D01*
X108555796Y-139994257D01*
X108513079Y-140019221D01*
X108423377Y-140050825D01*
X108329761Y-140052887D01*
X108241496Y-140023783D01*
X108202986Y-140004917D01*
X108183880Y-140002097D01*
X108179079Y-140015428D01*
X108171109Y-140030396D01*
X108142578Y-140038281D01*
X108087172Y-140040526D01*
X107995264Y-140040526D01*
X107995264Y-139238421D01*
X108179079Y-139238421D01*
X108179079Y-139498533D01*
G36*
X106634216Y-139713529D02*
G01*
X106633936Y-139716044D01*
X106609909Y-139833405D01*
X106566499Y-139924652D01*
X106502353Y-139991791D01*
X106416119Y-140036824D01*
X106400289Y-140041974D01*
X106302173Y-140057151D01*
X106200698Y-140048688D01*
X106106359Y-140018445D01*
X106029649Y-139968285D01*
X105972190Y-139915197D01*
X106033266Y-139866904D01*
X106094341Y-139818611D01*
X106167947Y-139854371D01*
X106253115Y-139883347D01*
X106328301Y-139884215D01*
X106389816Y-139857592D01*
X106434083Y-139804155D01*
X106449952Y-139772136D01*
X106458811Y-139744771D01*
X106453685Y-139726285D01*
X106430687Y-139714938D01*
X106385931Y-139708987D01*
X106315529Y-139706693D01*
X106215593Y-139706316D01*
X105973290Y-139706316D01*
X105973290Y-139590430D01*
X105975100Y-139539555D01*
X106145706Y-139539555D01*
X106153900Y-139548912D01*
X106178160Y-139553783D01*
X106224272Y-139555630D01*
X106298019Y-139555921D01*
X106337566Y-139555457D01*
X106399971Y-139552388D01*
X106442303Y-139547013D01*
X106457895Y-139539997D01*
X106453906Y-139514108D01*
X106425788Y-139464570D01*
X106378932Y-139423875D01*
X106323074Y-139399295D01*
X106267951Y-139398105D01*
X106226458Y-139417815D01*
X106179440Y-139462668D01*
X106149545Y-139518322D01*
X106147794Y-139524245D01*
X106145706Y-139539555D01*
X105975100Y-139539555D01*
X105975471Y-139529138D01*
X105981876Y-139468496D01*
X105991025Y-139427502D01*
X105997695Y-139411852D01*
X106046243Y-139342149D01*
X106116391Y-139284013D01*
X106198426Y-139245949D01*
X106241216Y-139235554D01*
X106343170Y-139230822D01*
X106434015Y-139254893D01*
X106511253Y-139305088D01*
X106572389Y-139378727D01*
X106614926Y-139473133D01*
X106627671Y-139539997D01*
X106636367Y-139585627D01*
X106634216Y-139713529D01*
G37*
X106634216Y-139713529D02*
X106633936Y-139716044D01*
X106609909Y-139833405D01*
X106566499Y-139924652D01*
X106502353Y-139991791D01*
X106416119Y-140036824D01*
X106400289Y-140041974D01*
X106302173Y-140057151D01*
X106200698Y-140048688D01*
X106106359Y-140018445D01*
X106029649Y-139968285D01*
X105972190Y-139915197D01*
X106033266Y-139866904D01*
X106094341Y-139818611D01*
X106167947Y-139854371D01*
X106253115Y-139883347D01*
X106328301Y-139884215D01*
X106389816Y-139857592D01*
X106434083Y-139804155D01*
X106449952Y-139772136D01*
X106458811Y-139744771D01*
X106453685Y-139726285D01*
X106430687Y-139714938D01*
X106385931Y-139708987D01*
X106315529Y-139706693D01*
X106215593Y-139706316D01*
X105973290Y-139706316D01*
X105973290Y-139590430D01*
X105975100Y-139539555D01*
X106145706Y-139539555D01*
X106153900Y-139548912D01*
X106178160Y-139553783D01*
X106224272Y-139555630D01*
X106298019Y-139555921D01*
X106337566Y-139555457D01*
X106399971Y-139552388D01*
X106442303Y-139547013D01*
X106457895Y-139539997D01*
X106453906Y-139514108D01*
X106425788Y-139464570D01*
X106378932Y-139423875D01*
X106323074Y-139399295D01*
X106267951Y-139398105D01*
X106226458Y-139417815D01*
X106179440Y-139462668D01*
X106149545Y-139518322D01*
X106147794Y-139524245D01*
X106145706Y-139539555D01*
X105975100Y-139539555D01*
X105975471Y-139529138D01*
X105981876Y-139468496D01*
X105991025Y-139427502D01*
X105997695Y-139411852D01*
X106046243Y-139342149D01*
X106116391Y-139284013D01*
X106198426Y-139245949D01*
X106241216Y-139235554D01*
X106343170Y-139230822D01*
X106434015Y-139254893D01*
X106511253Y-139305088D01*
X106572389Y-139378727D01*
X106614926Y-139473133D01*
X106627671Y-139539997D01*
X106636367Y-139585627D01*
X106634216Y-139713529D01*
G36*
X109931399Y-139237879D02*
G01*
X110027909Y-139262068D01*
X110098411Y-139306902D01*
X110143307Y-139372681D01*
X110162999Y-139459707D01*
X110159012Y-139543023D01*
X110130235Y-139613297D01*
X110075048Y-139665254D01*
X109992348Y-139699910D01*
X109881026Y-139718279D01*
X109808692Y-139727906D01*
X109742670Y-139748737D01*
X109708583Y-139778904D01*
X109706526Y-139818352D01*
X109720243Y-139842949D01*
X109762726Y-139872101D01*
X109823117Y-139885889D01*
X109893889Y-139884004D01*
X109967512Y-139866133D01*
X110036457Y-139831967D01*
X110105197Y-139786477D01*
X110226119Y-139908835D01*
X110175987Y-139949755D01*
X110156494Y-139963973D01*
X110101650Y-139996275D01*
X110042303Y-140024109D01*
X109995335Y-140040083D01*
X109926562Y-140051654D01*
X109841777Y-140051807D01*
X109737806Y-140039067D01*
X109644145Y-140006777D01*
X109577849Y-139955486D01*
X109538760Y-139885065D01*
X109526722Y-139795387D01*
X109535436Y-139716497D01*
X109563408Y-139651907D01*
X109613768Y-139605651D01*
X109689703Y-139574888D01*
X109794400Y-139556778D01*
X109806425Y-139555467D01*
X109871611Y-139547106D01*
X109924490Y-139538357D01*
X109954573Y-139530913D01*
X109964612Y-139524920D01*
X109981584Y-139494013D01*
X109978828Y-139454450D01*
X109956146Y-139420105D01*
X109944236Y-139412615D01*
X109894606Y-139400613D01*
X109830500Y-139401420D01*
X109763653Y-139414192D01*
X109705799Y-139438086D01*
X109645008Y-139473954D01*
X109597854Y-139418852D01*
X109586412Y-139404853D01*
X109560634Y-139367353D01*
X109550022Y-139341937D01*
X109561166Y-139326353D01*
X109595644Y-139302026D01*
X109645428Y-139275848D01*
X109652443Y-139272648D01*
X109718092Y-139247548D01*
X109781372Y-139235547D01*
X109859900Y-139233137D01*
X109931399Y-139237879D01*
G37*
X109931399Y-139237879D02*
X110027909Y-139262068D01*
X110098411Y-139306902D01*
X110143307Y-139372681D01*
X110162999Y-139459707D01*
X110159012Y-139543023D01*
X110130235Y-139613297D01*
X110075048Y-139665254D01*
X109992348Y-139699910D01*
X109881026Y-139718279D01*
X109808692Y-139727906D01*
X109742670Y-139748737D01*
X109708583Y-139778904D01*
X109706526Y-139818352D01*
X109720243Y-139842949D01*
X109762726Y-139872101D01*
X109823117Y-139885889D01*
X109893889Y-139884004D01*
X109967512Y-139866133D01*
X110036457Y-139831967D01*
X110105197Y-139786477D01*
X110226119Y-139908835D01*
X110175987Y-139949755D01*
X110156494Y-139963973D01*
X110101650Y-139996275D01*
X110042303Y-140024109D01*
X109995335Y-140040083D01*
X109926562Y-140051654D01*
X109841777Y-140051807D01*
X109737806Y-140039067D01*
X109644145Y-140006777D01*
X109577849Y-139955486D01*
X109538760Y-139885065D01*
X109526722Y-139795387D01*
X109535436Y-139716497D01*
X109563408Y-139651907D01*
X109613768Y-139605651D01*
X109689703Y-139574888D01*
X109794400Y-139556778D01*
X109806425Y-139555467D01*
X109871611Y-139547106D01*
X109924490Y-139538357D01*
X109954573Y-139530913D01*
X109964612Y-139524920D01*
X109981584Y-139494013D01*
X109978828Y-139454450D01*
X109956146Y-139420105D01*
X109944236Y-139412615D01*
X109894606Y-139400613D01*
X109830500Y-139401420D01*
X109763653Y-139414192D01*
X109705799Y-139438086D01*
X109645008Y-139473954D01*
X109597854Y-139418852D01*
X109586412Y-139404853D01*
X109560634Y-139367353D01*
X109550022Y-139341937D01*
X109561166Y-139326353D01*
X109595644Y-139302026D01*
X109645428Y-139275848D01*
X109652443Y-139272648D01*
X109718092Y-139247548D01*
X109781372Y-139235547D01*
X109859900Y-139233137D01*
X109931399Y-139237879D01*
G36*
X110715868Y-141035101D02*
G01*
X110711608Y-141084866D01*
X110710878Y-141089427D01*
X110682206Y-141171004D01*
X110629846Y-141240165D01*
X110561158Y-141287021D01*
X110487396Y-141306416D01*
X110396668Y-141304911D01*
X110313205Y-141278906D01*
X110291465Y-141267932D01*
X110263510Y-141256174D01*
X110252872Y-141259832D01*
X110251185Y-141278906D01*
X110250410Y-141288418D01*
X110240407Y-141302485D01*
X110212623Y-141308962D01*
X110159277Y-141310526D01*
X110067369Y-141310526D01*
X110067369Y-140909328D01*
X110251185Y-140909328D01*
X110252502Y-140978832D01*
X110257848Y-141025106D01*
X110269262Y-141056807D01*
X110288783Y-141083373D01*
X110340329Y-141122873D01*
X110400650Y-141136115D01*
X110459144Y-141119740D01*
X110508410Y-141074060D01*
X110521432Y-141040634D01*
X110531051Y-140981441D01*
X110535280Y-140909626D01*
X110533948Y-140835967D01*
X110526884Y-140771239D01*
X110513917Y-140726222D01*
X110509774Y-140718840D01*
X110469840Y-140681738D01*
X110415722Y-140665301D01*
X110357600Y-140669124D01*
X110305653Y-140692802D01*
X110270063Y-140735929D01*
X110268592Y-140739556D01*
X110259767Y-140780026D01*
X110253542Y-140840499D01*
X110251185Y-140909328D01*
X110067369Y-140909328D01*
X110067369Y-140174210D01*
X110251185Y-140174210D01*
X110251185Y-140563732D01*
X110285232Y-140532920D01*
X110318014Y-140513769D01*
X110380059Y-140497760D01*
X110452589Y-140492602D01*
X110523419Y-140498935D01*
X110580368Y-140517400D01*
X110621128Y-140543666D01*
X110663113Y-140588412D01*
X110691370Y-140648588D01*
X110708355Y-140729988D01*
X110716528Y-140838405D01*
X110717729Y-140882230D01*
X110717816Y-140909626D01*
X110717986Y-140963659D01*
X110715868Y-141035101D01*
G37*
X110715868Y-141035101D02*
X110711608Y-141084866D01*
X110710878Y-141089427D01*
X110682206Y-141171004D01*
X110629846Y-141240165D01*
X110561158Y-141287021D01*
X110487396Y-141306416D01*
X110396668Y-141304911D01*
X110313205Y-141278906D01*
X110291465Y-141267932D01*
X110263510Y-141256174D01*
X110252872Y-141259832D01*
X110251185Y-141278906D01*
X110250410Y-141288418D01*
X110240407Y-141302485D01*
X110212623Y-141308962D01*
X110159277Y-141310526D01*
X110067369Y-141310526D01*
X110067369Y-140909328D01*
X110251185Y-140909328D01*
X110252502Y-140978832D01*
X110257848Y-141025106D01*
X110269262Y-141056807D01*
X110288783Y-141083373D01*
X110340329Y-141122873D01*
X110400650Y-141136115D01*
X110459144Y-141119740D01*
X110508410Y-141074060D01*
X110521432Y-141040634D01*
X110531051Y-140981441D01*
X110535280Y-140909626D01*
X110533948Y-140835967D01*
X110526884Y-140771239D01*
X110513917Y-140726222D01*
X110509774Y-140718840D01*
X110469840Y-140681738D01*
X110415722Y-140665301D01*
X110357600Y-140669124D01*
X110305653Y-140692802D01*
X110270063Y-140735929D01*
X110268592Y-140739556D01*
X110259767Y-140780026D01*
X110253542Y-140840499D01*
X110251185Y-140909328D01*
X110067369Y-140909328D01*
X110067369Y-140174210D01*
X110251185Y-140174210D01*
X110251185Y-140563732D01*
X110285232Y-140532920D01*
X110318014Y-140513769D01*
X110380059Y-140497760D01*
X110452589Y-140492602D01*
X110523419Y-140498935D01*
X110580368Y-140517400D01*
X110621128Y-140543666D01*
X110663113Y-140588412D01*
X110691370Y-140648588D01*
X110708355Y-140729988D01*
X110716528Y-140838405D01*
X110717729Y-140882230D01*
X110717816Y-140909626D01*
X110717986Y-140963659D01*
X110715868Y-141035101D01*
G36*
X112068722Y-141090000D02*
G01*
X112048360Y-141175846D01*
X112003067Y-141240412D01*
X111930593Y-141286937D01*
X111893140Y-141298256D01*
X111828990Y-141307078D01*
X111758840Y-141309185D01*
X111695548Y-141304330D01*
X111651976Y-141292268D01*
X111625512Y-141282606D01*
X111599601Y-141292268D01*
X111590123Y-141297866D01*
X111552294Y-141306943D01*
X111501132Y-141310526D01*
X111420922Y-141310526D01*
X111420922Y-141023857D01*
X111604737Y-141023857D01*
X111610915Y-141072753D01*
X111635297Y-141115765D01*
X111649249Y-141125074D01*
X111699051Y-141139583D01*
X111761225Y-141143205D01*
X111822196Y-141135845D01*
X111868388Y-141117408D01*
X111891399Y-141093030D01*
X111905527Y-141049713D01*
X111892998Y-141015376D01*
X111851582Y-140985520D01*
X111785005Y-140966366D01*
X111697182Y-140959605D01*
X111604737Y-140959605D01*
X111604737Y-141023857D01*
X111420922Y-141023857D01*
X111420922Y-140987142D01*
X111420928Y-140959176D01*
X111421232Y-140853767D01*
X111422376Y-140775401D01*
X111424877Y-140718871D01*
X111429256Y-140678970D01*
X111436032Y-140650492D01*
X111445725Y-140628230D01*
X111458853Y-140606978D01*
X111501084Y-140557180D01*
X111560930Y-140519160D01*
X111639543Y-140498184D01*
X111743136Y-140491736D01*
X111746503Y-140491743D01*
X111818513Y-140494995D01*
X111882966Y-140503103D01*
X111926952Y-140514470D01*
X111939010Y-140520166D01*
X111977391Y-140544289D01*
X112012124Y-140572960D01*
X112034977Y-140598760D01*
X112037716Y-140614273D01*
X112032370Y-140618465D01*
X111974127Y-140663218D01*
X111935181Y-140689613D01*
X111909431Y-140700262D01*
X111890772Y-140697780D01*
X111873101Y-140684782D01*
X111840490Y-140668556D01*
X111785533Y-140657737D01*
X111723420Y-140654931D01*
X111667217Y-140660642D01*
X111629984Y-140675376D01*
X111628025Y-140677169D01*
X111611294Y-140710850D01*
X111604737Y-140761125D01*
X111604737Y-140825921D01*
X111759310Y-140825983D01*
X111830314Y-140827107D01*
X111890082Y-140831996D01*
X111932837Y-140842055D01*
X111967380Y-140858665D01*
X111975419Y-140863767D01*
X112033576Y-140919847D01*
X112064510Y-140994004D01*
X112067125Y-141049713D01*
X112068912Y-141087796D01*
X112068722Y-141090000D01*
G37*
X112068722Y-141090000D02*
X112048360Y-141175846D01*
X112003067Y-141240412D01*
X111930593Y-141286937D01*
X111893140Y-141298256D01*
X111828990Y-141307078D01*
X111758840Y-141309185D01*
X111695548Y-141304330D01*
X111651976Y-141292268D01*
X111625512Y-141282606D01*
X111599601Y-141292268D01*
X111590123Y-141297866D01*
X111552294Y-141306943D01*
X111501132Y-141310526D01*
X111420922Y-141310526D01*
X111420922Y-141023857D01*
X111604737Y-141023857D01*
X111610915Y-141072753D01*
X111635297Y-141115765D01*
X111649249Y-141125074D01*
X111699051Y-141139583D01*
X111761225Y-141143205D01*
X111822196Y-141135845D01*
X111868388Y-141117408D01*
X111891399Y-141093030D01*
X111905527Y-141049713D01*
X111892998Y-141015376D01*
X111851582Y-140985520D01*
X111785005Y-140966366D01*
X111697182Y-140959605D01*
X111604737Y-140959605D01*
X111604737Y-141023857D01*
X111420922Y-141023857D01*
X111420922Y-140987142D01*
X111420928Y-140959176D01*
X111421232Y-140853767D01*
X111422376Y-140775401D01*
X111424877Y-140718871D01*
X111429256Y-140678970D01*
X111436032Y-140650492D01*
X111445725Y-140628230D01*
X111458853Y-140606978D01*
X111501084Y-140557180D01*
X111560930Y-140519160D01*
X111639543Y-140498184D01*
X111743136Y-140491736D01*
X111746503Y-140491743D01*
X111818513Y-140494995D01*
X111882966Y-140503103D01*
X111926952Y-140514470D01*
X111939010Y-140520166D01*
X111977391Y-140544289D01*
X112012124Y-140572960D01*
X112034977Y-140598760D01*
X112037716Y-140614273D01*
X112032370Y-140618465D01*
X111974127Y-140663218D01*
X111935181Y-140689613D01*
X111909431Y-140700262D01*
X111890772Y-140697780D01*
X111873101Y-140684782D01*
X111840490Y-140668556D01*
X111785533Y-140657737D01*
X111723420Y-140654931D01*
X111667217Y-140660642D01*
X111629984Y-140675376D01*
X111628025Y-140677169D01*
X111611294Y-140710850D01*
X111604737Y-140761125D01*
X111604737Y-140825921D01*
X111759310Y-140825983D01*
X111830314Y-140827107D01*
X111890082Y-140831996D01*
X111932837Y-140842055D01*
X111967380Y-140858665D01*
X111975419Y-140863767D01*
X112033576Y-140919847D01*
X112064510Y-140994004D01*
X112067125Y-141049713D01*
X112068912Y-141087796D01*
X112068722Y-141090000D01*
G36*
X110284254Y-133698576D02*
G01*
X110359803Y-134099322D01*
X110638567Y-134214238D01*
X110917332Y-134329154D01*
X111251756Y-134101748D01*
X111317946Y-134056917D01*
X111405693Y-133998071D01*
X111481663Y-133947810D01*
X111541911Y-133908715D01*
X111582491Y-133883365D01*
X111599457Y-133874342D01*
X111609877Y-133880759D01*
X111641025Y-133907647D01*
X111688161Y-133951774D01*
X111747293Y-134009087D01*
X111814426Y-134075535D01*
X111885566Y-134147065D01*
X111956719Y-134219626D01*
X112023892Y-134289167D01*
X112083090Y-134351635D01*
X112130319Y-134402978D01*
X112161586Y-134439145D01*
X112172895Y-134456083D01*
X112170264Y-134463361D01*
X112152048Y-134495824D01*
X112118782Y-134549249D01*
X112073164Y-134619449D01*
X112017890Y-134702236D01*
X111955658Y-134793421D01*
X111921506Y-134843152D01*
X111862757Y-134929731D01*
X111812388Y-135005291D01*
X111773086Y-135065733D01*
X111747535Y-135106961D01*
X111738422Y-135124876D01*
X111738571Y-135125869D01*
X111746611Y-135148580D01*
X111765054Y-135194955D01*
X111791331Y-135258937D01*
X111822871Y-135334468D01*
X111857102Y-135415489D01*
X111891454Y-135495943D01*
X111923355Y-135569772D01*
X111950235Y-135630918D01*
X111969522Y-135673322D01*
X111978646Y-135690926D01*
X111984045Y-135692488D01*
X112016846Y-135699531D01*
X112075306Y-135711199D01*
X112154746Y-135726580D01*
X112250486Y-135744760D01*
X112357846Y-135764830D01*
X112414431Y-135775471D01*
X112518289Y-135795773D01*
X112609097Y-135814522D01*
X112681891Y-135830642D01*
X112731708Y-135843056D01*
X112753586Y-135850686D01*
X112757516Y-135858250D01*
X112764034Y-135895209D01*
X112769156Y-135956765D01*
X112772884Y-136037127D01*
X112775223Y-136130503D01*
X112776177Y-136231101D01*
X112775749Y-136333128D01*
X112773945Y-136430793D01*
X112770766Y-136518304D01*
X112766219Y-136589869D01*
X112760306Y-136639696D01*
X112753031Y-136661993D01*
X112748617Y-136664508D01*
X112715694Y-136675296D01*
X112658582Y-136689569D01*
X112583882Y-136705764D01*
X112498196Y-136722319D01*
X112469285Y-136727592D01*
X112335755Y-136752113D01*
X112230813Y-136771821D01*
X112150820Y-136787531D01*
X112092139Y-136800062D01*
X112051132Y-136810229D01*
X112024161Y-136818851D01*
X112007588Y-136826745D01*
X111997775Y-136834727D01*
X111996635Y-136836067D01*
X111980588Y-136863997D01*
X111956843Y-136915104D01*
X111927701Y-136983392D01*
X111895463Y-137062866D01*
X111862430Y-137147529D01*
X111830904Y-137231387D01*
X111803186Y-137308444D01*
X111781577Y-137372704D01*
X111768379Y-137418172D01*
X111765893Y-137438852D01*
X111767555Y-137441535D01*
X111784765Y-137467484D01*
X111817130Y-137515345D01*
X111861650Y-137580710D01*
X111915323Y-137659170D01*
X111975149Y-137746315D01*
X111991567Y-137770292D01*
X112049303Y-137856295D01*
X112099200Y-137933211D01*
X112138409Y-137996477D01*
X112164083Y-138041532D01*
X112173374Y-138063815D01*
X112171372Y-138069673D01*
X112150503Y-138098541D01*
X112109331Y-138145680D01*
X112050803Y-138207920D01*
X111977867Y-138282087D01*
X111893473Y-138365008D01*
X111845234Y-138411421D01*
X111768962Y-138483708D01*
X111702205Y-138545624D01*
X111648546Y-138593911D01*
X111611570Y-138625307D01*
X111594863Y-138636554D01*
X111583385Y-138632384D01*
X111548045Y-138612663D01*
X111496723Y-138580410D01*
X111436113Y-138539711D01*
X111393020Y-138510011D01*
X111306987Y-138451030D01*
X111215179Y-138388390D01*
X111131323Y-138331469D01*
X110967053Y-138220359D01*
X110829160Y-138294916D01*
X110796690Y-138312125D01*
X110737642Y-138341560D01*
X110691979Y-138361883D01*
X110667574Y-138369460D01*
X110659588Y-138359730D01*
X110639756Y-138322679D01*
X110610462Y-138261593D01*
X110573338Y-138180349D01*
X110530013Y-138082823D01*
X110482118Y-137972891D01*
X110431281Y-137854432D01*
X110379133Y-137731321D01*
X110327304Y-137607435D01*
X110277424Y-137486650D01*
X110231123Y-137372844D01*
X110190031Y-137269893D01*
X110155778Y-137181673D01*
X110129993Y-137112062D01*
X110114308Y-137064936D01*
X110110351Y-137044172D01*
X110110619Y-137043565D01*
X110129050Y-137024370D01*
X110167602Y-136994306D01*
X110218316Y-136959609D01*
X110234324Y-136949014D01*
X110356125Y-136848498D01*
X110456929Y-136728777D01*
X110534351Y-136594834D01*
X110586004Y-136451653D01*
X110609500Y-136304216D01*
X110602454Y-136157507D01*
X110573910Y-136027020D01*
X110522659Y-135895257D01*
X110447945Y-135777706D01*
X110345414Y-135666042D01*
X110305127Y-135630369D01*
X110174889Y-135542480D01*
X110034197Y-135483288D01*
X109887127Y-135452265D01*
X109737758Y-135448879D01*
X109590167Y-135472602D01*
X109448429Y-135522904D01*
X109316623Y-135599255D01*
X109198826Y-135701125D01*
X109099114Y-135827984D01*
X109079943Y-135859400D01*
X109014783Y-136002992D01*
X108980177Y-136152517D01*
X108975218Y-136304105D01*
X108999001Y-136453882D01*
X109050619Y-136597976D01*
X109129166Y-136732515D01*
X109233736Y-136853625D01*
X109363422Y-136957434D01*
X109367634Y-136960232D01*
X109417810Y-136995590D01*
X109455417Y-137025653D01*
X109472594Y-137044172D01*
X109470426Y-137058690D01*
X109456951Y-137100965D01*
X109433058Y-137166486D01*
X109400375Y-137251377D01*
X109360533Y-137351759D01*
X109315160Y-137463757D01*
X109265887Y-137583491D01*
X109214341Y-137707084D01*
X109162154Y-137830659D01*
X109110953Y-137950339D01*
X109062368Y-138062245D01*
X109018030Y-138162500D01*
X108979566Y-138247227D01*
X108948606Y-138312547D01*
X108926779Y-138354584D01*
X108915716Y-138369460D01*
X108906516Y-138367446D01*
X108870371Y-138352966D01*
X108816951Y-138327578D01*
X108754131Y-138294916D01*
X108616238Y-138220359D01*
X108451968Y-138331469D01*
X108403436Y-138364370D01*
X108313166Y-138425845D01*
X108223171Y-138487418D01*
X108147177Y-138539711D01*
X108105237Y-138568209D01*
X108050726Y-138603616D01*
X108010309Y-138627855D01*
X107990568Y-138636842D01*
X107982087Y-138633026D01*
X107951429Y-138609656D01*
X107904168Y-138568510D01*
X107844416Y-138513635D01*
X107776288Y-138449077D01*
X107703896Y-138378885D01*
X107631356Y-138307106D01*
X107562780Y-138237786D01*
X107502282Y-138174973D01*
X107453976Y-138122714D01*
X107421976Y-138085057D01*
X107410395Y-138066048D01*
X107411063Y-138062431D01*
X107424847Y-138032993D01*
X107454292Y-137982062D01*
X107496553Y-137914238D01*
X107548785Y-137834123D01*
X107608142Y-137746315D01*
X107624789Y-137722096D01*
X107683244Y-137636868D01*
X107734733Y-137561521D01*
X107776256Y-137500463D01*
X107804811Y-137458104D01*
X107817398Y-137438852D01*
X107817707Y-137438027D01*
X107813993Y-137414473D01*
X107799807Y-137366759D01*
X107777451Y-137300879D01*
X107749227Y-137222830D01*
X107717435Y-137138607D01*
X107684378Y-137054205D01*
X107652356Y-136975621D01*
X107623671Y-136908850D01*
X107600623Y-136859886D01*
X107585515Y-136834727D01*
X107584002Y-136833165D01*
X107573185Y-136825263D01*
X107554915Y-136817294D01*
X107525556Y-136808441D01*
X107481470Y-136797887D01*
X107419018Y-136784815D01*
X107334564Y-136768408D01*
X107224469Y-136747848D01*
X107085095Y-136722319D01*
X107056187Y-136716946D01*
X106973377Y-136700337D01*
X106903718Y-136684600D01*
X106853812Y-136671298D01*
X106830259Y-136661993D01*
X106826319Y-136654230D01*
X106819750Y-136616942D01*
X106814544Y-136555125D01*
X106810706Y-136474572D01*
X106808239Y-136381075D01*
X106807147Y-136280426D01*
X106807435Y-136178417D01*
X106809107Y-136080839D01*
X106812165Y-135993485D01*
X106816615Y-135922147D01*
X106822460Y-135872617D01*
X106829704Y-135850686D01*
X106837101Y-135847446D01*
X106873896Y-135837233D01*
X106936091Y-135822789D01*
X107018723Y-135805189D01*
X107116828Y-135785510D01*
X107225444Y-135764830D01*
X107284750Y-135753781D01*
X107386398Y-135734621D01*
X107473890Y-135717844D01*
X107542549Y-135704361D01*
X107587693Y-135695084D01*
X107604644Y-135690926D01*
X107605281Y-135690069D01*
X107616077Y-135668293D01*
X107636657Y-135622671D01*
X107664449Y-135559258D01*
X107696882Y-135484107D01*
X107731382Y-135403270D01*
X107765378Y-135322799D01*
X107796297Y-135248749D01*
X107821566Y-135187172D01*
X107838615Y-135144121D01*
X107844869Y-135125650D01*
X107842110Y-135119150D01*
X107823750Y-135088222D01*
X107790446Y-135036163D01*
X107744874Y-134967059D01*
X107689711Y-134884993D01*
X107627632Y-134794052D01*
X107593573Y-134744248D01*
X107534797Y-134656931D01*
X107484403Y-134580298D01*
X107445080Y-134518531D01*
X107419514Y-134475806D01*
X107410395Y-134456305D01*
X107416732Y-134445727D01*
X107443237Y-134414119D01*
X107486720Y-134366283D01*
X107543189Y-134306273D01*
X107608653Y-134238142D01*
X107679121Y-134165945D01*
X107750601Y-134093733D01*
X107819100Y-134025562D01*
X107880629Y-133965483D01*
X107931194Y-133917551D01*
X107966805Y-133885820D01*
X107983470Y-133874342D01*
X107992720Y-133878805D01*
X108026689Y-133899502D01*
X108081505Y-133934727D01*
X108153218Y-133981896D01*
X108237878Y-134038431D01*
X108331535Y-134101748D01*
X108665959Y-134329154D01*
X109223487Y-134099322D01*
X109299036Y-133698576D01*
X109374585Y-133297829D01*
X110208706Y-133297829D01*
X110284254Y-133698576D01*
G37*
X110284254Y-133698576D02*
X110359803Y-134099322D01*
X110638567Y-134214238D01*
X110917332Y-134329154D01*
X111251756Y-134101748D01*
X111317946Y-134056917D01*
X111405693Y-133998071D01*
X111481663Y-133947810D01*
X111541911Y-133908715D01*
X111582491Y-133883365D01*
X111599457Y-133874342D01*
X111609877Y-133880759D01*
X111641025Y-133907647D01*
X111688161Y-133951774D01*
X111747293Y-134009087D01*
X111814426Y-134075535D01*
X111885566Y-134147065D01*
X111956719Y-134219626D01*
X112023892Y-134289167D01*
X112083090Y-134351635D01*
X112130319Y-134402978D01*
X112161586Y-134439145D01*
X112172895Y-134456083D01*
X112170264Y-134463361D01*
X112152048Y-134495824D01*
X112118782Y-134549249D01*
X112073164Y-134619449D01*
X112017890Y-134702236D01*
X111955658Y-134793421D01*
X111921506Y-134843152D01*
X111862757Y-134929731D01*
X111812388Y-135005291D01*
X111773086Y-135065733D01*
X111747535Y-135106961D01*
X111738422Y-135124876D01*
X111738571Y-135125869D01*
X111746611Y-135148580D01*
X111765054Y-135194955D01*
X111791331Y-135258937D01*
X111822871Y-135334468D01*
X111857102Y-135415489D01*
X111891454Y-135495943D01*
X111923355Y-135569772D01*
X111950235Y-135630918D01*
X111969522Y-135673322D01*
X111978646Y-135690926D01*
X111984045Y-135692488D01*
X112016846Y-135699531D01*
X112075306Y-135711199D01*
X112154746Y-135726580D01*
X112250486Y-135744760D01*
X112357846Y-135764830D01*
X112414431Y-135775471D01*
X112518289Y-135795773D01*
X112609097Y-135814522D01*
X112681891Y-135830642D01*
X112731708Y-135843056D01*
X112753586Y-135850686D01*
X112757516Y-135858250D01*
X112764034Y-135895209D01*
X112769156Y-135956765D01*
X112772884Y-136037127D01*
X112775223Y-136130503D01*
X112776177Y-136231101D01*
X112775749Y-136333128D01*
X112773945Y-136430793D01*
X112770766Y-136518304D01*
X112766219Y-136589869D01*
X112760306Y-136639696D01*
X112753031Y-136661993D01*
X112748617Y-136664508D01*
X112715694Y-136675296D01*
X112658582Y-136689569D01*
X112583882Y-136705764D01*
X112498196Y-136722319D01*
X112469285Y-136727592D01*
X112335755Y-136752113D01*
X112230813Y-136771821D01*
X112150820Y-136787531D01*
X112092139Y-136800062D01*
X112051132Y-136810229D01*
X112024161Y-136818851D01*
X112007588Y-136826745D01*
X111997775Y-136834727D01*
X111996635Y-136836067D01*
X111980588Y-136863997D01*
X111956843Y-136915104D01*
X111927701Y-136983392D01*
X111895463Y-137062866D01*
X111862430Y-137147529D01*
X111830904Y-137231387D01*
X111803186Y-137308444D01*
X111781577Y-137372704D01*
X111768379Y-137418172D01*
X111765893Y-137438852D01*
X111767555Y-137441535D01*
X111784765Y-137467484D01*
X111817130Y-137515345D01*
X111861650Y-137580710D01*
X111915323Y-137659170D01*
X111975149Y-137746315D01*
X111991567Y-137770292D01*
X112049303Y-137856295D01*
X112099200Y-137933211D01*
X112138409Y-137996477D01*
X112164083Y-138041532D01*
X112173374Y-138063815D01*
X112171372Y-138069673D01*
X112150503Y-138098541D01*
X112109331Y-138145680D01*
X112050803Y-138207920D01*
X111977867Y-138282087D01*
X111893473Y-138365008D01*
X111845234Y-138411421D01*
X111768962Y-138483708D01*
X111702205Y-138545624D01*
X111648546Y-138593911D01*
X111611570Y-138625307D01*
X111594863Y-138636554D01*
X111583385Y-138632384D01*
X111548045Y-138612663D01*
X111496723Y-138580410D01*
X111436113Y-138539711D01*
X111393020Y-138510011D01*
X111306987Y-138451030D01*
X111215179Y-138388390D01*
X111131323Y-138331469D01*
X110967053Y-138220359D01*
X110829160Y-138294916D01*
X110796690Y-138312125D01*
X110737642Y-138341560D01*
X110691979Y-138361883D01*
X110667574Y-138369460D01*
X110659588Y-138359730D01*
X110639756Y-138322679D01*
X110610462Y-138261593D01*
X110573338Y-138180349D01*
X110530013Y-138082823D01*
X110482118Y-137972891D01*
X110431281Y-137854432D01*
X110379133Y-137731321D01*
X110327304Y-137607435D01*
X110277424Y-137486650D01*
X110231123Y-137372844D01*
X110190031Y-137269893D01*
X110155778Y-137181673D01*
X110129993Y-137112062D01*
X110114308Y-137064936D01*
X110110351Y-137044172D01*
X110110619Y-137043565D01*
X110129050Y-137024370D01*
X110167602Y-136994306D01*
X110218316Y-136959609D01*
X110234324Y-136949014D01*
X110356125Y-136848498D01*
X110456929Y-136728777D01*
X110534351Y-136594834D01*
X110586004Y-136451653D01*
X110609500Y-136304216D01*
X110602454Y-136157507D01*
X110573910Y-136027020D01*
X110522659Y-135895257D01*
X110447945Y-135777706D01*
X110345414Y-135666042D01*
X110305127Y-135630369D01*
X110174889Y-135542480D01*
X110034197Y-135483288D01*
X109887127Y-135452265D01*
X109737758Y-135448879D01*
X109590167Y-135472602D01*
X109448429Y-135522904D01*
X109316623Y-135599255D01*
X109198826Y-135701125D01*
X109099114Y-135827984D01*
X109079943Y-135859400D01*
X109014783Y-136002992D01*
X108980177Y-136152517D01*
X108975218Y-136304105D01*
X108999001Y-136453882D01*
X109050619Y-136597976D01*
X109129166Y-136732515D01*
X109233736Y-136853625D01*
X109363422Y-136957434D01*
X109367634Y-136960232D01*
X109417810Y-136995590D01*
X109455417Y-137025653D01*
X109472594Y-137044172D01*
X109470426Y-137058690D01*
X109456951Y-137100965D01*
X109433058Y-137166486D01*
X109400375Y-137251377D01*
X109360533Y-137351759D01*
X109315160Y-137463757D01*
X109265887Y-137583491D01*
X109214341Y-137707084D01*
X109162154Y-137830659D01*
X109110953Y-137950339D01*
X109062368Y-138062245D01*
X109018030Y-138162500D01*
X108979566Y-138247227D01*
X108948606Y-138312547D01*
X108926779Y-138354584D01*
X108915716Y-138369460D01*
X108906516Y-138367446D01*
X108870371Y-138352966D01*
X108816951Y-138327578D01*
X108754131Y-138294916D01*
X108616238Y-138220359D01*
X108451968Y-138331469D01*
X108403436Y-138364370D01*
X108313166Y-138425845D01*
X108223171Y-138487418D01*
X108147177Y-138539711D01*
X108105237Y-138568209D01*
X108050726Y-138603616D01*
X108010309Y-138627855D01*
X107990568Y-138636842D01*
X107982087Y-138633026D01*
X107951429Y-138609656D01*
X107904168Y-138568510D01*
X107844416Y-138513635D01*
X107776288Y-138449077D01*
X107703896Y-138378885D01*
X107631356Y-138307106D01*
X107562780Y-138237786D01*
X107502282Y-138174973D01*
X107453976Y-138122714D01*
X107421976Y-138085057D01*
X107410395Y-138066048D01*
X107411063Y-138062431D01*
X107424847Y-138032993D01*
X107454292Y-137982062D01*
X107496553Y-137914238D01*
X107548785Y-137834123D01*
X107608142Y-137746315D01*
X107624789Y-137722096D01*
X107683244Y-137636868D01*
X107734733Y-137561521D01*
X107776256Y-137500463D01*
X107804811Y-137458104D01*
X107817398Y-137438852D01*
X107817707Y-137438027D01*
X107813993Y-137414473D01*
X107799807Y-137366759D01*
X107777451Y-137300879D01*
X107749227Y-137222830D01*
X107717435Y-137138607D01*
X107684378Y-137054205D01*
X107652356Y-136975621D01*
X107623671Y-136908850D01*
X107600623Y-136859886D01*
X107585515Y-136834727D01*
X107584002Y-136833165D01*
X107573185Y-136825263D01*
X107554915Y-136817294D01*
X107525556Y-136808441D01*
X107481470Y-136797887D01*
X107419018Y-136784815D01*
X107334564Y-136768408D01*
X107224469Y-136747848D01*
X107085095Y-136722319D01*
X107056187Y-136716946D01*
X106973377Y-136700337D01*
X106903718Y-136684600D01*
X106853812Y-136671298D01*
X106830259Y-136661993D01*
X106826319Y-136654230D01*
X106819750Y-136616942D01*
X106814544Y-136555125D01*
X106810706Y-136474572D01*
X106808239Y-136381075D01*
X106807147Y-136280426D01*
X106807435Y-136178417D01*
X106809107Y-136080839D01*
X106812165Y-135993485D01*
X106816615Y-135922147D01*
X106822460Y-135872617D01*
X106829704Y-135850686D01*
X106837101Y-135847446D01*
X106873896Y-135837233D01*
X106936091Y-135822789D01*
X107018723Y-135805189D01*
X107116828Y-135785510D01*
X107225444Y-135764830D01*
X107284750Y-135753781D01*
X107386398Y-135734621D01*
X107473890Y-135717844D01*
X107542549Y-135704361D01*
X107587693Y-135695084D01*
X107604644Y-135690926D01*
X107605281Y-135690069D01*
X107616077Y-135668293D01*
X107636657Y-135622671D01*
X107664449Y-135559258D01*
X107696882Y-135484107D01*
X107731382Y-135403270D01*
X107765378Y-135322799D01*
X107796297Y-135248749D01*
X107821566Y-135187172D01*
X107838615Y-135144121D01*
X107844869Y-135125650D01*
X107842110Y-135119150D01*
X107823750Y-135088222D01*
X107790446Y-135036163D01*
X107744874Y-134967059D01*
X107689711Y-134884993D01*
X107627632Y-134794052D01*
X107593573Y-134744248D01*
X107534797Y-134656931D01*
X107484403Y-134580298D01*
X107445080Y-134518531D01*
X107419514Y-134475806D01*
X107410395Y-134456305D01*
X107416732Y-134445727D01*
X107443237Y-134414119D01*
X107486720Y-134366283D01*
X107543189Y-134306273D01*
X107608653Y-134238142D01*
X107679121Y-134165945D01*
X107750601Y-134093733D01*
X107819100Y-134025562D01*
X107880629Y-133965483D01*
X107931194Y-133917551D01*
X107966805Y-133885820D01*
X107983470Y-133874342D01*
X107992720Y-133878805D01*
X108026689Y-133899502D01*
X108081505Y-133934727D01*
X108153218Y-133981896D01*
X108237878Y-134038431D01*
X108331535Y-134101748D01*
X108665959Y-134329154D01*
X109223487Y-134099322D01*
X109299036Y-133698576D01*
X109374585Y-133297829D01*
X110208706Y-133297829D01*
X110284254Y-133698576D01*
G36*
X107053610Y-139242247D02*
G01*
X107144791Y-139277771D01*
X107221907Y-139336413D01*
X107278864Y-139416956D01*
X107282710Y-139425169D01*
X107307130Y-139505267D01*
X107319330Y-139600948D01*
X107319234Y-139700569D01*
X107306764Y-139792488D01*
X107281843Y-139865066D01*
X107251073Y-139915650D01*
X107183344Y-139987310D01*
X107098657Y-140032862D01*
X107026202Y-140051282D01*
X106915875Y-140053293D01*
X106810302Y-140025513D01*
X106716682Y-139969142D01*
X106656088Y-139919196D01*
X106710664Y-139862887D01*
X106745144Y-139829530D01*
X106776332Y-139810958D01*
X106805250Y-139815047D01*
X106842237Y-139840000D01*
X106856985Y-139849768D01*
X106919291Y-139869762D01*
X106990903Y-139869749D01*
X107057950Y-139849143D01*
X107083196Y-139832595D01*
X107120228Y-139783730D01*
X107138792Y-139711958D01*
X107139987Y-139614136D01*
X107139983Y-139614081D01*
X107126171Y-139526562D01*
X107095744Y-139465881D01*
X107045676Y-139428345D01*
X106972941Y-139410261D01*
X106927137Y-139407829D01*
X106887116Y-139417789D01*
X106846070Y-139446642D01*
X106792954Y-139491336D01*
X106725688Y-139437279D01*
X106701113Y-139416570D01*
X106670416Y-139386899D01*
X106658422Y-139369413D01*
X106662669Y-139361533D01*
X106687135Y-139337340D01*
X106726110Y-139306571D01*
X106756605Y-139286549D01*
X106853424Y-139245419D01*
X106954457Y-139231057D01*
X107053610Y-139242247D01*
G37*
X107053610Y-139242247D02*
X107144791Y-139277771D01*
X107221907Y-139336413D01*
X107278864Y-139416956D01*
X107282710Y-139425169D01*
X107307130Y-139505267D01*
X107319330Y-139600948D01*
X107319234Y-139700569D01*
X107306764Y-139792488D01*
X107281843Y-139865066D01*
X107251073Y-139915650D01*
X107183344Y-139987310D01*
X107098657Y-140032862D01*
X107026202Y-140051282D01*
X106915875Y-140053293D01*
X106810302Y-140025513D01*
X106716682Y-139969142D01*
X106656088Y-139919196D01*
X106710664Y-139862887D01*
X106745144Y-139829530D01*
X106776332Y-139810958D01*
X106805250Y-139815047D01*
X106842237Y-139840000D01*
X106856985Y-139849768D01*
X106919291Y-139869762D01*
X106990903Y-139869749D01*
X107057950Y-139849143D01*
X107083196Y-139832595D01*
X107120228Y-139783730D01*
X107138792Y-139711958D01*
X107139987Y-139614136D01*
X107139983Y-139614081D01*
X107126171Y-139526562D01*
X107095744Y-139465881D01*
X107045676Y-139428345D01*
X106972941Y-139410261D01*
X106927137Y-139407829D01*
X106887116Y-139417789D01*
X106846070Y-139446642D01*
X106792954Y-139491336D01*
X106725688Y-139437279D01*
X106701113Y-139416570D01*
X106670416Y-139386899D01*
X106658422Y-139369413D01*
X106662669Y-139361533D01*
X106687135Y-139337340D01*
X106726110Y-139306571D01*
X106756605Y-139286549D01*
X106853424Y-139245419D01*
X106954457Y-139231057D01*
X107053610Y-139242247D01*
G36*
X113605273Y-139737701D02*
G01*
X113600376Y-139801519D01*
X113592033Y-139846752D01*
X113578256Y-139882593D01*
X113557057Y-139918236D01*
X113556154Y-139919587D01*
X113503953Y-139977335D01*
X113440083Y-140021380D01*
X113365813Y-140047517D01*
X113268110Y-140056003D01*
X113172350Y-140039316D01*
X113086755Y-139999106D01*
X113019545Y-139937022D01*
X113000250Y-139907688D01*
X112964216Y-139816496D01*
X112946344Y-139703984D01*
X112946650Y-139675524D01*
X113126249Y-139675524D01*
X113126588Y-139728750D01*
X113132231Y-139764284D01*
X113145089Y-139791589D01*
X113167072Y-139820124D01*
X113197579Y-139848440D01*
X113258592Y-139873710D01*
X113324106Y-139869016D01*
X113386719Y-139833896D01*
X113404381Y-139817122D01*
X113423239Y-139788407D01*
X113433696Y-139748046D01*
X113439624Y-139685154D01*
X113441257Y-139637910D01*
X113432311Y-139541428D01*
X113404860Y-139472352D01*
X113358781Y-139430301D01*
X113304766Y-139410165D01*
X113240349Y-139411860D01*
X113180637Y-139445855D01*
X113166361Y-139458797D01*
X113148347Y-139481440D01*
X113137659Y-139511064D01*
X113131729Y-139556482D01*
X113127988Y-139626506D01*
X113126249Y-139675524D01*
X112946650Y-139675524D01*
X112947723Y-139575624D01*
X112949482Y-139557418D01*
X112974024Y-139440812D01*
X113019430Y-139350290D01*
X113085795Y-139285754D01*
X113173216Y-139247104D01*
X113281791Y-139234243D01*
X113322811Y-139235450D01*
X113406934Y-139250220D01*
X113475722Y-139285474D01*
X113539854Y-139345828D01*
X113550110Y-139357942D01*
X113577774Y-139398737D01*
X113595955Y-139444930D01*
X113606036Y-139503468D01*
X113609401Y-139581299D01*
X113608329Y-139637910D01*
X113607431Y-139685368D01*
X113605273Y-139737701D01*
G37*
X113605273Y-139737701D02*
X113600376Y-139801519D01*
X113592033Y-139846752D01*
X113578256Y-139882593D01*
X113557057Y-139918236D01*
X113556154Y-139919587D01*
X113503953Y-139977335D01*
X113440083Y-140021380D01*
X113365813Y-140047517D01*
X113268110Y-140056003D01*
X113172350Y-140039316D01*
X113086755Y-139999106D01*
X113019545Y-139937022D01*
X113000250Y-139907688D01*
X112964216Y-139816496D01*
X112946344Y-139703984D01*
X112946650Y-139675524D01*
X113126249Y-139675524D01*
X113126588Y-139728750D01*
X113132231Y-139764284D01*
X113145089Y-139791589D01*
X113167072Y-139820124D01*
X113197579Y-139848440D01*
X113258592Y-139873710D01*
X113324106Y-139869016D01*
X113386719Y-139833896D01*
X113404381Y-139817122D01*
X113423239Y-139788407D01*
X113433696Y-139748046D01*
X113439624Y-139685154D01*
X113441257Y-139637910D01*
X113432311Y-139541428D01*
X113404860Y-139472352D01*
X113358781Y-139430301D01*
X113304766Y-139410165D01*
X113240349Y-139411860D01*
X113180637Y-139445855D01*
X113166361Y-139458797D01*
X113148347Y-139481440D01*
X113137659Y-139511064D01*
X113131729Y-139556482D01*
X113127988Y-139626506D01*
X113126249Y-139675524D01*
X112946650Y-139675524D01*
X112947723Y-139575624D01*
X112949482Y-139557418D01*
X112974024Y-139440812D01*
X113019430Y-139350290D01*
X113085795Y-139285754D01*
X113173216Y-139247104D01*
X113281791Y-139234243D01*
X113322811Y-139235450D01*
X113406934Y-139250220D01*
X113475722Y-139285474D01*
X113539854Y-139345828D01*
X113550110Y-139357942D01*
X113577774Y-139398737D01*
X113595955Y-139444930D01*
X113606036Y-139503468D01*
X113609401Y-139581299D01*
X113608329Y-139637910D01*
X113607431Y-139685368D01*
X113605273Y-139737701D01*
G36*
X107523684Y-139232216D02*
G01*
X107564650Y-139245005D01*
X107615099Y-139266261D01*
X107639526Y-139277684D01*
X107657155Y-139279749D01*
X107661053Y-139263916D01*
X107661057Y-139263468D01*
X107669312Y-139248351D01*
X107697781Y-139240603D01*
X107752961Y-139238421D01*
X107844869Y-139238421D01*
X107844869Y-140040526D01*
X107661053Y-140040526D01*
X107661053Y-139487483D01*
X107615358Y-139445134D01*
X107601082Y-139433098D01*
X107558558Y-139412534D01*
X107506192Y-139411710D01*
X107434889Y-139429856D01*
X107410852Y-139431005D01*
X107382656Y-139413402D01*
X107345126Y-139371562D01*
X107326921Y-139348419D01*
X107305391Y-139315742D01*
X107302073Y-139294942D01*
X107314128Y-139277395D01*
X107351135Y-139255206D01*
X107408612Y-139237645D01*
X107470972Y-139228938D01*
X107523684Y-139232216D01*
G37*
X107523684Y-139232216D02*
X107564650Y-139245005D01*
X107615099Y-139266261D01*
X107639526Y-139277684D01*
X107657155Y-139279749D01*
X107661053Y-139263916D01*
X107661057Y-139263468D01*
X107669312Y-139248351D01*
X107697781Y-139240603D01*
X107752961Y-139238421D01*
X107844869Y-139238421D01*
X107844869Y-140040526D01*
X107661053Y-140040526D01*
X107661053Y-139487483D01*
X107615358Y-139445134D01*
X107601082Y-139433098D01*
X107558558Y-139412534D01*
X107506192Y-139411710D01*
X107434889Y-139429856D01*
X107410852Y-139431005D01*
X107382656Y-139413402D01*
X107345126Y-139371562D01*
X107326921Y-139348419D01*
X107305391Y-139315742D01*
X107302073Y-139294942D01*
X107314128Y-139277395D01*
X107351135Y-139255206D01*
X107408612Y-139237645D01*
X107470972Y-139228938D01*
X107523684Y-139232216D01*
G36*
X110972937Y-139236840D02*
G01*
X111049112Y-139260773D01*
X111082699Y-139277040D01*
X111099592Y-139278720D01*
X111103422Y-139263916D01*
X111103425Y-139263468D01*
X111111680Y-139248351D01*
X111140149Y-139240603D01*
X111195329Y-139238421D01*
X111287237Y-139238421D01*
X111287237Y-140040526D01*
X111103422Y-140040526D01*
X111103422Y-139764043D01*
X111103296Y-139670680D01*
X111102436Y-139593988D01*
X111100137Y-139540322D01*
X111095690Y-139504212D01*
X111088390Y-139480191D01*
X111077530Y-139462791D01*
X111062405Y-139446543D01*
X111041801Y-139429261D01*
X110982555Y-139406042D01*
X110920366Y-139412857D01*
X110863398Y-139449581D01*
X110847115Y-139466673D01*
X110835426Y-139483971D01*
X110827586Y-139506990D01*
X110822827Y-139541271D01*
X110820379Y-139592353D01*
X110819473Y-139665777D01*
X110819343Y-139767081D01*
X110819343Y-140040526D01*
X110635527Y-140040526D01*
X110635894Y-139743914D01*
X110635919Y-139730702D01*
X110637513Y-139604535D01*
X110642408Y-139506528D01*
X110651864Y-139431915D01*
X110667139Y-139375931D01*
X110689490Y-139333809D01*
X110720175Y-139300784D01*
X110760454Y-139272090D01*
X110802043Y-139252226D01*
X110885800Y-139234178D01*
X110972937Y-139236840D01*
G37*
X110972937Y-139236840D02*
X111049112Y-139260773D01*
X111082699Y-139277040D01*
X111099592Y-139278720D01*
X111103422Y-139263916D01*
X111103425Y-139263468D01*
X111111680Y-139248351D01*
X111140149Y-139240603D01*
X111195329Y-139238421D01*
X111287237Y-139238421D01*
X111287237Y-140040526D01*
X111103422Y-140040526D01*
X111103422Y-139764043D01*
X111103296Y-139670680D01*
X111102436Y-139593988D01*
X111100137Y-139540322D01*
X111095690Y-139504212D01*
X111088390Y-139480191D01*
X111077530Y-139462791D01*
X111062405Y-139446543D01*
X111041801Y-139429261D01*
X110982555Y-139406042D01*
X110920366Y-139412857D01*
X110863398Y-139449581D01*
X110847115Y-139466673D01*
X110835426Y-139483971D01*
X110827586Y-139506990D01*
X110822827Y-139541271D01*
X110820379Y-139592353D01*
X110819473Y-139665777D01*
X110819343Y-139767081D01*
X110819343Y-140040526D01*
X110635527Y-140040526D01*
X110635894Y-139743914D01*
X110635919Y-139730702D01*
X110637513Y-139604535D01*
X110642408Y-139506528D01*
X110651864Y-139431915D01*
X110667139Y-139375931D01*
X110689490Y-139333809D01*
X110720175Y-139300784D01*
X110760454Y-139272090D01*
X110802043Y-139252226D01*
X110885800Y-139234178D01*
X110972937Y-139236840D01*
G36*
X112736875Y-141307222D02*
G01*
X112649145Y-141302171D01*
X112644974Y-141034802D01*
X112643740Y-140969788D01*
X112640237Y-140872111D01*
X112634224Y-140800434D01*
X112624597Y-140749940D01*
X112610249Y-140715810D01*
X112590075Y-140693227D01*
X112562970Y-140677372D01*
X112512112Y-140661180D01*
X112461534Y-140667472D01*
X112408125Y-140702077D01*
X112356711Y-140745339D01*
X112356711Y-141310526D01*
X112172895Y-141310526D01*
X112172895Y-141004010D01*
X112173072Y-140907935D01*
X112174049Y-140822562D01*
X112176399Y-140760071D01*
X112180691Y-140714794D01*
X112187495Y-140681068D01*
X112197378Y-140653227D01*
X112210910Y-140625605D01*
X112214119Y-140619741D01*
X112256792Y-140562627D01*
X112306735Y-140522714D01*
X112366948Y-140501756D01*
X112446680Y-140492427D01*
X112526527Y-140497480D01*
X112591488Y-140517205D01*
X112640790Y-140542700D01*
X112640790Y-139990931D01*
X112573237Y-140026142D01*
X112545019Y-140038934D01*
X112455950Y-140057023D01*
X112367434Y-140044521D01*
X112285381Y-140002952D01*
X112215704Y-139933843D01*
X112204789Y-139917600D01*
X112194298Y-139893790D01*
X112187455Y-139861418D01*
X112183504Y-139814271D01*
X112181688Y-139746135D01*
X112181362Y-139675142D01*
X112357891Y-139675142D01*
X112358040Y-139734431D01*
X112362573Y-139773969D01*
X112372760Y-139802189D01*
X112389872Y-139827519D01*
X112411610Y-139851069D01*
X112446372Y-139868892D01*
X112498750Y-139873421D01*
X112545020Y-139869480D01*
X112590817Y-139849759D01*
X112620312Y-139809809D01*
X112636104Y-139745600D01*
X112640790Y-139653101D01*
X112639578Y-139603894D01*
X112627481Y-139511006D01*
X112602523Y-139448196D01*
X112564844Y-139415906D01*
X112526789Y-139406822D01*
X112460513Y-139411081D01*
X112404516Y-139437452D01*
X112391114Y-139449545D01*
X112376913Y-139470467D01*
X112368133Y-139501611D01*
X112362919Y-139550710D01*
X112359416Y-139625498D01*
X112357891Y-139675142D01*
X112181362Y-139675142D01*
X112181250Y-139650797D01*
X112181400Y-139607296D01*
X112183962Y-139506111D01*
X112191097Y-139430522D01*
X112204606Y-139374817D01*
X112226294Y-139333283D01*
X112257960Y-139300206D01*
X112301408Y-139269874D01*
X112336640Y-139252468D01*
X112420173Y-139233271D01*
X112508222Y-139235887D01*
X112586481Y-139260772D01*
X112620067Y-139277039D01*
X112636960Y-139278720D01*
X112640790Y-139263916D01*
X112640794Y-139263468D01*
X112649048Y-139248351D01*
X112677517Y-139240603D01*
X112732698Y-139238421D01*
X112824606Y-139238421D01*
X112824606Y-141312273D01*
X112736875Y-141307222D01*
G37*
X112736875Y-141307222D02*
X112649145Y-141302171D01*
X112644974Y-141034802D01*
X112643740Y-140969788D01*
X112640237Y-140872111D01*
X112634224Y-140800434D01*
X112624597Y-140749940D01*
X112610249Y-140715810D01*
X112590075Y-140693227D01*
X112562970Y-140677372D01*
X112512112Y-140661180D01*
X112461534Y-140667472D01*
X112408125Y-140702077D01*
X112356711Y-140745339D01*
X112356711Y-141310526D01*
X112172895Y-141310526D01*
X112172895Y-141004010D01*
X112173072Y-140907935D01*
X112174049Y-140822562D01*
X112176399Y-140760071D01*
X112180691Y-140714794D01*
X112187495Y-140681068D01*
X112197378Y-140653227D01*
X112210910Y-140625605D01*
X112214119Y-140619741D01*
X112256792Y-140562627D01*
X112306735Y-140522714D01*
X112366948Y-140501756D01*
X112446680Y-140492427D01*
X112526527Y-140497480D01*
X112591488Y-140517205D01*
X112640790Y-140542700D01*
X112640790Y-139990931D01*
X112573237Y-140026142D01*
X112545019Y-140038934D01*
X112455950Y-140057023D01*
X112367434Y-140044521D01*
X112285381Y-140002952D01*
X112215704Y-139933843D01*
X112204789Y-139917600D01*
X112194298Y-139893790D01*
X112187455Y-139861418D01*
X112183504Y-139814271D01*
X112181688Y-139746135D01*
X112181362Y-139675142D01*
X112357891Y-139675142D01*
X112358040Y-139734431D01*
X112362573Y-139773969D01*
X112372760Y-139802189D01*
X112389872Y-139827519D01*
X112411610Y-139851069D01*
X112446372Y-139868892D01*
X112498750Y-139873421D01*
X112545020Y-139869480D01*
X112590817Y-139849759D01*
X112620312Y-139809809D01*
X112636104Y-139745600D01*
X112640790Y-139653101D01*
X112639578Y-139603894D01*
X112627481Y-139511006D01*
X112602523Y-139448196D01*
X112564844Y-139415906D01*
X112526789Y-139406822D01*
X112460513Y-139411081D01*
X112404516Y-139437452D01*
X112391114Y-139449545D01*
X112376913Y-139470467D01*
X112368133Y-139501611D01*
X112362919Y-139550710D01*
X112359416Y-139625498D01*
X112357891Y-139675142D01*
X112181362Y-139675142D01*
X112181250Y-139650797D01*
X112181400Y-139607296D01*
X112183962Y-139506111D01*
X112191097Y-139430522D01*
X112204606Y-139374817D01*
X112226294Y-139333283D01*
X112257960Y-139300206D01*
X112301408Y-139269874D01*
X112336640Y-139252468D01*
X112420173Y-139233271D01*
X112508222Y-139235887D01*
X112586481Y-139260772D01*
X112620067Y-139277039D01*
X112636960Y-139278720D01*
X112640790Y-139263916D01*
X112640794Y-139263468D01*
X112649048Y-139248351D01*
X112677517Y-139240603D01*
X112732698Y-139238421D01*
X112824606Y-139238421D01*
X112824606Y-141312273D01*
X112736875Y-141307222D01*
G36*
X107767063Y-140502716D02*
G01*
X107817550Y-140526344D01*
X107861579Y-140560978D01*
X107861579Y-140526344D01*
X107862676Y-140513194D01*
X107872885Y-140499252D01*
X107900493Y-140493094D01*
X107953487Y-140491710D01*
X108045395Y-140491710D01*
X108045395Y-141310526D01*
X107861579Y-141310526D01*
X107861579Y-141043944D01*
X107861557Y-141028640D01*
X107859989Y-140921060D01*
X107856141Y-140833427D01*
X107850287Y-140770224D01*
X107842701Y-140735929D01*
X107835736Y-140722982D01*
X107792860Y-140682378D01*
X107734458Y-140664404D01*
X107670686Y-140672789D01*
X107655044Y-140678472D01*
X107621721Y-140688517D01*
X107598947Y-140685398D01*
X107576031Y-140664979D01*
X107542283Y-140623127D01*
X107487547Y-140554017D01*
X107526020Y-140522864D01*
X107562592Y-140504112D01*
X107626833Y-140491447D01*
X107699240Y-140491033D01*
X107767063Y-140502716D01*
G37*
X107767063Y-140502716D02*
X107817550Y-140526344D01*
X107861579Y-140560978D01*
X107861579Y-140526344D01*
X107862676Y-140513194D01*
X107872885Y-140499252D01*
X107900493Y-140493094D01*
X107953487Y-140491710D01*
X108045395Y-140491710D01*
X108045395Y-141310526D01*
X107861579Y-141310526D01*
X107861579Y-141043944D01*
X107861557Y-141028640D01*
X107859989Y-140921060D01*
X107856141Y-140833427D01*
X107850287Y-140770224D01*
X107842701Y-140735929D01*
X107835736Y-140722982D01*
X107792860Y-140682378D01*
X107734458Y-140664404D01*
X107670686Y-140672789D01*
X107655044Y-140678472D01*
X107621721Y-140688517D01*
X107598947Y-140685398D01*
X107576031Y-140664979D01*
X107542283Y-140623127D01*
X107487547Y-140554017D01*
X107526020Y-140522864D01*
X107562592Y-140504112D01*
X107626833Y-140491447D01*
X107699240Y-140491033D01*
X107767063Y-140502716D01*
G36*
X109440320Y-139750001D02*
G01*
X109419714Y-139850965D01*
X109382857Y-139928007D01*
X109326761Y-139986201D01*
X109248434Y-140030617D01*
X109218023Y-140041188D01*
X109139263Y-140054377D01*
X109056384Y-140054018D01*
X108986450Y-140039531D01*
X108985076Y-140039005D01*
X108928718Y-140005852D01*
X108871780Y-139954530D01*
X108824535Y-139895840D01*
X108797255Y-139840584D01*
X108789169Y-139800193D01*
X108782246Y-139724569D01*
X108781085Y-139657161D01*
X108949442Y-139657161D01*
X108959507Y-139738014D01*
X108983151Y-139804451D01*
X109018973Y-139847862D01*
X109032551Y-139855316D01*
X109084327Y-139868864D01*
X109144213Y-139871651D01*
X109194596Y-139862237D01*
X109214260Y-139848736D01*
X109241862Y-139801523D01*
X109259230Y-139727630D01*
X109265264Y-139630663D01*
X109265167Y-139602750D01*
X109263071Y-139546190D01*
X109256100Y-139509294D01*
X109241475Y-139482031D01*
X109216418Y-139454372D01*
X109168736Y-139420849D01*
X109106663Y-139407143D01*
X109046689Y-139420197D01*
X108996891Y-139457951D01*
X108965345Y-139518349D01*
X108954358Y-139570502D01*
X108949442Y-139657161D01*
X108781085Y-139657161D01*
X108780763Y-139638442D01*
X108784478Y-139552719D01*
X108793145Y-139478305D01*
X108806522Y-139426106D01*
X108837679Y-139367006D01*
X108903808Y-139294340D01*
X108988331Y-139248310D01*
X109088734Y-139230090D01*
X109202505Y-139240858D01*
X109221435Y-139245445D01*
X109309595Y-139285000D01*
X109376028Y-139349941D01*
X109420735Y-139440271D01*
X109443718Y-139555994D01*
X109444387Y-139630663D01*
X109444982Y-139697116D01*
X109440320Y-139750001D01*
G37*
X109440320Y-139750001D02*
X109419714Y-139850965D01*
X109382857Y-139928007D01*
X109326761Y-139986201D01*
X109248434Y-140030617D01*
X109218023Y-140041188D01*
X109139263Y-140054377D01*
X109056384Y-140054018D01*
X108986450Y-140039531D01*
X108985076Y-140039005D01*
X108928718Y-140005852D01*
X108871780Y-139954530D01*
X108824535Y-139895840D01*
X108797255Y-139840584D01*
X108789169Y-139800193D01*
X108782246Y-139724569D01*
X108781085Y-139657161D01*
X108949442Y-139657161D01*
X108959507Y-139738014D01*
X108983151Y-139804451D01*
X109018973Y-139847862D01*
X109032551Y-139855316D01*
X109084327Y-139868864D01*
X109144213Y-139871651D01*
X109194596Y-139862237D01*
X109214260Y-139848736D01*
X109241862Y-139801523D01*
X109259230Y-139727630D01*
X109265264Y-139630663D01*
X109265167Y-139602750D01*
X109263071Y-139546190D01*
X109256100Y-139509294D01*
X109241475Y-139482031D01*
X109216418Y-139454372D01*
X109168736Y-139420849D01*
X109106663Y-139407143D01*
X109046689Y-139420197D01*
X108996891Y-139457951D01*
X108965345Y-139518349D01*
X108954358Y-139570502D01*
X108949442Y-139657161D01*
X108781085Y-139657161D01*
X108780763Y-139638442D01*
X108784478Y-139552719D01*
X108793145Y-139478305D01*
X108806522Y-139426106D01*
X108837679Y-139367006D01*
X108903808Y-139294340D01*
X108988331Y-139248310D01*
X109088734Y-139230090D01*
X109202505Y-139240858D01*
X109221435Y-139245445D01*
X109309595Y-139285000D01*
X109376028Y-139349941D01*
X109420735Y-139440271D01*
X109443718Y-139555994D01*
X109444387Y-139630663D01*
X109444982Y-139697116D01*
X109440320Y-139750001D01*
G36*
X109578063Y-140754107D02*
G01*
X109600655Y-140821510D01*
X109627379Y-140896127D01*
X109649696Y-140952654D01*
X109665759Y-140986486D01*
X109673724Y-140993016D01*
X109675646Y-140987337D01*
X109686049Y-140952507D01*
X109702619Y-140894335D01*
X109723516Y-140819333D01*
X109746900Y-140734013D01*
X109810518Y-140500066D01*
X109907655Y-140494990D01*
X109915854Y-140494584D01*
X109968235Y-140494046D01*
X109993406Y-140499423D01*
X109996612Y-140511701D01*
X109992562Y-140523692D01*
X109979241Y-140564734D01*
X109958384Y-140629736D01*
X109931479Y-140714048D01*
X109900012Y-140813022D01*
X109865469Y-140922006D01*
X109742505Y-141310526D01*
X109588689Y-141310526D01*
X109516213Y-141064046D01*
X109502830Y-141018785D01*
X109478096Y-140936502D01*
X109456962Y-140867940D01*
X109441329Y-140819225D01*
X109433102Y-140796483D01*
X109430758Y-140794787D01*
X109419351Y-140809456D01*
X109403065Y-140848248D01*
X109384606Y-140905102D01*
X109383631Y-140908441D01*
X109358917Y-140992347D01*
X109330641Y-141087351D01*
X109304730Y-141173528D01*
X109262714Y-141312253D01*
X109107750Y-141302171D01*
X109035987Y-141076579D01*
X109004480Y-140977454D01*
X108969187Y-140866281D01*
X108935393Y-140759704D01*
X108907418Y-140671349D01*
X108850613Y-140491710D01*
X109040656Y-140491710D01*
X109086720Y-140662993D01*
X109098965Y-140708251D01*
X109122125Y-140792625D01*
X109143572Y-140869384D01*
X109159876Y-140926184D01*
X109186969Y-141018092D01*
X109273374Y-140759079D01*
X109359780Y-140500066D01*
X109425870Y-140495104D01*
X109491959Y-140490143D01*
X109578063Y-140754107D01*
G37*
X109578063Y-140754107D02*
X109600655Y-140821510D01*
X109627379Y-140896127D01*
X109649696Y-140952654D01*
X109665759Y-140986486D01*
X109673724Y-140993016D01*
X109675646Y-140987337D01*
X109686049Y-140952507D01*
X109702619Y-140894335D01*
X109723516Y-140819333D01*
X109746900Y-140734013D01*
X109810518Y-140500066D01*
X109907655Y-140494990D01*
X109915854Y-140494584D01*
X109968235Y-140494046D01*
X109993406Y-140499423D01*
X109996612Y-140511701D01*
X109992562Y-140523692D01*
X109979241Y-140564734D01*
X109958384Y-140629736D01*
X109931479Y-140714048D01*
X109900012Y-140813022D01*
X109865469Y-140922006D01*
X109742505Y-141310526D01*
X109588689Y-141310526D01*
X109516213Y-141064046D01*
X109502830Y-141018785D01*
X109478096Y-140936502D01*
X109456962Y-140867940D01*
X109441329Y-140819225D01*
X109433102Y-140796483D01*
X109430758Y-140794787D01*
X109419351Y-140809456D01*
X109403065Y-140848248D01*
X109384606Y-140905102D01*
X109383631Y-140908441D01*
X109358917Y-140992347D01*
X109330641Y-141087351D01*
X109304730Y-141173528D01*
X109262714Y-141312253D01*
X109107750Y-141302171D01*
X109035987Y-141076579D01*
X109004480Y-140977454D01*
X108969187Y-140866281D01*
X108935393Y-140759704D01*
X108907418Y-140671349D01*
X108850613Y-140491710D01*
X109040656Y-140491710D01*
X109086720Y-140662993D01*
X109098965Y-140708251D01*
X109122125Y-140792625D01*
X109143572Y-140869384D01*
X109159876Y-140926184D01*
X109186969Y-141018092D01*
X109273374Y-140759079D01*
X109359780Y-140500066D01*
X109425870Y-140495104D01*
X109491959Y-140490143D01*
X109578063Y-140754107D01*
G36*
X111253816Y-141310526D02*
G01*
X111086711Y-141310526D01*
X111086711Y-141052601D01*
X111086526Y-140992605D01*
X111084626Y-140893237D01*
X111079816Y-140819673D01*
X111071052Y-140766827D01*
X111057290Y-140729614D01*
X111037487Y-140702949D01*
X111010600Y-140681746D01*
X110981248Y-140665947D01*
X110946491Y-140661467D01*
X110897058Y-140671429D01*
X110881173Y-140675576D01*
X110841520Y-140681818D01*
X110813167Y-140672875D01*
X110780306Y-140645195D01*
X110774070Y-140639175D01*
X110739594Y-140601937D01*
X110717361Y-140571660D01*
X110714311Y-140564366D01*
X110720354Y-140537432D01*
X110750998Y-140515898D01*
X110799363Y-140500786D01*
X110858566Y-140493114D01*
X110921728Y-140493904D01*
X110981967Y-140504175D01*
X111032402Y-140524948D01*
X111048388Y-140534648D01*
X111075302Y-140548845D01*
X111085264Y-140545594D01*
X111086711Y-140524886D01*
X111087050Y-140517451D01*
X111095112Y-140500982D01*
X111120119Y-140493486D01*
X111170264Y-140491710D01*
X111253816Y-140491710D01*
X111253816Y-141310526D01*
G37*
X111253816Y-141310526D02*
X111086711Y-141310526D01*
X111086711Y-141052601D01*
X111086526Y-140992605D01*
X111084626Y-140893237D01*
X111079816Y-140819673D01*
X111071052Y-140766827D01*
X111057290Y-140729614D01*
X111037487Y-140702949D01*
X111010600Y-140681746D01*
X110981248Y-140665947D01*
X110946491Y-140661467D01*
X110897058Y-140671429D01*
X110881173Y-140675576D01*
X110841520Y-140681818D01*
X110813167Y-140672875D01*
X110780306Y-140645195D01*
X110774070Y-140639175D01*
X110739594Y-140601937D01*
X110717361Y-140571660D01*
X110714311Y-140564366D01*
X110720354Y-140537432D01*
X110750998Y-140515898D01*
X110799363Y-140500786D01*
X110858566Y-140493114D01*
X110921728Y-140493904D01*
X110981967Y-140504175D01*
X111032402Y-140524948D01*
X111048388Y-140534648D01*
X111075302Y-140548845D01*
X111085264Y-140545594D01*
X111086711Y-140524886D01*
X111087050Y-140517451D01*
X111095112Y-140500982D01*
X111120119Y-140493486D01*
X111170264Y-140491710D01*
X111253816Y-140491710D01*
X111253816Y-141310526D01*
G36*
X107491245Y-140963498D02*
G01*
X107471455Y-141082794D01*
X107430734Y-141176598D01*
X107368724Y-141245581D01*
X107285066Y-141290412D01*
X107258037Y-141298332D01*
X107161524Y-141309395D01*
X107059615Y-141300059D01*
X106967566Y-141271246D01*
X106935138Y-141254892D01*
X106888643Y-141226878D01*
X106860465Y-141203827D01*
X106856305Y-141198560D01*
X106848522Y-141179299D01*
X106859736Y-141158361D01*
X106893886Y-141126650D01*
X106910367Y-141112845D01*
X106942832Y-141087583D01*
X106959855Y-141077258D01*
X106964732Y-141078321D01*
X106992681Y-141089819D01*
X107034408Y-141110000D01*
X107048013Y-141116638D01*
X107128271Y-141141289D01*
X107197997Y-141134935D01*
X107259140Y-141097467D01*
X107266255Y-141090544D01*
X107300268Y-141047178D01*
X107319702Y-141005559D01*
X107330466Y-140959605D01*
X106825527Y-140959605D01*
X106825620Y-140871875D01*
X106825673Y-140863150D01*
X106832490Y-140792763D01*
X107009343Y-140792763D01*
X107011431Y-140807361D01*
X107022152Y-140817422D01*
X107047707Y-140823006D01*
X107094289Y-140825408D01*
X107168093Y-140825921D01*
X107209124Y-140825389D01*
X107269688Y-140822280D01*
X107311345Y-140817012D01*
X107326843Y-140810298D01*
X107313626Y-140755033D01*
X107274930Y-140703452D01*
X107219121Y-140667666D01*
X107154651Y-140655288D01*
X107107185Y-140669242D01*
X107059738Y-140703353D01*
X107023669Y-140747796D01*
X107009343Y-140792763D01*
X106832490Y-140792763D01*
X106836127Y-140755216D01*
X106866555Y-140667413D01*
X106919649Y-140591723D01*
X106952038Y-140559705D01*
X107018932Y-140516845D01*
X107098807Y-140496078D01*
X107199700Y-140494618D01*
X107248435Y-140500343D01*
X107338396Y-140530071D01*
X107407271Y-140584178D01*
X107455664Y-140663498D01*
X107484179Y-140768866D01*
X107487074Y-140810298D01*
X107493418Y-140901118D01*
X107491245Y-140963498D01*
G37*
X107491245Y-140963498D02*
X107471455Y-141082794D01*
X107430734Y-141176598D01*
X107368724Y-141245581D01*
X107285066Y-141290412D01*
X107258037Y-141298332D01*
X107161524Y-141309395D01*
X107059615Y-141300059D01*
X106967566Y-141271246D01*
X106935138Y-141254892D01*
X106888643Y-141226878D01*
X106860465Y-141203827D01*
X106856305Y-141198560D01*
X106848522Y-141179299D01*
X106859736Y-141158361D01*
X106893886Y-141126650D01*
X106910367Y-141112845D01*
X106942832Y-141087583D01*
X106959855Y-141077258D01*
X106964732Y-141078321D01*
X106992681Y-141089819D01*
X107034408Y-141110000D01*
X107048013Y-141116638D01*
X107128271Y-141141289D01*
X107197997Y-141134935D01*
X107259140Y-141097467D01*
X107266255Y-141090544D01*
X107300268Y-141047178D01*
X107319702Y-141005559D01*
X107330466Y-140959605D01*
X106825527Y-140959605D01*
X106825620Y-140871875D01*
X106825673Y-140863150D01*
X106832490Y-140792763D01*
X107009343Y-140792763D01*
X107011431Y-140807361D01*
X107022152Y-140817422D01*
X107047707Y-140823006D01*
X107094289Y-140825408D01*
X107168093Y-140825921D01*
X107209124Y-140825389D01*
X107269688Y-140822280D01*
X107311345Y-140817012D01*
X107326843Y-140810298D01*
X107313626Y-140755033D01*
X107274930Y-140703452D01*
X107219121Y-140667666D01*
X107154651Y-140655288D01*
X107107185Y-140669242D01*
X107059738Y-140703353D01*
X107023669Y-140747796D01*
X107009343Y-140792763D01*
X106832490Y-140792763D01*
X106836127Y-140755216D01*
X106866555Y-140667413D01*
X106919649Y-140591723D01*
X106952038Y-140559705D01*
X107018932Y-140516845D01*
X107098807Y-140496078D01*
X107199700Y-140494618D01*
X107248435Y-140500343D01*
X107338396Y-140530071D01*
X107407271Y-140584178D01*
X107455664Y-140663498D01*
X107484179Y-140768866D01*
X107487074Y-140810298D01*
X107493418Y-140901118D01*
X107491245Y-140963498D01*
G36*
X112074389Y-139656138D02*
G01*
X112072928Y-139707216D01*
X112056454Y-139818843D01*
X112020151Y-139906856D01*
X111962120Y-139974884D01*
X111880461Y-140026551D01*
X111801246Y-140050670D01*
X111701871Y-140055285D01*
X111601607Y-140037537D01*
X111512172Y-139998327D01*
X111479030Y-139976515D01*
X111442515Y-139948556D01*
X111425853Y-139930158D01*
X111426798Y-139922567D01*
X111445448Y-139896703D01*
X111480498Y-139865367D01*
X111541241Y-139819036D01*
X111612418Y-139854584D01*
X111631665Y-139863383D01*
X111688323Y-139882506D01*
X111735811Y-139890131D01*
X111770828Y-139883848D01*
X111825778Y-139853591D01*
X111871967Y-139806620D01*
X111898387Y-139752270D01*
X111909150Y-139706316D01*
X111404211Y-139706316D01*
X111404304Y-139618585D01*
X111405069Y-139590781D01*
X111410649Y-139531119D01*
X111588027Y-139531119D01*
X111588352Y-139534537D01*
X111597540Y-139545181D01*
X111623504Y-139551720D01*
X111671779Y-139555014D01*
X111747903Y-139555921D01*
X111772923Y-139555910D01*
X111837902Y-139555310D01*
X111876964Y-139552715D01*
X111895903Y-139546662D01*
X111900511Y-139535686D01*
X111896581Y-139518322D01*
X111895981Y-139516353D01*
X111862127Y-139455930D01*
X111808757Y-139414329D01*
X111745115Y-139398842D01*
X111721591Y-139400080D01*
X111677928Y-139414896D01*
X111636041Y-139452579D01*
X111624758Y-139465903D01*
X111598513Y-139503956D01*
X111588027Y-139531119D01*
X111410649Y-139531119D01*
X111411366Y-139523449D01*
X111421926Y-139467734D01*
X111433501Y-139436543D01*
X111474195Y-139368700D01*
X111528695Y-139307086D01*
X111586330Y-139264866D01*
X111602982Y-139257027D01*
X111699945Y-139231021D01*
X111798960Y-139233762D01*
X111892052Y-139264092D01*
X111971244Y-139320848D01*
X112014078Y-139373190D01*
X112049101Y-139446928D01*
X112067825Y-139535686D01*
X112068543Y-139539091D01*
X112074389Y-139656138D01*
G37*
X112074389Y-139656138D02*
X112072928Y-139707216D01*
X112056454Y-139818843D01*
X112020151Y-139906856D01*
X111962120Y-139974884D01*
X111880461Y-140026551D01*
X111801246Y-140050670D01*
X111701871Y-140055285D01*
X111601607Y-140037537D01*
X111512172Y-139998327D01*
X111479030Y-139976515D01*
X111442515Y-139948556D01*
X111425853Y-139930158D01*
X111426798Y-139922567D01*
X111445448Y-139896703D01*
X111480498Y-139865367D01*
X111541241Y-139819036D01*
X111612418Y-139854584D01*
X111631665Y-139863383D01*
X111688323Y-139882506D01*
X111735811Y-139890131D01*
X111770828Y-139883848D01*
X111825778Y-139853591D01*
X111871967Y-139806620D01*
X111898387Y-139752270D01*
X111909150Y-139706316D01*
X111404211Y-139706316D01*
X111404304Y-139618585D01*
X111405069Y-139590781D01*
X111410649Y-139531119D01*
X111588027Y-139531119D01*
X111588352Y-139534537D01*
X111597540Y-139545181D01*
X111623504Y-139551720D01*
X111671779Y-139555014D01*
X111747903Y-139555921D01*
X111772923Y-139555910D01*
X111837902Y-139555310D01*
X111876964Y-139552715D01*
X111895903Y-139546662D01*
X111900511Y-139535686D01*
X111896581Y-139518322D01*
X111895981Y-139516353D01*
X111862127Y-139455930D01*
X111808757Y-139414329D01*
X111745115Y-139398842D01*
X111721591Y-139400080D01*
X111677928Y-139414896D01*
X111636041Y-139452579D01*
X111624758Y-139465903D01*
X111598513Y-139503956D01*
X111588027Y-139531119D01*
X111410649Y-139531119D01*
X111411366Y-139523449D01*
X111421926Y-139467734D01*
X111433501Y-139436543D01*
X111474195Y-139368700D01*
X111528695Y-139307086D01*
X111586330Y-139264866D01*
X111602982Y-139257027D01*
X111699945Y-139231021D01*
X111798960Y-139233762D01*
X111892052Y-139264092D01*
X111971244Y-139320848D01*
X112014078Y-139373190D01*
X112049101Y-139446928D01*
X112067825Y-139535686D01*
X112068543Y-139539091D01*
X112074389Y-139656138D01*
G36*
X108835509Y-141166464D02*
G01*
X108791698Y-141231365D01*
X108725241Y-141278051D01*
X108718719Y-141280889D01*
X108646005Y-141301330D01*
X108564071Y-141309299D01*
X108486172Y-141304427D01*
X108425560Y-141286348D01*
X108401348Y-141274554D01*
X108383580Y-141271741D01*
X108379606Y-141286451D01*
X108372078Y-141300055D01*
X108342953Y-141308156D01*
X108286420Y-141310526D01*
X108193235Y-141310526D01*
X108198194Y-141018092D01*
X108379606Y-141018092D01*
X108385900Y-141061806D01*
X108413027Y-141110000D01*
X108423040Y-141118858D01*
X108464081Y-141137494D01*
X108525823Y-141142290D01*
X108562871Y-141140417D01*
X108632195Y-141126309D01*
X108675163Y-141100024D01*
X108689655Y-141063344D01*
X108673551Y-141018052D01*
X108664154Y-141006200D01*
X108622187Y-140979613D01*
X108555766Y-140964432D01*
X108461070Y-140959605D01*
X108379606Y-140959605D01*
X108379606Y-141018092D01*
X108198194Y-141018092D01*
X108198690Y-140988849D01*
X108200172Y-140914462D01*
X108204076Y-140803099D01*
X108210657Y-140717946D01*
X108221214Y-140654360D01*
X108237048Y-140607699D01*
X108259459Y-140573321D01*
X108289747Y-140546583D01*
X108329213Y-140522844D01*
X108349573Y-140513780D01*
X108420008Y-140496673D01*
X108504959Y-140489600D01*
X108592788Y-140492432D01*
X108671857Y-140505041D01*
X108730527Y-140527297D01*
X108750935Y-140540219D01*
X108797921Y-140578519D01*
X108813824Y-140610589D01*
X108809962Y-140616786D01*
X108785894Y-140638432D01*
X108747039Y-140667308D01*
X108727174Y-140680824D01*
X108693346Y-140699974D01*
X108671363Y-140701803D01*
X108650953Y-140688585D01*
X108600086Y-140661816D01*
X108531640Y-140650808D01*
X108461694Y-140659236D01*
X108460370Y-140659618D01*
X108411036Y-140681052D01*
X108386616Y-140714603D01*
X108379862Y-140770091D01*
X108379606Y-140822879D01*
X108554010Y-140828577D01*
X108581796Y-140829515D01*
X108651848Y-140832775D01*
X108698809Y-140837897D01*
X108730552Y-140846798D01*
X108754948Y-140861397D01*
X108779869Y-140883612D01*
X108821015Y-140934995D01*
X108851171Y-141011026D01*
X108854128Y-141063344D01*
X108855668Y-141090600D01*
X108835509Y-141166464D01*
G37*
X108835509Y-141166464D02*
X108791698Y-141231365D01*
X108725241Y-141278051D01*
X108718719Y-141280889D01*
X108646005Y-141301330D01*
X108564071Y-141309299D01*
X108486172Y-141304427D01*
X108425560Y-141286348D01*
X108401348Y-141274554D01*
X108383580Y-141271741D01*
X108379606Y-141286451D01*
X108372078Y-141300055D01*
X108342953Y-141308156D01*
X108286420Y-141310526D01*
X108193235Y-141310526D01*
X108198194Y-141018092D01*
X108379606Y-141018092D01*
X108385900Y-141061806D01*
X108413027Y-141110000D01*
X108423040Y-141118858D01*
X108464081Y-141137494D01*
X108525823Y-141142290D01*
X108562871Y-141140417D01*
X108632195Y-141126309D01*
X108675163Y-141100024D01*
X108689655Y-141063344D01*
X108673551Y-141018052D01*
X108664154Y-141006200D01*
X108622187Y-140979613D01*
X108555766Y-140964432D01*
X108461070Y-140959605D01*
X108379606Y-140959605D01*
X108379606Y-141018092D01*
X108198194Y-141018092D01*
X108198690Y-140988849D01*
X108200172Y-140914462D01*
X108204076Y-140803099D01*
X108210657Y-140717946D01*
X108221214Y-140654360D01*
X108237048Y-140607699D01*
X108259459Y-140573321D01*
X108289747Y-140546583D01*
X108329213Y-140522844D01*
X108349573Y-140513780D01*
X108420008Y-140496673D01*
X108504959Y-140489600D01*
X108592788Y-140492432D01*
X108671857Y-140505041D01*
X108730527Y-140527297D01*
X108750935Y-140540219D01*
X108797921Y-140578519D01*
X108813824Y-140610589D01*
X108809962Y-140616786D01*
X108785894Y-140638432D01*
X108747039Y-140667308D01*
X108727174Y-140680824D01*
X108693346Y-140699974D01*
X108671363Y-140701803D01*
X108650953Y-140688585D01*
X108600086Y-140661816D01*
X108531640Y-140650808D01*
X108461694Y-140659236D01*
X108460370Y-140659618D01*
X108411036Y-140681052D01*
X108386616Y-140714603D01*
X108379862Y-140770091D01*
X108379606Y-140822879D01*
X108554010Y-140828577D01*
X108581796Y-140829515D01*
X108651848Y-140832775D01*
X108698809Y-140837897D01*
X108730552Y-140846798D01*
X108754948Y-140861397D01*
X108779869Y-140883612D01*
X108821015Y-140934995D01*
X108851171Y-141011026D01*
X108854128Y-141063344D01*
X108855668Y-141090600D01*
X108835509Y-141166464D01*
D13*
X57371000Y-126090000D02*
X54711000Y-126090000D01*
X57371000Y-133770000D02*
X54711000Y-133770000D01*
X57371000Y-124820000D02*
X57371000Y-123490000D01*
X57371000Y-126090000D02*
X57371000Y-133770000D01*
X57371000Y-123490000D02*
X56041000Y-123490000D01*
X54711000Y-126090000D02*
X54711000Y-133770000D01*
%LPC*%
D15*
X84940937Y-143400000D03*
D16*
X79940937Y-143400000D03*
D17*
X105960000Y-126797500D03*
D18*
X105960000Y-124297500D03*
X105960000Y-121797500D03*
X105960000Y-119297500D03*
D15*
X111057915Y-143400000D03*
D16*
X106057915Y-143400000D03*
D19*
X53500000Y-103500000D03*
X111500000Y-103500000D03*
X111540000Y-152500000D03*
D20*
X105805000Y-154040000D03*
D21*
X103265000Y-154040000D03*
X100725000Y-154040000D03*
X98185000Y-154040000D03*
D15*
X58823959Y-143400000D03*
D16*
X53823959Y-143400000D03*
D19*
X53500000Y-152500000D03*
D15*
X71882448Y-143400000D03*
D16*
X66882448Y-143400000D03*
D20*
X53501000Y-127360000D03*
D21*
X53501000Y-129900000D03*
X53501000Y-132440000D03*
D20*
X53501000Y-122280000D03*
D21*
X53501000Y-119740000D03*
X53501000Y-117200000D03*
X53501000Y-114660000D03*
X53501000Y-112120000D03*
D22*
X104850000Y-112106000D03*
D23*
X110650000Y-112106000D03*
D24*
X107850000Y-107306000D03*
D15*
X97999426Y-143400000D03*
D16*
X92999426Y-143400000D03*
D25*
X95950000Y-118120000D03*
D26*
X95950000Y-116820000D03*
D20*
X58300000Y-104770000D03*
D21*
X58300000Y-102230000D03*
X60840000Y-104770000D03*
X60840000Y-102230000D03*
X63380000Y-104770000D03*
X63380000Y-102230000D03*
X65920000Y-104770000D03*
X65920000Y-102230000D03*
X68460000Y-104770000D03*
X68460000Y-102230000D03*
X71000000Y-104770000D03*
X71000000Y-102230000D03*
X73540000Y-104770000D03*
X73540000Y-102230000D03*
X76080000Y-104770000D03*
X76080000Y-102230000D03*
X78620000Y-104770000D03*
X78620000Y-102230000D03*
X81160000Y-104770000D03*
X81160000Y-102230000D03*
X83700000Y-104770000D03*
X83700000Y-102230000D03*
X86240000Y-104770000D03*
X86240000Y-102230000D03*
X88780000Y-104770000D03*
X88780000Y-102230000D03*
X91320000Y-104770000D03*
X91320000Y-102230000D03*
X93860000Y-104770000D03*
X93860000Y-102230000D03*
X96400000Y-104770000D03*
X96400000Y-102230000D03*
X98940000Y-104770000D03*
X98940000Y-102230000D03*
X101480000Y-104770000D03*
X101480000Y-102230000D03*
X104020000Y-104770000D03*
X104020000Y-102230000D03*
X106560000Y-104770000D03*
X106560000Y-102230000D03*
D20*
X56041000Y-124820000D03*
D21*
X56041000Y-127360000D03*
X56041000Y-129900000D03*
X56041000Y-132440000D03*
D20*
X84468000Y-117222000D03*
D21*
X84468000Y-119762000D03*
X84468000Y-122302000D03*
M02*
