G04 #@! TF.GenerationSoftware,KiCad,Pcbnew,(6.0.5-0)*
G04 #@! TF.CreationDate,2022-07-04T19:17:30-05:00*
G04 #@! TF.ProjectId,ras_pi_supercap_ups,7261735f-7069-45f7-9375-706572636170,rev?*
G04 #@! TF.SameCoordinates,Original*
G04 #@! TF.FileFunction,Paste,Top*
G04 #@! TF.FilePolarity,Positive*
%FSLAX46Y46*%
G04 Gerber Fmt 4.6, Leading zero omitted, Abs format (unit mm)*
G04 Created by KiCad (PCBNEW (6.0.5-0)) date 2022-07-04 19:17:30*
%MOMM*%
%LPD*%
G01*
G04 APERTURE LIST*
G04 Aperture macros list*
%AMRoundRect*
0 Rectangle with rounded corners*
0 $1 Rounding radius*
0 $2 $3 $4 $5 $6 $7 $8 $9 X,Y pos of 4 corners*
0 Add a 4 corners polygon primitive as box body*
4,1,4,$2,$3,$4,$5,$6,$7,$8,$9,$2,$3,0*
0 Add four circle primitives for the rounded corners*
1,1,$1+$1,$2,$3*
1,1,$1+$1,$4,$5*
1,1,$1+$1,$6,$7*
1,1,$1+$1,$8,$9*
0 Add four rect primitives between the rounded corners*
20,1,$1+$1,$2,$3,$4,$5,0*
20,1,$1+$1,$4,$5,$6,$7,0*
20,1,$1+$1,$6,$7,$8,$9,0*
20,1,$1+$1,$8,$9,$2,$3,0*%
G04 Aperture macros list end*
%ADD10RoundRect,0.243750X0.243750X0.456250X-0.243750X0.456250X-0.243750X-0.456250X0.243750X-0.456250X0*%
%ADD11R,0.450000X0.600000*%
%ADD12RoundRect,0.150000X-0.150000X0.587500X-0.150000X-0.587500X0.150000X-0.587500X0.150000X0.587500X0*%
%ADD13RoundRect,0.250000X0.625000X-0.312500X0.625000X0.312500X-0.625000X0.312500X-0.625000X-0.312500X0*%
%ADD14RoundRect,0.250000X0.475000X-0.250000X0.475000X0.250000X-0.475000X0.250000X-0.475000X-0.250000X0*%
%ADD15RoundRect,0.250000X-0.475000X0.250000X-0.475000X-0.250000X0.475000X-0.250000X0.475000X0.250000X0*%
%ADD16RoundRect,0.250000X-0.450000X0.262500X-0.450000X-0.262500X0.450000X-0.262500X0.450000X0.262500X0*%
%ADD17R,2.500000X2.000000*%
%ADD18R,0.750000X1.000000*%
%ADD19RoundRect,0.250000X0.250000X0.475000X-0.250000X0.475000X-0.250000X-0.475000X0.250000X-0.475000X0*%
%ADD20RoundRect,0.250000X-0.262500X-0.450000X0.262500X-0.450000X0.262500X0.450000X-0.262500X0.450000X0*%
%ADD21RoundRect,0.250000X-0.250000X-0.475000X0.250000X-0.475000X0.250000X0.475000X-0.250000X0.475000X0*%
%ADD22RoundRect,0.250000X0.450000X-0.262500X0.450000X0.262500X-0.450000X0.262500X-0.450000X-0.262500X0*%
%ADD23R,4.000000X3.400000*%
%ADD24R,2.500000X1.800000*%
%ADD25RoundRect,0.250000X0.262500X0.450000X-0.262500X0.450000X-0.262500X-0.450000X0.262500X-0.450000X0*%
%ADD26RoundRect,0.100000X0.100000X-0.637500X0.100000X0.637500X-0.100000X0.637500X-0.100000X-0.637500X0*%
%ADD27RoundRect,0.042000X0.943000X0.258000X-0.943000X0.258000X-0.943000X-0.258000X0.943000X-0.258000X0*%
%ADD28RoundRect,0.250000X0.625000X-0.375000X0.625000X0.375000X-0.625000X0.375000X-0.625000X-0.375000X0*%
%ADD29R,2.000000X1.500000*%
%ADD30R,2.000000X3.800000*%
G04 APERTURE END LIST*
D10*
X113951595Y-130302000D03*
X112076595Y-130302000D03*
D11*
X91100000Y-108170000D03*
X91100000Y-110270000D03*
D12*
X98540000Y-134082500D03*
X96640000Y-134082500D03*
X97590000Y-135957500D03*
D13*
X104010000Y-132182500D03*
X104010000Y-129257500D03*
D14*
X82326000Y-129829500D03*
X82326000Y-127929500D03*
D15*
X61400000Y-111370000D03*
X61400000Y-113270000D03*
D11*
X59300000Y-109450000D03*
X59300000Y-111550000D03*
D16*
X75200000Y-111387500D03*
X75200000Y-113212500D03*
D17*
X65329000Y-131259500D03*
X65329000Y-135659500D03*
D15*
X66915000Y-111350000D03*
X66915000Y-113250000D03*
D18*
X66225000Y-115618000D03*
X66225000Y-121618000D03*
X69975000Y-121618000D03*
X69975000Y-115618000D03*
D19*
X76336000Y-126038000D03*
X74436000Y-126038000D03*
D20*
X107437500Y-130257000D03*
X109262500Y-130257000D03*
D21*
X81525332Y-126038000D03*
X83425332Y-126038000D03*
D14*
X71716000Y-132244500D03*
X71716000Y-130344500D03*
D12*
X105540000Y-134082500D03*
X103640000Y-134082500D03*
X104590000Y-135957500D03*
D22*
X66915000Y-109612500D03*
X66915000Y-107787500D03*
D23*
X100020000Y-118460000D03*
X90020000Y-118460000D03*
D13*
X91170000Y-132222500D03*
X91170000Y-129297500D03*
D22*
X84366000Y-129792000D03*
X84366000Y-127967000D03*
D24*
X86806000Y-136144000D03*
X82806000Y-136144000D03*
D15*
X89154000Y-111826000D03*
X89154000Y-113726000D03*
D16*
X64172500Y-107787500D03*
X64172500Y-109612500D03*
D13*
X94380000Y-132222500D03*
X94380000Y-129297500D03*
D25*
X86912500Y-126038000D03*
X85087500Y-126038000D03*
D15*
X82326000Y-131619500D03*
X82326000Y-133519500D03*
X86406000Y-131619500D03*
X86406000Y-133519500D03*
D16*
X69657500Y-107787500D03*
X69657500Y-109612500D03*
D10*
X113967500Y-132334000D03*
X112092500Y-132334000D03*
D22*
X61116000Y-128572000D03*
X61116000Y-126747000D03*
D14*
X71716000Y-135879500D03*
X71716000Y-133979500D03*
D20*
X107437500Y-132289000D03*
X109262500Y-132289000D03*
D15*
X78066000Y-107750000D03*
X78066000Y-109650000D03*
D26*
X73275000Y-121480500D03*
X73925000Y-121480500D03*
X74575000Y-121480500D03*
X75225000Y-121480500D03*
X75875000Y-121480500D03*
X76525000Y-121480500D03*
X77175000Y-121480500D03*
X77825000Y-121480500D03*
X78475000Y-121480500D03*
X79125000Y-121480500D03*
X79125000Y-115755500D03*
X78475000Y-115755500D03*
X77825000Y-115755500D03*
X77175000Y-115755500D03*
X76525000Y-115755500D03*
X75875000Y-115755500D03*
X75225000Y-115755500D03*
X74575000Y-115755500D03*
X73925000Y-115755500D03*
X73275000Y-115755500D03*
D20*
X107395000Y-136398000D03*
X109220000Y-136398000D03*
D13*
X100800000Y-132182500D03*
X100800000Y-129257500D03*
D24*
X74911000Y-134949500D03*
X78911000Y-134949500D03*
D14*
X69572000Y-135879500D03*
X69572000Y-133979500D03*
D10*
X113967500Y-136398000D03*
X112092500Y-136398000D03*
D27*
X79126000Y-132007000D03*
X79126000Y-130737000D03*
X79126000Y-129467000D03*
X79126000Y-128197000D03*
X74186000Y-128197000D03*
X74186000Y-129467000D03*
X74186000Y-130737000D03*
X74186000Y-132007000D03*
D12*
X91540000Y-134082500D03*
X89640000Y-134082500D03*
X90590000Y-135957500D03*
D16*
X72400000Y-107787500D03*
X72400000Y-109612500D03*
X63230000Y-126747000D03*
X63230000Y-128572000D03*
D22*
X69572000Y-128572000D03*
X69572000Y-126747000D03*
D19*
X79880666Y-126038000D03*
X77980666Y-126038000D03*
D22*
X86406000Y-129792000D03*
X86406000Y-127967000D03*
D14*
X71716000Y-128609500D03*
X71716000Y-126709500D03*
D12*
X102040000Y-134082500D03*
X100140000Y-134082500D03*
X101090000Y-135957500D03*
D16*
X72400000Y-111387500D03*
X72400000Y-113212500D03*
D22*
X75200000Y-109612500D03*
X75200000Y-107787500D03*
D28*
X100400000Y-111300000D03*
X100400000Y-108500000D03*
D16*
X64157500Y-111387500D03*
X64157500Y-113212500D03*
D13*
X97590000Y-132182500D03*
X97590000Y-129257500D03*
D20*
X107437500Y-134321000D03*
X109262500Y-134321000D03*
D12*
X95040000Y-134082500D03*
X93140000Y-134082500D03*
X94090000Y-135957500D03*
D10*
X113967500Y-134366000D03*
X112092500Y-134366000D03*
D29*
X86716000Y-113298000D03*
D30*
X80416000Y-110998000D03*
D29*
X86716000Y-110998000D03*
X86716000Y-108698000D03*
D22*
X69672500Y-113212500D03*
X69672500Y-111387500D03*
D23*
X100020000Y-124630000D03*
X90020000Y-124630000D03*
D15*
X84366000Y-131619500D03*
X84366000Y-133519500D03*
D28*
X88646000Y-132078000D03*
X88646000Y-129278000D03*
D14*
X61400000Y-109670000D03*
X61400000Y-107770000D03*
D22*
X65344000Y-128572000D03*
X65344000Y-126747000D03*
D14*
X89122000Y-110252000D03*
X89122000Y-108352000D03*
D24*
X93665000Y-109370000D03*
X97665000Y-109370000D03*
D22*
X67458000Y-128572000D03*
X67458000Y-126747000D03*
M02*
