G04 #@! TF.GenerationSoftware,KiCad,Pcbnew,(6.0.4)*
G04 #@! TF.CreationDate,2022-07-19T21:48:52-05:00*
G04 #@! TF.ProjectId,ras_pi_supercap_ups,7261735f-7069-45f7-9375-706572636170,rev?*
G04 #@! TF.SameCoordinates,Original*
G04 #@! TF.FileFunction,Soldermask,Top*
G04 #@! TF.FilePolarity,Negative*
%FSLAX46Y46*%
G04 Gerber Fmt 4.6, Leading zero omitted, Abs format (unit mm)*
G04 Created by KiCad (PCBNEW (6.0.4)) date 2022-07-19 21:48:52*
%MOMM*%
%LPD*%
G01*
G04 APERTURE LIST*
%ADD10R,1.408000X1.408000*%
%ADD11C,1.408000*%
%ADD12R,1.700000X1.700000*%
%ADD13O,1.700000X1.700000*%
%ADD14C,2.700000*%
%ADD15R,1.800000X4.400000*%
%ADD16O,1.800000X4.000000*%
%ADD17O,4.000000X1.800000*%
G04 APERTURE END LIST*
D10*
X105960000Y-126797500D03*
D11*
X105960000Y-124297500D03*
X105960000Y-121797500D03*
X105960000Y-119297500D03*
D12*
X87475000Y-151125000D03*
D13*
X87475000Y-153665000D03*
X84935000Y-151125000D03*
X84935000Y-153665000D03*
X82395000Y-151125000D03*
X82395000Y-153665000D03*
X79855000Y-151125000D03*
X79855000Y-153665000D03*
X77315000Y-151125000D03*
X77315000Y-153665000D03*
X77315000Y-160865000D03*
X77315000Y-158325000D03*
X79855000Y-160865000D03*
X79855000Y-158325000D03*
X82395000Y-160865000D03*
X82395000Y-158325000D03*
X84935000Y-160865000D03*
X84935000Y-158325000D03*
X87475000Y-160865000D03*
D12*
X87475000Y-158325000D03*
D14*
X53500000Y-103500000D03*
X111500000Y-103500000D03*
X111540000Y-152500000D03*
D12*
X105805000Y-154040000D03*
D13*
X103265000Y-154040000D03*
X100725000Y-154040000D03*
X98185000Y-154040000D03*
D14*
X53500000Y-152500000D03*
D12*
X53501000Y-127360000D03*
D13*
X53501000Y-129900000D03*
X53501000Y-132440000D03*
D12*
X53501000Y-122280000D03*
D13*
X53501000Y-119740000D03*
X53501000Y-117200000D03*
X53501000Y-114660000D03*
X53501000Y-112120000D03*
D15*
X104850000Y-112106000D03*
D16*
X110650000Y-112106000D03*
D17*
X107850000Y-107306000D03*
D12*
X58300000Y-104770000D03*
D13*
X58300000Y-102230000D03*
X60840000Y-104770000D03*
X60840000Y-102230000D03*
X63380000Y-104770000D03*
X63380000Y-102230000D03*
X65920000Y-104770000D03*
X65920000Y-102230000D03*
X68460000Y-104770000D03*
X68460000Y-102230000D03*
X71000000Y-104770000D03*
X71000000Y-102230000D03*
X73540000Y-104770000D03*
X73540000Y-102230000D03*
X76080000Y-104770000D03*
X76080000Y-102230000D03*
X78620000Y-104770000D03*
X78620000Y-102230000D03*
X81160000Y-104770000D03*
X81160000Y-102230000D03*
X83700000Y-104770000D03*
X83700000Y-102230000D03*
X86240000Y-104770000D03*
X86240000Y-102230000D03*
X88780000Y-104770000D03*
X88780000Y-102230000D03*
X91320000Y-104770000D03*
X91320000Y-102230000D03*
X93860000Y-104770000D03*
X93860000Y-102230000D03*
X96400000Y-104770000D03*
X96400000Y-102230000D03*
X98940000Y-104770000D03*
X98940000Y-102230000D03*
X101480000Y-104770000D03*
X101480000Y-102230000D03*
X104020000Y-104770000D03*
X104020000Y-102230000D03*
X106560000Y-104770000D03*
X106560000Y-102230000D03*
D12*
X56041000Y-124820000D03*
D13*
X56041000Y-127360000D03*
X56041000Y-129900000D03*
X56041000Y-132440000D03*
D12*
X53501000Y-136195000D03*
D13*
X53501000Y-138735000D03*
X53501000Y-141275000D03*
M02*
