G04 #@! TF.GenerationSoftware,KiCad,Pcbnew,(6.0.4)*
G04 #@! TF.CreationDate,2022-07-19T21:48:52-05:00*
G04 #@! TF.ProjectId,ras_pi_supercap_ups,7261735f-7069-45f7-9375-706572636170,rev?*
G04 #@! TF.SameCoordinates,Original*
G04 #@! TF.FileFunction,Legend,Top*
G04 #@! TF.FilePolarity,Positive*
%FSLAX46Y46*%
G04 Gerber Fmt 4.6, Leading zero omitted, Abs format (unit mm)*
G04 Created by KiCad (PCBNEW (6.0.4)) date 2022-07-19 21:48:52*
%MOMM*%
%LPD*%
G01*
G04 APERTURE LIST*
%ADD10C,0.150000*%
%ADD11C,0.200000*%
%ADD12C,0.100000*%
%ADD13C,0.500000*%
%ADD14C,0.127000*%
%ADD15C,0.120000*%
%ADD16R,1.408000X1.408000*%
%ADD17C,1.408000*%
%ADD18R,1.700000X1.700000*%
%ADD19O,1.700000X1.700000*%
%ADD20C,2.700000*%
%ADD21R,1.800000X4.400000*%
%ADD22O,1.800000X4.000000*%
%ADD23O,4.000000X1.800000*%
G04 APERTURE END LIST*
D10*
X55060000Y-134059968D02*
X59967000Y-134059968D01*
X59967000Y-134059968D02*
X59967000Y-123280031D01*
X59967000Y-123280031D02*
X55060000Y-123280031D01*
X55060000Y-123280031D02*
X55060000Y-134059968D01*
X59600000Y-106100000D02*
X59600000Y-103500000D01*
X63320000Y-132280000D02*
X101020000Y-132280000D01*
X101020000Y-132280000D02*
X101020000Y-137126000D01*
X101020000Y-137126000D02*
X63320000Y-137126000D01*
X63320000Y-137126000D02*
X63320000Y-132280000D01*
D11*
X107900000Y-100900000D02*
X56900000Y-100900000D01*
X56900000Y-100900000D02*
X56900000Y-106100000D01*
X56900000Y-106100000D02*
X107900000Y-106100000D01*
X107900000Y-106100000D02*
X107900000Y-100900000D01*
D10*
X63052000Y-132026000D02*
X101320000Y-132026000D01*
X101320000Y-132026000D02*
X101320000Y-137414000D01*
X101320000Y-137414000D02*
X63052000Y-137414000D01*
X63052000Y-137414000D02*
X63052000Y-132026000D01*
X56900000Y-103500000D02*
X59600000Y-103500000D01*
X102100000Y-155400000D02*
X108400000Y-155400000D01*
X108400000Y-155400000D02*
X108400000Y-151200000D01*
X108400000Y-151200000D02*
X102100000Y-151200000D01*
X102100000Y-151200000D02*
X102100000Y-155400000D01*
X95650000Y-155400000D02*
X101950000Y-155400000D01*
X101950000Y-155400000D02*
X101950000Y-151200000D01*
X101950000Y-151200000D02*
X95650000Y-151200000D01*
X95650000Y-151200000D02*
X95650000Y-155400000D01*
D12*
X107716666Y-119550000D02*
X107016666Y-119550000D01*
X107716666Y-119150000D01*
X107016666Y-119150000D01*
X107650000Y-118416666D02*
X107683333Y-118450000D01*
X107716666Y-118550000D01*
X107716666Y-118616666D01*
X107683333Y-118716666D01*
X107616666Y-118783333D01*
X107550000Y-118816666D01*
X107416666Y-118850000D01*
X107316666Y-118850000D01*
X107183333Y-118816666D01*
X107116666Y-118783333D01*
X107050000Y-118716666D01*
X107016666Y-118616666D01*
X107016666Y-118550000D01*
X107050000Y-118450000D01*
X107083333Y-118416666D01*
D10*
X112523571Y-114490476D02*
X112571190Y-114347619D01*
X112618809Y-114300000D01*
X112714047Y-114252380D01*
X112856904Y-114252380D01*
X112952142Y-114300000D01*
X112999761Y-114347619D01*
X113047380Y-114442857D01*
X113047380Y-114823809D01*
X112047380Y-114823809D01*
X112047380Y-114490476D01*
X112095000Y-114395238D01*
X112142619Y-114347619D01*
X112237857Y-114300000D01*
X112333095Y-114300000D01*
X112428333Y-114347619D01*
X112475952Y-114395238D01*
X112523571Y-114490476D01*
X112523571Y-114823809D01*
X113047380Y-113395238D02*
X112523571Y-113395238D01*
X112428333Y-113442857D01*
X112380714Y-113538095D01*
X112380714Y-113728571D01*
X112428333Y-113823809D01*
X112999761Y-113395238D02*
X113047380Y-113490476D01*
X113047380Y-113728571D01*
X112999761Y-113823809D01*
X112904523Y-113871428D01*
X112809285Y-113871428D01*
X112714047Y-113823809D01*
X112666428Y-113728571D01*
X112666428Y-113490476D01*
X112618809Y-113395238D01*
X113047380Y-112919047D02*
X112380714Y-112919047D01*
X112571190Y-112919047D02*
X112475952Y-112871428D01*
X112428333Y-112823809D01*
X112380714Y-112728571D01*
X112380714Y-112633333D01*
X113047380Y-112300000D02*
X112380714Y-112300000D01*
X112571190Y-112300000D02*
X112475952Y-112252380D01*
X112428333Y-112204761D01*
X112380714Y-112109523D01*
X112380714Y-112014285D01*
X112999761Y-111300000D02*
X113047380Y-111395238D01*
X113047380Y-111585714D01*
X112999761Y-111680952D01*
X112904523Y-111728571D01*
X112523571Y-111728571D01*
X112428333Y-111680952D01*
X112380714Y-111585714D01*
X112380714Y-111395238D01*
X112428333Y-111300000D01*
X112523571Y-111252380D01*
X112618809Y-111252380D01*
X112714047Y-111728571D01*
X113047380Y-110680952D02*
X112999761Y-110776190D01*
X112904523Y-110823809D01*
X112047380Y-110823809D01*
X113657380Y-113942857D02*
X114371666Y-113942857D01*
X114514523Y-113990476D01*
X114609761Y-114085714D01*
X114657380Y-114228571D01*
X114657380Y-114323809D01*
X114657380Y-113038095D02*
X114133571Y-113038095D01*
X114038333Y-113085714D01*
X113990714Y-113180952D01*
X113990714Y-113371428D01*
X114038333Y-113466666D01*
X114609761Y-113038095D02*
X114657380Y-113133333D01*
X114657380Y-113371428D01*
X114609761Y-113466666D01*
X114514523Y-113514285D01*
X114419285Y-113514285D01*
X114324047Y-113466666D01*
X114276428Y-113371428D01*
X114276428Y-113133333D01*
X114228809Y-113038095D01*
X114609761Y-112133333D02*
X114657380Y-112228571D01*
X114657380Y-112419047D01*
X114609761Y-112514285D01*
X114562142Y-112561904D01*
X114466904Y-112609523D01*
X114181190Y-112609523D01*
X114085952Y-112561904D01*
X114038333Y-112514285D01*
X113990714Y-112419047D01*
X113990714Y-112228571D01*
X114038333Y-112133333D01*
X114657380Y-111704761D02*
X113657380Y-111704761D01*
X114276428Y-111609523D02*
X114657380Y-111323809D01*
X113990714Y-111323809D02*
X114371666Y-111704761D01*
X92629523Y-134267380D02*
X92629523Y-133267380D01*
X93010476Y-133267380D01*
X93105714Y-133315000D01*
X93153333Y-133362619D01*
X93200952Y-133457857D01*
X93200952Y-133600714D01*
X93153333Y-133695952D01*
X93105714Y-133743571D01*
X93010476Y-133791190D01*
X92629523Y-133791190D01*
X93772380Y-134267380D02*
X93677142Y-134219761D01*
X93629523Y-134172142D01*
X93581904Y-134076904D01*
X93581904Y-133791190D01*
X93629523Y-133695952D01*
X93677142Y-133648333D01*
X93772380Y-133600714D01*
X93915238Y-133600714D01*
X94010476Y-133648333D01*
X94058095Y-133695952D01*
X94105714Y-133791190D01*
X94105714Y-134076904D01*
X94058095Y-134172142D01*
X94010476Y-134219761D01*
X93915238Y-134267380D01*
X93772380Y-134267380D01*
X94962857Y-133600714D02*
X94962857Y-134410238D01*
X94915238Y-134505476D01*
X94867619Y-134553095D01*
X94772380Y-134600714D01*
X94629523Y-134600714D01*
X94534285Y-134553095D01*
X94962857Y-134219761D02*
X94867619Y-134267380D01*
X94677142Y-134267380D01*
X94581904Y-134219761D01*
X94534285Y-134172142D01*
X94486666Y-134076904D01*
X94486666Y-133791190D01*
X94534285Y-133695952D01*
X94581904Y-133648333D01*
X94677142Y-133600714D01*
X94867619Y-133600714D01*
X94962857Y-133648333D01*
X95581904Y-134267380D02*
X95486666Y-134219761D01*
X95439047Y-134172142D01*
X95391428Y-134076904D01*
X95391428Y-133791190D01*
X95439047Y-133695952D01*
X95486666Y-133648333D01*
X95581904Y-133600714D01*
X95724761Y-133600714D01*
X95820000Y-133648333D01*
X95867619Y-133695952D01*
X95915238Y-133791190D01*
X95915238Y-134076904D01*
X95867619Y-134172142D01*
X95820000Y-134219761D01*
X95724761Y-134267380D01*
X95581904Y-134267380D01*
X97105714Y-134267380D02*
X97105714Y-133267380D01*
X97486666Y-133267380D01*
X97581904Y-133315000D01*
X97629523Y-133362619D01*
X97677142Y-133457857D01*
X97677142Y-133600714D01*
X97629523Y-133695952D01*
X97581904Y-133743571D01*
X97486666Y-133791190D01*
X97105714Y-133791190D01*
X98105714Y-134267380D02*
X98105714Y-133600714D01*
X98105714Y-133267380D02*
X98058095Y-133315000D01*
X98105714Y-133362619D01*
X98153333Y-133315000D01*
X98105714Y-133267380D01*
X98105714Y-133362619D01*
X98581904Y-133600714D02*
X98581904Y-134267380D01*
X98581904Y-133695952D02*
X98629523Y-133648333D01*
X98724761Y-133600714D01*
X98867619Y-133600714D01*
X98962857Y-133648333D01*
X99010476Y-133743571D01*
X99010476Y-134267380D01*
X93629523Y-135877380D02*
X93629523Y-134877380D01*
X93629523Y-135353571D02*
X94200952Y-135353571D01*
X94200952Y-135877380D02*
X94200952Y-134877380D01*
X94820000Y-135877380D02*
X94724761Y-135829761D01*
X94677142Y-135782142D01*
X94629523Y-135686904D01*
X94629523Y-135401190D01*
X94677142Y-135305952D01*
X94724761Y-135258333D01*
X94820000Y-135210714D01*
X94962857Y-135210714D01*
X95058095Y-135258333D01*
X95105714Y-135305952D01*
X95153333Y-135401190D01*
X95153333Y-135686904D01*
X95105714Y-135782142D01*
X95058095Y-135829761D01*
X94962857Y-135877380D01*
X94820000Y-135877380D01*
X95724761Y-135877380D02*
X95629523Y-135829761D01*
X95581904Y-135734523D01*
X95581904Y-134877380D01*
X96534285Y-135877380D02*
X96534285Y-134877380D01*
X96534285Y-135829761D02*
X96439047Y-135877380D01*
X96248571Y-135877380D01*
X96153333Y-135829761D01*
X96105714Y-135782142D01*
X96058095Y-135686904D01*
X96058095Y-135401190D01*
X96105714Y-135305952D01*
X96153333Y-135258333D01*
X96248571Y-135210714D01*
X96439047Y-135210714D01*
X96534285Y-135258333D01*
X97391428Y-135829761D02*
X97296190Y-135877380D01*
X97105714Y-135877380D01*
X97010476Y-135829761D01*
X96962857Y-135734523D01*
X96962857Y-135353571D01*
X97010476Y-135258333D01*
X97105714Y-135210714D01*
X97296190Y-135210714D01*
X97391428Y-135258333D01*
X97439047Y-135353571D01*
X97439047Y-135448809D01*
X96962857Y-135544047D01*
X97867619Y-135877380D02*
X97867619Y-135210714D01*
X97867619Y-135401190D02*
X97915238Y-135305952D01*
X97962857Y-135258333D01*
X98058095Y-135210714D01*
X98153333Y-135210714D01*
D12*
X51278666Y-113974666D02*
X51245333Y-114074666D01*
X51245333Y-114241333D01*
X51278666Y-114308000D01*
X51312000Y-114341333D01*
X51378666Y-114374666D01*
X51445333Y-114374666D01*
X51512000Y-114341333D01*
X51545333Y-114308000D01*
X51578666Y-114241333D01*
X51612000Y-114108000D01*
X51645333Y-114041333D01*
X51678666Y-114008000D01*
X51745333Y-113974666D01*
X51812000Y-113974666D01*
X51878666Y-114008000D01*
X51912000Y-114041333D01*
X51945333Y-114108000D01*
X51945333Y-114274666D01*
X51912000Y-114374666D01*
X51312000Y-115074666D02*
X51278666Y-115041333D01*
X51245333Y-114941333D01*
X51245333Y-114874666D01*
X51278666Y-114774666D01*
X51345333Y-114708000D01*
X51412000Y-114674666D01*
X51545333Y-114641333D01*
X51645333Y-114641333D01*
X51778666Y-114674666D01*
X51845333Y-114708000D01*
X51912000Y-114774666D01*
X51945333Y-114874666D01*
X51945333Y-114941333D01*
X51912000Y-115041333D01*
X51878666Y-115074666D01*
X51245333Y-115708000D02*
X51245333Y-115374666D01*
X51945333Y-115374666D01*
D13*
X64245267Y-136278285D02*
X64655982Y-136421142D01*
X65370267Y-136421142D01*
X65673839Y-136278285D01*
X65834553Y-136135428D01*
X66013125Y-135849714D01*
X66048839Y-135564000D01*
X65941696Y-135278285D01*
X65816696Y-135135428D01*
X65548839Y-134992571D01*
X64995267Y-134849714D01*
X64727410Y-134706857D01*
X64602410Y-134564000D01*
X64495267Y-134278285D01*
X64530982Y-133992571D01*
X64709553Y-133706857D01*
X64870267Y-133564000D01*
X65173839Y-133421142D01*
X65888125Y-133421142D01*
X66298839Y-133564000D01*
X67602410Y-133421142D02*
X67298839Y-135849714D01*
X67405982Y-136135428D01*
X67530982Y-136278285D01*
X67798839Y-136421142D01*
X68370267Y-136421142D01*
X68673839Y-136278285D01*
X68834553Y-136135428D01*
X69013125Y-135849714D01*
X69316696Y-133421142D01*
X70370267Y-136421142D02*
X70745267Y-133421142D01*
X71888125Y-133421142D01*
X72155982Y-133564000D01*
X72280982Y-133706857D01*
X72388125Y-133992571D01*
X72334553Y-134421142D01*
X72155982Y-134706857D01*
X71995267Y-134849714D01*
X71691696Y-134992571D01*
X70548839Y-134992571D01*
X73566696Y-134849714D02*
X74566696Y-134849714D01*
X74798839Y-136421142D02*
X73370267Y-136421142D01*
X73745267Y-133421142D01*
X75173839Y-133421142D01*
X77798839Y-136421142D02*
X76977410Y-134992571D01*
X76084553Y-136421142D02*
X76459553Y-133421142D01*
X77602410Y-133421142D01*
X77870267Y-133564000D01*
X77995267Y-133706857D01*
X78102410Y-133992571D01*
X78048839Y-134421142D01*
X77870267Y-134706857D01*
X77709553Y-134849714D01*
X77405982Y-134992571D01*
X76263125Y-134992571D01*
X81745267Y-133421142D02*
X81441696Y-135849714D01*
X81548839Y-136135428D01*
X81673839Y-136278285D01*
X81941696Y-136421142D01*
X82513125Y-136421142D01*
X82816696Y-136278285D01*
X82977410Y-136135428D01*
X83155982Y-135849714D01*
X83459553Y-133421142D01*
X84513125Y-136421142D02*
X84888125Y-133421142D01*
X86030982Y-133421142D01*
X86298839Y-133564000D01*
X86423839Y-133706857D01*
X86530982Y-133992571D01*
X86477410Y-134421142D01*
X86298839Y-134706857D01*
X86138125Y-134849714D01*
X85834553Y-134992571D01*
X84691696Y-134992571D01*
X87388125Y-136278285D02*
X87798839Y-136421142D01*
X88513125Y-136421142D01*
X88816696Y-136278285D01*
X88977410Y-136135428D01*
X89155982Y-135849714D01*
X89191696Y-135564000D01*
X89084553Y-135278285D01*
X88959553Y-135135428D01*
X88691696Y-134992571D01*
X88138125Y-134849714D01*
X87870267Y-134706857D01*
X87745267Y-134564000D01*
X87638125Y-134278285D01*
X87673839Y-133992571D01*
X87852410Y-133706857D01*
X88013125Y-133564000D01*
X88316696Y-133421142D01*
X89030982Y-133421142D01*
X89441696Y-133564000D01*
D12*
X96098333Y-152316666D02*
X96431666Y-152316666D01*
X96031666Y-152516666D02*
X96265000Y-151816666D01*
X96498333Y-152516666D01*
X97031666Y-152050000D02*
X97031666Y-152516666D01*
X96731666Y-152050000D02*
X96731666Y-152416666D01*
X96765000Y-152483333D01*
X96831666Y-152516666D01*
X96931666Y-152516666D01*
X96998333Y-152483333D01*
X97031666Y-152450000D01*
X97298333Y-152516666D02*
X97665000Y-152050000D01*
X97298333Y-152050000D02*
X97665000Y-152516666D01*
X98698333Y-152150000D02*
X98798333Y-152183333D01*
X98831666Y-152216666D01*
X98865000Y-152283333D01*
X98865000Y-152383333D01*
X98831666Y-152450000D01*
X98798333Y-152483333D01*
X98731666Y-152516666D01*
X98465000Y-152516666D01*
X98465000Y-151816666D01*
X98698333Y-151816666D01*
X98765000Y-151850000D01*
X98798333Y-151883333D01*
X98831666Y-151950000D01*
X98831666Y-152016666D01*
X98798333Y-152083333D01*
X98765000Y-152116666D01*
X98698333Y-152150000D01*
X98465000Y-152150000D01*
X99465000Y-152050000D02*
X99465000Y-152516666D01*
X99165000Y-152050000D02*
X99165000Y-152416666D01*
X99198333Y-152483333D01*
X99265000Y-152516666D01*
X99365000Y-152516666D01*
X99431666Y-152483333D01*
X99465000Y-152450000D01*
X99698333Y-152050000D02*
X99965000Y-152050000D01*
X99798333Y-151816666D02*
X99798333Y-152416666D01*
X99831666Y-152483333D01*
X99898333Y-152516666D01*
X99965000Y-152516666D01*
X100098333Y-152050000D02*
X100365000Y-152050000D01*
X100198333Y-151816666D02*
X100198333Y-152416666D01*
X100231666Y-152483333D01*
X100298333Y-152516666D01*
X100365000Y-152516666D01*
X100698333Y-152516666D02*
X100631666Y-152483333D01*
X100598333Y-152450000D01*
X100565000Y-152383333D01*
X100565000Y-152183333D01*
X100598333Y-152116666D01*
X100631666Y-152083333D01*
X100698333Y-152050000D01*
X100798333Y-152050000D01*
X100865000Y-152083333D01*
X100898333Y-152116666D01*
X100931666Y-152183333D01*
X100931666Y-152383333D01*
X100898333Y-152450000D01*
X100865000Y-152483333D01*
X100798333Y-152516666D01*
X100698333Y-152516666D01*
X101231666Y-152050000D02*
X101231666Y-152516666D01*
X101231666Y-152116666D02*
X101265000Y-152083333D01*
X101331666Y-152050000D01*
X101431666Y-152050000D01*
X101498333Y-152083333D01*
X101531666Y-152150000D01*
X101531666Y-152516666D01*
X51912000Y-119354666D02*
X51945333Y-119288000D01*
X51945333Y-119188000D01*
X51912000Y-119088000D01*
X51845333Y-119021333D01*
X51778666Y-118988000D01*
X51645333Y-118954666D01*
X51545333Y-118954666D01*
X51412000Y-118988000D01*
X51345333Y-119021333D01*
X51278666Y-119088000D01*
X51245333Y-119188000D01*
X51245333Y-119254666D01*
X51278666Y-119354666D01*
X51312000Y-119388000D01*
X51545333Y-119388000D01*
X51545333Y-119254666D01*
X51245333Y-119688000D02*
X51945333Y-119688000D01*
X51245333Y-120088000D01*
X51945333Y-120088000D01*
X51245333Y-120421333D02*
X51945333Y-120421333D01*
X51945333Y-120588000D01*
X51912000Y-120688000D01*
X51845333Y-120754666D01*
X51778666Y-120788000D01*
X51645333Y-120821333D01*
X51545333Y-120821333D01*
X51412000Y-120788000D01*
X51345333Y-120754666D01*
X51278666Y-120688000D01*
X51245333Y-120588000D01*
X51245333Y-120421333D01*
D10*
X68323333Y-139472380D02*
X68323333Y-138472380D01*
X68751904Y-139472380D02*
X68751904Y-138948571D01*
X68704285Y-138853333D01*
X68609047Y-138805714D01*
X68466190Y-138805714D01*
X68370952Y-138853333D01*
X68323333Y-138900952D01*
X69085238Y-138805714D02*
X69466190Y-138805714D01*
X69228095Y-138472380D02*
X69228095Y-139329523D01*
X69275714Y-139424761D01*
X69370952Y-139472380D01*
X69466190Y-139472380D01*
X69656666Y-138805714D02*
X70037619Y-138805714D01*
X69799523Y-138472380D02*
X69799523Y-139329523D01*
X69847142Y-139424761D01*
X69942380Y-139472380D01*
X70037619Y-139472380D01*
X70370952Y-138805714D02*
X70370952Y-139805714D01*
X70370952Y-138853333D02*
X70466190Y-138805714D01*
X70656666Y-138805714D01*
X70751904Y-138853333D01*
X70799523Y-138900952D01*
X70847142Y-138996190D01*
X70847142Y-139281904D01*
X70799523Y-139377142D01*
X70751904Y-139424761D01*
X70656666Y-139472380D01*
X70466190Y-139472380D01*
X70370952Y-139424761D01*
X71228095Y-139424761D02*
X71323333Y-139472380D01*
X71513809Y-139472380D01*
X71609047Y-139424761D01*
X71656666Y-139329523D01*
X71656666Y-139281904D01*
X71609047Y-139186666D01*
X71513809Y-139139047D01*
X71370952Y-139139047D01*
X71275714Y-139091428D01*
X71228095Y-138996190D01*
X71228095Y-138948571D01*
X71275714Y-138853333D01*
X71370952Y-138805714D01*
X71513809Y-138805714D01*
X71609047Y-138853333D01*
X72085238Y-139377142D02*
X72132857Y-139424761D01*
X72085238Y-139472380D01*
X72037619Y-139424761D01*
X72085238Y-139377142D01*
X72085238Y-139472380D01*
X72085238Y-138853333D02*
X72132857Y-138900952D01*
X72085238Y-138948571D01*
X72037619Y-138900952D01*
X72085238Y-138853333D01*
X72085238Y-138948571D01*
X73275714Y-138424761D02*
X72418571Y-139710476D01*
X74323333Y-138424761D02*
X73466190Y-139710476D01*
X75085238Y-138805714D02*
X75085238Y-139615238D01*
X75037619Y-139710476D01*
X74990000Y-139758095D01*
X74894761Y-139805714D01*
X74751904Y-139805714D01*
X74656666Y-139758095D01*
X75085238Y-139424761D02*
X74990000Y-139472380D01*
X74799523Y-139472380D01*
X74704285Y-139424761D01*
X74656666Y-139377142D01*
X74609047Y-139281904D01*
X74609047Y-138996190D01*
X74656666Y-138900952D01*
X74704285Y-138853333D01*
X74799523Y-138805714D01*
X74990000Y-138805714D01*
X75085238Y-138853333D01*
X75561428Y-139472380D02*
X75561428Y-138805714D01*
X75561428Y-138472380D02*
X75513809Y-138520000D01*
X75561428Y-138567619D01*
X75609047Y-138520000D01*
X75561428Y-138472380D01*
X75561428Y-138567619D01*
X75894761Y-138805714D02*
X76275714Y-138805714D01*
X76037619Y-138472380D02*
X76037619Y-139329523D01*
X76085238Y-139424761D01*
X76180476Y-139472380D01*
X76275714Y-139472380D01*
X76609047Y-139472380D02*
X76609047Y-138472380D01*
X77037619Y-139472380D02*
X77037619Y-138948571D01*
X76990000Y-138853333D01*
X76894761Y-138805714D01*
X76751904Y-138805714D01*
X76656666Y-138853333D01*
X76609047Y-138900952D01*
X77942380Y-138805714D02*
X77942380Y-139472380D01*
X77513809Y-138805714D02*
X77513809Y-139329523D01*
X77561428Y-139424761D01*
X77656666Y-139472380D01*
X77799523Y-139472380D01*
X77894761Y-139424761D01*
X77942380Y-139377142D01*
X78418571Y-139472380D02*
X78418571Y-138472380D01*
X78418571Y-138853333D02*
X78513809Y-138805714D01*
X78704285Y-138805714D01*
X78799523Y-138853333D01*
X78847142Y-138900952D01*
X78894761Y-138996190D01*
X78894761Y-139281904D01*
X78847142Y-139377142D01*
X78799523Y-139424761D01*
X78704285Y-139472380D01*
X78513809Y-139472380D01*
X78418571Y-139424761D01*
X79323333Y-139377142D02*
X79370952Y-139424761D01*
X79323333Y-139472380D01*
X79275714Y-139424761D01*
X79323333Y-139377142D01*
X79323333Y-139472380D01*
X80228095Y-139424761D02*
X80132857Y-139472380D01*
X79942380Y-139472380D01*
X79847142Y-139424761D01*
X79799523Y-139377142D01*
X79751904Y-139281904D01*
X79751904Y-138996190D01*
X79799523Y-138900952D01*
X79847142Y-138853333D01*
X79942380Y-138805714D01*
X80132857Y-138805714D01*
X80228095Y-138853333D01*
X80799523Y-139472380D02*
X80704285Y-139424761D01*
X80656666Y-139377142D01*
X80609047Y-139281904D01*
X80609047Y-138996190D01*
X80656666Y-138900952D01*
X80704285Y-138853333D01*
X80799523Y-138805714D01*
X80942380Y-138805714D01*
X81037619Y-138853333D01*
X81085238Y-138900952D01*
X81132857Y-138996190D01*
X81132857Y-139281904D01*
X81085238Y-139377142D01*
X81037619Y-139424761D01*
X80942380Y-139472380D01*
X80799523Y-139472380D01*
X81561428Y-139472380D02*
X81561428Y-138805714D01*
X81561428Y-138900952D02*
X81609047Y-138853333D01*
X81704285Y-138805714D01*
X81847142Y-138805714D01*
X81942380Y-138853333D01*
X81990000Y-138948571D01*
X81990000Y-139472380D01*
X81990000Y-138948571D02*
X82037619Y-138853333D01*
X82132857Y-138805714D01*
X82275714Y-138805714D01*
X82370952Y-138853333D01*
X82418571Y-138948571D01*
X82418571Y-139472380D01*
X83609047Y-138424761D02*
X82751904Y-139710476D01*
X84370952Y-139472380D02*
X84370952Y-138948571D01*
X84323333Y-138853333D01*
X84228095Y-138805714D01*
X84037619Y-138805714D01*
X83942380Y-138853333D01*
X84370952Y-139424761D02*
X84275714Y-139472380D01*
X84037619Y-139472380D01*
X83942380Y-139424761D01*
X83894761Y-139329523D01*
X83894761Y-139234285D01*
X83942380Y-139139047D01*
X84037619Y-139091428D01*
X84275714Y-139091428D01*
X84370952Y-139043809D01*
X84847142Y-139472380D02*
X84847142Y-138472380D01*
X84942380Y-139091428D02*
X85228095Y-139472380D01*
X85228095Y-138805714D02*
X84847142Y-139186666D01*
X86085238Y-138805714D02*
X86085238Y-139472380D01*
X85656666Y-138805714D02*
X85656666Y-139329523D01*
X85704285Y-139424761D01*
X85799523Y-139472380D01*
X85942380Y-139472380D01*
X86037619Y-139424761D01*
X86085238Y-139377142D01*
X86561428Y-139472380D02*
X86561428Y-138472380D01*
X86656666Y-139091428D02*
X86942380Y-139472380D01*
X86942380Y-138805714D02*
X86561428Y-139186666D01*
X87751904Y-139424761D02*
X87656666Y-139472380D01*
X87466190Y-139472380D01*
X87370952Y-139424761D01*
X87323333Y-139329523D01*
X87323333Y-138948571D01*
X87370952Y-138853333D01*
X87466190Y-138805714D01*
X87656666Y-138805714D01*
X87751904Y-138853333D01*
X87799523Y-138948571D01*
X87799523Y-139043809D01*
X87323333Y-139139047D01*
X88228095Y-139472380D02*
X88228095Y-138805714D01*
X88228095Y-138996190D02*
X88275714Y-138900952D01*
X88323333Y-138853333D01*
X88418571Y-138805714D01*
X88513809Y-138805714D01*
X89561428Y-138424761D02*
X88704285Y-139710476D01*
X89847142Y-139424761D02*
X89990000Y-139472380D01*
X90228095Y-139472380D01*
X90323333Y-139424761D01*
X90370952Y-139377142D01*
X90418571Y-139281904D01*
X90418571Y-139186666D01*
X90370952Y-139091428D01*
X90323333Y-139043809D01*
X90228095Y-138996190D01*
X90037619Y-138948571D01*
X89942380Y-138900952D01*
X89894761Y-138853333D01*
X89847142Y-138758095D01*
X89847142Y-138662857D01*
X89894761Y-138567619D01*
X89942380Y-138520000D01*
X90037619Y-138472380D01*
X90275714Y-138472380D01*
X90418571Y-138520000D01*
X91275714Y-138805714D02*
X91275714Y-139472380D01*
X90847142Y-138805714D02*
X90847142Y-139329523D01*
X90894761Y-139424761D01*
X90990000Y-139472380D01*
X91132857Y-139472380D01*
X91228095Y-139424761D01*
X91275714Y-139377142D01*
X91751904Y-138805714D02*
X91751904Y-139805714D01*
X91751904Y-138853333D02*
X91847142Y-138805714D01*
X92037619Y-138805714D01*
X92132857Y-138853333D01*
X92180476Y-138900952D01*
X92228095Y-138996190D01*
X92228095Y-139281904D01*
X92180476Y-139377142D01*
X92132857Y-139424761D01*
X92037619Y-139472380D01*
X91847142Y-139472380D01*
X91751904Y-139424761D01*
X93037619Y-139424761D02*
X92942380Y-139472380D01*
X92751904Y-139472380D01*
X92656666Y-139424761D01*
X92609047Y-139329523D01*
X92609047Y-138948571D01*
X92656666Y-138853333D01*
X92751904Y-138805714D01*
X92942380Y-138805714D01*
X93037619Y-138853333D01*
X93085238Y-138948571D01*
X93085238Y-139043809D01*
X92609047Y-139139047D01*
X93513809Y-139472380D02*
X93513809Y-138805714D01*
X93513809Y-138996190D02*
X93561428Y-138900952D01*
X93609047Y-138853333D01*
X93704285Y-138805714D01*
X93799523Y-138805714D01*
X94132857Y-138472380D02*
X94132857Y-139281904D01*
X94180476Y-139377142D01*
X94228095Y-139424761D01*
X94323333Y-139472380D01*
X94513809Y-139472380D01*
X94609047Y-139424761D01*
X94656666Y-139377142D01*
X94704285Y-139281904D01*
X94704285Y-138472380D01*
X95180476Y-139472380D02*
X95180476Y-138472380D01*
X95561428Y-138472380D01*
X95656666Y-138520000D01*
X95704285Y-138567619D01*
X95751904Y-138662857D01*
X95751904Y-138805714D01*
X95704285Y-138900952D01*
X95656666Y-138948571D01*
X95561428Y-138996190D01*
X95180476Y-138996190D01*
X96132857Y-139424761D02*
X96275714Y-139472380D01*
X96513809Y-139472380D01*
X96609047Y-139424761D01*
X96656666Y-139377142D01*
X96704285Y-139281904D01*
X96704285Y-139186666D01*
X96656666Y-139091428D01*
X96609047Y-139043809D01*
X96513809Y-138996190D01*
X96323333Y-138948571D01*
X96228095Y-138900952D01*
X96180476Y-138853333D01*
X96132857Y-138758095D01*
X96132857Y-138662857D01*
X96180476Y-138567619D01*
X96228095Y-138520000D01*
X96323333Y-138472380D01*
X96561428Y-138472380D01*
X96704285Y-138520000D01*
D12*
X59465333Y-131690000D02*
X59498666Y-131590000D01*
X59498666Y-131423333D01*
X59465333Y-131356666D01*
X59432000Y-131323333D01*
X59365333Y-131290000D01*
X59298666Y-131290000D01*
X59232000Y-131323333D01*
X59198666Y-131356666D01*
X59165333Y-131423333D01*
X59132000Y-131556666D01*
X59098666Y-131623333D01*
X59065333Y-131656666D01*
X58998666Y-131690000D01*
X58932000Y-131690000D01*
X58865333Y-131656666D01*
X58832000Y-131623333D01*
X58798666Y-131556666D01*
X58798666Y-131390000D01*
X58832000Y-131290000D01*
X58798666Y-131090000D02*
X58798666Y-130690000D01*
X59498666Y-130890000D02*
X58798666Y-130890000D01*
X59498666Y-130123333D02*
X59498666Y-130456666D01*
X58798666Y-130456666D01*
X59498666Y-129890000D02*
X59032000Y-129890000D01*
X58798666Y-129890000D02*
X58832000Y-129923333D01*
X58865333Y-129890000D01*
X58832000Y-129856666D01*
X58798666Y-129890000D01*
X58865333Y-129890000D01*
X59032000Y-129556666D02*
X59498666Y-129556666D01*
X59098666Y-129556666D02*
X59065333Y-129523333D01*
X59032000Y-129456666D01*
X59032000Y-129356666D01*
X59065333Y-129290000D01*
X59132000Y-129256666D01*
X59498666Y-129256666D01*
X59498666Y-128923333D02*
X58798666Y-128923333D01*
X59232000Y-128856666D02*
X59498666Y-128656666D01*
X59032000Y-128656666D02*
X59298666Y-128923333D01*
X58798666Y-128456666D02*
X59498666Y-128223333D01*
X58798666Y-127990000D01*
X58865333Y-127790000D02*
X58832000Y-127756666D01*
X58798666Y-127690000D01*
X58798666Y-127523333D01*
X58832000Y-127456666D01*
X58865333Y-127423333D01*
X58932000Y-127390000D01*
X58998666Y-127390000D01*
X59098666Y-127423333D01*
X59498666Y-127823333D01*
X59498666Y-127390000D01*
X51183333Y-126733333D02*
X51516666Y-126500000D01*
X51183333Y-126333333D02*
X51883333Y-126333333D01*
X51883333Y-126600000D01*
X51850000Y-126666666D01*
X51816666Y-126700000D01*
X51750000Y-126733333D01*
X51650000Y-126733333D01*
X51583333Y-126700000D01*
X51550000Y-126666666D01*
X51516666Y-126600000D01*
X51516666Y-126333333D01*
X51883333Y-126966666D02*
X51183333Y-127433333D01*
X51883333Y-127433333D02*
X51183333Y-126966666D01*
X51183333Y-127700000D02*
X51883333Y-127700000D01*
X51883333Y-127866666D01*
X51850000Y-127966666D01*
X51783333Y-128033333D01*
X51716666Y-128066666D01*
X51583333Y-128100000D01*
X51483333Y-128100000D01*
X51350000Y-128066666D01*
X51283333Y-128033333D01*
X51216666Y-127966666D01*
X51183333Y-127866666D01*
X51183333Y-127700000D01*
X51278666Y-111418000D02*
X51245333Y-111518000D01*
X51245333Y-111684666D01*
X51278666Y-111751333D01*
X51312000Y-111784666D01*
X51378666Y-111818000D01*
X51445333Y-111818000D01*
X51512000Y-111784666D01*
X51545333Y-111751333D01*
X51578666Y-111684666D01*
X51612000Y-111551333D01*
X51645333Y-111484666D01*
X51678666Y-111451333D01*
X51745333Y-111418000D01*
X51812000Y-111418000D01*
X51878666Y-111451333D01*
X51912000Y-111484666D01*
X51945333Y-111551333D01*
X51945333Y-111718000D01*
X51912000Y-111818000D01*
X51245333Y-112118000D02*
X51945333Y-112118000D01*
X51945333Y-112284666D01*
X51912000Y-112384666D01*
X51845333Y-112451333D01*
X51778666Y-112484666D01*
X51645333Y-112518000D01*
X51545333Y-112518000D01*
X51412000Y-112484666D01*
X51345333Y-112451333D01*
X51278666Y-112384666D01*
X51245333Y-112284666D01*
X51245333Y-112118000D01*
X51445333Y-112784666D02*
X51445333Y-113118000D01*
X51245333Y-112718000D02*
X51945333Y-112951333D01*
X51245333Y-113184666D01*
X57528666Y-125547333D02*
X57528666Y-125114000D01*
X57795333Y-125347333D01*
X57795333Y-125247333D01*
X57828666Y-125180666D01*
X57862000Y-125147333D01*
X57928666Y-125114000D01*
X58095333Y-125114000D01*
X58162000Y-125147333D01*
X58195333Y-125180666D01*
X58228666Y-125247333D01*
X58228666Y-125447333D01*
X58195333Y-125514000D01*
X58162000Y-125547333D01*
X57762000Y-124880666D02*
X58228666Y-124714000D01*
X57762000Y-124547333D01*
X57528666Y-124347333D02*
X57528666Y-123914000D01*
X57795333Y-124147333D01*
X57795333Y-124047333D01*
X57828666Y-123980666D01*
X57862000Y-123947333D01*
X57928666Y-123914000D01*
X58095333Y-123914000D01*
X58162000Y-123947333D01*
X58195333Y-123980666D01*
X58228666Y-124047333D01*
X58228666Y-124247333D01*
X58195333Y-124314000D01*
X58162000Y-124347333D01*
X58195333Y-128326221D02*
X58228666Y-128226221D01*
X58228666Y-128059555D01*
X58195333Y-127992888D01*
X58162000Y-127959555D01*
X58095333Y-127926221D01*
X58028666Y-127926221D01*
X57962000Y-127959555D01*
X57928666Y-127992888D01*
X57895333Y-128059555D01*
X57862000Y-128192888D01*
X57828666Y-128259555D01*
X57795333Y-128292888D01*
X57728666Y-128326221D01*
X57662000Y-128326221D01*
X57595333Y-128292888D01*
X57562000Y-128259555D01*
X57528666Y-128192888D01*
X57528666Y-128026221D01*
X57562000Y-127926221D01*
X57528666Y-127692888D02*
X58228666Y-127526221D01*
X57728666Y-127392888D01*
X58228666Y-127259555D01*
X57528666Y-127092888D01*
X58228666Y-126826221D02*
X57528666Y-126826221D01*
X58228666Y-126492888D02*
X57528666Y-126492888D01*
X58028666Y-126259555D01*
X57528666Y-126026221D01*
X58228666Y-126026221D01*
X57562000Y-130271777D02*
X57528666Y-130338444D01*
X57528666Y-130438444D01*
X57562000Y-130538444D01*
X57628666Y-130605110D01*
X57695333Y-130638444D01*
X57828666Y-130671777D01*
X57928666Y-130671777D01*
X58062000Y-130638444D01*
X58128666Y-130605110D01*
X58195333Y-130538444D01*
X58228666Y-130438444D01*
X58228666Y-130371777D01*
X58195333Y-130271777D01*
X58162000Y-130238444D01*
X57928666Y-130238444D01*
X57928666Y-130371777D01*
X58228666Y-129938444D02*
X57528666Y-129938444D01*
X58228666Y-129538444D01*
X57528666Y-129538444D01*
X58228666Y-129205110D02*
X57528666Y-129205110D01*
X57528666Y-129038444D01*
X57562000Y-128938444D01*
X57628666Y-128871777D01*
X57695333Y-128838444D01*
X57828666Y-128805110D01*
X57928666Y-128805110D01*
X58062000Y-128838444D01*
X58128666Y-128871777D01*
X58195333Y-128938444D01*
X58228666Y-129038444D01*
X58228666Y-129205110D01*
X51983333Y-116300000D02*
X51983333Y-116733333D01*
X51716666Y-116500000D01*
X51716666Y-116600000D01*
X51683333Y-116666666D01*
X51650000Y-116700000D01*
X51583333Y-116733333D01*
X51416666Y-116733333D01*
X51350000Y-116700000D01*
X51316666Y-116666666D01*
X51283333Y-116600000D01*
X51283333Y-116400000D01*
X51316666Y-116333333D01*
X51350000Y-116300000D01*
X51350000Y-117033333D02*
X51316666Y-117066666D01*
X51283333Y-117033333D01*
X51316666Y-117000000D01*
X51350000Y-117033333D01*
X51283333Y-117033333D01*
X51983333Y-117300000D02*
X51983333Y-117733333D01*
X51716666Y-117500000D01*
X51716666Y-117600000D01*
X51683333Y-117666666D01*
X51650000Y-117700000D01*
X51583333Y-117733333D01*
X51416666Y-117733333D01*
X51350000Y-117700000D01*
X51316666Y-117666666D01*
X51283333Y-117600000D01*
X51283333Y-117400000D01*
X51316666Y-117333333D01*
X51350000Y-117300000D01*
X51750000Y-117966666D02*
X51283333Y-118133333D01*
X51750000Y-118300000D01*
X51945333Y-131704666D02*
X51945333Y-132104666D01*
X51245333Y-131904666D02*
X51945333Y-131904666D01*
X51945333Y-132271333D02*
X51245333Y-132738000D01*
X51945333Y-132738000D02*
X51245333Y-132271333D01*
X51245333Y-133004666D02*
X51945333Y-133004666D01*
X51945333Y-133171333D01*
X51912000Y-133271333D01*
X51845333Y-133338000D01*
X51778666Y-133371333D01*
X51645333Y-133404666D01*
X51545333Y-133404666D01*
X51412000Y-133371333D01*
X51345333Y-133338000D01*
X51278666Y-133271333D01*
X51245333Y-133171333D01*
X51245333Y-133004666D01*
D10*
X112123571Y-123919047D02*
X112171190Y-123776190D01*
X112218809Y-123728571D01*
X112314047Y-123680952D01*
X112456904Y-123680952D01*
X112552142Y-123728571D01*
X112599761Y-123776190D01*
X112647380Y-123871428D01*
X112647380Y-124252380D01*
X111647380Y-124252380D01*
X111647380Y-123919047D01*
X111695000Y-123823809D01*
X111742619Y-123776190D01*
X111837857Y-123728571D01*
X111933095Y-123728571D01*
X112028333Y-123776190D01*
X112075952Y-123823809D01*
X112123571Y-123919047D01*
X112123571Y-124252380D01*
X112599761Y-122871428D02*
X112647380Y-122966666D01*
X112647380Y-123157142D01*
X112599761Y-123252380D01*
X112504523Y-123300000D01*
X112123571Y-123300000D01*
X112028333Y-123252380D01*
X111980714Y-123157142D01*
X111980714Y-122966666D01*
X112028333Y-122871428D01*
X112123571Y-122823809D01*
X112218809Y-122823809D01*
X112314047Y-123300000D01*
X112647380Y-122395238D02*
X111980714Y-122395238D01*
X112171190Y-122395238D02*
X112075952Y-122347619D01*
X112028333Y-122300000D01*
X111980714Y-122204761D01*
X111980714Y-122109523D01*
X111980714Y-121347619D02*
X112790238Y-121347619D01*
X112885476Y-121395238D01*
X112933095Y-121442857D01*
X112980714Y-121538095D01*
X112980714Y-121680952D01*
X112933095Y-121776190D01*
X112599761Y-121347619D02*
X112647380Y-121442857D01*
X112647380Y-121633333D01*
X112599761Y-121728571D01*
X112552142Y-121776190D01*
X112456904Y-121823809D01*
X112171190Y-121823809D01*
X112075952Y-121776190D01*
X112028333Y-121728571D01*
X111980714Y-121633333D01*
X111980714Y-121442857D01*
X112028333Y-121347619D01*
X114162142Y-125752380D02*
X114209761Y-125800000D01*
X114257380Y-125942857D01*
X114257380Y-126038095D01*
X114209761Y-126180952D01*
X114114523Y-126276190D01*
X114019285Y-126323809D01*
X113828809Y-126371428D01*
X113685952Y-126371428D01*
X113495476Y-126323809D01*
X113400238Y-126276190D01*
X113305000Y-126180952D01*
X113257380Y-126038095D01*
X113257380Y-125942857D01*
X113305000Y-125800000D01*
X113352619Y-125752380D01*
X114257380Y-125180952D02*
X114209761Y-125276190D01*
X114162142Y-125323809D01*
X114066904Y-125371428D01*
X113781190Y-125371428D01*
X113685952Y-125323809D01*
X113638333Y-125276190D01*
X113590714Y-125180952D01*
X113590714Y-125038095D01*
X113638333Y-124942857D01*
X113685952Y-124895238D01*
X113781190Y-124847619D01*
X114066904Y-124847619D01*
X114162142Y-124895238D01*
X114209761Y-124942857D01*
X114257380Y-125038095D01*
X114257380Y-125180952D01*
X113590714Y-124419047D02*
X114257380Y-124419047D01*
X113685952Y-124419047D02*
X113638333Y-124371428D01*
X113590714Y-124276190D01*
X113590714Y-124133333D01*
X113638333Y-124038095D01*
X113733571Y-123990476D01*
X114257380Y-123990476D01*
X113590714Y-123514285D02*
X114257380Y-123514285D01*
X113685952Y-123514285D02*
X113638333Y-123466666D01*
X113590714Y-123371428D01*
X113590714Y-123228571D01*
X113638333Y-123133333D01*
X113733571Y-123085714D01*
X114257380Y-123085714D01*
X114209761Y-122228571D02*
X114257380Y-122323809D01*
X114257380Y-122514285D01*
X114209761Y-122609523D01*
X114114523Y-122657142D01*
X113733571Y-122657142D01*
X113638333Y-122609523D01*
X113590714Y-122514285D01*
X113590714Y-122323809D01*
X113638333Y-122228571D01*
X113733571Y-122180952D01*
X113828809Y-122180952D01*
X113924047Y-122657142D01*
X114209761Y-121323809D02*
X114257380Y-121419047D01*
X114257380Y-121609523D01*
X114209761Y-121704761D01*
X114162142Y-121752380D01*
X114066904Y-121800000D01*
X113781190Y-121800000D01*
X113685952Y-121752380D01*
X113638333Y-121704761D01*
X113590714Y-121609523D01*
X113590714Y-121419047D01*
X113638333Y-121323809D01*
X113590714Y-121038095D02*
X113590714Y-120657142D01*
X113257380Y-120895238D02*
X114114523Y-120895238D01*
X114209761Y-120847619D01*
X114257380Y-120752380D01*
X114257380Y-120657142D01*
X114257380Y-120180952D02*
X114209761Y-120276190D01*
X114162142Y-120323809D01*
X114066904Y-120371428D01*
X113781190Y-120371428D01*
X113685952Y-120323809D01*
X113638333Y-120276190D01*
X113590714Y-120180952D01*
X113590714Y-120038095D01*
X113638333Y-119942857D01*
X113685952Y-119895238D01*
X113781190Y-119847619D01*
X114066904Y-119847619D01*
X114162142Y-119895238D01*
X114209761Y-119942857D01*
X114257380Y-120038095D01*
X114257380Y-120180952D01*
X114257380Y-119419047D02*
X113590714Y-119419047D01*
X113781190Y-119419047D02*
X113685952Y-119371428D01*
X113638333Y-119323809D01*
X113590714Y-119228571D01*
X113590714Y-119133333D01*
D12*
X51945333Y-122074000D02*
X51945333Y-121740666D01*
X51612000Y-121707333D01*
X51645333Y-121740666D01*
X51678666Y-121807333D01*
X51678666Y-121974000D01*
X51645333Y-122040666D01*
X51612000Y-122074000D01*
X51545333Y-122107333D01*
X51378666Y-122107333D01*
X51312000Y-122074000D01*
X51278666Y-122040666D01*
X51245333Y-121974000D01*
X51245333Y-121807333D01*
X51278666Y-121740666D01*
X51312000Y-121707333D01*
X51712000Y-122340666D02*
X51245333Y-122507333D01*
X51712000Y-122674000D01*
X58228666Y-133484000D02*
X57528666Y-133484000D01*
X58228666Y-133084000D01*
X57528666Y-133084000D01*
X58228666Y-132350666D02*
X57895333Y-132584000D01*
X58228666Y-132750666D02*
X57528666Y-132750666D01*
X57528666Y-132484000D01*
X57562000Y-132417333D01*
X57595333Y-132384000D01*
X57662000Y-132350666D01*
X57762000Y-132350666D01*
X57828666Y-132384000D01*
X57862000Y-132417333D01*
X57895333Y-132484000D01*
X57895333Y-132750666D01*
X58195333Y-132084000D02*
X58228666Y-131984000D01*
X58228666Y-131817333D01*
X58195333Y-131750666D01*
X58162000Y-131717333D01*
X58095333Y-131684000D01*
X58028666Y-131684000D01*
X57962000Y-131717333D01*
X57928666Y-131750666D01*
X57895333Y-131817333D01*
X57862000Y-131950666D01*
X57828666Y-132017333D01*
X57795333Y-132050666D01*
X57728666Y-132084000D01*
X57662000Y-132084000D01*
X57595333Y-132050666D01*
X57562000Y-132017333D01*
X57528666Y-131950666D01*
X57528666Y-131784000D01*
X57562000Y-131684000D01*
X57528666Y-131484000D02*
X57528666Y-131084000D01*
X58228666Y-131284000D02*
X57528666Y-131284000D01*
X102331666Y-152516666D02*
X102331666Y-151816666D01*
X102598333Y-151816666D01*
X102665000Y-151850000D01*
X102698333Y-151883333D01*
X102731666Y-151950000D01*
X102731666Y-152050000D01*
X102698333Y-152116666D01*
X102665000Y-152150000D01*
X102598333Y-152183333D01*
X102331666Y-152183333D01*
X102965000Y-151816666D02*
X103131666Y-152516666D01*
X103265000Y-152016666D01*
X103398333Y-152516666D01*
X103565000Y-151816666D01*
X104231666Y-152516666D02*
X103998333Y-152183333D01*
X103831666Y-152516666D02*
X103831666Y-151816666D01*
X104098333Y-151816666D01*
X104165000Y-151850000D01*
X104198333Y-151883333D01*
X104231666Y-151950000D01*
X104231666Y-152050000D01*
X104198333Y-152116666D01*
X104165000Y-152150000D01*
X104098333Y-152183333D01*
X103831666Y-152183333D01*
X105298333Y-152150000D02*
X105398333Y-152183333D01*
X105431666Y-152216666D01*
X105465000Y-152283333D01*
X105465000Y-152383333D01*
X105431666Y-152450000D01*
X105398333Y-152483333D01*
X105331666Y-152516666D01*
X105065000Y-152516666D01*
X105065000Y-151816666D01*
X105298333Y-151816666D01*
X105365000Y-151850000D01*
X105398333Y-151883333D01*
X105431666Y-151950000D01*
X105431666Y-152016666D01*
X105398333Y-152083333D01*
X105365000Y-152116666D01*
X105298333Y-152150000D01*
X105065000Y-152150000D01*
X106065000Y-152050000D02*
X106065000Y-152516666D01*
X105765000Y-152050000D02*
X105765000Y-152416666D01*
X105798333Y-152483333D01*
X105865000Y-152516666D01*
X105965000Y-152516666D01*
X106031666Y-152483333D01*
X106065000Y-152450000D01*
X106298333Y-152050000D02*
X106565000Y-152050000D01*
X106398333Y-151816666D02*
X106398333Y-152416666D01*
X106431666Y-152483333D01*
X106498333Y-152516666D01*
X106565000Y-152516666D01*
X106698333Y-152050000D02*
X106965000Y-152050000D01*
X106798333Y-151816666D02*
X106798333Y-152416666D01*
X106831666Y-152483333D01*
X106898333Y-152516666D01*
X106965000Y-152516666D01*
X107298333Y-152516666D02*
X107231666Y-152483333D01*
X107198333Y-152450000D01*
X107165000Y-152383333D01*
X107165000Y-152183333D01*
X107198333Y-152116666D01*
X107231666Y-152083333D01*
X107298333Y-152050000D01*
X107398333Y-152050000D01*
X107465000Y-152083333D01*
X107498333Y-152116666D01*
X107531666Y-152183333D01*
X107531666Y-152383333D01*
X107498333Y-152450000D01*
X107465000Y-152483333D01*
X107398333Y-152516666D01*
X107298333Y-152516666D01*
X107831666Y-152050000D02*
X107831666Y-152516666D01*
X107831666Y-152116666D02*
X107865000Y-152083333D01*
X107931666Y-152050000D01*
X108031666Y-152050000D01*
X108098333Y-152083333D01*
X108131666Y-152150000D01*
X108131666Y-152516666D01*
X51833680Y-129243602D02*
X51867013Y-129176936D01*
X51867013Y-129076936D01*
X51833680Y-128976936D01*
X51767013Y-128910269D01*
X51700346Y-128876936D01*
X51567013Y-128843602D01*
X51467013Y-128843602D01*
X51333680Y-128876936D01*
X51267013Y-128910269D01*
X51200346Y-128976936D01*
X51167013Y-129076936D01*
X51167013Y-129143602D01*
X51200346Y-129243602D01*
X51233680Y-129276936D01*
X51467013Y-129276936D01*
X51467013Y-129143602D01*
X51167013Y-129576936D02*
X51867013Y-129576936D01*
X51167013Y-129976936D01*
X51867013Y-129976936D01*
X51167013Y-130310269D02*
X51867013Y-130310269D01*
X51867013Y-130476936D01*
X51833680Y-130576936D01*
X51767013Y-130643602D01*
X51700346Y-130676936D01*
X51567013Y-130710269D01*
X51467013Y-130710269D01*
X51333680Y-130676936D01*
X51267013Y-130643602D01*
X51200346Y-130576936D01*
X51167013Y-130476936D01*
X51167013Y-130310269D01*
D10*
X101990659Y-125416037D02*
X102708038Y-125416037D01*
X102851514Y-125463862D01*
X102947164Y-125559512D01*
X102994990Y-125702988D01*
X102994990Y-125798639D01*
X101990659Y-124459531D02*
X101990659Y-124937784D01*
X102468912Y-124985609D01*
X102421086Y-124937784D01*
X102373261Y-124842133D01*
X102373261Y-124603007D01*
X102421086Y-124507356D01*
X102468912Y-124459531D01*
X102564562Y-124411706D01*
X102803689Y-124411706D01*
X102899339Y-124459531D01*
X102947164Y-124507356D01*
X102994990Y-124603007D01*
X102994990Y-124842133D01*
X102947164Y-124937784D01*
X102899339Y-124985609D01*
D12*
X104160000Y-124780833D02*
X104126666Y-124847500D01*
X104126666Y-124947500D01*
X104160000Y-125047500D01*
X104226666Y-125114166D01*
X104293333Y-125147500D01*
X104426666Y-125180833D01*
X104526666Y-125180833D01*
X104660000Y-125147500D01*
X104726666Y-125114166D01*
X104793333Y-125047500D01*
X104826666Y-124947500D01*
X104826666Y-124880833D01*
X104793333Y-124780833D01*
X104760000Y-124747500D01*
X104526666Y-124747500D01*
X104526666Y-124880833D01*
X104826666Y-124447500D02*
X104126666Y-124447500D01*
X104826666Y-124047500D01*
X104126666Y-124047500D01*
X104826666Y-123714166D02*
X104126666Y-123714166D01*
X104126666Y-123547500D01*
X104160000Y-123447500D01*
X104226666Y-123380833D01*
X104293333Y-123347500D01*
X104426666Y-123314166D01*
X104526666Y-123314166D01*
X104660000Y-123347500D01*
X104726666Y-123380833D01*
X104793333Y-123447500D01*
X104826666Y-123547500D01*
X104826666Y-123714166D01*
X104160000Y-122280833D02*
X104126666Y-122347500D01*
X104126666Y-122447500D01*
X104160000Y-122547500D01*
X104226666Y-122614166D01*
X104293333Y-122647500D01*
X104426666Y-122680833D01*
X104526666Y-122680833D01*
X104660000Y-122647500D01*
X104726666Y-122614166D01*
X104793333Y-122547500D01*
X104826666Y-122447500D01*
X104826666Y-122380833D01*
X104793333Y-122280833D01*
X104760000Y-122247500D01*
X104526666Y-122247500D01*
X104526666Y-122380833D01*
X104826666Y-121947500D02*
X104126666Y-121947500D01*
X104826666Y-121547500D01*
X104126666Y-121547500D01*
X104826666Y-121214166D02*
X104126666Y-121214166D01*
X104126666Y-121047500D01*
X104160000Y-120947500D01*
X104226666Y-120880833D01*
X104293333Y-120847500D01*
X104426666Y-120814166D01*
X104526666Y-120814166D01*
X104660000Y-120847500D01*
X104726666Y-120880833D01*
X104793333Y-120947500D01*
X104826666Y-121047500D01*
X104826666Y-121214166D01*
X104560000Y-119947500D02*
X104560000Y-119414166D01*
X104826666Y-119680833D02*
X104293333Y-119680833D01*
X104126666Y-118747500D02*
X104126666Y-119080833D01*
X104460000Y-119114166D01*
X104426666Y-119080833D01*
X104393333Y-119014166D01*
X104393333Y-118847500D01*
X104426666Y-118780833D01*
X104460000Y-118747500D01*
X104526666Y-118714166D01*
X104693333Y-118714166D01*
X104760000Y-118747500D01*
X104793333Y-118780833D01*
X104826666Y-118847500D01*
X104826666Y-119014166D01*
X104793333Y-119080833D01*
X104760000Y-119114166D01*
X104826666Y-127147500D02*
X104826666Y-127547500D01*
X104826666Y-127347500D02*
X104126666Y-127347500D01*
X104226666Y-127414166D01*
X104293333Y-127480833D01*
X104326666Y-127547500D01*
X104193333Y-126880833D02*
X104160000Y-126847500D01*
X104126666Y-126780833D01*
X104126666Y-126614166D01*
X104160000Y-126547500D01*
X104193333Y-126514166D01*
X104260000Y-126480833D01*
X104326666Y-126480833D01*
X104426666Y-126514166D01*
X104826666Y-126914166D01*
X104826666Y-126480833D01*
X104360000Y-126247500D02*
X104826666Y-126080833D01*
X104360000Y-125914166D01*
D10*
X89612380Y-152633333D02*
X90326666Y-152633333D01*
X90469523Y-152680952D01*
X90564761Y-152776190D01*
X90612380Y-152919047D01*
X90612380Y-153014285D01*
X90612380Y-152109523D02*
X90612380Y-151919047D01*
X90564761Y-151823809D01*
X90517142Y-151776190D01*
X90374285Y-151680952D01*
X90183809Y-151633333D01*
X89802857Y-151633333D01*
X89707619Y-151680952D01*
X89660000Y-151728571D01*
X89612380Y-151823809D01*
X89612380Y-152014285D01*
X89660000Y-152109523D01*
X89707619Y-152157142D01*
X89802857Y-152204761D01*
X90040952Y-152204761D01*
X90136190Y-152157142D01*
X90183809Y-152109523D01*
X90231428Y-152014285D01*
X90231428Y-151823809D01*
X90183809Y-151728571D01*
X90136190Y-151680952D01*
X90040952Y-151633333D01*
X89257380Y-159928333D02*
X89971666Y-159928333D01*
X90114523Y-159975952D01*
X90209761Y-160071190D01*
X90257380Y-160214047D01*
X90257380Y-160309285D01*
X89590714Y-159023571D02*
X90257380Y-159023571D01*
X89209761Y-159261666D02*
X89924047Y-159499761D01*
X89924047Y-158880714D01*
D12*
X108616666Y-155333333D02*
X109116666Y-155333333D01*
X109216666Y-155366666D01*
X109283333Y-155433333D01*
X109316666Y-155533333D01*
X109316666Y-155600000D01*
X108616666Y-154700000D02*
X108616666Y-154833333D01*
X108650000Y-154900000D01*
X108683333Y-154933333D01*
X108783333Y-155000000D01*
X108916666Y-155033333D01*
X109183333Y-155033333D01*
X109250000Y-155000000D01*
X109283333Y-154966666D01*
X109316666Y-154900000D01*
X109316666Y-154766666D01*
X109283333Y-154700000D01*
X109250000Y-154666666D01*
X109183333Y-154633333D01*
X109016666Y-154633333D01*
X108950000Y-154666666D01*
X108916666Y-154700000D01*
X108883333Y-154766666D01*
X108883333Y-154900000D01*
X108916666Y-154966666D01*
X108950000Y-155000000D01*
X109016666Y-155033333D01*
X53266666Y-125101666D02*
X53266666Y-125601666D01*
X53233333Y-125701666D01*
X53166666Y-125768333D01*
X53066666Y-125801666D01*
X53000000Y-125801666D01*
X53533333Y-125101666D02*
X53966666Y-125101666D01*
X53733333Y-125368333D01*
X53833333Y-125368333D01*
X53900000Y-125401666D01*
X53933333Y-125435000D01*
X53966666Y-125501666D01*
X53966666Y-125668333D01*
X53933333Y-125735000D01*
X53900000Y-125768333D01*
X53833333Y-125801666D01*
X53633333Y-125801666D01*
X53566666Y-125768333D01*
X53533333Y-125735000D01*
X53267666Y-109616666D02*
X53267666Y-110116666D01*
X53234333Y-110216666D01*
X53167666Y-110283333D01*
X53067666Y-110316666D01*
X53001000Y-110316666D01*
X53567666Y-109683333D02*
X53601000Y-109650000D01*
X53667666Y-109616666D01*
X53834333Y-109616666D01*
X53901000Y-109650000D01*
X53934333Y-109683333D01*
X53967666Y-109750000D01*
X53967666Y-109816666D01*
X53934333Y-109916666D01*
X53534333Y-110316666D01*
X53967666Y-110316666D01*
D10*
X108132380Y-113035523D02*
X108846666Y-113035523D01*
X108989523Y-113083142D01*
X109084761Y-113178380D01*
X109132380Y-113321238D01*
X109132380Y-113416476D01*
X109132380Y-112035523D02*
X109132380Y-112606952D01*
X109132380Y-112321238D02*
X108132380Y-112321238D01*
X108275238Y-112416476D01*
X108370476Y-112511714D01*
X108418095Y-112606952D01*
X108132380Y-111416476D02*
X108132380Y-111321238D01*
X108180000Y-111226000D01*
X108227619Y-111178380D01*
X108322857Y-111130761D01*
X108513333Y-111083142D01*
X108751428Y-111083142D01*
X108941904Y-111130761D01*
X109037142Y-111178380D01*
X109084761Y-111226000D01*
X109132380Y-111321238D01*
X109132380Y-111416476D01*
X109084761Y-111511714D01*
X109037142Y-111559333D01*
X108941904Y-111606952D01*
X108751428Y-111654571D01*
X108513333Y-111654571D01*
X108322857Y-111606952D01*
X108227619Y-111559333D01*
X108180000Y-111511714D01*
X108132380Y-111416476D01*
D12*
X55750666Y-103611333D02*
X56250666Y-103611333D01*
X56350666Y-103644666D01*
X56417333Y-103711333D01*
X56450666Y-103811333D01*
X56450666Y-103878000D01*
X56050666Y-103178000D02*
X56017333Y-103244666D01*
X55984000Y-103278000D01*
X55917333Y-103311333D01*
X55884000Y-103311333D01*
X55817333Y-103278000D01*
X55784000Y-103244666D01*
X55750666Y-103178000D01*
X55750666Y-103044666D01*
X55784000Y-102978000D01*
X55817333Y-102944666D01*
X55884000Y-102911333D01*
X55917333Y-102911333D01*
X55984000Y-102944666D01*
X56017333Y-102978000D01*
X56050666Y-103044666D01*
X56050666Y-103178000D01*
X56084000Y-103244666D01*
X56117333Y-103278000D01*
X56184000Y-103311333D01*
X56317333Y-103311333D01*
X56384000Y-103278000D01*
X56417333Y-103244666D01*
X56450666Y-103178000D01*
X56450666Y-103044666D01*
X56417333Y-102978000D01*
X56384000Y-102944666D01*
X56317333Y-102911333D01*
X56184000Y-102911333D01*
X56117333Y-102944666D01*
X56084000Y-102978000D01*
X56050666Y-103044666D01*
X55766666Y-134316666D02*
X55766666Y-134816666D01*
X55733333Y-134916666D01*
X55666666Y-134983333D01*
X55566666Y-135016666D01*
X55500000Y-135016666D01*
X56033333Y-134316666D02*
X56500000Y-134316666D01*
X56200000Y-135016666D01*
X53399666Y-133889666D02*
X53399666Y-134389666D01*
X53366333Y-134489666D01*
X53299666Y-134556333D01*
X53199666Y-134589666D01*
X53133000Y-134589666D01*
X54099666Y-134589666D02*
X53699666Y-134589666D01*
X53899666Y-134589666D02*
X53899666Y-133889666D01*
X53833000Y-133989666D01*
X53766333Y-134056333D01*
X53699666Y-134089666D01*
G36*
X83007841Y-127291877D02*
G01*
X83332538Y-127512179D01*
X83683057Y-127858011D01*
X84067587Y-128334107D01*
X84236873Y-128567911D01*
X84468495Y-128934578D01*
X84592366Y-129242595D01*
X84602882Y-129510085D01*
X84494439Y-129755169D01*
X84261435Y-129995971D01*
X83898265Y-130250613D01*
X83675511Y-130383396D01*
X83410499Y-130522572D01*
X83249882Y-130573898D01*
X83185367Y-130539689D01*
X83183247Y-130520794D01*
X83231378Y-130446864D01*
X83358923Y-130301924D01*
X83540605Y-130114299D01*
X83585645Y-130069799D01*
X83811364Y-129831360D01*
X84019532Y-129582179D01*
X84165829Y-129375383D01*
X84167998Y-129371743D01*
X84347955Y-129068097D01*
X83942814Y-128520265D01*
X83677878Y-128199137D01*
X83396363Y-127920667D01*
X83124007Y-127705917D01*
X82886550Y-127575952D01*
X82753136Y-127546696D01*
X82579610Y-127591467D01*
X82325488Y-127715271D01*
X82018995Y-127902342D01*
X81688353Y-128136916D01*
X81666052Y-128153926D01*
X81398185Y-128339716D01*
X81217513Y-128417275D01*
X81117391Y-128388014D01*
X81090633Y-128276036D01*
X81144968Y-128167362D01*
X81289406Y-128001273D01*
X81496099Y-127803510D01*
X81737198Y-127599813D01*
X81984853Y-127415925D01*
X82106761Y-127336810D01*
X82403144Y-127208927D01*
X82700773Y-127192371D01*
X83007841Y-127291877D01*
G37*
G36*
X83156328Y-127911725D02*
G01*
X83167749Y-128027040D01*
X83068462Y-128208923D01*
X82861991Y-128448939D01*
X82738857Y-128570069D01*
X82468166Y-128806049D01*
X82191284Y-129013804D01*
X81929999Y-129181147D01*
X81706097Y-129295895D01*
X81541368Y-129345860D01*
X81457597Y-129318857D01*
X81451429Y-129290127D01*
X81503072Y-129211698D01*
X81641956Y-129063035D01*
X81844010Y-128865762D01*
X82085163Y-128641503D01*
X82341346Y-128411881D01*
X82588488Y-128198520D01*
X82802518Y-128023042D01*
X82959367Y-127907072D01*
X83030677Y-127871412D01*
X83156328Y-127911725D01*
G37*
G36*
X80325292Y-119898664D02*
G01*
X80644583Y-119902716D01*
X80860125Y-119912380D01*
X80992201Y-119930035D01*
X81061094Y-119958061D01*
X81087089Y-119998837D01*
X81090633Y-120039612D01*
X81053249Y-120174256D01*
X80930978Y-120263349D01*
X80708642Y-120310838D01*
X80371063Y-120320672D01*
X80060981Y-120307443D01*
X79466903Y-120296749D01*
X78835934Y-120330694D01*
X78187287Y-120404280D01*
X77540170Y-120512509D01*
X76913794Y-120650383D01*
X76327370Y-120812904D01*
X75800107Y-120995076D01*
X75351216Y-121191899D01*
X74999906Y-121398377D01*
X74765389Y-121609511D01*
X74705047Y-121700856D01*
X74643642Y-121850457D01*
X74672361Y-121952817D01*
X74761804Y-122044527D01*
X74952177Y-122191782D01*
X75183286Y-122312986D01*
X75481703Y-122417672D01*
X75873999Y-122515375D01*
X76319409Y-122603411D01*
X77025810Y-122751864D01*
X77589365Y-122912492D01*
X78009717Y-123085178D01*
X78234360Y-123225332D01*
X78385355Y-123426765D01*
X78412954Y-123687570D01*
X78319474Y-123996233D01*
X78107232Y-124341243D01*
X77977786Y-124500485D01*
X77806278Y-124767136D01*
X77776844Y-125009761D01*
X77889463Y-125227715D01*
X78005832Y-125332333D01*
X78113710Y-125405090D01*
X78248074Y-125478150D01*
X78429860Y-125560186D01*
X78680007Y-125659865D01*
X79019452Y-125785858D01*
X79469134Y-125946835D01*
X79611372Y-125997142D01*
X80223245Y-126256734D01*
X80721754Y-126560864D01*
X80892196Y-126698940D01*
X81061328Y-126873085D01*
X81152548Y-127012763D01*
X81164651Y-127097987D01*
X81096430Y-127108766D01*
X80946678Y-127025112D01*
X80910236Y-126997916D01*
X80670871Y-126849447D01*
X80319988Y-126680379D01*
X79886583Y-126503020D01*
X79399655Y-126329679D01*
X79142338Y-126247489D01*
X78612887Y-126075049D01*
X78210281Y-125916471D01*
X77919479Y-125759226D01*
X77725442Y-125590785D01*
X77613128Y-125398619D01*
X77567498Y-125170198D01*
X77569951Y-124937594D01*
X77599952Y-124693876D01*
X77665049Y-124496768D01*
X77789261Y-124289508D01*
X77917081Y-124117263D01*
X78235000Y-123705181D01*
X78068181Y-123570100D01*
X77840399Y-123440451D01*
X77480983Y-123309436D01*
X77002532Y-123180696D01*
X76417642Y-123057874D01*
X76104567Y-123002389D01*
X75695492Y-122930753D01*
X75395991Y-122867701D01*
X75172710Y-122801861D01*
X74992292Y-122721859D01*
X74821381Y-122616324D01*
X74686514Y-122518912D01*
X74543403Y-122395290D01*
X74474189Y-122266562D01*
X74452919Y-122073441D01*
X74451997Y-121983190D01*
X74493784Y-121609995D01*
X74629505Y-121302732D01*
X74874700Y-121040057D01*
X75244911Y-120800623D01*
X75353986Y-120744298D01*
X76094875Y-120438267D01*
X76950450Y-120197837D01*
X77905432Y-120025864D01*
X78944543Y-119925204D01*
X79881969Y-119897847D01*
X80325292Y-119898664D01*
G37*
G36*
X86397414Y-121128725D02*
G01*
X86991865Y-121135234D01*
X87502780Y-121145508D01*
X87915467Y-121159482D01*
X88215229Y-121177092D01*
X88387373Y-121198271D01*
X88399912Y-121201366D01*
X88625597Y-121311419D01*
X88923355Y-121532346D01*
X89284015Y-121855743D01*
X89698406Y-122273207D01*
X90157357Y-122776334D01*
X90309909Y-122951472D01*
X90674865Y-123381379D01*
X90951520Y-123725634D01*
X91151252Y-124002950D01*
X91285439Y-124232040D01*
X91365458Y-124431616D01*
X91402687Y-124620390D01*
X91409383Y-124759766D01*
X91385773Y-125034490D01*
X91323562Y-125247761D01*
X91298503Y-125291638D01*
X91099807Y-125452311D01*
X90775653Y-125550094D01*
X90330973Y-125583956D01*
X89966202Y-125570233D01*
X89593217Y-125559629D01*
X89123455Y-125571924D01*
X88602344Y-125605412D01*
X88306542Y-125632629D01*
X87933879Y-125669954D01*
X87614699Y-125700274D01*
X87375335Y-125721216D01*
X87242116Y-125730406D01*
X87224156Y-125730192D01*
X87141058Y-125721014D01*
X86947463Y-125704305D01*
X86676823Y-125682868D01*
X86502565Y-125669731D01*
X85969795Y-125621439D01*
X85580517Y-125568179D01*
X85334125Y-125512972D01*
X85230017Y-125458841D01*
X85267585Y-125408806D01*
X85446226Y-125365888D01*
X85765335Y-125333111D01*
X86224306Y-125313494D01*
X86574724Y-125309276D01*
X86994695Y-125301661D01*
X87444931Y-125282889D01*
X87857814Y-125256205D01*
X88053986Y-125238331D01*
X88366767Y-125210036D01*
X88776991Y-125179911D01*
X89237868Y-125151046D01*
X89702605Y-125126532D01*
X89841349Y-125120247D01*
X90328570Y-125095431D01*
X90688154Y-125065826D01*
X90936780Y-125026481D01*
X91091128Y-124972443D01*
X91167878Y-124898760D01*
X91183710Y-124800481D01*
X91170414Y-124725679D01*
X91100416Y-124583765D01*
X90947744Y-124356163D01*
X90728387Y-124062508D01*
X90458333Y-123722437D01*
X90153571Y-123355586D01*
X89830091Y-122981592D01*
X89503881Y-122620090D01*
X89190929Y-122290717D01*
X89172452Y-122271926D01*
X88886355Y-121985694D01*
X88674450Y-121787289D01*
X88512602Y-121658902D01*
X88376678Y-121582720D01*
X88242541Y-121540933D01*
X88162224Y-121526378D01*
X88019738Y-121515796D01*
X87751435Y-121506662D01*
X87375810Y-121498983D01*
X86911358Y-121492764D01*
X86376572Y-121488009D01*
X85789948Y-121484723D01*
X85169979Y-121482913D01*
X84535161Y-121482582D01*
X83903987Y-121483736D01*
X83294952Y-121486380D01*
X82726551Y-121490519D01*
X82217278Y-121496157D01*
X81785627Y-121503301D01*
X81450093Y-121511955D01*
X81229170Y-121522125D01*
X81198872Y-121524470D01*
X80841614Y-121538042D01*
X80515624Y-121518626D01*
X80250773Y-121471070D01*
X80076933Y-121400220D01*
X80024080Y-121333860D01*
X80031164Y-121298910D01*
X80077676Y-121270712D01*
X80179108Y-121247932D01*
X80350953Y-121229236D01*
X80608703Y-121213290D01*
X80967851Y-121198761D01*
X81443888Y-121184315D01*
X81899377Y-121172421D01*
X82686450Y-121154961D01*
X83478155Y-121141659D01*
X84259799Y-121132449D01*
X85016686Y-121127268D01*
X85734123Y-121126048D01*
X86397414Y-121128725D01*
G37*
G36*
X91839401Y-125289986D02*
G01*
X91842338Y-125309764D01*
X91817718Y-125380047D01*
X91810517Y-125381923D01*
X91748910Y-125331359D01*
X91734099Y-125309764D01*
X91739820Y-125243271D01*
X91765920Y-125237605D01*
X91839401Y-125289986D01*
G37*
G36*
X86138692Y-123103656D02*
G01*
X85887691Y-123079694D01*
X85528183Y-123058545D01*
X85292585Y-123047553D01*
X84898962Y-123027746D01*
X84706361Y-123015697D01*
X87883006Y-123015697D01*
X88076735Y-123186150D01*
X88306487Y-123319383D01*
X88475798Y-123343161D01*
X88681134Y-123329720D01*
X88466046Y-123137539D01*
X88260191Y-122999272D01*
X88070957Y-122979789D01*
X88066982Y-122980528D01*
X87883006Y-123015697D01*
X84706361Y-123015697D01*
X84542484Y-123005445D01*
X84254948Y-122982953D01*
X84068151Y-122962577D01*
X84031116Y-122956077D01*
X83869429Y-122904488D01*
X83840923Y-122854933D01*
X83934458Y-122809554D01*
X84138898Y-122770495D01*
X84443104Y-122739898D01*
X84835938Y-122719904D01*
X85296439Y-122712664D01*
X85618653Y-122710978D01*
X85820102Y-122702993D01*
X85924337Y-122683282D01*
X85954908Y-122646416D01*
X85935367Y-122586967D01*
X85925292Y-122567719D01*
X85889737Y-122516148D01*
X85832630Y-122478560D01*
X85745038Y-122455850D01*
X86329196Y-122455850D01*
X86335248Y-122521615D01*
X86358247Y-122567719D01*
X86448382Y-122664023D01*
X86610179Y-122706206D01*
X86760200Y-122712037D01*
X86956174Y-122706725D01*
X87036730Y-122679587D01*
X87030677Y-122613823D01*
X87007679Y-122567719D01*
X86917543Y-122471415D01*
X86755746Y-122429232D01*
X86605726Y-122423401D01*
X86409752Y-122428713D01*
X86329196Y-122455850D01*
X85745038Y-122455850D01*
X85733108Y-122452757D01*
X85570310Y-122436539D01*
X85323372Y-122427707D01*
X84971433Y-122424062D01*
X84555989Y-122423401D01*
X84021252Y-122418225D01*
X83617042Y-122402956D01*
X83379275Y-122381041D01*
X87322996Y-122381041D01*
X87363300Y-122449178D01*
X87404554Y-122495560D01*
X87596195Y-122611815D01*
X87823796Y-122639878D01*
X88004473Y-122635860D01*
X88063384Y-122610079D01*
X88023080Y-122541942D01*
X87981827Y-122495560D01*
X87790186Y-122379305D01*
X87562584Y-122351242D01*
X87381908Y-122355259D01*
X87322996Y-122381041D01*
X83379275Y-122381041D01*
X83346108Y-122377984D01*
X83211199Y-122343695D01*
X83215061Y-122300480D01*
X83346417Y-122252401D01*
X83462142Y-122237576D01*
X83705049Y-122218466D01*
X84058092Y-122195949D01*
X84504226Y-122170902D01*
X85026408Y-122144203D01*
X85607593Y-122116729D01*
X86230735Y-122089358D01*
X86878790Y-122062966D01*
X87429884Y-122042198D01*
X87960328Y-122022985D01*
X88331820Y-122457710D01*
X88529996Y-122680088D01*
X88797011Y-122966589D01*
X89098285Y-123280678D01*
X89399234Y-123585821D01*
X89406916Y-123593479D01*
X89664039Y-123857944D01*
X89879038Y-124094855D01*
X90032941Y-124282096D01*
X90106774Y-124397553D01*
X90110520Y-124413568D01*
X90098039Y-124486628D01*
X90036393Y-124479154D01*
X89912082Y-124404243D01*
X89751228Y-124288871D01*
X89533753Y-124118783D01*
X89345026Y-123962952D01*
X89074428Y-123760386D01*
X88869376Y-123670660D01*
X88791736Y-123665315D01*
X88607065Y-123680598D01*
X88743414Y-123863789D01*
X88895699Y-124063564D01*
X89024503Y-124227378D01*
X89132076Y-124404683D01*
X89168144Y-124558187D01*
X89127442Y-124649624D01*
X89084064Y-124660332D01*
X88996947Y-124612273D01*
X88837021Y-124483429D01*
X88631757Y-124296799D01*
X88518551Y-124186864D01*
X88291640Y-123965149D01*
X88132740Y-123827575D01*
X88008449Y-123755601D01*
X87885368Y-123730687D01*
X87730095Y-123734292D01*
X87706082Y-123735870D01*
X87370736Y-123758344D01*
X87730400Y-124179101D01*
X87902166Y-124388147D01*
X88029302Y-124558319D01*
X88088442Y-124657975D01*
X88090065Y-124666175D01*
X88047897Y-124735239D01*
X87923721Y-124690218D01*
X87721033Y-124533288D01*
X87443328Y-124266627D01*
X87434832Y-124257935D01*
X86971599Y-123783379D01*
X86211817Y-123830031D01*
X85821574Y-123841621D01*
X85457654Y-123830059D01*
X85146347Y-123798539D01*
X84913942Y-123750254D01*
X84786727Y-123688397D01*
X84770747Y-123654964D01*
X84838067Y-123629382D01*
X85021618Y-123596282D01*
X85293789Y-123559845D01*
X85626967Y-123524253D01*
X85645385Y-123522510D01*
X85985497Y-123487771D01*
X86270538Y-123453487D01*
X86471248Y-123423539D01*
X86558367Y-123401810D01*
X86558958Y-123401288D01*
X86546642Y-123325974D01*
X86476755Y-123228498D01*
X86409615Y-123174450D01*
X86348663Y-123150951D01*
X86909995Y-123150951D01*
X86940126Y-123225757D01*
X87029676Y-123315680D01*
X87197210Y-123355827D01*
X87351333Y-123361469D01*
X87689910Y-123361469D01*
X87508282Y-123179841D01*
X87347340Y-123055047D01*
X87181197Y-123031171D01*
X87097075Y-123044129D01*
X86945434Y-123087399D01*
X86909995Y-123150951D01*
X86348663Y-123150951D01*
X86304797Y-123134039D01*
X86138692Y-123103656D01*
G37*
G36*
X87927030Y-110396547D02*
G01*
X87942699Y-110600104D01*
X87953793Y-110937055D01*
X87960345Y-111409676D01*
X87962392Y-112020244D01*
X87959968Y-112771034D01*
X87955079Y-113445961D01*
X87948697Y-114184326D01*
X87942085Y-114948433D01*
X87935485Y-115710554D01*
X87929135Y-116442963D01*
X87923276Y-117117933D01*
X87918150Y-117707738D01*
X87913996Y-118184650D01*
X87913529Y-118238173D01*
X87907002Y-118724589D01*
X87896740Y-119167368D01*
X87883599Y-119544553D01*
X87868438Y-119834190D01*
X87852114Y-120014324D01*
X87842357Y-120060190D01*
X87762734Y-120173739D01*
X87691760Y-120144826D01*
X87633042Y-119975221D01*
X87628968Y-119955555D01*
X87620891Y-119844338D01*
X87613229Y-119601692D01*
X87606105Y-119240507D01*
X87599647Y-118773673D01*
X87593980Y-118214077D01*
X87589230Y-117574611D01*
X87585521Y-116868163D01*
X87582981Y-116107623D01*
X87581735Y-115305879D01*
X87581641Y-115103516D01*
X87581610Y-114170318D01*
X87582201Y-113370887D01*
X87583691Y-112694672D01*
X87586360Y-112131122D01*
X87590486Y-111669687D01*
X87596347Y-111299816D01*
X87604223Y-111010957D01*
X87614392Y-110792561D01*
X87627132Y-110634075D01*
X87642722Y-110524951D01*
X87661440Y-110454635D01*
X87683566Y-110412579D01*
X87706085Y-110390560D01*
X87839155Y-110326677D01*
X87906750Y-110324107D01*
X87927030Y-110396547D01*
G37*
G36*
X76601564Y-115942720D02*
G01*
X76652905Y-115971834D01*
X76894238Y-116192223D01*
X77077151Y-116477327D01*
X77173691Y-116776540D01*
X77180061Y-116926264D01*
X77136416Y-117123282D01*
X77059686Y-117185414D01*
X76965075Y-117113775D01*
X76867787Y-116909477D01*
X76865640Y-116903230D01*
X76718057Y-116616324D01*
X76506763Y-116386769D01*
X76266645Y-116246269D01*
X76111292Y-116217719D01*
X75920864Y-116243619D01*
X75668897Y-116309854D01*
X75517118Y-116362001D01*
X75148899Y-116473650D01*
X74829332Y-116495450D01*
X74495554Y-116429165D01*
X74387085Y-116393703D01*
X73993857Y-116322588D01*
X73629703Y-116391783D01*
X73459809Y-116479022D01*
X73358429Y-116571209D01*
X73309877Y-116710784D01*
X73297452Y-116944557D01*
X73306854Y-117154050D01*
X73344337Y-117339912D01*
X73423812Y-117530470D01*
X73559193Y-117754055D01*
X73764392Y-118038994D01*
X73960432Y-118294514D01*
X74178868Y-118579334D01*
X74386890Y-118857144D01*
X74553195Y-119085866D01*
X74613253Y-119172107D01*
X74810589Y-119463710D01*
X75101189Y-119312241D01*
X75288146Y-119222798D01*
X75407510Y-119201458D01*
X75516420Y-119243733D01*
X75567100Y-119275641D01*
X75690463Y-119342960D01*
X75788848Y-119334072D01*
X75922201Y-119239036D01*
X75955491Y-119211217D01*
X76142501Y-119078125D01*
X76274003Y-119032658D01*
X76327844Y-119082032D01*
X76328133Y-119089842D01*
X76277542Y-119181335D01*
X76150418Y-119326781D01*
X75983740Y-119491010D01*
X75814484Y-119638850D01*
X75679628Y-119735128D01*
X75630400Y-119753514D01*
X75494142Y-119717430D01*
X75387429Y-119663315D01*
X75261257Y-119613803D01*
X75123305Y-119646090D01*
X75021764Y-119699395D01*
X74745691Y-119812069D01*
X74530964Y-119797448D01*
X74480824Y-119770449D01*
X74399501Y-119682175D01*
X74278311Y-119514333D01*
X74199499Y-119392719D01*
X74048063Y-119169456D01*
X73845495Y-118896827D01*
X73636623Y-118635048D01*
X73284445Y-118162350D01*
X73059420Y-117733900D01*
X72957663Y-117333477D01*
X72975288Y-116944862D01*
X73108408Y-116551834D01*
X73127927Y-116511656D01*
X73269840Y-116265023D01*
X73420932Y-116107838D01*
X73629457Y-115990621D01*
X73641122Y-115985423D01*
X73866904Y-115904301D01*
X74086965Y-115876593D01*
X74344902Y-115903082D01*
X74684313Y-115984549D01*
X74758673Y-116005469D01*
X75008300Y-116061422D01*
X75217370Y-116057743D01*
X75444184Y-116003722D01*
X75927502Y-115894592D01*
X76316084Y-115874185D01*
X76601564Y-115942720D01*
G37*
G36*
X85669746Y-118818002D02*
G01*
X85963929Y-118826890D01*
X86151966Y-118843937D01*
X86252908Y-118870972D01*
X86285805Y-118909824D01*
X86286088Y-118914849D01*
X86234818Y-119045599D01*
X86195889Y-119086633D01*
X86093466Y-119115669D01*
X85880873Y-119143750D01*
X85592252Y-119168900D01*
X85261747Y-119189142D01*
X84923502Y-119202499D01*
X84611661Y-119206993D01*
X84360366Y-119200647D01*
X84301713Y-119196318D01*
X84069692Y-119165280D01*
X83816473Y-119116601D01*
X83581930Y-119060015D01*
X83405939Y-119005256D01*
X83328376Y-118962058D01*
X83327565Y-118958519D01*
X83397032Y-118918271D01*
X83594763Y-118883006D01*
X83904753Y-118853916D01*
X84310998Y-118832192D01*
X84797494Y-118819024D01*
X85250366Y-118815446D01*
X85669746Y-118818002D01*
G37*
G36*
X84764733Y-109459540D02*
G01*
X85462878Y-109488657D01*
X86035171Y-109533336D01*
X86052540Y-109535161D01*
X86395500Y-109574797D01*
X86684483Y-109614258D01*
X86890121Y-109649108D01*
X86983050Y-109674908D01*
X86984290Y-109675958D01*
X87000662Y-109776659D01*
X86945199Y-109912540D01*
X86852652Y-110025889D01*
X86757769Y-110058992D01*
X86754372Y-110057814D01*
X86615291Y-110030815D01*
X86351946Y-110004185D01*
X85984394Y-109978582D01*
X85532688Y-109954666D01*
X85016883Y-109933097D01*
X84457035Y-109914534D01*
X83873197Y-109899636D01*
X83285426Y-109889062D01*
X82713775Y-109883473D01*
X82178300Y-109883526D01*
X81699055Y-109889882D01*
X81667906Y-109890585D01*
X81037080Y-109907881D01*
X80531831Y-109928865D01*
X80133422Y-109956052D01*
X79823115Y-109991959D01*
X79582174Y-110039102D01*
X79391862Y-110099997D01*
X79233442Y-110177161D01*
X79151528Y-110228514D01*
X79064138Y-110320371D01*
X79000024Y-110471685D01*
X78958215Y-110696593D01*
X78937742Y-111009231D01*
X78937633Y-111423734D01*
X78956919Y-111954238D01*
X78991303Y-112562411D01*
X79042543Y-114035710D01*
X79016558Y-115279651D01*
X78996901Y-115859431D01*
X78990575Y-116430941D01*
X78997487Y-116950930D01*
X79017544Y-117376148D01*
X79021168Y-117422888D01*
X79049975Y-117905433D01*
X79050348Y-118289879D01*
X79023192Y-118564089D01*
X78969414Y-118715925D01*
X78922591Y-118743287D01*
X78877998Y-118679523D01*
X78853795Y-118521422D01*
X78852442Y-118472690D01*
X78840003Y-118274956D01*
X78808052Y-117988175D01*
X78762737Y-117665320D01*
X78747780Y-117571320D01*
X78694371Y-117169333D01*
X78680801Y-116811729D01*
X78705450Y-116419203D01*
X78721238Y-116272456D01*
X78750771Y-115873580D01*
X78763807Y-115337842D01*
X78760294Y-114671755D01*
X78740181Y-113881835D01*
X78739870Y-113872548D01*
X78715080Y-113091764D01*
X78698011Y-112440714D01*
X78688829Y-111905015D01*
X78687702Y-111470280D01*
X78694797Y-111122125D01*
X78710281Y-110846164D01*
X78734320Y-110628013D01*
X78767083Y-110453286D01*
X78780199Y-110401365D01*
X78855511Y-110160652D01*
X78947992Y-109970604D01*
X79074961Y-109824366D01*
X79253741Y-109715079D01*
X79501654Y-109635887D01*
X79836021Y-109579932D01*
X80274164Y-109540358D01*
X80833405Y-109510308D01*
X81054554Y-109501028D01*
X82085646Y-109466731D01*
X83059071Y-109448461D01*
X83957782Y-109446103D01*
X84764733Y-109459540D01*
G37*
G36*
X83412604Y-111038859D02*
G01*
X83919999Y-111062353D01*
X84044251Y-111069381D01*
X84505168Y-111098280D01*
X84849372Y-111126680D01*
X85104382Y-111158940D01*
X85297721Y-111199420D01*
X85456910Y-111252481D01*
X85594478Y-111314968D01*
X85838626Y-111461252D01*
X85996005Y-111632241D01*
X86091713Y-111813760D01*
X86148623Y-111955613D01*
X86185651Y-112096673D01*
X86204835Y-112267242D01*
X86208217Y-112497623D01*
X86197836Y-112818118D01*
X86181572Y-113148703D01*
X86157907Y-113635963D01*
X86134196Y-114185448D01*
X86113403Y-114725171D01*
X86100044Y-115129016D01*
X86076944Y-115630351D01*
X86036064Y-116008723D01*
X85969774Y-116285133D01*
X85870448Y-116480578D01*
X85730457Y-116616057D01*
X85542174Y-116712570D01*
X85522013Y-116720282D01*
X85333282Y-116761979D01*
X85027426Y-116796167D01*
X84631457Y-116822616D01*
X84172384Y-116841096D01*
X83677218Y-116851375D01*
X83172969Y-116853223D01*
X82686647Y-116846409D01*
X82245263Y-116830703D01*
X81875827Y-116805874D01*
X81605349Y-116771691D01*
X81527452Y-116754406D01*
X81283417Y-116681535D01*
X81132196Y-116620511D01*
X81080274Y-116569987D01*
X81134138Y-116528617D01*
X81300272Y-116495055D01*
X81585161Y-116467957D01*
X81995290Y-116445974D01*
X82537145Y-116427763D01*
X83173174Y-116412864D01*
X83851547Y-116396577D01*
X84399932Y-116376993D01*
X84832653Y-116352438D01*
X85164031Y-116321240D01*
X85408387Y-116281723D01*
X85580046Y-116232216D01*
X85693327Y-116171043D01*
X85752362Y-116111471D01*
X85785990Y-115995209D01*
X85818243Y-115748267D01*
X85847903Y-115384283D01*
X85873753Y-114916895D01*
X85886290Y-114610204D01*
X85909335Y-113954058D01*
X85924302Y-113425673D01*
X85929083Y-113008612D01*
X85921569Y-112686442D01*
X85899652Y-112442727D01*
X85861223Y-112261033D01*
X85804172Y-112124924D01*
X85726392Y-112017966D01*
X85625774Y-111923725D01*
X85532147Y-111850046D01*
X85403625Y-111761888D01*
X85269018Y-111700772D01*
X85094332Y-111658681D01*
X84845571Y-111627599D01*
X84488742Y-111599511D01*
X84461769Y-111597651D01*
X83845266Y-111551402D01*
X83360314Y-111505221D01*
X82994170Y-111456614D01*
X82734091Y-111403083D01*
X82567332Y-111342131D01*
X82481150Y-111271263D01*
X82461656Y-111205823D01*
X82489808Y-111130243D01*
X82584149Y-111077036D01*
X82759509Y-111044922D01*
X83030717Y-111032622D01*
X83412604Y-111038859D01*
G37*
G36*
X76408059Y-114552881D02*
G01*
X76326906Y-114693374D01*
X76135617Y-114919714D01*
X76039123Y-115022431D01*
X75693972Y-115368691D01*
X75429284Y-115604111D01*
X75247022Y-115727123D01*
X75149145Y-115736162D01*
X75147403Y-115734526D01*
X75092494Y-115588306D01*
X75156741Y-115396472D01*
X75328294Y-115173954D01*
X75595305Y-114935684D01*
X75945926Y-114696593D01*
X75993508Y-114668291D01*
X76241079Y-114538157D01*
X76379356Y-114500414D01*
X76408059Y-114552881D01*
G37*
G36*
X87149060Y-123197373D02*
G01*
X87151997Y-123217151D01*
X87127377Y-123287434D01*
X87120176Y-123289310D01*
X87058569Y-123238745D01*
X87043758Y-123217151D01*
X87049479Y-123150657D01*
X87075579Y-123144992D01*
X87149060Y-123197373D01*
G37*
D14*
X103760000Y-118047500D02*
X108360000Y-118047500D01*
X108360000Y-118047500D02*
X109760000Y-118047500D01*
X108360000Y-128047500D02*
X108360000Y-118047500D01*
X117260000Y-118047500D02*
X117260000Y-128047500D01*
X108360000Y-128047500D02*
X103760000Y-128047500D01*
X109760000Y-118047500D02*
X117260000Y-118047500D01*
X109760000Y-128047500D02*
X109760000Y-118047500D01*
X103760000Y-128047500D02*
X103760000Y-118047500D01*
X117260000Y-128047500D02*
X109760000Y-128047500D01*
X109760000Y-128047500D02*
X108360000Y-128047500D01*
D11*
X105610000Y-128847500D02*
G75*
G03*
X105610000Y-128847500I-100000J0D01*
G01*
D15*
X87475000Y-149795000D02*
X88805000Y-149795000D01*
X86205000Y-149795000D02*
X75985000Y-149795000D01*
X88805000Y-152395000D02*
X88805000Y-154995000D01*
X86205000Y-149795000D02*
X86205000Y-152395000D01*
X88805000Y-149795000D02*
X88805000Y-151125000D01*
X86205000Y-152395000D02*
X88805000Y-152395000D01*
X75985000Y-149795000D02*
X75985000Y-154995000D01*
X88805000Y-154995000D02*
X75985000Y-154995000D01*
X88805000Y-162195000D02*
X75985000Y-162195000D01*
X75985000Y-156995000D02*
X75985000Y-162195000D01*
X86205000Y-159595000D02*
X88805000Y-159595000D01*
X88805000Y-156995000D02*
X88805000Y-158325000D01*
X86205000Y-156995000D02*
X86205000Y-159595000D01*
X88805000Y-159595000D02*
X88805000Y-162195000D01*
X86205000Y-156995000D02*
X75985000Y-156995000D01*
X87475000Y-156995000D02*
X88805000Y-156995000D01*
X107135000Y-152710000D02*
X107135000Y-154040000D01*
X104535000Y-152710000D02*
X104535000Y-155370000D01*
X104535000Y-155370000D02*
X96855000Y-155370000D01*
X105805000Y-152710000D02*
X107135000Y-152710000D01*
X104535000Y-152710000D02*
X96855000Y-152710000D01*
X96855000Y-152710000D02*
X96855000Y-155370000D01*
X52171000Y-133770000D02*
X54831000Y-133770000D01*
X54831000Y-128630000D02*
X54831000Y-133770000D01*
X52171000Y-127360000D02*
X52171000Y-126030000D01*
X52171000Y-128630000D02*
X52171000Y-133770000D01*
X52171000Y-128630000D02*
X54831000Y-128630000D01*
X52171000Y-126030000D02*
X53501000Y-126030000D01*
X54831000Y-122280000D02*
X54831000Y-123610000D01*
X54831000Y-123610000D02*
X53501000Y-123610000D01*
X54831000Y-121010000D02*
X54831000Y-110790000D01*
X54831000Y-110790000D02*
X52171000Y-110790000D01*
X52171000Y-121010000D02*
X52171000Y-110790000D01*
X54831000Y-121010000D02*
X52171000Y-121010000D01*
X103850000Y-116706000D02*
X103850000Y-114606000D01*
X118550000Y-116706000D02*
X103850000Y-116706000D01*
X118550000Y-107506000D02*
X118550000Y-116706000D01*
X103550000Y-115306000D02*
X103550000Y-117006000D01*
X103850000Y-107506000D02*
X105650000Y-107506000D01*
X110050000Y-107506000D02*
X118550000Y-107506000D01*
X103550000Y-117006000D02*
X105150000Y-117006000D01*
X103850000Y-109606000D02*
X103850000Y-107506000D01*
%LPC*%
D16*
X105960000Y-126797500D03*
D17*
X105960000Y-124297500D03*
X105960000Y-121797500D03*
X105960000Y-119297500D03*
D18*
X87475000Y-151125000D03*
D19*
X87475000Y-153665000D03*
X84935000Y-151125000D03*
X84935000Y-153665000D03*
X82395000Y-151125000D03*
X82395000Y-153665000D03*
X79855000Y-151125000D03*
X79855000Y-153665000D03*
X77315000Y-151125000D03*
X77315000Y-153665000D03*
X77315000Y-160865000D03*
X77315000Y-158325000D03*
X79855000Y-160865000D03*
X79855000Y-158325000D03*
X82395000Y-160865000D03*
X82395000Y-158325000D03*
X84935000Y-160865000D03*
X84935000Y-158325000D03*
X87475000Y-160865000D03*
D18*
X87475000Y-158325000D03*
D20*
X53500000Y-103500000D03*
X111500000Y-103500000D03*
X111540000Y-152500000D03*
D18*
X105805000Y-154040000D03*
D19*
X103265000Y-154040000D03*
X100725000Y-154040000D03*
X98185000Y-154040000D03*
D20*
X53500000Y-152500000D03*
D18*
X53501000Y-127360000D03*
D19*
X53501000Y-129900000D03*
X53501000Y-132440000D03*
D18*
X53501000Y-122280000D03*
D19*
X53501000Y-119740000D03*
X53501000Y-117200000D03*
X53501000Y-114660000D03*
X53501000Y-112120000D03*
D21*
X104850000Y-112106000D03*
D22*
X110650000Y-112106000D03*
D23*
X107850000Y-107306000D03*
D18*
X58300000Y-104770000D03*
D19*
X58300000Y-102230000D03*
X60840000Y-104770000D03*
X60840000Y-102230000D03*
X63380000Y-104770000D03*
X63380000Y-102230000D03*
X65920000Y-104770000D03*
X65920000Y-102230000D03*
X68460000Y-104770000D03*
X68460000Y-102230000D03*
X71000000Y-104770000D03*
X71000000Y-102230000D03*
X73540000Y-104770000D03*
X73540000Y-102230000D03*
X76080000Y-104770000D03*
X76080000Y-102230000D03*
X78620000Y-104770000D03*
X78620000Y-102230000D03*
X81160000Y-104770000D03*
X81160000Y-102230000D03*
X83700000Y-104770000D03*
X83700000Y-102230000D03*
X86240000Y-104770000D03*
X86240000Y-102230000D03*
X88780000Y-104770000D03*
X88780000Y-102230000D03*
X91320000Y-104770000D03*
X91320000Y-102230000D03*
X93860000Y-104770000D03*
X93860000Y-102230000D03*
X96400000Y-104770000D03*
X96400000Y-102230000D03*
X98940000Y-104770000D03*
X98940000Y-102230000D03*
X101480000Y-104770000D03*
X101480000Y-102230000D03*
X104020000Y-104770000D03*
X104020000Y-102230000D03*
X106560000Y-104770000D03*
X106560000Y-102230000D03*
D18*
X56041000Y-124820000D03*
D19*
X56041000Y-127360000D03*
X56041000Y-129900000D03*
X56041000Y-132440000D03*
D18*
X53501000Y-136195000D03*
D19*
X53501000Y-138735000D03*
X53501000Y-141275000D03*
M02*
