M48
; DRILL file {KiCad (6.0.4)} date Tue Jul 19 21:48:54 2022
; FORMAT={-:-/ absolute / metric / decimal}
; #@! TF.CreationDate,2022-07-19T21:48:54-05:00
; #@! TF.GenerationSoftware,Kicad,Pcbnew,(6.0.4)
; #@! TF.FileFunction,Plated,1,2,PTH
FMAT,2
METRIC
; #@! TA.AperFunction,Plated,PTH,ViaDrill
T1C0.400
; #@! TA.AperFunction,Plated,PTH,ComponentDrill
T2C0.800
; #@! TA.AperFunction,Plated,PTH,ComponentDrill
T3C0.900
; #@! TA.AperFunction,Plated,PTH,ComponentDrill
T4C1.000
%
G90
G05
T1
X51.2Y-107.3
X54.67Y-109.599
X55.5Y-107.4
X60.71Y-143.14
X63.87Y-135.75
X64.13Y-123.02
X64.528Y-131.99
X64.9Y-113.48
X74.33Y-153.71
X74.35Y-151.0
X74.57Y-114.19
X74.89Y-139.53
X77.57Y-155.96
X79.66Y-156.0
X83.255Y-111.797
X85.01Y-156.07
X87.2Y-122.4
X87.37Y-155.99
X87.7Y-133.9
X89.1Y-135.5
X90.09Y-150.53
X90.1Y-107.6
X90.11Y-153.72
X90.4Y-114.7
X91.5Y-121.6
X92.11Y-128.18
X93.53Y-141.91
X93.6Y-112.9
X95.84Y-135.09
X99.1Y-135.5
T3
X105.96Y-119.297
X105.96Y-121.797
X105.96Y-124.297
X105.96Y-126.797
T4
X53.501Y-112.12
X53.501Y-114.66
X53.501Y-117.2
X53.501Y-119.74
X53.501Y-122.28
X53.501Y-127.36
X53.501Y-129.9
X53.501Y-132.44
X53.501Y-136.195
X53.501Y-138.735
X53.501Y-141.275
X56.041Y-124.82
X56.041Y-127.36
X56.041Y-129.9
X56.041Y-132.44
X58.3Y-102.23
X58.3Y-104.77
X60.84Y-102.23
X60.84Y-104.77
X63.38Y-102.23
X63.38Y-104.77
X65.92Y-102.23
X65.92Y-104.77
X68.46Y-102.23
X68.46Y-104.77
X71.0Y-102.23
X71.0Y-104.77
X73.54Y-102.23
X73.54Y-104.77
X76.08Y-102.23
X76.08Y-104.77
X77.315Y-151.125
X77.315Y-153.665
X77.315Y-158.325
X77.315Y-160.865
X78.62Y-102.23
X78.62Y-104.77
X79.855Y-151.125
X79.855Y-153.665
X79.855Y-158.325
X79.855Y-160.865
X81.16Y-102.23
X81.16Y-104.77
X82.395Y-151.125
X82.395Y-153.665
X82.395Y-158.325
X82.395Y-160.865
X83.7Y-102.23
X83.7Y-104.77
X84.935Y-151.125
X84.935Y-153.665
X84.935Y-158.325
X84.935Y-160.865
X86.24Y-102.23
X86.24Y-104.77
X87.475Y-151.125
X87.475Y-153.665
X87.475Y-158.325
X87.475Y-160.865
X88.78Y-102.23
X88.78Y-104.77
X91.32Y-102.23
X91.32Y-104.77
X93.86Y-102.23
X93.86Y-104.77
X96.4Y-102.23
X96.4Y-104.77
X98.185Y-154.04
X98.94Y-102.23
X98.94Y-104.77
X100.725Y-154.04
X101.48Y-102.23
X101.48Y-104.77
X103.265Y-154.04
X104.02Y-102.23
X104.02Y-104.77
X105.805Y-154.04
X106.56Y-102.23
X106.56Y-104.77
T2
X104.85Y-113.406G85X104.85Y-110.806
G05
X108.95Y-107.306G85X106.75Y-107.306
G05
X110.65Y-113.206G85X110.65Y-111.006
G05
T0
M30
