M48
; DRILL file {KiCad (6.0.5-0)} date Monday, July 04, 2022 at 07:17:55 PM
; FORMAT={-:-/ absolute / metric / decimal}
; #@! TF.CreationDate,2022-07-04T19:17:55-05:00
; #@! TF.GenerationSoftware,Kicad,Pcbnew,(6.0.5-0)
; #@! TF.FileFunction,Plated,1,2,PTH
FMAT,2
METRIC
; #@! TA.AperFunction,Plated,PTH,ViaDrill
T1C0.400
; #@! TA.AperFunction,Plated,PTH,ViaDrill
T2C0.600
; #@! TA.AperFunction,Plated,PTH,ComponentDrill
T3C0.800
; #@! TA.AperFunction,Plated,PTH,ComponentDrill
T4C0.900
; #@! TA.AperFunction,Plated,PTH,ComponentDrill
T5C1.000
%
G90
G05
T1
X51.2Y-107.3
X54.67Y-109.599
X55.5Y-107.4
X56.8Y-109.0
X59.3Y-107.7
X62.0Y-118.5
X62.796Y-134.434
X63.3Y-135.8
X64.001Y-125.698
X64.976Y-133.514
X65.5Y-110.6
X66.548Y-124.206
X67.206Y-137.164
X67.226Y-133.094
X68.3Y-108.4
X68.3Y-112.2
X68.9Y-115.6
X69.0Y-121.7
X69.88Y-129.725
X70.1Y-130.7
X70.2Y-123.1
X70.6Y-126.0
X71.0Y-113.2
X71.5Y-115.9
X71.762Y-125.438
X72.2Y-121.6
X73.04Y-130.334
X73.5Y-126.5
X74.1Y-124.2
X74.45Y-114.338
X74.93Y-117.094
X75.499Y-114.271
X76.2Y-132.7
X76.488Y-114.419
X76.6Y-129.5
X76.6Y-137.4
X76.7Y-124.7
X77.316Y-130.61
X77.5Y-114.3
X78.2Y-118.6
X78.4Y-111.4
X78.769Y-113.522
X79.2Y-114.5
X80.1Y-137.5
X80.2Y-122.7
X82.0Y-111.9
X82.296Y-137.922
X82.4Y-124.7
X83.255Y-111.797
X84.7Y-138.9
X84.836Y-149.352
X85.598Y-148.59
X86.614Y-148.082
X87.2Y-122.4
X87.7Y-133.9
X89.1Y-135.5
X90.1Y-107.6
X90.4Y-114.7
X90.63Y-127.12
X91.5Y-121.6
X91.9Y-127.6
X93.6Y-112.9
X94.68Y-125.26
X95.84Y-135.09
X99.1Y-135.5
X103.8Y-130.7
X105.6Y-130.5
X106.04Y-129.31
T2
X88.0Y-107.3
X89.1Y-137.1
X93.218Y-117.602
X95.99Y-120.03
X97.34Y-115.58
T4
X105.96Y-119.297
X105.96Y-121.797
X105.96Y-124.297
X105.96Y-126.797
T5
X53.501Y-112.12
X53.501Y-114.66
X53.501Y-117.2
X53.501Y-119.74
X53.501Y-122.28
X53.501Y-127.36
X53.501Y-129.9
X53.501Y-132.44
X53.824Y-143.4
X56.041Y-124.82
X56.041Y-127.36
X56.041Y-129.9
X56.041Y-132.44
X58.3Y-102.23
X58.3Y-104.77
X58.824Y-143.4
X60.84Y-102.23
X60.84Y-104.77
X63.38Y-102.23
X63.38Y-104.77
X65.92Y-102.23
X65.92Y-104.77
X66.882Y-143.4
X68.46Y-102.23
X68.46Y-104.77
X71.0Y-102.23
X71.0Y-104.77
X71.882Y-143.4
X73.54Y-102.23
X73.54Y-104.77
X76.08Y-102.23
X76.08Y-104.77
X78.62Y-102.23
X78.62Y-104.77
X79.941Y-143.4
X81.16Y-102.23
X81.16Y-104.77
X83.7Y-102.23
X83.7Y-104.77
X84.468Y-117.222
X84.468Y-119.762
X84.468Y-122.302
X84.941Y-143.4
X86.24Y-102.23
X86.24Y-104.77
X88.78Y-102.23
X88.78Y-104.77
X91.32Y-102.23
X91.32Y-104.77
X92.999Y-143.4
X93.86Y-102.23
X93.86Y-104.77
X96.4Y-102.23
X96.4Y-104.77
X97.999Y-143.4
X98.185Y-154.04
X98.94Y-102.23
X98.94Y-104.77
X100.725Y-154.04
X101.48Y-102.23
X101.48Y-104.77
X103.265Y-154.04
X104.02Y-102.23
X104.02Y-104.77
X105.805Y-154.04
X106.058Y-143.4
X106.56Y-102.23
X106.56Y-104.77
X111.058Y-143.4
T3
X104.85Y-113.406G85X104.85Y-110.806
G05
X108.95Y-107.306G85X106.75Y-107.306
G05
X110.65Y-113.206G85X110.65Y-111.006
G05
T0
M30
